G75*
G70*
%OFA0B0*%
%FSLAX24Y24*%
%IPPOS*%
%LPD*%
%AMOC8*
5,1,8,0,0,1.08239X$1,22.5*
%
%ADD10C,0.0001*%
%ADD11C,0.0000*%
%ADD12R,0.0780X0.0220*%
%ADD13R,0.0787X0.0945*%
%ADD14R,0.0197X0.1181*%
%ADD15R,0.0315X0.0472*%
%ADD16R,0.0472X0.0315*%
%ADD17R,0.0551X0.1102*%
%ADD18R,0.0551X0.0472*%
%ADD19R,0.1102X0.0551*%
%ADD20R,0.0472X0.0551*%
%ADD21C,0.0700*%
%ADD22R,0.0760X0.2100*%
%ADD23R,0.0512X0.0591*%
%ADD24R,0.0591X0.0512*%
%ADD25C,0.0148*%
%ADD26R,0.0866X0.0394*%
%ADD27C,0.0240*%
%ADD28C,0.0500*%
%ADD29C,0.0400*%
%ADD30C,0.0100*%
%ADD31C,0.0160*%
%ADD32C,0.0240*%
%ADD33C,0.0080*%
%ADD34R,0.0240X0.0240*%
D10*
X000504Y001685D02*
X000504Y019008D01*
X000506Y019074D01*
X000511Y019140D01*
X000521Y019206D01*
X000534Y019271D01*
X000550Y019335D01*
X000570Y019398D01*
X000594Y019460D01*
X000621Y019520D01*
X000651Y019579D01*
X000685Y019636D01*
X000722Y019691D01*
X000762Y019744D01*
X000804Y019795D01*
X000850Y019843D01*
X000898Y019889D01*
X000949Y019931D01*
X001002Y019971D01*
X001057Y020008D01*
X001114Y020042D01*
X001173Y020072D01*
X001233Y020099D01*
X001295Y020123D01*
X001358Y020143D01*
X001422Y020159D01*
X001487Y020172D01*
X001553Y020182D01*
X001619Y020187D01*
X001685Y020189D01*
X019008Y020189D01*
X019074Y020187D01*
X019140Y020182D01*
X019206Y020172D01*
X019271Y020159D01*
X019335Y020143D01*
X019398Y020123D01*
X019460Y020099D01*
X019520Y020072D01*
X019579Y020042D01*
X019636Y020008D01*
X019691Y019971D01*
X019744Y019931D01*
X019795Y019889D01*
X019843Y019843D01*
X019889Y019795D01*
X019931Y019744D01*
X019971Y019691D01*
X020008Y019636D01*
X020042Y019579D01*
X020072Y019520D01*
X020099Y019460D01*
X020123Y019398D01*
X020143Y019335D01*
X020159Y019271D01*
X020172Y019206D01*
X020182Y019140D01*
X020187Y019074D01*
X020189Y019008D01*
X020189Y001685D01*
X020187Y001619D01*
X020182Y001553D01*
X020172Y001487D01*
X020159Y001422D01*
X020143Y001358D01*
X020123Y001295D01*
X020099Y001233D01*
X020072Y001173D01*
X020042Y001114D01*
X020008Y001057D01*
X019971Y001002D01*
X019931Y000949D01*
X019889Y000898D01*
X019843Y000850D01*
X019795Y000804D01*
X019744Y000762D01*
X019691Y000722D01*
X019636Y000685D01*
X019579Y000651D01*
X019520Y000621D01*
X019460Y000594D01*
X019398Y000570D01*
X019335Y000550D01*
X019271Y000534D01*
X019206Y000521D01*
X019140Y000511D01*
X019074Y000506D01*
X019008Y000504D01*
X001685Y000504D01*
X001619Y000506D01*
X001553Y000511D01*
X001487Y000521D01*
X001422Y000534D01*
X001358Y000550D01*
X001295Y000570D01*
X001233Y000594D01*
X001173Y000621D01*
X001114Y000651D01*
X001057Y000685D01*
X001002Y000722D01*
X000949Y000762D01*
X000898Y000804D01*
X000850Y000850D01*
X000804Y000898D01*
X000762Y000949D01*
X000722Y001002D01*
X000685Y001057D01*
X000651Y001114D01*
X000621Y001173D01*
X000594Y001233D01*
X000570Y001295D01*
X000550Y001358D01*
X000534Y001422D01*
X000521Y001487D01*
X000511Y001553D01*
X000506Y001619D01*
X000504Y001685D01*
D11*
X006351Y003260D02*
X006353Y003286D01*
X006359Y003312D01*
X006369Y003337D01*
X006382Y003360D01*
X006398Y003380D01*
X006418Y003398D01*
X006440Y003413D01*
X006463Y003425D01*
X006489Y003433D01*
X006515Y003437D01*
X006541Y003437D01*
X006567Y003433D01*
X006593Y003425D01*
X006617Y003413D01*
X006638Y003398D01*
X006658Y003380D01*
X006674Y003360D01*
X006687Y003337D01*
X006697Y003312D01*
X006703Y003286D01*
X006705Y003260D01*
X006703Y003234D01*
X006697Y003208D01*
X006687Y003183D01*
X006674Y003160D01*
X006658Y003140D01*
X006638Y003122D01*
X006616Y003107D01*
X006593Y003095D01*
X006567Y003087D01*
X006541Y003083D01*
X006515Y003083D01*
X006489Y003087D01*
X006463Y003095D01*
X006439Y003107D01*
X006418Y003122D01*
X006398Y003140D01*
X006382Y003160D01*
X006369Y003183D01*
X006359Y003208D01*
X006353Y003234D01*
X006351Y003260D01*
X008083Y003260D02*
X008085Y003286D01*
X008091Y003312D01*
X008101Y003337D01*
X008114Y003360D01*
X008130Y003380D01*
X008150Y003398D01*
X008172Y003413D01*
X008195Y003425D01*
X008221Y003433D01*
X008247Y003437D01*
X008273Y003437D01*
X008299Y003433D01*
X008325Y003425D01*
X008349Y003413D01*
X008370Y003398D01*
X008390Y003380D01*
X008406Y003360D01*
X008419Y003337D01*
X008429Y003312D01*
X008435Y003286D01*
X008437Y003260D01*
X008435Y003234D01*
X008429Y003208D01*
X008419Y003183D01*
X008406Y003160D01*
X008390Y003140D01*
X008370Y003122D01*
X008348Y003107D01*
X008325Y003095D01*
X008299Y003087D01*
X008273Y003083D01*
X008247Y003083D01*
X008221Y003087D01*
X008195Y003095D01*
X008171Y003107D01*
X008150Y003122D01*
X008130Y003140D01*
X008114Y003160D01*
X008101Y003183D01*
X008091Y003208D01*
X008085Y003234D01*
X008083Y003260D01*
X011753Y015504D02*
X011753Y015505D01*
X011754Y015505D01*
X011755Y015505D01*
X011755Y015504D01*
X011755Y015503D01*
X011754Y015503D01*
X011753Y015503D01*
X011753Y015504D01*
X012753Y015504D02*
X012753Y015505D01*
X012754Y015505D01*
X012755Y015505D01*
X012755Y015504D01*
X012755Y015503D01*
X012754Y015503D01*
X012753Y015503D01*
X012753Y015504D01*
X013753Y015504D02*
X013753Y015505D01*
X013754Y015505D01*
X013755Y015505D01*
X013755Y015504D01*
X013755Y015503D01*
X013754Y015503D01*
X013753Y015503D01*
X013753Y015504D01*
X014753Y015504D02*
X014753Y015505D01*
X014754Y015505D01*
X014755Y015505D01*
X014755Y015504D01*
X014755Y015503D01*
X014754Y015503D01*
X014753Y015503D01*
X014753Y015504D01*
X015753Y015504D02*
X015753Y015505D01*
X015754Y015505D01*
X015755Y015505D01*
X015755Y015504D01*
X015755Y015503D01*
X015754Y015503D01*
X015753Y015503D01*
X015753Y015504D01*
X008003Y016504D02*
X008003Y016505D01*
X008004Y016505D01*
X008005Y016505D01*
X008005Y016504D01*
X008005Y016503D01*
X008004Y016503D01*
X008003Y016503D01*
X008003Y016504D01*
X007003Y016504D02*
X007003Y016505D01*
X007004Y016505D01*
X007005Y016505D01*
X007005Y016504D01*
X007005Y016503D01*
X007004Y016503D01*
X007003Y016503D01*
X007003Y016504D01*
X006003Y016504D02*
X006003Y016505D01*
X006004Y016505D01*
X006005Y016505D01*
X006005Y016504D01*
X006005Y016503D01*
X006004Y016503D01*
X006003Y016503D01*
X006003Y016504D01*
X005003Y016504D02*
X005003Y016505D01*
X005004Y016505D01*
X005005Y016505D01*
X005005Y016504D01*
X005005Y016503D01*
X005004Y016503D01*
X005003Y016503D01*
X005003Y016504D01*
X004003Y016504D02*
X004003Y016505D01*
X004004Y016505D01*
X004005Y016505D01*
X004005Y016504D01*
X004005Y016503D01*
X004004Y016503D01*
X004003Y016503D01*
X004003Y016504D01*
D12*
X004804Y015254D03*
X004804Y014754D03*
X004804Y014254D03*
X004804Y013754D03*
X004804Y013254D03*
X004804Y012754D03*
X004804Y012254D03*
X006744Y012254D03*
X006744Y012754D03*
X006744Y013254D03*
X006744Y013754D03*
X006744Y014254D03*
X006744Y014754D03*
X006744Y015254D03*
X010994Y014256D03*
X010994Y013756D03*
X010994Y013256D03*
X010994Y012756D03*
X010994Y012256D03*
X010994Y011756D03*
X010994Y011256D03*
X010994Y010756D03*
X010994Y010256D03*
X010994Y009756D03*
X010994Y009256D03*
X010994Y008756D03*
X010994Y008256D03*
X010994Y007756D03*
X014554Y007756D03*
X014554Y008256D03*
X014554Y008756D03*
X014554Y009256D03*
X014554Y009756D03*
X014554Y010256D03*
X014554Y010756D03*
X014554Y011256D03*
X014554Y011756D03*
X014554Y012256D03*
X014554Y012756D03*
X014554Y013256D03*
X014554Y013756D03*
X014554Y014256D03*
D13*
X009126Y004244D03*
X009126Y002669D03*
X005661Y002669D03*
X005661Y004244D03*
D14*
X006764Y004545D03*
X007079Y004545D03*
X007394Y004545D03*
X007709Y004545D03*
X008024Y004545D03*
D15*
X007920Y014004D03*
X008628Y014004D03*
X008628Y014754D03*
X007920Y014754D03*
X007920Y015504D03*
X008628Y015504D03*
D16*
X002754Y016380D03*
X002754Y017088D03*
D17*
X010936Y015444D03*
D18*
X009912Y015877D03*
X009912Y015011D03*
D19*
X007784Y010312D03*
X005754Y010242D03*
X005824Y008212D03*
D20*
X006257Y009236D03*
X005391Y009236D03*
X005321Y011266D03*
X006187Y011266D03*
X007351Y011336D03*
X008217Y011336D03*
D21*
X001794Y010346D02*
X001094Y010346D01*
X001094Y016252D02*
X001794Y016252D01*
X004441Y018898D02*
X004441Y019598D01*
X010346Y019598D02*
X010346Y018898D01*
X016252Y018898D02*
X016252Y019598D01*
X018898Y016252D02*
X019598Y016252D01*
X019598Y010346D02*
X018898Y010346D01*
X018898Y004441D02*
X019598Y004441D01*
X016252Y001794D02*
X016252Y001094D01*
X010346Y001094D02*
X010346Y001794D01*
X004441Y001794D02*
X004441Y001094D01*
X001794Y004441D02*
X001094Y004441D01*
D22*
X016254Y008354D03*
X016254Y012154D03*
D23*
X016130Y014004D03*
X016878Y014004D03*
X016878Y006504D03*
X016130Y006504D03*
X009218Y006004D03*
X008470Y006004D03*
D24*
X009754Y009630D03*
X009754Y010378D03*
X013794Y006748D03*
X013794Y006000D03*
X014764Y006000D03*
X014764Y006748D03*
X017064Y015740D03*
X017064Y016488D03*
X004484Y006668D03*
X004484Y005920D03*
X004114Y010950D03*
X004114Y011698D03*
D25*
X004225Y016922D02*
X003783Y016922D01*
X004225Y016922D02*
X004225Y016086D01*
X003783Y016086D01*
X003783Y016922D01*
X003783Y016233D02*
X004225Y016233D01*
X004225Y016380D02*
X003783Y016380D01*
X003783Y016527D02*
X004225Y016527D01*
X004225Y016674D02*
X003783Y016674D01*
X003783Y016821D02*
X004225Y016821D01*
X004783Y016922D02*
X005225Y016922D01*
X005225Y016086D01*
X004783Y016086D01*
X004783Y016922D01*
X004783Y016233D02*
X005225Y016233D01*
X005225Y016380D02*
X004783Y016380D01*
X004783Y016527D02*
X005225Y016527D01*
X005225Y016674D02*
X004783Y016674D01*
X004783Y016821D02*
X005225Y016821D01*
X005783Y016922D02*
X006225Y016922D01*
X006225Y016086D01*
X005783Y016086D01*
X005783Y016922D01*
X005783Y016233D02*
X006225Y016233D01*
X006225Y016380D02*
X005783Y016380D01*
X005783Y016527D02*
X006225Y016527D01*
X006225Y016674D02*
X005783Y016674D01*
X005783Y016821D02*
X006225Y016821D01*
X006783Y016922D02*
X007225Y016922D01*
X007225Y016086D01*
X006783Y016086D01*
X006783Y016922D01*
X006783Y016233D02*
X007225Y016233D01*
X007225Y016380D02*
X006783Y016380D01*
X006783Y016527D02*
X007225Y016527D01*
X007225Y016674D02*
X006783Y016674D01*
X006783Y016821D02*
X007225Y016821D01*
X007783Y016922D02*
X008225Y016922D01*
X008225Y016086D01*
X007783Y016086D01*
X007783Y016922D01*
X007783Y016233D02*
X008225Y016233D01*
X008225Y016380D02*
X007783Y016380D01*
X007783Y016527D02*
X008225Y016527D01*
X008225Y016674D02*
X007783Y016674D01*
X007783Y016821D02*
X008225Y016821D01*
X011533Y015086D02*
X011975Y015086D01*
X011533Y015086D02*
X011533Y015922D01*
X011975Y015922D01*
X011975Y015086D01*
X011975Y015233D02*
X011533Y015233D01*
X011533Y015380D02*
X011975Y015380D01*
X011975Y015527D02*
X011533Y015527D01*
X011533Y015674D02*
X011975Y015674D01*
X011975Y015821D02*
X011533Y015821D01*
X012533Y015086D02*
X012975Y015086D01*
X012533Y015086D02*
X012533Y015922D01*
X012975Y015922D01*
X012975Y015086D01*
X012975Y015233D02*
X012533Y015233D01*
X012533Y015380D02*
X012975Y015380D01*
X012975Y015527D02*
X012533Y015527D01*
X012533Y015674D02*
X012975Y015674D01*
X012975Y015821D02*
X012533Y015821D01*
X013533Y015086D02*
X013975Y015086D01*
X013533Y015086D02*
X013533Y015922D01*
X013975Y015922D01*
X013975Y015086D01*
X013975Y015233D02*
X013533Y015233D01*
X013533Y015380D02*
X013975Y015380D01*
X013975Y015527D02*
X013533Y015527D01*
X013533Y015674D02*
X013975Y015674D01*
X013975Y015821D02*
X013533Y015821D01*
X014533Y015086D02*
X014975Y015086D01*
X014533Y015086D02*
X014533Y015922D01*
X014975Y015922D01*
X014975Y015086D01*
X014975Y015233D02*
X014533Y015233D01*
X014533Y015380D02*
X014975Y015380D01*
X014975Y015527D02*
X014533Y015527D01*
X014533Y015674D02*
X014975Y015674D01*
X014975Y015821D02*
X014533Y015821D01*
X015533Y015086D02*
X015975Y015086D01*
X015533Y015086D02*
X015533Y015922D01*
X015975Y015922D01*
X015975Y015086D01*
X015975Y015233D02*
X015533Y015233D01*
X015533Y015380D02*
X015975Y015380D01*
X015975Y015527D02*
X015533Y015527D01*
X015533Y015674D02*
X015975Y015674D01*
X015975Y015821D02*
X015533Y015821D01*
D26*
X009763Y008510D03*
X009763Y006738D03*
X007085Y006738D03*
X007085Y008510D03*
D27*
X006744Y006024D02*
X006764Y005764D01*
X006764Y004545D01*
X006744Y004264D02*
X006504Y004264D01*
X004804Y012254D02*
X004104Y012254D01*
X003544Y012254D01*
X002904Y012274D01*
X001094Y016252D02*
X001094Y016264D01*
X019598Y016184D02*
X019598Y016252D01*
D28*
X019598Y016184D02*
X018024Y016184D01*
X018024Y004744D01*
X016264Y002984D01*
X016264Y001106D01*
X016252Y001094D01*
X012313Y001094D01*
X009864Y003544D01*
X004984Y005144D02*
X004504Y005144D01*
X002904Y005144D01*
X002104Y005944D01*
X002104Y008664D01*
X002904Y009464D01*
X002904Y012274D01*
X002904Y013054D01*
X001254Y014704D01*
X001254Y016254D01*
X001096Y016254D01*
X001094Y016252D01*
X001144Y016301D01*
X001144Y018264D01*
X001884Y019004D01*
X003754Y019004D01*
X003754Y018004D01*
X003784Y017944D02*
X007064Y017944D01*
X016264Y017944D01*
X017224Y017944D01*
X018024Y017144D01*
X018024Y016504D01*
X018024Y016184D01*
X016264Y017944D02*
X016264Y019598D01*
X016252Y019598D01*
X002904Y009464D02*
X002904Y009384D01*
D29*
X009704Y005144D02*
X009864Y004984D01*
X009864Y003544D01*
X019598Y016252D02*
X019624Y016277D01*
D30*
X010024Y005384D02*
X007990Y005384D01*
X007918Y005354D01*
X007899Y005354D01*
X007899Y005284D01*
X007905Y005285D01*
X008023Y005285D01*
X008023Y004545D01*
X008024Y004545D01*
X008272Y004545D01*
X008272Y005155D01*
X008262Y005193D01*
X008242Y005228D01*
X008214Y005255D01*
X008180Y005275D01*
X008142Y005285D01*
X008024Y005285D01*
X008024Y004545D01*
X008024Y004545D01*
X008272Y004545D01*
X008272Y003935D01*
X008262Y003896D01*
X008242Y003862D01*
X008214Y003834D01*
X008180Y003815D01*
X008142Y003804D01*
X008024Y003804D01*
X008024Y004544D01*
X008023Y004544D01*
X008024Y004544D01*
X008023Y004544D02*
X008023Y003804D01*
X007905Y003804D01*
X007877Y003812D01*
X007869Y003804D01*
X007554Y003804D01*
X007239Y003804D01*
X006924Y003804D01*
X006603Y003804D01*
X006515Y003892D01*
X006515Y003994D01*
X006450Y003994D01*
X006322Y003994D01*
X006234Y004082D01*
X006234Y004210D01*
X006234Y004318D01*
X006234Y004446D01*
X006322Y004534D01*
X006450Y004534D01*
X006494Y004534D01*
X006494Y005384D01*
X004264Y005384D01*
X004264Y002824D01*
X005118Y002824D01*
X005118Y003204D01*
X005206Y003292D01*
X006117Y003292D01*
X006200Y003209D01*
X006200Y003325D01*
X006250Y003445D01*
X006342Y003537D01*
X006462Y003587D01*
X006593Y003587D01*
X006713Y003537D01*
X006805Y003445D01*
X006855Y003325D01*
X006855Y003195D01*
X006805Y003074D01*
X006713Y002982D01*
X006593Y002933D01*
X006462Y002933D01*
X006342Y002982D01*
X006250Y003074D01*
X006205Y003184D01*
X006205Y002824D01*
X008582Y002824D01*
X008582Y003184D01*
X008537Y003074D01*
X008445Y002982D01*
X008325Y002933D01*
X008195Y002933D01*
X008074Y002982D01*
X007982Y003074D01*
X007933Y003195D01*
X007933Y003325D01*
X007982Y003445D01*
X008074Y003537D01*
X008195Y003587D01*
X008325Y003587D01*
X008445Y003537D01*
X008537Y003445D01*
X008587Y003325D01*
X008587Y003209D01*
X008670Y003292D01*
X009582Y003292D01*
X009670Y003204D01*
X009670Y002824D01*
X009944Y002824D01*
X009994Y004425D01*
X009994Y004446D01*
X009995Y004447D01*
X010024Y005384D01*
X010022Y005333D02*
X007899Y005333D01*
X008023Y005234D02*
X008024Y005234D01*
X008023Y005135D02*
X008024Y005135D01*
X008023Y005037D02*
X008024Y005037D01*
X008023Y004938D02*
X008024Y004938D01*
X008023Y004840D02*
X008024Y004840D01*
X008023Y004741D02*
X008024Y004741D01*
X008023Y004643D02*
X008024Y004643D01*
X008023Y004446D02*
X008024Y004446D01*
X008023Y004347D02*
X008024Y004347D01*
X008023Y004249D02*
X008024Y004249D01*
X008023Y004150D02*
X008024Y004150D01*
X008023Y004051D02*
X008024Y004051D01*
X008023Y003953D02*
X008024Y003953D01*
X008023Y003854D02*
X008024Y003854D01*
X008234Y003854D02*
X008582Y003854D01*
X008582Y003756D02*
X006205Y003756D01*
X006205Y003709D02*
X006205Y004779D01*
X006117Y004866D01*
X005206Y004866D01*
X005118Y004779D01*
X005118Y003709D01*
X005206Y003622D01*
X006117Y003622D01*
X006205Y003709D01*
X006153Y003657D02*
X008634Y003657D01*
X008670Y003622D02*
X009582Y003622D01*
X009670Y003709D01*
X009670Y004779D01*
X009582Y004866D01*
X008670Y004866D01*
X008582Y004779D01*
X008582Y003709D01*
X008670Y003622D01*
X008522Y003460D02*
X009964Y003460D01*
X009961Y003362D02*
X008572Y003362D01*
X008587Y003263D02*
X008642Y003263D01*
X008582Y003165D02*
X008574Y003165D01*
X008582Y003066D02*
X008529Y003066D01*
X008582Y002968D02*
X008409Y002968D01*
X008582Y002869D02*
X006205Y002869D01*
X006205Y002968D02*
X006378Y002968D01*
X006259Y003066D02*
X006205Y003066D01*
X006205Y003165D02*
X006213Y003165D01*
X006200Y003263D02*
X006146Y003263D01*
X006216Y003362D02*
X004264Y003362D01*
X004264Y003460D02*
X006265Y003460D01*
X006394Y003559D02*
X004264Y003559D01*
X004264Y003657D02*
X005170Y003657D01*
X005118Y003756D02*
X004264Y003756D01*
X004264Y003854D02*
X005118Y003854D01*
X005118Y003953D02*
X004264Y003953D01*
X004264Y004051D02*
X005118Y004051D01*
X005118Y004150D02*
X004264Y004150D01*
X004264Y004249D02*
X005118Y004249D01*
X005118Y004347D02*
X004264Y004347D01*
X004264Y004446D02*
X005118Y004446D01*
X005118Y004544D02*
X004264Y004544D01*
X004264Y004643D02*
X005118Y004643D01*
X005118Y004741D02*
X004264Y004741D01*
X004264Y004840D02*
X005179Y004840D01*
X006144Y004840D02*
X006494Y004840D01*
X006494Y004938D02*
X004264Y004938D01*
X004264Y005037D02*
X006494Y005037D01*
X006494Y005135D02*
X004264Y005135D01*
X004264Y005234D02*
X006494Y005234D01*
X006494Y005333D02*
X004264Y005333D01*
X006205Y004741D02*
X006494Y004741D01*
X006494Y004643D02*
X006205Y004643D01*
X006205Y004544D02*
X006494Y004544D01*
X006234Y004446D02*
X006205Y004446D01*
X006205Y004347D02*
X006234Y004347D01*
X006234Y004249D02*
X006205Y004249D01*
X006205Y004150D02*
X006234Y004150D01*
X006205Y004051D02*
X006264Y004051D01*
X006205Y003953D02*
X006515Y003953D01*
X006553Y003854D02*
X006205Y003854D01*
X006661Y003559D02*
X008127Y003559D01*
X007998Y003460D02*
X006790Y003460D01*
X006839Y003362D02*
X007948Y003362D01*
X007933Y003263D02*
X006855Y003263D01*
X006842Y003165D02*
X007945Y003165D01*
X007991Y003066D02*
X006796Y003066D01*
X006677Y002968D02*
X008111Y002968D01*
X008393Y003559D02*
X009967Y003559D01*
X009970Y003657D02*
X009617Y003657D01*
X009670Y003756D02*
X009973Y003756D01*
X009976Y003854D02*
X009670Y003854D01*
X009670Y003953D02*
X009979Y003953D01*
X009982Y004051D02*
X009670Y004051D01*
X009670Y004150D02*
X009985Y004150D01*
X009988Y004249D02*
X009670Y004249D01*
X009670Y004347D02*
X009992Y004347D01*
X009994Y004446D02*
X009670Y004446D01*
X009670Y004544D02*
X009998Y004544D01*
X010001Y004643D02*
X009670Y004643D01*
X009670Y004741D02*
X010004Y004741D01*
X010007Y004840D02*
X009608Y004840D01*
X010010Y004938D02*
X008272Y004938D01*
X008272Y004840D02*
X008643Y004840D01*
X008582Y004741D02*
X008272Y004741D01*
X008272Y004643D02*
X008582Y004643D01*
X008582Y004544D02*
X008272Y004544D01*
X008272Y004446D02*
X008582Y004446D01*
X008582Y004347D02*
X008272Y004347D01*
X008272Y004249D02*
X008582Y004249D01*
X008582Y004150D02*
X008272Y004150D01*
X008272Y004051D02*
X008582Y004051D01*
X008582Y003953D02*
X008272Y003953D01*
X008272Y005037D02*
X010013Y005037D01*
X010016Y005135D02*
X008272Y005135D01*
X008236Y005234D02*
X010019Y005234D01*
X009958Y003263D02*
X009610Y003263D01*
X009670Y003165D02*
X009955Y003165D01*
X009952Y003066D02*
X009670Y003066D01*
X009670Y002968D02*
X009948Y002968D01*
X009945Y002869D02*
X009670Y002869D01*
X005177Y003263D02*
X004264Y003263D01*
X004264Y003165D02*
X005118Y003165D01*
X005118Y003066D02*
X004264Y003066D01*
X004264Y002968D02*
X005118Y002968D01*
X005118Y002869D02*
X004264Y002869D01*
D31*
X004484Y005164D02*
X004484Y005920D01*
X008470Y006004D02*
X008470Y005298D01*
X008754Y005254D01*
X009594Y005254D01*
X009704Y005144D01*
X009624Y005144D01*
X011864Y007304D02*
X011864Y008504D01*
X011856Y010256D02*
X010994Y010256D01*
X011616Y010256D02*
X011624Y010264D01*
X011856Y010256D02*
X011864Y010264D01*
X017064Y016488D02*
X017048Y016504D01*
X017064Y016488D02*
X018024Y016504D01*
D32*
X015704Y011224D03*
X015144Y010264D03*
X015144Y009784D03*
X015704Y009224D03*
X011864Y008504D03*
X011864Y008264D03*
X011864Y007544D03*
X011864Y007304D03*
X011544Y007384D03*
X010664Y007384D03*
X010104Y007384D03*
X009864Y005304D03*
X009704Y005144D03*
X007864Y005624D03*
X007384Y005624D03*
X006504Y007384D03*
X006504Y008664D03*
X006744Y009864D03*
X006504Y010264D03*
X006744Y011304D03*
X006744Y011624D03*
X007384Y011864D03*
X007544Y012504D03*
X008584Y013624D03*
X009784Y014664D03*
X011464Y016504D03*
X006984Y018424D03*
X006584Y017064D03*
X006104Y013784D03*
X005824Y013504D03*
X005824Y012904D03*
X005144Y011944D03*
X004344Y012744D03*
X003704Y012584D03*
X003704Y013064D03*
X004984Y009304D03*
X004904Y008184D03*
X004904Y007544D03*
X011624Y010264D03*
X011864Y010264D03*
D33*
X000758Y001213D02*
X000949Y000949D01*
X001213Y000758D01*
X001522Y000657D01*
X001685Y000644D01*
X018950Y000644D01*
X018967Y000644D01*
X019008Y000644D01*
X019171Y000657D01*
X019480Y000758D01*
X019744Y000949D01*
X019935Y001213D01*
X020036Y001522D01*
X020049Y001685D01*
X020049Y018950D01*
X020049Y018961D01*
X020049Y019008D01*
X020036Y019171D01*
X019935Y019480D01*
X019744Y019744D01*
X019480Y019935D01*
X019171Y020036D01*
X019008Y020049D01*
X001685Y020049D01*
X001522Y020036D01*
X001213Y019935D01*
X000949Y019744D01*
X000758Y019480D01*
X000657Y019171D01*
X000644Y019008D01*
X000644Y001743D01*
X000644Y001709D01*
X000644Y001685D01*
X000657Y001522D01*
X000758Y001213D01*
X000759Y001211D02*
X002284Y001211D01*
X002284Y001289D02*
X000733Y001289D01*
X000707Y001368D02*
X002284Y001368D01*
X002284Y001446D02*
X000682Y001446D01*
X000657Y001525D02*
X002284Y001525D01*
X002284Y001564D02*
X002284Y000962D01*
X002284Y000846D01*
X002366Y000764D01*
X004135Y000764D01*
X004186Y000713D01*
X004351Y000644D01*
X004530Y000644D01*
X004696Y000713D01*
X004747Y000764D01*
X007282Y000764D01*
X007364Y000846D01*
X007364Y000962D01*
X007364Y001964D01*
X007385Y001964D01*
X007444Y002022D01*
X007444Y002345D01*
X007385Y002404D01*
X007062Y002404D01*
X007004Y002345D01*
X007004Y002022D01*
X007062Y001964D01*
X007084Y001964D01*
X007084Y001044D01*
X004891Y001044D01*
X004891Y001884D01*
X004822Y002049D01*
X004696Y002176D01*
X004530Y002244D01*
X004351Y002244D01*
X004186Y002176D01*
X004059Y002049D01*
X003991Y001884D01*
X003991Y001044D01*
X002564Y001044D01*
X002564Y001564D01*
X002585Y001564D01*
X002644Y001622D01*
X002644Y001945D01*
X002585Y002004D01*
X002262Y002004D01*
X002204Y001945D01*
X002204Y001622D01*
X002262Y001564D01*
X002284Y001564D01*
X002223Y001604D02*
X000651Y001604D01*
X000645Y001682D02*
X002204Y001682D01*
X002204Y001761D02*
X000644Y001761D01*
X000644Y001839D02*
X002204Y001839D01*
X002204Y001918D02*
X000644Y001918D01*
X000644Y001996D02*
X002255Y001996D01*
X002424Y001784D02*
X002424Y000904D01*
X004424Y000904D01*
X004424Y001094D01*
X004441Y001094D01*
X004441Y000904D01*
X007224Y000904D01*
X007224Y002184D01*
X007444Y002153D02*
X008634Y002153D01*
X008632Y002155D02*
X008691Y002097D01*
X009561Y002097D01*
X009620Y002155D01*
X009620Y002634D01*
X009941Y002634D01*
X010017Y002632D01*
X010019Y002634D01*
X010023Y002634D01*
X010076Y002688D01*
X010131Y002739D01*
X010131Y002743D01*
X010134Y002745D01*
X010134Y002779D01*
X012115Y000798D01*
X012244Y000744D01*
X012383Y000744D01*
X015966Y000744D01*
X015997Y000713D01*
X016162Y000644D01*
X016341Y000644D01*
X016507Y000713D01*
X016633Y000840D01*
X016702Y001005D01*
X016702Y001884D01*
X016633Y002049D01*
X016614Y002069D01*
X016614Y002839D01*
X018321Y004546D01*
X018374Y004674D01*
X018374Y004814D01*
X018374Y015834D01*
X018732Y015834D01*
X018809Y015802D01*
X019688Y015802D01*
X019853Y015870D01*
X019980Y015997D01*
X020048Y016162D01*
X020048Y016341D01*
X019980Y016507D01*
X019853Y016633D01*
X019688Y016702D01*
X018809Y016702D01*
X018644Y016633D01*
X018544Y016534D01*
X018374Y016534D01*
X018374Y017214D01*
X018321Y017342D01*
X018222Y017441D01*
X017422Y018241D01*
X017294Y018294D01*
X017154Y018294D01*
X016614Y018294D01*
X016614Y018624D01*
X016633Y018644D01*
X016702Y018809D01*
X016702Y019688D01*
X016633Y019853D01*
X016507Y019980D01*
X016341Y020048D01*
X016162Y020048D01*
X015997Y019980D01*
X015870Y019853D01*
X015802Y019688D01*
X015802Y018809D01*
X015870Y018644D01*
X015914Y018600D01*
X015914Y018294D01*
X007165Y018294D01*
X007204Y018333D01*
X007204Y018515D01*
X007075Y018644D01*
X006893Y018644D01*
X006764Y018515D01*
X006764Y018333D01*
X006803Y018294D01*
X004104Y018294D01*
X004104Y018599D01*
X004186Y018517D01*
X004351Y018448D01*
X004530Y018448D01*
X004696Y018517D01*
X004822Y018644D01*
X004891Y018809D01*
X004891Y019688D01*
X004822Y019853D01*
X004696Y019980D01*
X004530Y020048D01*
X004351Y020048D01*
X004186Y019980D01*
X004059Y019853D01*
X003991Y019688D01*
X003991Y019262D01*
X003952Y019301D01*
X003824Y019354D01*
X001954Y019354D01*
X001814Y019354D01*
X001686Y019301D01*
X000946Y018561D01*
X000847Y018462D01*
X000794Y018334D01*
X000794Y016588D01*
X000713Y016507D01*
X000644Y016341D01*
X000644Y016162D01*
X000713Y015997D01*
X000840Y015870D01*
X000904Y015844D01*
X000904Y014774D01*
X000904Y014634D01*
X000957Y014506D01*
X002554Y012909D01*
X002554Y012204D01*
X002554Y009609D01*
X001807Y008862D01*
X001754Y008734D01*
X001754Y008594D01*
X000644Y008594D01*
X000644Y008672D02*
X001754Y008672D01*
X001754Y008594D02*
X001754Y005874D01*
X001807Y005746D01*
X001906Y005647D01*
X002607Y004946D01*
X002607Y004946D01*
X002706Y004847D01*
X002834Y004794D01*
X004074Y004794D01*
X004074Y002745D01*
X004185Y002634D01*
X004343Y002634D01*
X005168Y002634D01*
X005168Y002155D01*
X005226Y002097D01*
X006097Y002097D01*
X006155Y002155D01*
X006155Y002634D01*
X008632Y002634D01*
X008632Y002155D01*
X008632Y002232D02*
X007444Y002232D01*
X007444Y002310D02*
X008632Y002310D01*
X008632Y002389D02*
X007400Y002389D01*
X007444Y002075D02*
X010838Y002075D01*
X010760Y002153D02*
X009618Y002153D01*
X009620Y002232D02*
X010681Y002232D01*
X010602Y002310D02*
X009620Y002310D01*
X009620Y002389D02*
X010524Y002389D01*
X010445Y002468D02*
X009620Y002468D01*
X009620Y002546D02*
X010367Y002546D01*
X010288Y002625D02*
X009620Y002625D01*
X010093Y002703D02*
X010210Y002703D01*
X010728Y003174D02*
X015964Y003174D01*
X015967Y003182D02*
X015914Y003054D01*
X015914Y002093D01*
X015870Y002049D01*
X015802Y001884D01*
X015802Y001444D01*
X012458Y001444D01*
X010164Y003739D01*
X010164Y003781D01*
X010211Y005303D01*
X010214Y005305D01*
X010214Y005381D01*
X010216Y005457D01*
X010214Y005459D01*
X010214Y005463D01*
X010160Y005517D01*
X010109Y005571D01*
X010105Y005571D01*
X010103Y005574D01*
X010027Y005574D01*
X009951Y005576D01*
X009949Y005574D01*
X009512Y005574D01*
X009528Y005578D01*
X009560Y005597D01*
X009586Y005623D01*
X009604Y005655D01*
X009614Y005690D01*
X009614Y005964D01*
X009258Y005964D01*
X009258Y006044D01*
X009178Y006044D01*
X009178Y006439D01*
X008944Y006439D01*
X008908Y006430D01*
X008876Y006411D01*
X008850Y006385D01*
X008832Y006353D01*
X008826Y006332D01*
X008826Y006341D01*
X008767Y006399D01*
X008173Y006399D01*
X008114Y006341D01*
X008114Y005667D01*
X008173Y005609D01*
X008290Y005609D01*
X008290Y005574D01*
X008084Y005574D01*
X008084Y005715D01*
X007955Y005844D01*
X007773Y005844D01*
X007644Y005715D01*
X007644Y005682D01*
X007626Y005664D01*
X007604Y005653D01*
X007604Y005715D01*
X007475Y005844D01*
X007293Y005844D01*
X007164Y005715D01*
X007164Y005574D01*
X004830Y005574D01*
X004879Y005623D01*
X004879Y006217D01*
X004821Y006276D01*
X004811Y006276D01*
X004833Y006282D01*
X004865Y006300D01*
X004891Y006326D01*
X004910Y006358D01*
X004919Y006394D01*
X004919Y006628D01*
X004524Y006628D01*
X004524Y006708D01*
X004919Y006708D01*
X004919Y006942D01*
X004910Y006978D01*
X004891Y007010D01*
X004865Y007036D01*
X004833Y007054D01*
X004798Y007064D01*
X004524Y007064D01*
X004524Y006708D01*
X004444Y006708D01*
X004444Y007064D01*
X004170Y007064D01*
X004135Y007054D01*
X004103Y007036D01*
X004077Y007010D01*
X004058Y006978D01*
X004049Y006942D01*
X004049Y006708D01*
X004444Y006708D01*
X004444Y006628D01*
X004049Y006628D01*
X004049Y006394D01*
X004058Y006358D01*
X004077Y006326D01*
X004103Y006300D01*
X004135Y006282D01*
X004156Y006276D01*
X004147Y006276D01*
X004089Y006217D01*
X004089Y005623D01*
X004147Y005564D01*
X004175Y005564D01*
X004105Y005494D01*
X003049Y005494D01*
X002454Y006089D01*
X002454Y006924D01*
X002745Y006924D01*
X002804Y006982D01*
X002804Y007004D01*
X003166Y007004D01*
X003282Y007004D01*
X003364Y007086D01*
X003364Y007964D01*
X003385Y007964D01*
X003444Y008022D01*
X003444Y008345D01*
X003385Y008404D01*
X003062Y008404D01*
X003024Y008365D01*
X002985Y008404D01*
X002662Y008404D01*
X002604Y008345D01*
X002604Y008022D01*
X002662Y007964D01*
X002684Y007964D01*
X002684Y007684D01*
X002662Y007684D01*
X002604Y007625D01*
X002604Y007364D01*
X002454Y007364D01*
X002454Y008519D01*
X002969Y009034D01*
X002974Y009034D01*
X003102Y009087D01*
X003201Y009186D01*
X003254Y009314D01*
X003254Y009394D01*
X003254Y009534D01*
X003254Y012043D01*
X003450Y012037D01*
X003453Y012034D01*
X003540Y012034D01*
X003628Y012031D01*
X003631Y012034D01*
X003757Y012034D01*
X003719Y011995D01*
X003719Y011401D01*
X003777Y011342D01*
X003786Y011342D01*
X003765Y011336D01*
X003733Y011318D01*
X003707Y011292D01*
X003688Y011260D01*
X003679Y011224D01*
X003679Y010990D01*
X004074Y010990D01*
X004074Y010910D01*
X004154Y010910D01*
X004154Y010990D01*
X004549Y010990D01*
X004549Y011224D01*
X004540Y011260D01*
X004521Y011292D01*
X004495Y011318D01*
X004463Y011336D01*
X004441Y011342D01*
X004451Y011342D01*
X004509Y011401D01*
X004509Y011995D01*
X004470Y012034D01*
X004895Y012034D01*
X004905Y012044D01*
X004933Y012044D01*
X004924Y012035D01*
X004924Y011853D01*
X005053Y011724D01*
X005235Y011724D01*
X005324Y011813D01*
X005324Y011762D01*
X005203Y011641D01*
X005043Y011641D01*
X004985Y011583D01*
X004985Y010949D01*
X005043Y010890D01*
X005599Y010890D01*
X005657Y010949D01*
X005657Y011583D01*
X005599Y011641D01*
X005604Y011646D01*
X005604Y013006D01*
X005682Y013084D01*
X005693Y013084D01*
X005604Y012995D01*
X005604Y012813D01*
X005684Y012733D01*
X005684Y012726D01*
X005724Y012686D01*
X005806Y012604D01*
X006254Y012604D01*
X006254Y012602D01*
X006312Y012544D01*
X007175Y012544D01*
X007234Y012602D01*
X007234Y012604D01*
X007309Y012604D01*
X007324Y012582D01*
X007324Y012413D01*
X007453Y012284D01*
X007635Y012284D01*
X007764Y012413D01*
X007764Y012595D01*
X007635Y012724D01*
X007566Y012724D01*
X007524Y012786D01*
X007524Y012802D01*
X007493Y012833D01*
X007468Y012870D01*
X007453Y012873D01*
X007442Y012884D01*
X007398Y012884D01*
X007354Y012893D01*
X007342Y012884D01*
X007234Y012884D01*
X007234Y012905D01*
X007175Y012964D01*
X006312Y012964D01*
X006254Y012905D01*
X006254Y012884D01*
X006044Y012884D01*
X006044Y012995D01*
X005955Y013084D01*
X006272Y013084D01*
X006312Y013044D01*
X007175Y013044D01*
X007234Y013102D01*
X007234Y013405D01*
X007175Y013464D01*
X006312Y013464D01*
X006044Y013464D01*
X006044Y013413D02*
X006044Y013564D01*
X006195Y013564D01*
X006254Y013623D01*
X006254Y013602D01*
X006312Y013544D01*
X007175Y013544D01*
X007234Y013602D01*
X007234Y013905D01*
X007175Y013964D01*
X006312Y013964D01*
X006274Y013925D01*
X006195Y014004D01*
X006013Y014004D01*
X005884Y013875D01*
X005884Y013724D01*
X005802Y013724D01*
X005764Y013762D01*
X005764Y015682D01*
X005682Y015764D01*
X005399Y016047D01*
X005399Y016994D01*
X005297Y017096D01*
X004710Y017096D01*
X004609Y016994D01*
X004609Y016014D01*
X004710Y015912D01*
X005138Y015912D01*
X005206Y015844D01*
X004722Y015844D01*
X004399Y016167D01*
X004399Y016994D01*
X004297Y017096D01*
X003710Y017096D01*
X003609Y016994D01*
X003609Y016014D01*
X003710Y015912D01*
X004258Y015912D01*
X004486Y015684D01*
X003922Y015684D01*
X003284Y016322D01*
X003284Y017086D01*
X003362Y017164D01*
X006373Y017164D01*
X006364Y017155D01*
X006364Y017086D01*
X006357Y017093D01*
X006308Y017121D01*
X006254Y017136D01*
X006044Y017136D01*
X006044Y016645D01*
X005964Y016645D01*
X005964Y017136D01*
X005754Y017136D01*
X005700Y017121D01*
X005651Y017093D01*
X005611Y017054D01*
X005583Y017005D01*
X005569Y016950D01*
X005569Y016544D01*
X005862Y016544D01*
X005862Y016464D01*
X005569Y016464D01*
X005569Y016057D01*
X005583Y016003D01*
X005611Y015954D01*
X005651Y015915D01*
X005700Y015886D01*
X005754Y015872D01*
X005964Y015872D01*
X005964Y016362D01*
X006044Y016362D01*
X006044Y015872D01*
X006254Y015872D01*
X006308Y015886D01*
X006357Y015915D01*
X006396Y015954D01*
X006425Y016003D01*
X006439Y016057D01*
X006439Y016464D01*
X006145Y016464D01*
X006145Y016544D01*
X006439Y016544D01*
X006439Y016898D01*
X006493Y016844D01*
X006609Y016844D01*
X006609Y016014D01*
X006710Y015912D01*
X007297Y015912D01*
X007399Y016014D01*
X007399Y016994D01*
X007297Y017096D01*
X006824Y017096D01*
X006804Y017107D01*
X006804Y017155D01*
X006795Y017164D01*
X007864Y017164D01*
X007864Y017096D01*
X007710Y017096D01*
X007609Y016994D01*
X007609Y016014D01*
X007710Y015912D01*
X008297Y015912D01*
X008399Y016014D01*
X008399Y016994D01*
X008297Y017096D01*
X008144Y017096D01*
X008144Y017186D01*
X008144Y017302D01*
X008084Y017362D01*
X008082Y017364D01*
X008906Y017364D01*
X008854Y017312D01*
X008854Y015813D01*
X008827Y015840D01*
X008429Y015840D01*
X008371Y015782D01*
X008371Y015226D01*
X008429Y015168D01*
X008827Y015168D01*
X008886Y015226D01*
X008886Y015404D01*
X008962Y015404D01*
X009044Y015486D01*
X009134Y015576D01*
X009134Y015692D01*
X009134Y017114D01*
X013034Y017114D01*
X013034Y017092D01*
X013092Y017034D01*
X013415Y017034D01*
X013474Y017092D01*
X013474Y017364D01*
X015844Y017364D01*
X015844Y017342D01*
X015902Y017284D01*
X016225Y017284D01*
X016284Y017342D01*
X016284Y017594D01*
X017079Y017594D01*
X017674Y016999D01*
X017674Y016678D01*
X017459Y016674D01*
X017459Y016785D01*
X017401Y016844D01*
X016727Y016844D01*
X016669Y016785D01*
X016669Y016644D01*
X015166Y016644D01*
X015084Y016562D01*
X014618Y016096D01*
X014460Y016096D01*
X014359Y015994D01*
X014359Y015014D01*
X014460Y014912D01*
X015047Y014912D01*
X015149Y015014D01*
X015149Y015994D01*
X015047Y016096D01*
X015014Y016096D01*
X015282Y016364D01*
X016669Y016364D01*
X016669Y016191D01*
X016727Y016132D01*
X016736Y016132D01*
X016715Y016126D01*
X016683Y016108D01*
X016657Y016082D01*
X016638Y016050D01*
X016629Y016014D01*
X016629Y015780D01*
X017024Y015780D01*
X017024Y015700D01*
X017104Y015700D01*
X017104Y015780D01*
X017499Y015780D01*
X017499Y016014D01*
X017490Y016050D01*
X017471Y016082D01*
X017445Y016108D01*
X017413Y016126D01*
X017391Y016132D01*
X017401Y016132D01*
X017459Y016191D01*
X017459Y016315D01*
X017674Y016318D01*
X017674Y016254D01*
X017674Y016114D01*
X017674Y004889D01*
X016066Y003281D01*
X015967Y003182D01*
X015931Y003096D02*
X010807Y003096D01*
X010885Y003017D02*
X015914Y003017D01*
X015914Y002939D02*
X010964Y002939D01*
X011043Y002860D02*
X015914Y002860D01*
X015914Y002782D02*
X014128Y002782D01*
X014105Y002804D02*
X013782Y002804D01*
X013724Y002745D01*
X013724Y002724D01*
X013604Y002724D01*
X013604Y002745D01*
X013545Y002804D01*
X013222Y002804D01*
X013164Y002745D01*
X013164Y002422D01*
X013222Y002364D01*
X013545Y002364D01*
X013604Y002422D01*
X013604Y002444D01*
X013724Y002444D01*
X013724Y002422D01*
X013782Y002364D01*
X014105Y002364D01*
X014164Y002422D01*
X014164Y002745D01*
X014105Y002804D01*
X014164Y002703D02*
X015914Y002703D01*
X015914Y002625D02*
X014164Y002625D01*
X014164Y002546D02*
X015914Y002546D01*
X015914Y002468D02*
X014164Y002468D01*
X014130Y002389D02*
X015914Y002389D01*
X015914Y002310D02*
X011592Y002310D01*
X011671Y002232D02*
X015914Y002232D01*
X015914Y002153D02*
X011749Y002153D01*
X011828Y002075D02*
X015896Y002075D01*
X015849Y001996D02*
X011907Y001996D01*
X011985Y001918D02*
X015816Y001918D01*
X015802Y001839D02*
X012064Y001839D01*
X012142Y001761D02*
X015802Y001761D01*
X015802Y001682D02*
X012221Y001682D01*
X012299Y001604D02*
X015802Y001604D01*
X015802Y001525D02*
X012378Y001525D01*
X012456Y001446D02*
X015802Y001446D01*
X015970Y000740D02*
X004722Y000740D01*
X004570Y000661D02*
X016122Y000661D01*
X016381Y000661D02*
X019183Y000661D01*
X019424Y000740D02*
X016533Y000740D01*
X016612Y000818D02*
X019563Y000818D01*
X019671Y000897D02*
X016657Y000897D01*
X016690Y000975D02*
X019763Y000975D01*
X019820Y001054D02*
X016702Y001054D01*
X016702Y001132D02*
X019877Y001132D01*
X019934Y001211D02*
X016702Y001211D01*
X016702Y001289D02*
X019960Y001289D01*
X019986Y001368D02*
X016702Y001368D01*
X016702Y001446D02*
X020011Y001446D01*
X020036Y001525D02*
X016702Y001525D01*
X016702Y001604D02*
X020042Y001604D01*
X020048Y001682D02*
X016702Y001682D01*
X016702Y001761D02*
X020049Y001761D01*
X020049Y001839D02*
X016702Y001839D01*
X016688Y001918D02*
X020049Y001918D01*
X020049Y001996D02*
X016655Y001996D01*
X016614Y002075D02*
X020049Y002075D01*
X020049Y002153D02*
X016614Y002153D01*
X016614Y002232D02*
X020049Y002232D01*
X020049Y002310D02*
X016614Y002310D01*
X016614Y002389D02*
X020049Y002389D01*
X020049Y002468D02*
X016614Y002468D01*
X016614Y002546D02*
X020049Y002546D01*
X020049Y002625D02*
X016614Y002625D01*
X016614Y002703D02*
X017603Y002703D01*
X017622Y002684D02*
X017945Y002684D01*
X018004Y002742D01*
X018004Y002764D01*
X018044Y002764D01*
X018044Y002742D01*
X018102Y002684D01*
X018425Y002684D01*
X018484Y002742D01*
X018484Y003065D01*
X018425Y003124D01*
X018102Y003124D01*
X018044Y003065D01*
X018044Y003044D01*
X018004Y003044D01*
X018004Y003065D01*
X017945Y003124D01*
X017622Y003124D01*
X017564Y003065D01*
X017564Y002742D01*
X017622Y002684D01*
X017564Y002782D02*
X016614Y002782D01*
X016635Y002860D02*
X017564Y002860D01*
X017564Y002939D02*
X016714Y002939D01*
X016792Y003017D02*
X017564Y003017D01*
X017594Y003096D02*
X016871Y003096D01*
X016949Y003174D02*
X020049Y003174D01*
X020049Y003096D02*
X018453Y003096D01*
X018484Y003017D02*
X020049Y003017D01*
X020049Y002939D02*
X018484Y002939D01*
X018484Y002860D02*
X020049Y002860D01*
X020049Y002782D02*
X018484Y002782D01*
X018445Y002703D02*
X020049Y002703D01*
X020049Y003253D02*
X017028Y003253D01*
X017106Y003331D02*
X020049Y003331D01*
X020049Y003410D02*
X017185Y003410D01*
X017264Y003489D02*
X020049Y003489D01*
X020049Y003567D02*
X017342Y003567D01*
X017421Y003646D02*
X020049Y003646D01*
X020049Y003724D02*
X017499Y003724D01*
X017578Y003803D02*
X020049Y003803D01*
X020049Y003881D02*
X017656Y003881D01*
X017735Y003960D02*
X020049Y003960D01*
X020049Y004038D02*
X019802Y004038D01*
X019853Y004059D02*
X019980Y004186D01*
X020048Y004351D01*
X020048Y004530D01*
X019980Y004696D01*
X019853Y004822D01*
X019688Y004891D01*
X018809Y004891D01*
X018644Y004822D01*
X018517Y004696D01*
X018448Y004530D01*
X018448Y004351D01*
X018517Y004186D01*
X018644Y004059D01*
X018809Y003991D01*
X019688Y003991D01*
X019853Y004059D01*
X019911Y004117D02*
X020049Y004117D01*
X020049Y004195D02*
X019984Y004195D01*
X020016Y004274D02*
X020049Y004274D01*
X020048Y004353D02*
X020049Y004353D01*
X020048Y004431D02*
X020049Y004431D01*
X020048Y004510D02*
X020049Y004510D01*
X020049Y004588D02*
X020024Y004588D01*
X020049Y004667D02*
X019992Y004667D01*
X020049Y004745D02*
X019930Y004745D01*
X019850Y004824D02*
X020049Y004824D01*
X020049Y004902D02*
X018374Y004902D01*
X018374Y004824D02*
X018647Y004824D01*
X018566Y004745D02*
X018374Y004745D01*
X018371Y004667D02*
X018505Y004667D01*
X018472Y004588D02*
X018338Y004588D01*
X018285Y004510D02*
X018448Y004510D01*
X018448Y004431D02*
X018206Y004431D01*
X018128Y004353D02*
X018448Y004353D01*
X018480Y004274D02*
X018049Y004274D01*
X017970Y004195D02*
X018513Y004195D01*
X018586Y004117D02*
X017892Y004117D01*
X017813Y004038D02*
X018694Y004038D01*
X018374Y004981D02*
X020049Y004981D01*
X020049Y005059D02*
X018374Y005059D01*
X018374Y005138D02*
X020049Y005138D01*
X020049Y005217D02*
X018374Y005217D01*
X018374Y005295D02*
X020049Y005295D01*
X020049Y005374D02*
X018374Y005374D01*
X018374Y005452D02*
X020049Y005452D01*
X020049Y005531D02*
X018374Y005531D01*
X018374Y005609D02*
X020049Y005609D01*
X020049Y005688D02*
X018374Y005688D01*
X018374Y005766D02*
X020049Y005766D01*
X020049Y005845D02*
X018374Y005845D01*
X018374Y005923D02*
X020049Y005923D01*
X020049Y006002D02*
X018374Y006002D01*
X018374Y006081D02*
X020049Y006081D01*
X020049Y006159D02*
X018374Y006159D01*
X018374Y006238D02*
X020049Y006238D01*
X020049Y006316D02*
X018374Y006316D01*
X018374Y006395D02*
X020049Y006395D01*
X020049Y006473D02*
X018374Y006473D01*
X018374Y006552D02*
X020049Y006552D01*
X020049Y006630D02*
X018374Y006630D01*
X018374Y006709D02*
X020049Y006709D01*
X020049Y006787D02*
X018374Y006787D01*
X018374Y006866D02*
X020049Y006866D01*
X020049Y006944D02*
X018374Y006944D01*
X018374Y007023D02*
X020049Y007023D01*
X020049Y007102D02*
X018374Y007102D01*
X018374Y007180D02*
X020049Y007180D01*
X020049Y007259D02*
X018374Y007259D01*
X018374Y007337D02*
X020049Y007337D01*
X020049Y007416D02*
X018374Y007416D01*
X018374Y007494D02*
X020049Y007494D01*
X020049Y007573D02*
X018374Y007573D01*
X018374Y007651D02*
X020049Y007651D01*
X020049Y007730D02*
X018374Y007730D01*
X018374Y007808D02*
X020049Y007808D01*
X020049Y007887D02*
X018374Y007887D01*
X018374Y007966D02*
X020049Y007966D01*
X020049Y008044D02*
X018374Y008044D01*
X018374Y008123D02*
X020049Y008123D01*
X020049Y008201D02*
X018374Y008201D01*
X018374Y008280D02*
X020049Y008280D01*
X020049Y008358D02*
X018374Y008358D01*
X018374Y008437D02*
X020049Y008437D01*
X020049Y008515D02*
X018374Y008515D01*
X018374Y008594D02*
X020049Y008594D01*
X020049Y008672D02*
X018374Y008672D01*
X018374Y008751D02*
X020049Y008751D01*
X020049Y008830D02*
X018374Y008830D01*
X018374Y008908D02*
X020049Y008908D01*
X020049Y008987D02*
X018374Y008987D01*
X018374Y009065D02*
X020049Y009065D01*
X020049Y009144D02*
X018374Y009144D01*
X018374Y009222D02*
X020049Y009222D01*
X020049Y009301D02*
X018374Y009301D01*
X018374Y009379D02*
X020049Y009379D01*
X020049Y009458D02*
X018374Y009458D01*
X018374Y009536D02*
X020049Y009536D01*
X020049Y009615D02*
X018374Y009615D01*
X018374Y009694D02*
X020049Y009694D01*
X020049Y009772D02*
X018374Y009772D01*
X018374Y009851D02*
X020049Y009851D01*
X020049Y009929D02*
X018374Y009929D01*
X018374Y010008D02*
X020049Y010008D01*
X020049Y010086D02*
X018374Y010086D01*
X018374Y010165D02*
X020049Y010165D01*
X020049Y010243D02*
X018374Y010243D01*
X018374Y010322D02*
X020049Y010322D01*
X020049Y010400D02*
X018374Y010400D01*
X018374Y010479D02*
X020049Y010479D01*
X020049Y010557D02*
X018374Y010557D01*
X018374Y010636D02*
X020049Y010636D01*
X020049Y010715D02*
X018374Y010715D01*
X018374Y010793D02*
X020049Y010793D01*
X020049Y010872D02*
X018374Y010872D01*
X018374Y010950D02*
X020049Y010950D01*
X020049Y011029D02*
X018374Y011029D01*
X018374Y011107D02*
X020049Y011107D01*
X020049Y011186D02*
X018374Y011186D01*
X018374Y011264D02*
X020049Y011264D01*
X020049Y011343D02*
X018374Y011343D01*
X018374Y011421D02*
X020049Y011421D01*
X020049Y011500D02*
X018374Y011500D01*
X018374Y011579D02*
X020049Y011579D01*
X020049Y011657D02*
X018374Y011657D01*
X018374Y011736D02*
X020049Y011736D01*
X020049Y011814D02*
X018374Y011814D01*
X018374Y011893D02*
X020049Y011893D01*
X020049Y011971D02*
X018374Y011971D01*
X018374Y012050D02*
X020049Y012050D01*
X020049Y012128D02*
X018374Y012128D01*
X018374Y012207D02*
X020049Y012207D01*
X020049Y012285D02*
X018374Y012285D01*
X018374Y012364D02*
X020049Y012364D01*
X020049Y012443D02*
X018374Y012443D01*
X018374Y012521D02*
X020049Y012521D01*
X020049Y012600D02*
X018374Y012600D01*
X018374Y012678D02*
X020049Y012678D01*
X020049Y012757D02*
X018374Y012757D01*
X018374Y012835D02*
X020049Y012835D01*
X020049Y012914D02*
X018374Y012914D01*
X018374Y012992D02*
X020049Y012992D01*
X020049Y013071D02*
X018374Y013071D01*
X018374Y013149D02*
X020049Y013149D01*
X020049Y013228D02*
X018374Y013228D01*
X018374Y013306D02*
X020049Y013306D01*
X020049Y013385D02*
X018374Y013385D01*
X018374Y013464D02*
X020049Y013464D01*
X020049Y013542D02*
X018374Y013542D01*
X018374Y013621D02*
X020049Y013621D01*
X020049Y013699D02*
X018374Y013699D01*
X018374Y013778D02*
X020049Y013778D01*
X020049Y013856D02*
X018374Y013856D01*
X018374Y013935D02*
X020049Y013935D01*
X020049Y014013D02*
X018374Y014013D01*
X018374Y014092D02*
X020049Y014092D01*
X020049Y014170D02*
X018374Y014170D01*
X018374Y014249D02*
X020049Y014249D01*
X020049Y014328D02*
X018374Y014328D01*
X018374Y014406D02*
X020049Y014406D01*
X020049Y014485D02*
X018374Y014485D01*
X018374Y014563D02*
X020049Y014563D01*
X020049Y014642D02*
X018374Y014642D01*
X018374Y014720D02*
X020049Y014720D01*
X020049Y014799D02*
X018374Y014799D01*
X018374Y014877D02*
X020049Y014877D01*
X020049Y014956D02*
X018374Y014956D01*
X018374Y015034D02*
X020049Y015034D01*
X020049Y015113D02*
X018374Y015113D01*
X018374Y015192D02*
X020049Y015192D01*
X020049Y015270D02*
X018374Y015270D01*
X018374Y015349D02*
X020049Y015349D01*
X020049Y015427D02*
X018374Y015427D01*
X018374Y015506D02*
X020049Y015506D01*
X020049Y015584D02*
X018374Y015584D01*
X018374Y015663D02*
X020049Y015663D01*
X020049Y015741D02*
X018374Y015741D01*
X018374Y015820D02*
X018766Y015820D01*
X018615Y016605D02*
X018374Y016605D01*
X018374Y016684D02*
X018765Y016684D01*
X018374Y016762D02*
X020049Y016762D01*
X020049Y016684D02*
X019732Y016684D01*
X019881Y016605D02*
X020049Y016605D01*
X020049Y016527D02*
X019960Y016527D01*
X020004Y016448D02*
X020049Y016448D01*
X020037Y016370D02*
X020049Y016370D01*
X020048Y016291D02*
X020049Y016291D01*
X020048Y016213D02*
X020049Y016213D01*
X020037Y016134D02*
X020049Y016134D01*
X020049Y016056D02*
X020004Y016056D01*
X019960Y015977D02*
X020049Y015977D01*
X020049Y015898D02*
X019881Y015898D01*
X019731Y015820D02*
X020049Y015820D01*
X020049Y016841D02*
X018374Y016841D01*
X018374Y016919D02*
X020049Y016919D01*
X020049Y016998D02*
X018374Y016998D01*
X018374Y017077D02*
X020049Y017077D01*
X020049Y017155D02*
X018374Y017155D01*
X018366Y017234D02*
X020049Y017234D01*
X020049Y017312D02*
X018333Y017312D01*
X018272Y017391D02*
X020049Y017391D01*
X020049Y017469D02*
X018194Y017469D01*
X018115Y017548D02*
X020049Y017548D01*
X020049Y017626D02*
X018036Y017626D01*
X017958Y017705D02*
X020049Y017705D01*
X020049Y017783D02*
X017879Y017783D01*
X017801Y017862D02*
X020049Y017862D01*
X020049Y017941D02*
X017722Y017941D01*
X017644Y018019D02*
X020049Y018019D01*
X020049Y018098D02*
X017565Y018098D01*
X017487Y018176D02*
X020049Y018176D01*
X020049Y018255D02*
X017388Y018255D01*
X017125Y017548D02*
X016284Y017548D01*
X016284Y017469D02*
X017204Y017469D01*
X017282Y017391D02*
X016284Y017391D01*
X016254Y017312D02*
X017361Y017312D01*
X017439Y017234D02*
X013474Y017234D01*
X013474Y017312D02*
X015874Y017312D01*
X016064Y017504D02*
X003170Y017504D01*
X002754Y017088D01*
X002813Y017346D02*
X002476Y017346D01*
X002418Y017287D01*
X002418Y016889D01*
X002476Y016831D01*
X003004Y016831D01*
X003004Y016637D01*
X002476Y016637D01*
X002418Y016579D01*
X002418Y016181D01*
X002476Y016122D01*
X002813Y016122D01*
X003772Y015164D01*
X003888Y015164D01*
X004314Y015164D01*
X004314Y015164D01*
X003482Y015164D01*
X003366Y015164D01*
X003246Y015044D01*
X003164Y014962D01*
X003164Y013922D01*
X003164Y013806D01*
X003324Y013646D01*
X003406Y013564D01*
X004352Y013564D01*
X004372Y013544D01*
X005235Y013544D01*
X005294Y013602D01*
X005294Y013905D01*
X005235Y013964D01*
X004372Y013964D01*
X004314Y013905D01*
X004314Y013844D01*
X003522Y013844D01*
X003444Y013922D01*
X003444Y014034D01*
X003745Y014034D01*
X003804Y014092D01*
X003804Y014114D01*
X004314Y014114D01*
X004314Y014102D01*
X004372Y014044D01*
X005235Y014044D01*
X005294Y014102D01*
X005294Y014405D01*
X005235Y014464D01*
X004372Y014464D01*
X004314Y014405D01*
X004314Y014394D01*
X003804Y014394D01*
X003804Y014415D01*
X003745Y014474D01*
X003444Y014474D01*
X003444Y014846D01*
X003482Y014884D01*
X004314Y014884D01*
X004314Y014602D01*
X004372Y014544D01*
X005235Y014544D01*
X005294Y014602D01*
X005294Y014884D01*
X005322Y014884D01*
X005324Y014886D01*
X005324Y013442D01*
X005324Y013326D01*
X005426Y013224D01*
X005384Y013182D01*
X005362Y013204D01*
X005294Y013272D01*
X005294Y013405D01*
X005235Y013464D01*
X004372Y013464D01*
X002989Y013464D01*
X002911Y013542D02*
X005324Y013542D01*
X005324Y013464D02*
X005236Y013464D01*
X005294Y013385D02*
X005324Y013385D01*
X005343Y013306D02*
X005294Y013306D01*
X005338Y013228D02*
X005422Y013228D01*
X005464Y013384D02*
X005624Y013224D01*
X005464Y013064D01*
X005464Y011704D01*
X005321Y011561D01*
X005321Y011266D01*
X004985Y011264D02*
X004537Y011264D01*
X004549Y011186D02*
X004985Y011186D01*
X004985Y011107D02*
X004549Y011107D01*
X004549Y011029D02*
X004985Y011029D01*
X004985Y010950D02*
X004154Y010950D01*
X004154Y010910D02*
X004549Y010910D01*
X004549Y010676D01*
X004540Y010640D01*
X004521Y010608D01*
X004495Y010582D01*
X004463Y010564D01*
X004428Y010554D01*
X004154Y010554D01*
X004154Y010910D01*
X004154Y010872D02*
X004074Y010872D01*
X004074Y010910D02*
X004074Y010554D01*
X003800Y010554D01*
X003765Y010564D01*
X003733Y010582D01*
X003707Y010608D01*
X003688Y010640D01*
X003679Y010676D01*
X003679Y010910D01*
X004074Y010910D01*
X004074Y010950D02*
X003254Y010950D01*
X003254Y010872D02*
X003679Y010872D01*
X003679Y010793D02*
X003254Y010793D01*
X003254Y010715D02*
X003679Y010715D01*
X003690Y010636D02*
X003254Y010636D01*
X003254Y010557D02*
X003787Y010557D01*
X004074Y010557D02*
X004154Y010557D01*
X004154Y010636D02*
X004074Y010636D01*
X004074Y010715D02*
X004154Y010715D01*
X004154Y010793D02*
X004074Y010793D01*
X004441Y010557D02*
X005103Y010557D01*
X005103Y010559D02*
X005103Y009925D01*
X005161Y009867D01*
X006347Y009867D01*
X006405Y009925D01*
X006405Y010052D01*
X006413Y010044D01*
X006595Y010044D01*
X006724Y010173D01*
X006724Y010355D01*
X006595Y010484D01*
X006413Y010484D01*
X006405Y010476D01*
X006405Y010559D01*
X006347Y010618D01*
X005161Y010618D01*
X005103Y010559D01*
X005103Y010479D02*
X003254Y010479D01*
X003254Y010400D02*
X005103Y010400D01*
X005103Y010322D02*
X003254Y010322D01*
X003254Y010243D02*
X005103Y010243D01*
X005103Y010165D02*
X003254Y010165D01*
X003254Y010086D02*
X005103Y010086D01*
X005103Y010008D02*
X003254Y010008D01*
X003254Y009929D02*
X005103Y009929D01*
X005113Y009611D02*
X005055Y009553D01*
X005055Y009524D01*
X004893Y009524D01*
X004764Y009395D01*
X004764Y009213D01*
X004893Y009084D01*
X005055Y009084D01*
X005055Y008919D01*
X005113Y008860D01*
X005669Y008860D01*
X005727Y008919D01*
X005727Y009553D01*
X005669Y009611D01*
X005113Y009611D01*
X005055Y009536D02*
X003254Y009536D01*
X003254Y009458D02*
X004827Y009458D01*
X004764Y009379D02*
X003254Y009379D01*
X003248Y009301D02*
X004764Y009301D01*
X004764Y009222D02*
X003216Y009222D01*
X003159Y009144D02*
X004833Y009144D01*
X004984Y009304D02*
X005052Y009236D01*
X005391Y009236D01*
X005727Y009222D02*
X006217Y009222D01*
X006217Y009196D02*
X005881Y009196D01*
X005881Y008942D01*
X005890Y008906D01*
X005909Y008874D01*
X005935Y008848D01*
X005967Y008830D01*
X006002Y008820D01*
X006217Y008820D01*
X006217Y009196D01*
X006217Y009276D01*
X006217Y009651D01*
X006002Y009651D01*
X005967Y009642D01*
X005935Y009623D01*
X005909Y009597D01*
X005890Y009565D01*
X005881Y009530D01*
X005881Y009276D01*
X006217Y009276D01*
X006297Y009276D01*
X006297Y009651D01*
X006512Y009651D01*
X006547Y009642D01*
X006579Y009623D01*
X006605Y009597D01*
X006624Y009565D01*
X006633Y009530D01*
X006633Y009276D01*
X006297Y009276D01*
X006297Y009196D01*
X006633Y009196D01*
X006633Y008942D01*
X006624Y008906D01*
X006605Y008874D01*
X006605Y008874D01*
X006672Y008807D01*
X007560Y008807D01*
X007618Y008748D01*
X007618Y008271D01*
X007560Y008213D01*
X006611Y008213D01*
X006552Y008271D01*
X006552Y008444D01*
X006475Y008444D01*
X006475Y007895D01*
X006417Y007837D01*
X006287Y007837D01*
X006495Y007604D01*
X006595Y007604D01*
X006724Y007475D01*
X006724Y007293D01*
X006595Y007164D01*
X006413Y007164D01*
X006284Y007293D01*
X006284Y007420D01*
X005911Y007837D01*
X005231Y007837D01*
X005173Y007895D01*
X005173Y008529D01*
X005231Y008588D01*
X006284Y008588D01*
X006284Y008755D01*
X006349Y008820D01*
X006297Y008820D01*
X006297Y009196D01*
X006217Y009196D01*
X006217Y009144D02*
X006297Y009144D01*
X006297Y009222D02*
X010504Y009222D01*
X010504Y009144D02*
X006633Y009144D01*
X006633Y009065D02*
X010543Y009065D01*
X010562Y009046D02*
X010504Y009104D01*
X010504Y009407D01*
X010562Y009466D01*
X011425Y009466D01*
X011484Y009407D01*
X011484Y009104D01*
X011425Y009046D01*
X010562Y009046D01*
X010562Y008966D02*
X010504Y008907D01*
X010504Y008604D01*
X010562Y008546D01*
X011404Y008546D01*
X011404Y008466D01*
X010562Y008466D01*
X010511Y008414D01*
X010509Y008415D01*
X010479Y008404D01*
X010446Y008404D01*
X010426Y008384D01*
X010400Y008375D01*
X010387Y008345D01*
X010364Y008322D01*
X010364Y008294D01*
X010050Y007604D01*
X010013Y007604D01*
X009884Y007475D01*
X009884Y007293D01*
X010013Y007164D01*
X010195Y007164D01*
X010324Y007293D01*
X010324Y007475D01*
X010307Y007492D01*
X010560Y008049D01*
X010562Y008046D01*
X011404Y008046D01*
X011404Y007966D01*
X010562Y007966D01*
X010504Y007907D01*
X010504Y007604D01*
X010539Y007570D01*
X010444Y007475D01*
X010444Y007293D01*
X010573Y007164D01*
X010755Y007164D01*
X010884Y007293D01*
X010884Y007448D01*
X010982Y007546D01*
X011395Y007546D01*
X011324Y007475D01*
X011324Y007293D01*
X011453Y007164D01*
X011635Y007164D01*
X011664Y007193D01*
X011773Y007084D01*
X011955Y007084D01*
X012084Y007213D01*
X012084Y007395D01*
X012055Y007424D01*
X012084Y007453D01*
X012084Y007635D01*
X012044Y007675D01*
X012044Y008133D01*
X012084Y008173D01*
X012084Y008355D01*
X012055Y008384D01*
X012084Y008413D01*
X012084Y008595D01*
X011955Y008724D01*
X011773Y008724D01*
X011684Y008635D01*
X011684Y008802D01*
X011602Y008884D01*
X011590Y008896D01*
X011484Y008896D01*
X011484Y008907D01*
X011425Y008966D01*
X010562Y008966D01*
X010505Y008908D02*
X006624Y008908D01*
X006633Y008987D02*
X015564Y008987D01*
X015564Y008962D02*
X015564Y008846D01*
X015774Y008636D01*
X015774Y007262D01*
X015832Y007204D01*
X015990Y007204D01*
X015990Y006899D01*
X015833Y006899D01*
X015774Y006841D01*
X015774Y006167D01*
X015833Y006109D01*
X016427Y006109D01*
X016486Y006167D01*
X016486Y006176D01*
X016492Y006155D01*
X016510Y006123D01*
X016536Y006097D01*
X016568Y006078D01*
X016604Y006069D01*
X016838Y006069D01*
X016838Y006464D01*
X016918Y006464D01*
X016918Y006544D01*
X016838Y006544D01*
X016838Y006939D01*
X016604Y006939D01*
X016568Y006930D01*
X016536Y006911D01*
X016510Y006885D01*
X016492Y006853D01*
X016486Y006831D01*
X016486Y006841D01*
X016427Y006899D01*
X016270Y006899D01*
X016270Y007204D01*
X016675Y007204D01*
X016734Y007262D01*
X016734Y009445D01*
X016675Y009504D01*
X015832Y009504D01*
X015774Y009445D01*
X015774Y009444D01*
X015613Y009444D01*
X015484Y009315D01*
X015484Y009133D01*
X015564Y009053D01*
X015564Y008962D01*
X015564Y008908D02*
X015043Y008908D01*
X015044Y008907D02*
X014985Y008966D01*
X014122Y008966D01*
X014064Y008907D01*
X014064Y008604D01*
X014122Y008546D01*
X014985Y008546D01*
X015044Y008604D01*
X015044Y008907D01*
X015044Y008830D02*
X015580Y008830D01*
X015659Y008751D02*
X015044Y008751D01*
X015044Y008672D02*
X015737Y008672D01*
X015774Y008594D02*
X015033Y008594D01*
X014985Y008466D02*
X014122Y008466D01*
X014064Y008407D01*
X014064Y008104D01*
X014122Y008046D01*
X014985Y008046D01*
X015044Y008104D01*
X015044Y008407D01*
X014985Y008466D01*
X015014Y008437D02*
X015774Y008437D01*
X015774Y008515D02*
X012084Y008515D01*
X012084Y008437D02*
X014093Y008437D01*
X014064Y008358D02*
X013511Y008358D01*
X013524Y008345D02*
X013465Y008404D01*
X013142Y008404D01*
X013084Y008345D01*
X013084Y008022D01*
X013089Y008018D01*
X012740Y007124D01*
X012642Y007124D01*
X012584Y007065D01*
X012584Y006742D01*
X012642Y006684D01*
X012965Y006684D01*
X013024Y006742D01*
X013024Y007065D01*
X013019Y007070D01*
X013368Y007964D01*
X013465Y007964D01*
X013524Y008022D01*
X013524Y008345D01*
X013524Y008280D02*
X014064Y008280D01*
X014064Y008201D02*
X013524Y008201D01*
X013524Y008123D02*
X014064Y008123D01*
X014122Y007966D02*
X014064Y007907D01*
X014064Y007604D01*
X014122Y007546D01*
X014414Y007546D01*
X014414Y007090D01*
X014369Y007045D01*
X014369Y006888D01*
X014189Y006888D01*
X014189Y007045D01*
X014131Y007104D01*
X013457Y007104D01*
X013399Y007045D01*
X013399Y006451D01*
X013457Y006392D01*
X013466Y006392D01*
X013445Y006386D01*
X013413Y006368D01*
X013387Y006342D01*
X013368Y006310D01*
X013359Y006274D01*
X013359Y006040D01*
X013754Y006040D01*
X013754Y005960D01*
X013834Y005960D01*
X013834Y006040D01*
X014229Y006040D01*
X014229Y006274D01*
X014220Y006310D01*
X014201Y006342D01*
X014175Y006368D01*
X014143Y006386D01*
X014121Y006392D01*
X014131Y006392D01*
X014189Y006451D01*
X014189Y006608D01*
X014369Y006608D01*
X014369Y006451D01*
X014427Y006392D01*
X014436Y006392D01*
X014415Y006386D01*
X014383Y006368D01*
X014357Y006342D01*
X014338Y006310D01*
X014329Y006274D01*
X014329Y006040D01*
X014724Y006040D01*
X014724Y005960D01*
X014804Y005960D01*
X014804Y006040D01*
X015199Y006040D01*
X015199Y006274D01*
X015190Y006310D01*
X015171Y006342D01*
X015145Y006368D01*
X015113Y006386D01*
X015092Y006392D01*
X015101Y006392D01*
X015159Y006451D01*
X015159Y007045D01*
X015101Y007104D01*
X014694Y007104D01*
X014694Y007546D01*
X014985Y007546D01*
X015044Y007604D01*
X015044Y007907D01*
X014985Y007966D01*
X014122Y007966D01*
X013467Y007966D01*
X013524Y008044D02*
X015774Y008044D01*
X015774Y007966D02*
X014986Y007966D01*
X015044Y007887D02*
X015774Y007887D01*
X015774Y007808D02*
X015044Y007808D01*
X015044Y007730D02*
X015774Y007730D01*
X015774Y007651D02*
X015044Y007651D01*
X015012Y007573D02*
X015774Y007573D01*
X015774Y007494D02*
X014694Y007494D01*
X014694Y007416D02*
X015774Y007416D01*
X015774Y007337D02*
X014694Y007337D01*
X014694Y007259D02*
X015778Y007259D01*
X015990Y007180D02*
X014694Y007180D01*
X014554Y006958D02*
X014764Y006748D01*
X013794Y006748D01*
X013399Y006787D02*
X013024Y006787D01*
X013024Y006866D02*
X013399Y006866D01*
X013399Y006944D02*
X013024Y006944D01*
X013024Y007023D02*
X013399Y007023D01*
X013455Y007102D02*
X013031Y007102D01*
X013062Y007180D02*
X014414Y007180D01*
X014414Y007102D02*
X014133Y007102D01*
X014189Y007023D02*
X014369Y007023D01*
X014369Y006944D02*
X014189Y006944D01*
X014554Y006958D02*
X014554Y007756D01*
X014414Y007494D02*
X013185Y007494D01*
X013154Y007416D02*
X014414Y007416D01*
X014414Y007337D02*
X013123Y007337D01*
X013093Y007259D02*
X014414Y007259D01*
X014095Y007573D02*
X013215Y007573D01*
X013246Y007651D02*
X014064Y007651D01*
X014064Y007730D02*
X013277Y007730D01*
X013308Y007808D02*
X014064Y007808D01*
X014064Y007887D02*
X013338Y007887D01*
X013068Y007966D02*
X012044Y007966D01*
X012044Y008044D02*
X013084Y008044D01*
X013084Y008123D02*
X012044Y008123D01*
X012084Y008201D02*
X013084Y008201D01*
X013084Y008280D02*
X012084Y008280D01*
X012081Y008358D02*
X013097Y008358D01*
X013304Y008184D02*
X012804Y006904D01*
X012584Y006866D02*
X010336Y006866D01*
X010336Y006944D02*
X012584Y006944D01*
X012584Y007023D02*
X010305Y007023D01*
X010308Y007021D02*
X010282Y007047D01*
X010250Y007065D01*
X010214Y007075D01*
X009802Y007075D01*
X009802Y006778D01*
X009723Y006778D01*
X009723Y007075D01*
X009311Y007075D01*
X009275Y007065D01*
X009243Y007047D01*
X009217Y007021D01*
X009199Y006989D01*
X009189Y006953D01*
X009189Y006778D01*
X009722Y006778D01*
X009722Y006698D01*
X009189Y006698D01*
X009189Y006523D01*
X009199Y006487D01*
X009217Y006455D01*
X009243Y006429D01*
X009258Y006421D01*
X009258Y006044D01*
X009614Y006044D01*
X009614Y006318D01*
X009604Y006353D01*
X009586Y006385D01*
X009570Y006401D01*
X009723Y006401D01*
X009723Y006698D01*
X009802Y006698D01*
X009802Y006401D01*
X010214Y006401D01*
X010250Y006411D01*
X010282Y006429D01*
X010308Y006455D01*
X010326Y006487D01*
X010336Y006523D01*
X010336Y006698D01*
X009803Y006698D01*
X009803Y006778D01*
X010336Y006778D01*
X010336Y006953D01*
X010326Y006989D01*
X010308Y007021D01*
X010211Y007180D02*
X010557Y007180D01*
X010478Y007259D02*
X010290Y007259D01*
X010324Y007337D02*
X010444Y007337D01*
X010444Y007416D02*
X010324Y007416D01*
X010308Y007494D02*
X010463Y007494D01*
X010535Y007573D02*
X010344Y007573D01*
X010379Y007651D02*
X010504Y007651D01*
X010504Y007730D02*
X010415Y007730D01*
X010451Y007808D02*
X010504Y007808D01*
X010504Y007887D02*
X010486Y007887D01*
X010522Y007966D02*
X010562Y007966D01*
X010558Y008044D02*
X011404Y008044D01*
X011684Y008044D02*
X011684Y008044D01*
X011684Y007966D02*
X011684Y007966D01*
X011684Y007887D02*
X011684Y007887D01*
X011684Y007808D02*
X011684Y007808D01*
X011684Y007730D02*
X011684Y007730D01*
X011684Y007675D02*
X011684Y007675D01*
X011684Y008133D01*
X011684Y008133D01*
X011684Y007675D01*
X011544Y007384D02*
X011544Y008744D01*
X011532Y008756D01*
X010994Y008756D01*
X011404Y008515D02*
X010296Y008515D01*
X010296Y008437D02*
X010533Y008437D01*
X010514Y008594D02*
X010296Y008594D01*
X010296Y008672D02*
X010504Y008672D01*
X010504Y008751D02*
X010293Y008751D01*
X010296Y008748D02*
X010237Y008807D01*
X009288Y008807D01*
X009229Y008748D01*
X009229Y008271D01*
X009288Y008213D01*
X010237Y008213D01*
X010296Y008271D01*
X010296Y008748D01*
X010504Y008830D02*
X006649Y008830D01*
X006504Y008664D02*
X006931Y008664D01*
X007085Y008510D01*
X007618Y008515D02*
X009229Y008515D01*
X009229Y008437D02*
X007618Y008437D01*
X007618Y008358D02*
X008297Y008358D01*
X008284Y008345D02*
X008284Y008022D01*
X008342Y007964D01*
X008364Y007964D01*
X008364Y007604D01*
X008342Y007604D01*
X008284Y007545D01*
X008284Y007222D01*
X008342Y007164D01*
X008665Y007164D01*
X008724Y007222D01*
X008724Y007545D01*
X008665Y007604D01*
X008644Y007604D01*
X008644Y007964D01*
X008665Y007964D01*
X008724Y008022D01*
X008724Y008345D01*
X008665Y008404D01*
X008342Y008404D01*
X008284Y008345D01*
X008284Y008280D02*
X007618Y008280D01*
X007618Y008594D02*
X009229Y008594D01*
X009229Y008672D02*
X007618Y008672D01*
X007615Y008751D02*
X009232Y008751D01*
X009229Y008358D02*
X008711Y008358D01*
X008724Y008280D02*
X009229Y008280D01*
X008724Y008201D02*
X010322Y008201D01*
X010296Y008280D02*
X010357Y008280D01*
X010393Y008358D02*
X010296Y008358D01*
X010504Y008264D02*
X010986Y008264D01*
X010994Y008256D01*
X010994Y007756D02*
X010664Y007426D01*
X010664Y007384D01*
X010884Y007416D02*
X011324Y007416D01*
X011324Y007337D02*
X010884Y007337D01*
X010850Y007259D02*
X011358Y007259D01*
X011437Y007180D02*
X010771Y007180D01*
X010930Y007494D02*
X011343Y007494D01*
X011651Y007180D02*
X011677Y007180D01*
X011755Y007102D02*
X003364Y007102D01*
X003364Y007180D02*
X006397Y007180D01*
X006318Y007259D02*
X003364Y007259D01*
X003364Y007337D02*
X004800Y007337D01*
X004813Y007324D02*
X004995Y007324D01*
X005124Y007453D01*
X005124Y007635D01*
X005044Y007715D01*
X005044Y008013D01*
X005124Y008093D01*
X005124Y008275D01*
X004995Y008404D01*
X004813Y008404D01*
X004684Y008275D01*
X004684Y008093D01*
X004764Y008013D01*
X004764Y007715D01*
X004684Y007635D01*
X004684Y007453D01*
X004813Y007324D01*
X004721Y007416D02*
X003364Y007416D01*
X003364Y007494D02*
X004684Y007494D01*
X004684Y007573D02*
X003364Y007573D01*
X003364Y007651D02*
X004700Y007651D01*
X004764Y007730D02*
X003364Y007730D01*
X003364Y007808D02*
X004764Y007808D01*
X004764Y007887D02*
X003364Y007887D01*
X003387Y007966D02*
X004764Y007966D01*
X004733Y008044D02*
X003444Y008044D01*
X003444Y008123D02*
X004684Y008123D01*
X004684Y008201D02*
X003444Y008201D01*
X003444Y008280D02*
X004689Y008280D01*
X004767Y008358D02*
X003431Y008358D01*
X003224Y008184D02*
X003224Y007144D01*
X002584Y007144D01*
X002766Y006944D02*
X004049Y006944D01*
X004049Y006866D02*
X002454Y006866D01*
X002454Y006787D02*
X004049Y006787D01*
X004049Y006709D02*
X002454Y006709D01*
X002454Y006630D02*
X004444Y006630D01*
X004444Y006709D02*
X004524Y006709D01*
X004524Y006787D02*
X004444Y006787D01*
X004444Y006866D02*
X004524Y006866D01*
X004524Y006944D02*
X004444Y006944D01*
X004444Y007023D02*
X004524Y007023D01*
X004524Y006630D02*
X006512Y006630D01*
X006512Y006698D02*
X006512Y006523D01*
X006522Y006487D01*
X006540Y006455D01*
X006566Y006429D01*
X006598Y006411D01*
X006634Y006401D01*
X007045Y006401D01*
X007045Y006698D01*
X006512Y006698D01*
X006512Y006778D02*
X007045Y006778D01*
X007045Y006698D01*
X007125Y006698D01*
X007125Y006401D01*
X007537Y006401D01*
X007572Y006411D01*
X007604Y006429D01*
X007630Y006455D01*
X007649Y006487D01*
X007658Y006523D01*
X007658Y006698D01*
X007125Y006698D01*
X007125Y006778D01*
X007045Y006778D01*
X007045Y007075D01*
X006634Y007075D01*
X006598Y007065D01*
X006566Y007047D01*
X006540Y007021D01*
X006522Y006989D01*
X006512Y006953D01*
X006512Y006778D01*
X006512Y006787D02*
X004919Y006787D01*
X004919Y006709D02*
X007045Y006709D01*
X007045Y006787D02*
X007125Y006787D01*
X007125Y006778D02*
X007125Y007075D01*
X007537Y007075D01*
X007572Y007065D01*
X007604Y007047D01*
X007630Y007021D01*
X007649Y006989D01*
X007658Y006953D01*
X007658Y006778D01*
X007125Y006778D01*
X007125Y006709D02*
X009722Y006709D01*
X009723Y006787D02*
X009802Y006787D01*
X009803Y006709D02*
X012618Y006709D01*
X012584Y006787D02*
X010336Y006787D01*
X010336Y006630D02*
X013399Y006630D01*
X013399Y006552D02*
X010336Y006552D01*
X010318Y006473D02*
X013399Y006473D01*
X013455Y006395D02*
X009576Y006395D01*
X009614Y006316D02*
X013372Y006316D01*
X013359Y006238D02*
X009614Y006238D01*
X009614Y006159D02*
X013359Y006159D01*
X013359Y006081D02*
X009614Y006081D01*
X009614Y005923D02*
X013359Y005923D01*
X013359Y005960D02*
X013359Y005726D01*
X013368Y005690D01*
X013387Y005658D01*
X013413Y005632D01*
X013445Y005614D01*
X013480Y005604D01*
X013754Y005604D01*
X013754Y005960D01*
X013359Y005960D01*
X013359Y005845D02*
X009614Y005845D01*
X009614Y005766D02*
X013359Y005766D01*
X013369Y005688D02*
X009613Y005688D01*
X009572Y005609D02*
X013461Y005609D01*
X013754Y005609D02*
X013834Y005609D01*
X013834Y005604D02*
X014108Y005604D01*
X014143Y005614D01*
X014175Y005632D01*
X014201Y005658D01*
X014220Y005690D01*
X014229Y005726D01*
X014229Y005960D01*
X013834Y005960D01*
X013834Y005604D01*
X013834Y005688D02*
X013754Y005688D01*
X013754Y005766D02*
X013834Y005766D01*
X013834Y005845D02*
X013754Y005845D01*
X013754Y005923D02*
X013834Y005923D01*
X013834Y006002D02*
X014724Y006002D01*
X014724Y005960D02*
X014329Y005960D01*
X014329Y005726D01*
X014338Y005690D01*
X014357Y005658D01*
X014383Y005632D01*
X014415Y005614D01*
X014450Y005604D01*
X014724Y005604D01*
X014724Y005960D01*
X014724Y005923D02*
X014804Y005923D01*
X014804Y005960D02*
X014804Y005604D01*
X015078Y005604D01*
X015113Y005614D01*
X015145Y005632D01*
X015171Y005658D01*
X015190Y005690D01*
X015199Y005726D01*
X015199Y005960D01*
X014804Y005960D01*
X014804Y006002D02*
X017674Y006002D01*
X017674Y006081D02*
X017192Y006081D01*
X017188Y006078D02*
X017220Y006097D01*
X017246Y006123D01*
X017264Y006155D01*
X017274Y006190D01*
X017274Y006464D01*
X016918Y006464D01*
X016918Y006069D01*
X017152Y006069D01*
X017188Y006078D01*
X017265Y006159D02*
X017674Y006159D01*
X017674Y006238D02*
X017274Y006238D01*
X017274Y006316D02*
X017674Y006316D01*
X017674Y006395D02*
X017274Y006395D01*
X017274Y006544D02*
X017274Y006818D01*
X017264Y006853D01*
X017246Y006885D01*
X017220Y006911D01*
X017188Y006930D01*
X017152Y006939D01*
X016918Y006939D01*
X016918Y006544D01*
X017274Y006544D01*
X017274Y006552D02*
X017674Y006552D01*
X017674Y006630D02*
X017274Y006630D01*
X017274Y006709D02*
X017674Y006709D01*
X017674Y006787D02*
X017274Y006787D01*
X017257Y006866D02*
X017674Y006866D01*
X017674Y006944D02*
X016270Y006944D01*
X016270Y007023D02*
X017674Y007023D01*
X017674Y007102D02*
X016270Y007102D01*
X016270Y007180D02*
X017674Y007180D01*
X017674Y007259D02*
X016730Y007259D01*
X016734Y007337D02*
X017674Y007337D01*
X017674Y007416D02*
X016734Y007416D01*
X016734Y007494D02*
X017674Y007494D01*
X017674Y007573D02*
X016734Y007573D01*
X016734Y007651D02*
X017674Y007651D01*
X017674Y007730D02*
X016734Y007730D01*
X016734Y007808D02*
X017674Y007808D01*
X017674Y007887D02*
X016734Y007887D01*
X016734Y007966D02*
X017674Y007966D01*
X017674Y008044D02*
X016734Y008044D01*
X016734Y008123D02*
X017674Y008123D01*
X017674Y008201D02*
X016734Y008201D01*
X016734Y008280D02*
X017674Y008280D01*
X017674Y008358D02*
X016734Y008358D01*
X016734Y008437D02*
X017674Y008437D01*
X017674Y008515D02*
X016734Y008515D01*
X016734Y008594D02*
X017674Y008594D01*
X017674Y008672D02*
X016734Y008672D01*
X016734Y008751D02*
X017674Y008751D01*
X017674Y008830D02*
X016734Y008830D01*
X016734Y008908D02*
X017674Y008908D01*
X017674Y008987D02*
X016734Y008987D01*
X016734Y009065D02*
X017674Y009065D01*
X017674Y009144D02*
X016734Y009144D01*
X016734Y009222D02*
X017674Y009222D01*
X017674Y009301D02*
X016734Y009301D01*
X016734Y009379D02*
X017674Y009379D01*
X017674Y009458D02*
X016721Y009458D01*
X015786Y009458D02*
X014993Y009458D01*
X014985Y009466D02*
X014122Y009466D01*
X014064Y009407D01*
X014064Y009104D01*
X014122Y009046D01*
X014985Y009046D01*
X015044Y009104D01*
X015044Y009407D01*
X014985Y009466D01*
X014985Y009546D02*
X015028Y009589D01*
X015053Y009564D01*
X015235Y009564D01*
X015364Y009693D01*
X015364Y009875D01*
X015235Y010004D01*
X015053Y010004D01*
X015000Y009951D01*
X014985Y009966D01*
X014122Y009966D01*
X014064Y009907D01*
X014064Y009604D01*
X014122Y009546D01*
X014985Y009546D01*
X015044Y009379D02*
X015548Y009379D01*
X015484Y009301D02*
X015044Y009301D01*
X015044Y009222D02*
X015484Y009222D01*
X015484Y009144D02*
X015044Y009144D01*
X015005Y009065D02*
X015552Y009065D01*
X015704Y009224D02*
X015704Y008904D01*
X016254Y008354D01*
X016130Y008230D01*
X016130Y006504D01*
X015774Y006473D02*
X015159Y006473D01*
X015159Y006552D02*
X015774Y006552D01*
X015774Y006630D02*
X015159Y006630D01*
X015159Y006709D02*
X015774Y006709D01*
X015774Y006787D02*
X015159Y006787D01*
X015159Y006866D02*
X015799Y006866D01*
X015990Y006944D02*
X015159Y006944D01*
X015159Y007023D02*
X015990Y007023D01*
X015990Y007102D02*
X015103Y007102D01*
X015103Y006395D02*
X015774Y006395D01*
X015774Y006316D02*
X015186Y006316D01*
X015199Y006238D02*
X015774Y006238D01*
X015782Y006159D02*
X015199Y006159D01*
X015199Y006081D02*
X016564Y006081D01*
X016490Y006159D02*
X016478Y006159D01*
X016838Y006159D02*
X016918Y006159D01*
X016918Y006081D02*
X016838Y006081D01*
X016838Y006238D02*
X016918Y006238D01*
X016918Y006316D02*
X016838Y006316D01*
X016838Y006395D02*
X016918Y006395D01*
X016918Y006473D02*
X017674Y006473D01*
X017674Y005923D02*
X015199Y005923D01*
X015199Y005845D02*
X017674Y005845D01*
X017674Y005766D02*
X015199Y005766D01*
X015188Y005688D02*
X017674Y005688D01*
X017674Y005609D02*
X015097Y005609D01*
X014804Y005609D02*
X014724Y005609D01*
X014724Y005688D02*
X014804Y005688D01*
X014804Y005766D02*
X014724Y005766D01*
X014724Y005845D02*
X014804Y005845D01*
X014431Y005609D02*
X014127Y005609D01*
X014218Y005688D02*
X014339Y005688D01*
X014329Y005766D02*
X014229Y005766D01*
X014229Y005845D02*
X014329Y005845D01*
X014329Y005923D02*
X014229Y005923D01*
X014229Y006081D02*
X014329Y006081D01*
X014329Y006159D02*
X014229Y006159D01*
X014229Y006238D02*
X014329Y006238D01*
X014342Y006316D02*
X014216Y006316D01*
X014133Y006395D02*
X014425Y006395D01*
X014369Y006473D02*
X014189Y006473D01*
X014189Y006552D02*
X014369Y006552D01*
X013754Y006002D02*
X009258Y006002D01*
X009258Y006081D02*
X009178Y006081D01*
X009178Y006159D02*
X009258Y006159D01*
X009258Y006238D02*
X009178Y006238D01*
X009178Y006316D02*
X009258Y006316D01*
X009258Y006395D02*
X009178Y006395D01*
X009207Y006473D02*
X007641Y006473D01*
X007658Y006552D02*
X009189Y006552D01*
X009189Y006630D02*
X007658Y006630D01*
X007658Y006787D02*
X009189Y006787D01*
X009189Y006866D02*
X007658Y006866D01*
X007658Y006944D02*
X009189Y006944D01*
X009220Y007023D02*
X007628Y007023D01*
X007125Y007023D02*
X007045Y007023D01*
X007045Y006944D02*
X007125Y006944D01*
X007125Y006866D02*
X007045Y006866D01*
X007045Y006630D02*
X007125Y006630D01*
X007125Y006552D02*
X007045Y006552D01*
X007045Y006473D02*
X007125Y006473D01*
X006530Y006473D02*
X004919Y006473D01*
X004919Y006395D02*
X008168Y006395D01*
X008114Y006316D02*
X004881Y006316D01*
X004859Y006238D02*
X008114Y006238D01*
X008114Y006159D02*
X004879Y006159D01*
X004879Y006081D02*
X008114Y006081D01*
X008114Y006002D02*
X004879Y006002D01*
X004879Y005923D02*
X008114Y005923D01*
X008114Y005845D02*
X004879Y005845D01*
X004879Y005766D02*
X007215Y005766D01*
X007164Y005688D02*
X004879Y005688D01*
X004866Y005609D02*
X007164Y005609D01*
X007384Y005624D02*
X007394Y005614D01*
X007394Y004545D01*
X007709Y004545D02*
X007709Y005549D01*
X007864Y005624D01*
X008084Y005609D02*
X008172Y005609D01*
X008114Y005688D02*
X008084Y005688D01*
X008114Y005766D02*
X008033Y005766D01*
X007695Y005766D02*
X007553Y005766D01*
X007604Y005688D02*
X007644Y005688D01*
X008650Y005609D02*
X008650Y005574D01*
X008924Y005574D01*
X008908Y005578D01*
X008876Y005597D01*
X008850Y005623D01*
X008832Y005655D01*
X008826Y005676D01*
X008826Y005667D01*
X008767Y005609D01*
X008650Y005609D01*
X008768Y005609D02*
X008863Y005609D01*
X008860Y006395D02*
X008772Y006395D01*
X008682Y007180D02*
X009997Y007180D01*
X009918Y007259D02*
X008724Y007259D01*
X008724Y007337D02*
X009884Y007337D01*
X009884Y007416D02*
X008724Y007416D01*
X008724Y007494D02*
X009903Y007494D01*
X009982Y007573D02*
X008696Y007573D01*
X008644Y007651D02*
X010072Y007651D01*
X010107Y007730D02*
X008644Y007730D01*
X008644Y007808D02*
X010143Y007808D01*
X010179Y007887D02*
X008644Y007887D01*
X008667Y007966D02*
X010215Y007966D01*
X010250Y008044D02*
X008724Y008044D01*
X008724Y008123D02*
X010286Y008123D01*
X010504Y008264D02*
X010104Y007384D01*
X009802Y007023D02*
X009723Y007023D01*
X009723Y006944D02*
X009802Y006944D01*
X009802Y006866D02*
X009723Y006866D01*
X009723Y006630D02*
X009802Y006630D01*
X009802Y006552D02*
X009723Y006552D01*
X009723Y006473D02*
X009802Y006473D01*
X010147Y005531D02*
X017674Y005531D01*
X017674Y005452D02*
X010216Y005452D01*
X010214Y005374D02*
X017674Y005374D01*
X017674Y005295D02*
X010211Y005295D01*
X010209Y005217D02*
X017674Y005217D01*
X017674Y005138D02*
X010206Y005138D01*
X010204Y005059D02*
X017674Y005059D01*
X017674Y004981D02*
X010201Y004981D01*
X010199Y004902D02*
X017674Y004902D01*
X017609Y004824D02*
X010196Y004824D01*
X010194Y004745D02*
X017530Y004745D01*
X017452Y004667D02*
X010192Y004667D01*
X010189Y004588D02*
X017373Y004588D01*
X017295Y004510D02*
X010187Y004510D01*
X010184Y004431D02*
X017216Y004431D01*
X017138Y004353D02*
X010182Y004353D01*
X010179Y004274D02*
X017059Y004274D01*
X016981Y004195D02*
X010177Y004195D01*
X010174Y004117D02*
X016902Y004117D01*
X016823Y004038D02*
X010172Y004038D01*
X010169Y003960D02*
X016745Y003960D01*
X016666Y003881D02*
X010167Y003881D01*
X010165Y003803D02*
X016588Y003803D01*
X016509Y003724D02*
X010179Y003724D01*
X010257Y003646D02*
X016431Y003646D01*
X016352Y003567D02*
X010336Y003567D01*
X010414Y003489D02*
X016274Y003489D01*
X016195Y003410D02*
X010493Y003410D01*
X010571Y003331D02*
X016117Y003331D01*
X016038Y003253D02*
X010650Y003253D01*
X011121Y002782D02*
X013200Y002782D01*
X013164Y002703D02*
X011200Y002703D01*
X011278Y002625D02*
X013164Y002625D01*
X013164Y002546D02*
X011357Y002546D01*
X011435Y002468D02*
X013164Y002468D01*
X013197Y002389D02*
X011514Y002389D01*
X010995Y001918D02*
X007364Y001918D01*
X007364Y001839D02*
X011074Y001839D01*
X011152Y001761D02*
X007364Y001761D01*
X007364Y001682D02*
X011231Y001682D01*
X011309Y001604D02*
X007364Y001604D01*
X007364Y001525D02*
X011388Y001525D01*
X011466Y001446D02*
X007364Y001446D01*
X007364Y001368D02*
X011545Y001368D01*
X011624Y001289D02*
X007364Y001289D01*
X007364Y001211D02*
X011702Y001211D01*
X011781Y001132D02*
X007364Y001132D01*
X007364Y001054D02*
X011859Y001054D01*
X011938Y000975D02*
X007364Y000975D01*
X007364Y000897D02*
X012016Y000897D01*
X012095Y000818D02*
X007336Y000818D01*
X007084Y001054D02*
X004891Y001054D01*
X004891Y001132D02*
X007084Y001132D01*
X007084Y001211D02*
X004891Y001211D01*
X004891Y001289D02*
X007084Y001289D01*
X007084Y001368D02*
X004891Y001368D01*
X004891Y001446D02*
X007084Y001446D01*
X007084Y001525D02*
X004891Y001525D01*
X004891Y001604D02*
X007084Y001604D01*
X007084Y001682D02*
X004891Y001682D01*
X004891Y001761D02*
X007084Y001761D01*
X007084Y001839D02*
X004891Y001839D01*
X004877Y001918D02*
X007084Y001918D01*
X007030Y001996D02*
X004844Y001996D01*
X004797Y002075D02*
X007004Y002075D01*
X007004Y002153D02*
X006153Y002153D01*
X006155Y002232D02*
X007004Y002232D01*
X007004Y002310D02*
X006155Y002310D01*
X006155Y002389D02*
X007048Y002389D01*
X007418Y001996D02*
X010917Y001996D01*
X008632Y002468D02*
X006155Y002468D01*
X006155Y002546D02*
X008632Y002546D01*
X008632Y002625D02*
X006155Y002625D01*
X005168Y002625D02*
X000644Y002625D01*
X000644Y002703D02*
X004116Y002703D01*
X004074Y002782D02*
X000644Y002782D01*
X000644Y002860D02*
X004074Y002860D01*
X004074Y002939D02*
X000644Y002939D01*
X000644Y003017D02*
X004074Y003017D01*
X004074Y003096D02*
X000644Y003096D01*
X000644Y003174D02*
X004074Y003174D01*
X004074Y003253D02*
X000644Y003253D01*
X000644Y003331D02*
X004074Y003331D01*
X004074Y003410D02*
X000644Y003410D01*
X000644Y003489D02*
X004074Y003489D01*
X004074Y003567D02*
X000644Y003567D01*
X000644Y003646D02*
X004074Y003646D01*
X004074Y003724D02*
X000644Y003724D01*
X000644Y003803D02*
X004074Y003803D01*
X004074Y003881D02*
X000644Y003881D01*
X000644Y003960D02*
X004074Y003960D01*
X004074Y004038D02*
X001999Y004038D01*
X002049Y004059D02*
X002176Y004186D01*
X002244Y004351D01*
X002244Y004530D01*
X002176Y004696D01*
X002049Y004822D01*
X001884Y004891D01*
X001005Y004891D01*
X000840Y004822D01*
X000713Y004696D01*
X000644Y004530D01*
X000644Y004351D01*
X000713Y004186D01*
X000840Y004059D01*
X001005Y003991D01*
X001884Y003991D01*
X002049Y004059D01*
X002107Y004117D02*
X004074Y004117D01*
X004074Y004195D02*
X002180Y004195D01*
X002212Y004274D02*
X004074Y004274D01*
X004074Y004353D02*
X002244Y004353D01*
X002244Y004431D02*
X004074Y004431D01*
X004074Y004510D02*
X002244Y004510D01*
X002221Y004588D02*
X004074Y004588D01*
X004074Y004667D02*
X002188Y004667D01*
X002126Y004745D02*
X004074Y004745D01*
X004504Y005144D02*
X004484Y005164D01*
X004142Y005531D02*
X003012Y005531D01*
X002934Y005609D02*
X004102Y005609D01*
X004089Y005688D02*
X002855Y005688D01*
X002776Y005766D02*
X004089Y005766D01*
X004089Y005845D02*
X002698Y005845D01*
X002619Y005923D02*
X004089Y005923D01*
X004089Y006002D02*
X002541Y006002D01*
X002462Y006081D02*
X004089Y006081D01*
X004089Y006159D02*
X002454Y006159D01*
X002454Y006238D02*
X004109Y006238D01*
X004087Y006316D02*
X002454Y006316D01*
X002454Y006395D02*
X004049Y006395D01*
X004049Y006473D02*
X002454Y006473D01*
X002454Y006552D02*
X004049Y006552D01*
X004090Y007023D02*
X003301Y007023D01*
X003084Y007284D02*
X003025Y007284D01*
X003044Y007302D01*
X003044Y007625D01*
X002985Y007684D01*
X002964Y007684D01*
X002964Y007964D01*
X002985Y007964D01*
X003024Y008003D01*
X003062Y007964D01*
X003084Y007964D01*
X003084Y007284D01*
X003084Y007337D02*
X003044Y007337D01*
X003044Y007416D02*
X003084Y007416D01*
X003084Y007494D02*
X003044Y007494D01*
X003044Y007573D02*
X003084Y007573D01*
X003084Y007651D02*
X003018Y007651D01*
X002964Y007730D02*
X003084Y007730D01*
X003084Y007808D02*
X002964Y007808D01*
X002964Y007887D02*
X003084Y007887D01*
X003061Y007966D02*
X002987Y007966D01*
X002824Y008184D02*
X002824Y007464D01*
X002604Y007494D02*
X002454Y007494D01*
X002454Y007416D02*
X002604Y007416D01*
X002604Y007573D02*
X002454Y007573D01*
X002454Y007651D02*
X002630Y007651D01*
X002684Y007730D02*
X002454Y007730D01*
X002454Y007808D02*
X002684Y007808D01*
X002684Y007887D02*
X002454Y007887D01*
X002454Y007966D02*
X002661Y007966D01*
X002604Y008044D02*
X002454Y008044D01*
X002454Y008123D02*
X002604Y008123D01*
X002604Y008201D02*
X002454Y008201D01*
X002454Y008280D02*
X002604Y008280D01*
X002617Y008358D02*
X002454Y008358D01*
X002454Y008437D02*
X005173Y008437D01*
X005173Y008515D02*
X002454Y008515D01*
X002529Y008594D02*
X006284Y008594D01*
X006284Y008672D02*
X002607Y008672D01*
X002686Y008751D02*
X006284Y008751D01*
X006297Y008830D02*
X006217Y008830D01*
X006217Y008908D02*
X006297Y008908D01*
X006297Y008987D02*
X006217Y008987D01*
X006217Y009065D02*
X006297Y009065D01*
X006297Y009301D02*
X006217Y009301D01*
X006217Y009379D02*
X006297Y009379D01*
X006297Y009458D02*
X006217Y009458D01*
X006217Y009536D02*
X006297Y009536D01*
X006297Y009615D02*
X006217Y009615D01*
X006524Y009773D02*
X006653Y009644D01*
X006835Y009644D01*
X006915Y009724D01*
X007442Y009724D01*
X007524Y009806D01*
X007654Y009937D01*
X008377Y009937D01*
X008435Y009995D01*
X008435Y010629D01*
X008377Y010688D01*
X007191Y010688D01*
X007133Y010629D01*
X007133Y010004D01*
X006915Y010004D01*
X006835Y010084D01*
X006653Y010084D01*
X006524Y009955D01*
X006524Y009773D01*
X006525Y009772D02*
X003254Y009772D01*
X003254Y009694D02*
X006603Y009694D01*
X006588Y009615D02*
X009714Y009615D01*
X009714Y009590D02*
X009319Y009590D01*
X009319Y009356D01*
X009328Y009320D01*
X009347Y009288D01*
X009373Y009262D01*
X009405Y009244D01*
X009440Y009234D01*
X009714Y009234D01*
X009714Y009590D01*
X009794Y009590D01*
X009794Y009670D01*
X010189Y009670D01*
X010189Y009904D01*
X010180Y009940D01*
X010161Y009972D01*
X010135Y009998D01*
X010103Y010016D01*
X010082Y010022D01*
X010091Y010022D01*
X010149Y010081D01*
X010149Y010238D01*
X010322Y010238D01*
X010364Y010196D01*
X010446Y010114D01*
X010504Y010114D01*
X010504Y010104D01*
X010562Y010046D01*
X011425Y010046D01*
X011455Y010076D01*
X011501Y010076D01*
X011533Y010044D01*
X011715Y010044D01*
X011744Y010073D01*
X011773Y010044D01*
X011955Y010044D01*
X012084Y010173D01*
X012084Y010355D01*
X011955Y010484D01*
X011773Y010484D01*
X011744Y010455D01*
X011715Y010484D01*
X011533Y010484D01*
X011485Y010436D01*
X011455Y010436D01*
X011425Y010466D01*
X010562Y010466D01*
X010526Y010430D01*
X010438Y010518D01*
X010322Y010518D01*
X010149Y010518D01*
X010149Y010675D01*
X010091Y010734D01*
X009417Y010734D01*
X009359Y010675D01*
X009359Y010081D01*
X009417Y010022D01*
X009426Y010022D01*
X009405Y010016D01*
X009373Y009998D01*
X009347Y009972D01*
X009328Y009940D01*
X009319Y009904D01*
X009319Y009670D01*
X009714Y009670D01*
X009714Y009590D01*
X009714Y009536D02*
X009794Y009536D01*
X009794Y009590D02*
X009794Y009234D01*
X010068Y009234D01*
X010103Y009244D01*
X010135Y009262D01*
X010161Y009288D01*
X010180Y009320D01*
X010189Y009356D01*
X010189Y009590D01*
X009794Y009590D01*
X009794Y009615D02*
X010467Y009615D01*
X010464Y009627D02*
X010473Y009592D01*
X010492Y009560D01*
X010518Y009534D01*
X010550Y009515D01*
X010585Y009506D01*
X010979Y009506D01*
X010979Y009741D01*
X011009Y009741D01*
X011009Y009771D01*
X011524Y009771D01*
X011524Y009884D01*
X011514Y009920D01*
X011496Y009952D01*
X011470Y009978D01*
X011438Y009996D01*
X011402Y010006D01*
X011009Y010006D01*
X011009Y009771D01*
X010979Y009771D01*
X010979Y010006D01*
X010585Y010006D01*
X010550Y009996D01*
X010518Y009978D01*
X010492Y009952D01*
X010473Y009920D01*
X010464Y009884D01*
X010464Y009771D01*
X010979Y009771D01*
X010979Y009741D01*
X010464Y009741D01*
X010464Y009627D01*
X010464Y009694D02*
X010189Y009694D01*
X010189Y009772D02*
X010464Y009772D01*
X010464Y009851D02*
X010189Y009851D01*
X010183Y009929D02*
X010479Y009929D01*
X010522Y010086D02*
X010149Y010086D01*
X010149Y010165D02*
X010395Y010165D01*
X010504Y010254D02*
X010992Y010254D01*
X010994Y010256D01*
X010979Y009929D02*
X011009Y009929D01*
X011009Y009851D02*
X010979Y009851D01*
X010979Y009772D02*
X011009Y009772D01*
X011009Y009741D02*
X011524Y009741D01*
X011524Y009627D01*
X011514Y009592D01*
X011496Y009560D01*
X011470Y009534D01*
X011438Y009515D01*
X011402Y009506D01*
X011009Y009506D01*
X011009Y009741D01*
X011009Y009694D02*
X010979Y009694D01*
X010979Y009615D02*
X011009Y009615D01*
X011009Y009536D02*
X010979Y009536D01*
X010554Y009458D02*
X010189Y009458D01*
X010189Y009536D02*
X010515Y009536D01*
X010504Y009379D02*
X010189Y009379D01*
X010169Y009301D02*
X010504Y009301D01*
X009794Y009301D02*
X009714Y009301D01*
X009714Y009379D02*
X009794Y009379D01*
X009794Y009458D02*
X009714Y009458D01*
X009319Y009458D02*
X006633Y009458D01*
X006631Y009536D02*
X009319Y009536D01*
X009319Y009379D02*
X006633Y009379D01*
X006633Y009301D02*
X009339Y009301D01*
X009319Y009694D02*
X006885Y009694D01*
X006744Y009864D02*
X007384Y009864D01*
X007784Y010264D01*
X007784Y010312D01*
X007647Y009929D02*
X009325Y009929D01*
X009319Y009851D02*
X007569Y009851D01*
X007490Y009772D02*
X009319Y009772D01*
X009390Y010008D02*
X008435Y010008D01*
X008435Y010086D02*
X009359Y010086D01*
X009359Y010165D02*
X008435Y010165D01*
X008435Y010243D02*
X009359Y010243D01*
X009359Y010322D02*
X008435Y010322D01*
X008435Y010400D02*
X009359Y010400D01*
X009359Y010479D02*
X008435Y010479D01*
X008435Y010557D02*
X009359Y010557D01*
X009359Y010636D02*
X008428Y010636D01*
X008472Y010920D02*
X008257Y010920D01*
X008257Y011296D01*
X008257Y011376D01*
X008177Y011376D01*
X008177Y011751D01*
X007962Y011751D01*
X007927Y011742D01*
X007895Y011723D01*
X007869Y011697D01*
X007850Y011665D01*
X007841Y011630D01*
X007841Y011376D01*
X008177Y011376D01*
X008177Y011296D01*
X007841Y011296D01*
X007841Y011042D01*
X007850Y011006D01*
X007869Y010974D01*
X007895Y010948D01*
X007927Y010930D01*
X007962Y010920D01*
X008177Y010920D01*
X008177Y011296D01*
X008257Y011296D01*
X008593Y011296D01*
X008593Y011042D01*
X008584Y011006D01*
X008565Y010974D01*
X008539Y010948D01*
X008507Y010930D01*
X008472Y010920D01*
X008541Y010950D02*
X010547Y010950D01*
X010562Y010966D02*
X010504Y010907D01*
X010504Y010604D01*
X010562Y010546D01*
X011425Y010546D01*
X011484Y010604D01*
X011484Y010907D01*
X011425Y010966D01*
X010562Y010966D01*
X010562Y011046D02*
X011425Y011046D01*
X011484Y011104D01*
X011484Y011407D01*
X011425Y011466D01*
X010562Y011466D01*
X010504Y011407D01*
X010504Y011104D01*
X010562Y011046D01*
X010504Y011107D02*
X008593Y011107D01*
X008590Y011029D02*
X015588Y011029D01*
X015613Y011004D02*
X015795Y011004D01*
X015814Y011023D01*
X015832Y011004D01*
X016675Y011004D01*
X016734Y011062D01*
X016734Y013245D01*
X016675Y013304D01*
X016394Y013304D01*
X016394Y013609D01*
X016427Y013609D01*
X016486Y013667D01*
X016486Y013676D01*
X016492Y013655D01*
X016510Y013623D01*
X016536Y013597D01*
X016568Y013578D01*
X016604Y013569D01*
X016838Y013569D01*
X016838Y013964D01*
X016918Y013964D01*
X016918Y014044D01*
X016838Y014044D01*
X016838Y014439D01*
X016604Y014439D01*
X016568Y014430D01*
X016536Y014411D01*
X016510Y014385D01*
X016492Y014353D01*
X016486Y014332D01*
X016486Y014341D01*
X016427Y014399D01*
X015833Y014399D01*
X015774Y014341D01*
X015774Y013667D01*
X015833Y013609D01*
X016114Y013609D01*
X016114Y013304D01*
X015832Y013304D01*
X015774Y013245D01*
X015774Y011872D01*
X015564Y011662D01*
X015564Y011546D01*
X015564Y011395D01*
X015484Y011315D01*
X015484Y011133D01*
X015613Y011004D01*
X015509Y011107D02*
X015044Y011107D01*
X015044Y011104D02*
X015044Y011407D01*
X014985Y011466D01*
X014122Y011466D01*
X014064Y011407D01*
X014064Y011104D01*
X014122Y011046D01*
X014985Y011046D01*
X015044Y011104D01*
X015044Y011186D02*
X015484Y011186D01*
X015484Y011264D02*
X015044Y011264D01*
X015044Y011343D02*
X015512Y011343D01*
X015564Y011421D02*
X015030Y011421D01*
X014985Y011546D02*
X015044Y011604D01*
X015044Y011907D01*
X014985Y011966D01*
X014122Y011966D01*
X014064Y011907D01*
X014064Y011604D01*
X014122Y011546D01*
X014985Y011546D01*
X015018Y011579D02*
X015564Y011579D01*
X015564Y011657D02*
X015044Y011657D01*
X015044Y011736D02*
X015638Y011736D01*
X015716Y011814D02*
X015044Y011814D01*
X015044Y011893D02*
X015774Y011893D01*
X015774Y011971D02*
X007588Y011971D01*
X007604Y011955D02*
X007475Y012084D01*
X007293Y012084D01*
X007213Y012004D01*
X007042Y012004D01*
X006926Y012004D01*
X006766Y011844D01*
X006653Y011844D01*
X006524Y011715D01*
X006524Y011639D01*
X006509Y011653D01*
X006477Y011672D01*
X006442Y011681D01*
X006227Y011681D01*
X006227Y011306D01*
X006147Y011306D01*
X006147Y011681D01*
X005932Y011681D01*
X005897Y011672D01*
X005865Y011653D01*
X005839Y011627D01*
X005820Y011595D01*
X005811Y011560D01*
X005811Y011306D01*
X006147Y011306D01*
X006147Y011226D01*
X005811Y011226D01*
X005811Y010972D01*
X005820Y010936D01*
X005839Y010904D01*
X005865Y010878D01*
X005897Y010860D01*
X005932Y010850D01*
X006147Y010850D01*
X006147Y011226D01*
X006227Y011226D01*
X006227Y010850D01*
X006442Y010850D01*
X006477Y010860D01*
X006509Y010878D01*
X006535Y010904D01*
X006554Y010936D01*
X006563Y010972D01*
X006563Y011174D01*
X006653Y011084D01*
X006835Y011084D01*
X006915Y011164D01*
X007015Y011164D01*
X007015Y011019D01*
X007073Y010960D01*
X007629Y010960D01*
X007687Y011019D01*
X007687Y011653D01*
X007629Y011711D01*
X007542Y011711D01*
X007604Y011773D01*
X007604Y011955D01*
X007604Y011893D02*
X010504Y011893D01*
X010504Y011907D02*
X010562Y011966D01*
X011425Y011966D01*
X011484Y011907D01*
X011484Y011604D01*
X011425Y011546D01*
X010562Y011546D01*
X010504Y011604D01*
X010504Y011907D01*
X010504Y011814D02*
X007604Y011814D01*
X007567Y011736D02*
X007916Y011736D01*
X007848Y011657D02*
X007683Y011657D01*
X007687Y011579D02*
X007841Y011579D01*
X007841Y011500D02*
X007687Y011500D01*
X007687Y011421D02*
X007841Y011421D01*
X007841Y011264D02*
X007687Y011264D01*
X007687Y011186D02*
X007841Y011186D01*
X007841Y011107D02*
X007687Y011107D01*
X007687Y011029D02*
X007844Y011029D01*
X007893Y010950D02*
X006557Y010950D01*
X006563Y011029D02*
X007015Y011029D01*
X007015Y011107D02*
X006858Y011107D01*
X006744Y011304D02*
X007319Y011304D01*
X007351Y011336D01*
X007687Y011343D02*
X008177Y011343D01*
X008177Y011421D02*
X008257Y011421D01*
X008257Y011376D02*
X008257Y011751D01*
X008472Y011751D01*
X008507Y011742D01*
X008539Y011723D01*
X008565Y011697D01*
X008584Y011665D01*
X008593Y011630D01*
X008593Y011376D01*
X008257Y011376D01*
X008257Y011343D02*
X010504Y011343D01*
X010504Y011264D02*
X008593Y011264D01*
X008593Y011186D02*
X010504Y011186D01*
X010518Y011421D02*
X008593Y011421D01*
X008593Y011500D02*
X015564Y011500D01*
X015704Y011604D02*
X015704Y011224D01*
X015704Y011604D02*
X016254Y012154D01*
X016254Y013880D01*
X016130Y014004D01*
X015774Y014013D02*
X010664Y014013D01*
X010618Y014046D02*
X011425Y014046D01*
X011484Y014104D01*
X011484Y014116D01*
X011718Y014116D01*
X011834Y014116D01*
X012630Y014912D01*
X013047Y014912D01*
X013149Y015014D01*
X013149Y015994D01*
X013047Y016096D01*
X012460Y016096D01*
X012359Y015994D01*
X012359Y015037D01*
X011718Y014396D01*
X011714Y014396D01*
X011764Y014446D01*
X011894Y014576D01*
X011894Y014692D01*
X011894Y014912D01*
X012047Y014912D01*
X012149Y015014D01*
X012149Y015994D01*
X012047Y016096D01*
X011460Y016096D01*
X011359Y015994D01*
X011359Y015014D01*
X011460Y014912D01*
X011614Y014912D01*
X011614Y014692D01*
X011566Y014644D01*
X010642Y014644D01*
X010526Y014644D01*
X010406Y014524D01*
X010324Y014442D01*
X010324Y014029D01*
X010316Y014018D01*
X010324Y013972D01*
X010324Y013926D01*
X010333Y013917D01*
X010335Y013904D01*
X010373Y013877D01*
X010406Y013844D01*
X010419Y013844D01*
X010504Y013783D01*
X010504Y013604D01*
X010562Y013546D01*
X011425Y013546D01*
X011484Y013604D01*
X011484Y013907D01*
X011425Y013966D01*
X010730Y013966D01*
X010618Y014046D01*
X010464Y013984D02*
X010744Y013784D01*
X010966Y013784D01*
X010994Y013756D01*
X011484Y013778D02*
X014064Y013778D01*
X014064Y013856D02*
X011484Y013856D01*
X011456Y013935D02*
X014091Y013935D01*
X014064Y013907D02*
X014122Y013966D01*
X014985Y013966D01*
X015044Y013907D01*
X015044Y013604D01*
X014985Y013546D01*
X014122Y013546D01*
X014064Y013604D01*
X014064Y013907D01*
X014122Y014046D02*
X014064Y014104D01*
X014064Y014407D01*
X014122Y014466D01*
X014748Y014466D01*
X015359Y015077D01*
X015359Y015994D01*
X015460Y016096D01*
X016047Y016096D01*
X016149Y015994D01*
X016149Y015014D01*
X016047Y014912D01*
X015590Y014912D01*
X015044Y014366D01*
X015044Y014104D01*
X014985Y014046D01*
X014122Y014046D01*
X014076Y014092D02*
X011471Y014092D01*
X011776Y014256D02*
X012744Y015224D01*
X012744Y015494D01*
X012754Y015504D01*
X013149Y015506D02*
X013612Y015506D01*
X013612Y015544D02*
X013612Y015464D01*
X013319Y015464D01*
X013319Y015057D01*
X013333Y015003D01*
X013361Y014954D01*
X013401Y014915D01*
X013450Y014886D01*
X013504Y014872D01*
X013714Y014872D01*
X013714Y015362D01*
X013794Y015362D01*
X013794Y014872D01*
X014004Y014872D01*
X014058Y014886D01*
X014107Y014915D01*
X014146Y014954D01*
X014175Y015003D01*
X014189Y015057D01*
X014189Y015464D01*
X013895Y015464D01*
X013895Y015544D01*
X014189Y015544D01*
X014189Y015950D01*
X014175Y016005D01*
X014146Y016054D01*
X014107Y016093D01*
X014058Y016121D01*
X014004Y016136D01*
X013794Y016136D01*
X013794Y015645D01*
X013714Y015645D01*
X013714Y016136D01*
X013504Y016136D01*
X013450Y016121D01*
X013401Y016093D01*
X013361Y016054D01*
X013333Y016005D01*
X013319Y015950D01*
X013319Y015544D01*
X013612Y015544D01*
X013714Y015663D02*
X013794Y015663D01*
X013794Y015741D02*
X013714Y015741D01*
X013714Y015820D02*
X013794Y015820D01*
X013794Y015898D02*
X013714Y015898D01*
X013714Y015977D02*
X013794Y015977D01*
X013794Y016056D02*
X013714Y016056D01*
X013714Y016134D02*
X013794Y016134D01*
X014011Y016134D02*
X014656Y016134D01*
X014735Y016213D02*
X011371Y016213D01*
X011442Y016284D02*
X011253Y016095D01*
X011311Y016037D01*
X011311Y014851D01*
X011253Y014793D01*
X010619Y014793D01*
X010560Y014851D01*
X010560Y016037D01*
X010619Y016095D01*
X010857Y016095D01*
X011244Y016482D01*
X011244Y016595D01*
X011373Y016724D01*
X011555Y016724D01*
X011684Y016595D01*
X011684Y016413D01*
X011555Y016284D01*
X011442Y016284D01*
X011562Y016291D02*
X014813Y016291D01*
X014892Y016370D02*
X011641Y016370D01*
X011684Y016448D02*
X014970Y016448D01*
X015049Y016527D02*
X011684Y016527D01*
X011674Y016605D02*
X015127Y016605D01*
X015224Y016504D02*
X017048Y016504D01*
X016669Y016684D02*
X011595Y016684D01*
X011464Y016504D02*
X010936Y015976D01*
X010936Y015444D01*
X010560Y015427D02*
X008985Y015427D01*
X009064Y015506D02*
X009600Y015506D01*
X009582Y015510D02*
X009618Y015501D01*
X009872Y015501D01*
X009872Y015837D01*
X009497Y015837D01*
X009497Y015622D01*
X009506Y015587D01*
X009524Y015555D01*
X009551Y015529D01*
X009582Y015510D01*
X009507Y015584D02*
X009134Y015584D01*
X009134Y015663D02*
X009497Y015663D01*
X009497Y015741D02*
X009134Y015741D01*
X009134Y015820D02*
X009497Y015820D01*
X009497Y015917D02*
X009497Y016132D01*
X009506Y016167D01*
X009524Y016199D01*
X009551Y016225D01*
X009582Y016244D01*
X009618Y016253D01*
X009872Y016253D01*
X009872Y015917D01*
X009872Y015837D01*
X009952Y015837D01*
X009952Y015501D01*
X010206Y015501D01*
X010242Y015510D01*
X010274Y015529D01*
X010300Y015555D01*
X010318Y015587D01*
X010328Y015622D01*
X010328Y015837D01*
X009952Y015837D01*
X009952Y015917D01*
X009872Y015917D01*
X009497Y015917D01*
X009497Y015977D02*
X009134Y015977D01*
X009134Y016056D02*
X009497Y016056D01*
X009497Y016134D02*
X009134Y016134D01*
X009134Y016213D02*
X009538Y016213D01*
X009872Y016213D02*
X009952Y016213D01*
X009952Y016253D02*
X009952Y015917D01*
X010328Y015917D01*
X010328Y016132D01*
X010318Y016167D01*
X010300Y016199D01*
X010274Y016225D01*
X010242Y016244D01*
X010206Y016253D01*
X009952Y016253D01*
X009952Y016134D02*
X009872Y016134D01*
X009872Y016056D02*
X009952Y016056D01*
X009952Y015977D02*
X009872Y015977D01*
X009872Y015898D02*
X009134Y015898D01*
X008994Y015634D02*
X008904Y015544D01*
X008668Y015544D01*
X008628Y015504D01*
X008371Y015506D02*
X008177Y015506D01*
X008177Y015584D02*
X008371Y015584D01*
X008371Y015663D02*
X008177Y015663D01*
X008177Y015741D02*
X008371Y015741D01*
X008409Y015820D02*
X008139Y015820D01*
X008119Y015840D02*
X007721Y015840D01*
X007662Y015782D01*
X007662Y015444D01*
X007612Y015394D01*
X007234Y015394D01*
X007234Y015405D01*
X007175Y015464D01*
X006312Y015464D01*
X006254Y015405D01*
X006254Y015102D01*
X006312Y015044D01*
X007175Y015044D01*
X007234Y015102D01*
X007234Y015114D01*
X007728Y015114D01*
X007781Y015168D01*
X008119Y015168D01*
X008177Y015226D01*
X008177Y015782D01*
X008119Y015840D01*
X008363Y015977D02*
X008854Y015977D01*
X008854Y016056D02*
X008399Y016056D01*
X008399Y016134D02*
X008854Y016134D01*
X008854Y016213D02*
X008399Y016213D01*
X008399Y016291D02*
X008854Y016291D01*
X008854Y016370D02*
X008399Y016370D01*
X008399Y016448D02*
X008854Y016448D01*
X008854Y016527D02*
X008399Y016527D01*
X008399Y016605D02*
X008854Y016605D01*
X008854Y016684D02*
X008399Y016684D01*
X008399Y016762D02*
X008854Y016762D01*
X008854Y016841D02*
X008399Y016841D01*
X008399Y016919D02*
X008854Y016919D01*
X008854Y016998D02*
X008395Y016998D01*
X008317Y017077D02*
X008854Y017077D01*
X008854Y017155D02*
X008144Y017155D01*
X008144Y017234D02*
X008854Y017234D01*
X008854Y017312D02*
X008134Y017312D01*
X008004Y017244D02*
X007944Y017304D01*
X003304Y017304D01*
X003144Y017144D01*
X003144Y016264D01*
X003864Y015544D01*
X005224Y015544D01*
X005304Y015464D01*
X005304Y015064D01*
X005264Y015024D01*
X003424Y015024D01*
X003304Y014904D01*
X003304Y013864D01*
X003464Y013704D01*
X004754Y013704D01*
X004804Y013754D01*
X005294Y013778D02*
X005324Y013778D01*
X005324Y013856D02*
X005294Y013856D01*
X005264Y013935D02*
X005324Y013935D01*
X005324Y014013D02*
X003444Y014013D01*
X003444Y013935D02*
X004343Y013935D01*
X004314Y013856D02*
X003510Y013856D01*
X003349Y013621D02*
X002832Y013621D01*
X002754Y013699D02*
X003271Y013699D01*
X003192Y013778D02*
X002675Y013778D01*
X002596Y013856D02*
X003164Y013856D01*
X003164Y013935D02*
X002518Y013935D01*
X002439Y014013D02*
X003164Y014013D01*
X003164Y014092D02*
X002361Y014092D01*
X002282Y014170D02*
X003164Y014170D01*
X003164Y014249D02*
X002204Y014249D01*
X002125Y014328D02*
X003164Y014328D01*
X003164Y014406D02*
X002047Y014406D01*
X001968Y014485D02*
X003164Y014485D01*
X003164Y014563D02*
X001890Y014563D01*
X001811Y014642D02*
X003164Y014642D01*
X003164Y014720D02*
X001733Y014720D01*
X001654Y014799D02*
X003164Y014799D01*
X003164Y014877D02*
X001604Y014877D01*
X001604Y014849D02*
X001604Y015802D01*
X001884Y015802D01*
X002049Y015870D01*
X002176Y015997D01*
X002244Y016162D01*
X002244Y016341D01*
X002176Y016507D01*
X002049Y016633D01*
X001884Y016702D01*
X001494Y016702D01*
X001494Y018119D01*
X002029Y018654D01*
X003404Y018654D01*
X003404Y018545D01*
X003385Y018564D01*
X003062Y018564D01*
X003004Y018505D01*
X003004Y018482D01*
X002924Y018402D01*
X002924Y018286D01*
X002924Y018084D01*
X002902Y018084D01*
X002844Y018025D01*
X002844Y017702D01*
X002902Y017644D01*
X003225Y017644D01*
X003284Y017702D01*
X003284Y018025D01*
X003225Y018084D01*
X003204Y018084D01*
X003204Y018124D01*
X003385Y018124D01*
X003404Y018143D01*
X003404Y017934D01*
X003457Y017806D01*
X003466Y017797D01*
X003487Y017746D01*
X003586Y017647D01*
X003594Y017644D01*
X003112Y017644D01*
X003030Y017562D01*
X002813Y017346D01*
X002858Y017391D02*
X001494Y017391D01*
X001494Y017469D02*
X002937Y017469D01*
X003016Y017548D02*
X001494Y017548D01*
X001494Y017626D02*
X003094Y017626D01*
X003284Y017705D02*
X003528Y017705D01*
X003472Y017783D02*
X003284Y017783D01*
X003284Y017862D02*
X003434Y017862D01*
X003404Y017941D02*
X003284Y017941D01*
X003284Y018019D02*
X003404Y018019D01*
X003404Y018098D02*
X003204Y018098D01*
X003224Y018344D02*
X003064Y018344D01*
X003064Y017864D01*
X002844Y017862D02*
X001494Y017862D01*
X001494Y017941D02*
X002844Y017941D01*
X002844Y018019D02*
X001494Y018019D01*
X001494Y018098D02*
X002924Y018098D01*
X002924Y018176D02*
X001551Y018176D01*
X001630Y018255D02*
X002924Y018255D01*
X002924Y018333D02*
X001708Y018333D01*
X001787Y018412D02*
X002934Y018412D01*
X003004Y018490D02*
X001865Y018490D01*
X001944Y018569D02*
X003404Y018569D01*
X003404Y018647D02*
X002022Y018647D01*
X001504Y019119D02*
X000653Y019119D01*
X000647Y019040D02*
X001425Y019040D01*
X001347Y018962D02*
X000644Y018962D01*
X000644Y018883D02*
X001268Y018883D01*
X001190Y018805D02*
X000644Y018805D01*
X000644Y018726D02*
X001111Y018726D01*
X001032Y018647D02*
X000644Y018647D01*
X000644Y018569D02*
X000954Y018569D01*
X000875Y018490D02*
X000644Y018490D01*
X000644Y018412D02*
X000826Y018412D01*
X000794Y018333D02*
X000644Y018333D01*
X000644Y018255D02*
X000794Y018255D01*
X000794Y018176D02*
X000644Y018176D01*
X000644Y018098D02*
X000794Y018098D01*
X000794Y018019D02*
X000644Y018019D01*
X000644Y017941D02*
X000794Y017941D01*
X000794Y017862D02*
X000644Y017862D01*
X000644Y017783D02*
X000794Y017783D01*
X000794Y017705D02*
X000644Y017705D01*
X000644Y017626D02*
X000794Y017626D01*
X000794Y017548D02*
X000644Y017548D01*
X000644Y017469D02*
X000794Y017469D01*
X000794Y017391D02*
X000644Y017391D01*
X000644Y017312D02*
X000794Y017312D01*
X000794Y017234D02*
X000644Y017234D01*
X000644Y017155D02*
X000794Y017155D01*
X000794Y017077D02*
X000644Y017077D01*
X000644Y016998D02*
X000794Y016998D01*
X000794Y016919D02*
X000644Y016919D01*
X000644Y016841D02*
X000794Y016841D01*
X000794Y016762D02*
X000644Y016762D01*
X000644Y016684D02*
X000794Y016684D01*
X000794Y016605D02*
X000644Y016605D01*
X000644Y016527D02*
X000733Y016527D01*
X000689Y016448D02*
X000644Y016448D01*
X000644Y016370D02*
X000656Y016370D01*
X000644Y016291D02*
X000644Y016291D01*
X000644Y016213D02*
X000644Y016213D01*
X000644Y016134D02*
X000656Y016134D01*
X000644Y016056D02*
X000689Y016056D01*
X000644Y015977D02*
X000733Y015977D01*
X000812Y015898D02*
X000644Y015898D01*
X000644Y015820D02*
X000904Y015820D01*
X000904Y015741D02*
X000644Y015741D01*
X000644Y015663D02*
X000904Y015663D01*
X000904Y015584D02*
X000644Y015584D01*
X000644Y015506D02*
X000904Y015506D01*
X000904Y015427D02*
X000644Y015427D01*
X000644Y015349D02*
X000904Y015349D01*
X000904Y015270D02*
X000644Y015270D01*
X000644Y015192D02*
X000904Y015192D01*
X000904Y015113D02*
X000644Y015113D01*
X000644Y015034D02*
X000904Y015034D01*
X000904Y014956D02*
X000644Y014956D01*
X000644Y014877D02*
X000904Y014877D01*
X000904Y014799D02*
X000644Y014799D01*
X000644Y014720D02*
X000904Y014720D01*
X000904Y014642D02*
X000644Y014642D01*
X000644Y014563D02*
X000933Y014563D01*
X000978Y014485D02*
X000644Y014485D01*
X000644Y014406D02*
X001057Y014406D01*
X001135Y014328D02*
X000644Y014328D01*
X000644Y014249D02*
X001214Y014249D01*
X001292Y014170D02*
X000644Y014170D01*
X000644Y014092D02*
X001371Y014092D01*
X001449Y014013D02*
X000644Y014013D01*
X000644Y013935D02*
X001528Y013935D01*
X001607Y013856D02*
X000644Y013856D01*
X000644Y013778D02*
X001685Y013778D01*
X001764Y013699D02*
X000644Y013699D01*
X000644Y013621D02*
X001842Y013621D01*
X001921Y013542D02*
X000644Y013542D01*
X000644Y013464D02*
X001999Y013464D01*
X002078Y013385D02*
X000644Y013385D01*
X000644Y013306D02*
X002156Y013306D01*
X002235Y013228D02*
X000644Y013228D01*
X000644Y013149D02*
X002313Y013149D01*
X002392Y013071D02*
X000644Y013071D01*
X000644Y012992D02*
X002471Y012992D01*
X002549Y012914D02*
X000644Y012914D01*
X000644Y012835D02*
X002554Y012835D01*
X002554Y012757D02*
X000644Y012757D01*
X000644Y012678D02*
X002554Y012678D01*
X002554Y012600D02*
X000644Y012600D01*
X000644Y012521D02*
X002554Y012521D01*
X002554Y012443D02*
X000644Y012443D01*
X000644Y012364D02*
X002554Y012364D01*
X002554Y012285D02*
X000644Y012285D01*
X000644Y012207D02*
X002554Y012207D01*
X002554Y012128D02*
X000644Y012128D01*
X000644Y012050D02*
X002554Y012050D01*
X002554Y011971D02*
X000644Y011971D01*
X000644Y011893D02*
X002554Y011893D01*
X002554Y011814D02*
X000644Y011814D01*
X000644Y011736D02*
X002554Y011736D01*
X002554Y011657D02*
X000644Y011657D01*
X000644Y011579D02*
X002554Y011579D01*
X002554Y011500D02*
X000644Y011500D01*
X000644Y011421D02*
X002554Y011421D01*
X002554Y011343D02*
X000644Y011343D01*
X000644Y011264D02*
X002554Y011264D01*
X002554Y011186D02*
X000644Y011186D01*
X000644Y011107D02*
X002554Y011107D01*
X002554Y011029D02*
X000644Y011029D01*
X000644Y010950D02*
X002554Y010950D01*
X002554Y010872D02*
X000644Y010872D01*
X000644Y010793D02*
X002554Y010793D01*
X002554Y010715D02*
X000644Y010715D01*
X000644Y010636D02*
X002554Y010636D01*
X002554Y010557D02*
X000644Y010557D01*
X000644Y010479D02*
X002554Y010479D01*
X002554Y010400D02*
X000644Y010400D01*
X000644Y010322D02*
X002554Y010322D01*
X002554Y010243D02*
X000644Y010243D01*
X000644Y010165D02*
X002554Y010165D01*
X002554Y010086D02*
X000644Y010086D01*
X000644Y010008D02*
X002554Y010008D01*
X002554Y009929D02*
X000644Y009929D01*
X000644Y009851D02*
X002554Y009851D01*
X002554Y009772D02*
X000644Y009772D01*
X000644Y009694D02*
X002554Y009694D01*
X002554Y009615D02*
X000644Y009615D01*
X000644Y009536D02*
X002481Y009536D01*
X002403Y009458D02*
X000644Y009458D01*
X000644Y009379D02*
X002324Y009379D01*
X002246Y009301D02*
X000644Y009301D01*
X000644Y009222D02*
X002167Y009222D01*
X002089Y009144D02*
X000644Y009144D01*
X000644Y009065D02*
X002010Y009065D01*
X001932Y008987D02*
X000644Y008987D01*
X000644Y008908D02*
X001853Y008908D01*
X001794Y008830D02*
X000644Y008830D01*
X000644Y008751D02*
X001761Y008751D01*
X001754Y008515D02*
X000644Y008515D01*
X000644Y008437D02*
X001754Y008437D01*
X001754Y008358D02*
X000644Y008358D01*
X000644Y008280D02*
X001754Y008280D01*
X001754Y008201D02*
X000644Y008201D01*
X000644Y008123D02*
X001754Y008123D01*
X001754Y008044D02*
X000644Y008044D01*
X000644Y007966D02*
X001754Y007966D01*
X001754Y007887D02*
X000644Y007887D01*
X000644Y007808D02*
X001754Y007808D01*
X001754Y007730D02*
X000644Y007730D01*
X000644Y007651D02*
X001754Y007651D01*
X001754Y007573D02*
X000644Y007573D01*
X000644Y007494D02*
X001754Y007494D01*
X001754Y007416D02*
X000644Y007416D01*
X000644Y007337D02*
X001754Y007337D01*
X001754Y007259D02*
X000644Y007259D01*
X000644Y007180D02*
X001754Y007180D01*
X001754Y007102D02*
X000644Y007102D01*
X000644Y007023D02*
X001754Y007023D01*
X001754Y006944D02*
X000644Y006944D01*
X000644Y006866D02*
X001754Y006866D01*
X001754Y006787D02*
X000644Y006787D01*
X000644Y006709D02*
X001754Y006709D01*
X001754Y006630D02*
X000644Y006630D01*
X000644Y006552D02*
X001754Y006552D01*
X001754Y006473D02*
X000644Y006473D01*
X000644Y006395D02*
X001754Y006395D01*
X001754Y006316D02*
X000644Y006316D01*
X000644Y006238D02*
X001754Y006238D01*
X001754Y006159D02*
X000644Y006159D01*
X000644Y006081D02*
X001754Y006081D01*
X001754Y006002D02*
X000644Y006002D01*
X000644Y005923D02*
X001754Y005923D01*
X001766Y005845D02*
X000644Y005845D01*
X000644Y005766D02*
X001799Y005766D01*
X001865Y005688D02*
X000644Y005688D01*
X000644Y005609D02*
X001944Y005609D01*
X002022Y005531D02*
X000644Y005531D01*
X000644Y005452D02*
X002101Y005452D01*
X002179Y005374D02*
X000644Y005374D01*
X000644Y005295D02*
X002258Y005295D01*
X002336Y005217D02*
X000644Y005217D01*
X000644Y005138D02*
X002415Y005138D01*
X002493Y005059D02*
X000644Y005059D01*
X000644Y004981D02*
X002572Y004981D01*
X002651Y004902D02*
X000644Y004902D01*
X000644Y004824D02*
X000843Y004824D01*
X000762Y004745D02*
X000644Y004745D01*
X000644Y004667D02*
X000701Y004667D01*
X000668Y004588D02*
X000644Y004588D01*
X000644Y004510D02*
X000644Y004510D01*
X000644Y004431D02*
X000644Y004431D01*
X000644Y004353D02*
X000644Y004353D01*
X000644Y004274D02*
X000677Y004274D01*
X000644Y004195D02*
X000709Y004195D01*
X000644Y004117D02*
X000782Y004117D01*
X000890Y004038D02*
X000644Y004038D01*
X002046Y004824D02*
X002762Y004824D01*
X004919Y006552D02*
X006512Y006552D01*
X006512Y006866D02*
X004919Y006866D01*
X004919Y006944D02*
X006512Y006944D01*
X006542Y007023D02*
X004878Y007023D01*
X005008Y007337D02*
X006284Y007337D01*
X006284Y007416D02*
X005087Y007416D01*
X005124Y007494D02*
X006217Y007494D01*
X006147Y007573D02*
X005124Y007573D01*
X005108Y007651D02*
X006077Y007651D01*
X006006Y007730D02*
X005044Y007730D01*
X005044Y007808D02*
X005936Y007808D01*
X005824Y008144D02*
X006504Y007384D01*
X006724Y007416D02*
X008284Y007416D01*
X008284Y007494D02*
X006705Y007494D01*
X006626Y007573D02*
X008311Y007573D01*
X008364Y007651D02*
X006452Y007651D01*
X006382Y007730D02*
X008364Y007730D01*
X008364Y007808D02*
X006312Y007808D01*
X006467Y007887D02*
X008364Y007887D01*
X008341Y007966D02*
X006475Y007966D01*
X006475Y008044D02*
X008284Y008044D01*
X008284Y008123D02*
X006475Y008123D01*
X006475Y008201D02*
X008284Y008201D01*
X008504Y008184D02*
X008504Y007384D01*
X008284Y007337D02*
X006724Y007337D01*
X006690Y007259D02*
X008284Y007259D01*
X008326Y007180D02*
X006611Y007180D01*
X005824Y008144D02*
X005824Y008212D01*
X005967Y008830D02*
X002764Y008830D01*
X002843Y008908D02*
X005065Y008908D01*
X005055Y008987D02*
X002922Y008987D01*
X003049Y009065D02*
X005055Y009065D01*
X005727Y009065D02*
X005881Y009065D01*
X005881Y008987D02*
X005727Y008987D01*
X005716Y008908D02*
X005890Y008908D01*
X005881Y009144D02*
X005727Y009144D01*
X005727Y009301D02*
X005881Y009301D01*
X005881Y009379D02*
X005727Y009379D01*
X005727Y009458D02*
X005881Y009458D01*
X005883Y009536D02*
X005727Y009536D01*
X005926Y009615D02*
X003254Y009615D01*
X003254Y009851D02*
X006524Y009851D01*
X006524Y009929D02*
X006405Y009929D01*
X006405Y010008D02*
X006577Y010008D01*
X006637Y010086D02*
X007133Y010086D01*
X007133Y010008D02*
X006911Y010008D01*
X006716Y010165D02*
X007133Y010165D01*
X007133Y010243D02*
X006724Y010243D01*
X006724Y010322D02*
X007133Y010322D01*
X007133Y010400D02*
X006679Y010400D01*
X006600Y010479D02*
X007133Y010479D01*
X007133Y010557D02*
X006405Y010557D01*
X006405Y010479D02*
X006408Y010479D01*
X006504Y010264D02*
X006482Y010242D01*
X005754Y010242D01*
X005876Y010872D02*
X004549Y010872D01*
X004549Y010793D02*
X010504Y010793D01*
X010504Y010715D02*
X010110Y010715D01*
X010149Y010636D02*
X010504Y010636D01*
X010551Y010557D02*
X010149Y010557D01*
X010380Y010378D02*
X010504Y010254D01*
X010380Y010378D02*
X009754Y010378D01*
X009398Y010715D02*
X004549Y010715D01*
X004537Y010636D02*
X007140Y010636D01*
X006629Y011107D02*
X006563Y011107D01*
X006498Y010872D02*
X010504Y010872D01*
X010477Y010479D02*
X011528Y010479D01*
X011437Y010557D02*
X014054Y010557D01*
X014052Y010560D02*
X014078Y010534D01*
X014110Y010515D01*
X014145Y010506D01*
X014539Y010506D01*
X014539Y010741D01*
X014569Y010741D01*
X014569Y010771D01*
X015084Y010771D01*
X015084Y010884D01*
X015074Y010920D01*
X015056Y010952D01*
X015030Y010978D01*
X014998Y010996D01*
X014962Y011006D01*
X014569Y011006D01*
X014569Y010771D01*
X014539Y010771D01*
X014539Y011006D01*
X014145Y011006D01*
X014110Y010996D01*
X014078Y010978D01*
X014052Y010952D01*
X014033Y010920D01*
X014024Y010884D01*
X014024Y010771D01*
X014539Y010771D01*
X014539Y010741D01*
X014024Y010741D01*
X014024Y010627D01*
X014033Y010592D01*
X014052Y010560D01*
X014024Y010636D02*
X011484Y010636D01*
X011484Y010715D02*
X014024Y010715D01*
X014024Y010793D02*
X011484Y010793D01*
X011484Y010872D02*
X014024Y010872D01*
X014051Y010950D02*
X011441Y010950D01*
X011484Y011107D02*
X014064Y011107D01*
X014064Y011186D02*
X011484Y011186D01*
X011484Y011264D02*
X014064Y011264D01*
X014064Y011343D02*
X011484Y011343D01*
X011470Y011421D02*
X014078Y011421D01*
X014090Y011579D02*
X011458Y011579D01*
X011484Y011657D02*
X014064Y011657D01*
X014064Y011736D02*
X011484Y011736D01*
X011484Y011814D02*
X014064Y011814D01*
X014064Y011893D02*
X011484Y011893D01*
X011425Y012046D02*
X011484Y012104D01*
X011484Y012407D01*
X011425Y012466D01*
X010562Y012466D01*
X010504Y012407D01*
X010504Y012104D01*
X010562Y012046D01*
X011425Y012046D01*
X011429Y012050D02*
X014119Y012050D01*
X014122Y012046D02*
X014985Y012046D01*
X015044Y012104D01*
X015044Y012407D01*
X014985Y012466D01*
X014122Y012466D01*
X014064Y012407D01*
X014064Y012104D01*
X014122Y012046D01*
X014064Y012128D02*
X011484Y012128D01*
X011484Y012207D02*
X014064Y012207D01*
X014064Y012285D02*
X011484Y012285D01*
X011484Y012364D02*
X014064Y012364D01*
X014099Y012443D02*
X011449Y012443D01*
X011425Y012546D02*
X011484Y012604D01*
X011484Y012907D01*
X011425Y012966D01*
X010562Y012966D01*
X010504Y012907D01*
X010504Y012604D01*
X010562Y012546D01*
X011425Y012546D01*
X011479Y012600D02*
X014069Y012600D01*
X014064Y012604D02*
X014122Y012546D01*
X014985Y012546D01*
X015044Y012604D01*
X015044Y012907D01*
X014985Y012966D01*
X014122Y012966D01*
X014064Y012907D01*
X014064Y012604D01*
X014064Y012678D02*
X011484Y012678D01*
X011484Y012757D02*
X014064Y012757D01*
X014064Y012835D02*
X011484Y012835D01*
X011477Y012914D02*
X014070Y012914D01*
X014122Y013046D02*
X014064Y013104D01*
X014064Y013407D01*
X014122Y013466D01*
X014985Y013466D01*
X015044Y013407D01*
X015044Y013104D01*
X014985Y013046D01*
X014122Y013046D01*
X014097Y013071D02*
X011450Y013071D01*
X011425Y013046D02*
X011484Y013104D01*
X011484Y013407D01*
X011425Y013466D01*
X010562Y013466D01*
X010504Y013407D01*
X010504Y013104D01*
X010562Y013046D01*
X011425Y013046D01*
X011484Y013149D02*
X014064Y013149D01*
X014064Y013228D02*
X011484Y013228D01*
X011484Y013306D02*
X014064Y013306D01*
X014064Y013385D02*
X011484Y013385D01*
X011428Y013464D02*
X014120Y013464D01*
X014064Y013621D02*
X011484Y013621D01*
X011484Y013699D02*
X014064Y013699D01*
X014064Y014170D02*
X011888Y014170D01*
X011967Y014249D02*
X014064Y014249D01*
X014064Y014328D02*
X012046Y014328D01*
X012124Y014406D02*
X014064Y014406D01*
X014024Y014877D02*
X015159Y014877D01*
X015091Y014956D02*
X015238Y014956D01*
X015316Y015034D02*
X015149Y015034D01*
X015149Y015113D02*
X015359Y015113D01*
X015359Y015192D02*
X015149Y015192D01*
X015149Y015270D02*
X015359Y015270D01*
X015359Y015349D02*
X015149Y015349D01*
X015149Y015427D02*
X015359Y015427D01*
X015359Y015506D02*
X015149Y015506D01*
X015149Y015584D02*
X015359Y015584D01*
X015359Y015663D02*
X015149Y015663D01*
X015149Y015741D02*
X015359Y015741D01*
X015359Y015820D02*
X015149Y015820D01*
X015149Y015898D02*
X015359Y015898D01*
X015359Y015977D02*
X015149Y015977D01*
X015088Y016056D02*
X015420Y016056D01*
X015209Y016291D02*
X016669Y016291D01*
X016669Y016213D02*
X015131Y016213D01*
X015052Y016134D02*
X016725Y016134D01*
X016641Y016056D02*
X016088Y016056D01*
X016149Y015977D02*
X016629Y015977D01*
X016629Y015898D02*
X016149Y015898D01*
X016149Y015820D02*
X016629Y015820D01*
X016629Y015700D02*
X016629Y015466D01*
X016638Y015430D01*
X016657Y015398D01*
X016683Y015372D01*
X016715Y015354D01*
X016750Y015344D01*
X017024Y015344D01*
X017024Y015700D01*
X016629Y015700D01*
X016629Y015663D02*
X016149Y015663D01*
X016149Y015741D02*
X017024Y015741D01*
X017024Y015663D02*
X017104Y015663D01*
X017104Y015700D02*
X017104Y015344D01*
X017378Y015344D01*
X017413Y015354D01*
X017445Y015372D01*
X017471Y015398D01*
X017490Y015430D01*
X017499Y015466D01*
X017499Y015700D01*
X017104Y015700D01*
X017104Y015741D02*
X017674Y015741D01*
X017674Y015663D02*
X017499Y015663D01*
X017499Y015584D02*
X017674Y015584D01*
X017674Y015506D02*
X017499Y015506D01*
X017488Y015427D02*
X017674Y015427D01*
X017674Y015349D02*
X017395Y015349D01*
X017674Y015270D02*
X016149Y015270D01*
X016149Y015192D02*
X017674Y015192D01*
X017674Y015113D02*
X016149Y015113D01*
X016149Y015034D02*
X017674Y015034D01*
X017674Y014956D02*
X016091Y014956D01*
X015784Y015304D02*
X015784Y015474D01*
X015754Y015504D01*
X015784Y015304D02*
X014736Y014256D01*
X014554Y014256D01*
X014767Y014485D02*
X012203Y014485D01*
X012281Y014563D02*
X014845Y014563D01*
X014924Y014642D02*
X012360Y014642D01*
X012438Y014720D02*
X015002Y014720D01*
X015081Y014799D02*
X012517Y014799D01*
X012595Y014877D02*
X013484Y014877D01*
X013360Y014956D02*
X013091Y014956D01*
X013149Y015034D02*
X013325Y015034D01*
X013319Y015113D02*
X013149Y015113D01*
X013149Y015192D02*
X013319Y015192D01*
X013319Y015270D02*
X013149Y015270D01*
X013149Y015349D02*
X013319Y015349D01*
X013319Y015427D02*
X013149Y015427D01*
X013149Y015584D02*
X013319Y015584D01*
X013319Y015663D02*
X013149Y015663D01*
X013149Y015741D02*
X013319Y015741D01*
X013319Y015820D02*
X013149Y015820D01*
X013149Y015898D02*
X013319Y015898D01*
X013326Y015977D02*
X013149Y015977D01*
X013088Y016056D02*
X013363Y016056D01*
X013497Y016134D02*
X011292Y016134D01*
X011292Y016056D02*
X011420Y016056D01*
X011359Y015977D02*
X011311Y015977D01*
X011311Y015898D02*
X011359Y015898D01*
X011359Y015820D02*
X011311Y015820D01*
X011311Y015741D02*
X011359Y015741D01*
X011359Y015663D02*
X011311Y015663D01*
X011311Y015584D02*
X011359Y015584D01*
X011359Y015506D02*
X011311Y015506D01*
X011311Y015427D02*
X011359Y015427D01*
X011359Y015349D02*
X011311Y015349D01*
X011311Y015270D02*
X011359Y015270D01*
X011359Y015192D02*
X011311Y015192D01*
X011311Y015113D02*
X011359Y015113D01*
X011359Y015034D02*
X011311Y015034D01*
X011311Y014956D02*
X011416Y014956D01*
X011311Y014877D02*
X011614Y014877D01*
X011614Y014799D02*
X011259Y014799D01*
X011614Y014720D02*
X010275Y014720D01*
X010288Y014733D02*
X010288Y015289D01*
X010229Y015347D01*
X009595Y015347D01*
X009537Y015289D01*
X009537Y014733D01*
X009564Y014706D01*
X009564Y014573D01*
X009693Y014444D01*
X009875Y014444D01*
X010004Y014573D01*
X010004Y014675D01*
X010229Y014675D01*
X010288Y014733D01*
X010288Y014799D02*
X010613Y014799D01*
X010560Y014877D02*
X010288Y014877D01*
X010288Y014956D02*
X010560Y014956D01*
X010560Y015034D02*
X010288Y015034D01*
X010288Y015113D02*
X010560Y015113D01*
X010560Y015192D02*
X010288Y015192D01*
X010288Y015270D02*
X010560Y015270D01*
X010560Y015349D02*
X008886Y015349D01*
X008886Y015270D02*
X009537Y015270D01*
X009537Y015192D02*
X008851Y015192D01*
X008827Y015090D02*
X008429Y015090D01*
X008371Y015032D01*
X008371Y014894D01*
X008312Y014894D01*
X008196Y014894D01*
X008177Y014875D01*
X008177Y015032D01*
X008119Y015090D01*
X007721Y015090D01*
X007662Y015032D01*
X007662Y014894D01*
X007234Y014894D01*
X007234Y014905D01*
X007175Y014964D01*
X006312Y014964D01*
X006254Y014905D01*
X006254Y014602D01*
X006312Y014544D01*
X007175Y014544D01*
X007234Y014602D01*
X007234Y014614D01*
X007662Y014614D01*
X007662Y014476D01*
X007721Y014418D01*
X008114Y014418D01*
X008114Y014340D01*
X007781Y014340D01*
X007728Y014394D01*
X007234Y014394D01*
X007234Y014405D01*
X007175Y014464D01*
X006312Y014464D01*
X006254Y014405D01*
X006254Y014102D01*
X006312Y014044D01*
X007175Y014044D01*
X007234Y014102D01*
X007234Y014114D01*
X007612Y014114D01*
X007662Y014063D01*
X007662Y013726D01*
X007721Y013668D01*
X008036Y013668D01*
X008034Y013665D01*
X008034Y013342D01*
X008092Y013284D01*
X008415Y013284D01*
X008474Y013342D01*
X008474Y013423D01*
X008493Y013404D01*
X008675Y013404D01*
X008804Y013533D01*
X008804Y013668D01*
X008827Y013668D01*
X008886Y013726D01*
X008886Y014282D01*
X008827Y014340D01*
X008429Y014340D01*
X008394Y014305D01*
X008394Y014453D01*
X008429Y014418D01*
X008827Y014418D01*
X008886Y014476D01*
X008886Y015032D01*
X008827Y015090D01*
X008883Y015034D02*
X009537Y015034D01*
X009537Y014956D02*
X008886Y014956D01*
X008886Y014877D02*
X009537Y014877D01*
X009537Y014799D02*
X008886Y014799D01*
X008886Y014720D02*
X009549Y014720D01*
X009564Y014642D02*
X008886Y014642D01*
X008886Y014563D02*
X009574Y014563D01*
X009652Y014485D02*
X008886Y014485D01*
X008840Y014328D02*
X010324Y014328D01*
X010324Y014406D02*
X008394Y014406D01*
X008394Y014328D02*
X008417Y014328D01*
X008114Y014406D02*
X007233Y014406D01*
X007195Y014563D02*
X007662Y014563D01*
X007662Y014485D02*
X005764Y014485D01*
X005764Y014563D02*
X006293Y014563D01*
X006254Y014642D02*
X005764Y014642D01*
X005764Y014720D02*
X006254Y014720D01*
X006254Y014799D02*
X005764Y014799D01*
X005764Y014877D02*
X006254Y014877D01*
X006304Y014956D02*
X005764Y014956D01*
X005764Y015034D02*
X007665Y015034D01*
X007662Y014956D02*
X007183Y014956D01*
X007234Y015113D02*
X009537Y015113D01*
X009912Y015011D02*
X009912Y014792D01*
X009784Y014664D01*
X010004Y014642D02*
X010524Y014642D01*
X010445Y014563D02*
X009994Y014563D01*
X009916Y014485D02*
X010367Y014485D01*
X010464Y014384D02*
X010464Y013984D01*
X010394Y013856D02*
X008886Y013856D01*
X008886Y013778D02*
X010504Y013778D01*
X010504Y013699D02*
X008859Y013699D01*
X008804Y013621D02*
X010504Y013621D01*
X010560Y013464D02*
X008735Y013464D01*
X008804Y013542D02*
X016114Y013542D01*
X016114Y013464D02*
X014988Y013464D01*
X015044Y013385D02*
X016114Y013385D01*
X016114Y013306D02*
X015044Y013306D01*
X015044Y013228D02*
X015774Y013228D01*
X015774Y013149D02*
X015044Y013149D01*
X015010Y013071D02*
X015774Y013071D01*
X015774Y012992D02*
X006044Y012992D01*
X006044Y012914D02*
X006262Y012914D01*
X006286Y013071D02*
X005968Y013071D01*
X005824Y012904D02*
X005824Y012784D01*
X005864Y012744D01*
X006734Y012744D01*
X006744Y012754D01*
X006754Y012744D01*
X007384Y012744D01*
X007544Y012504D01*
X007764Y012521D02*
X015774Y012521D01*
X015774Y012443D02*
X015009Y012443D01*
X015044Y012364D02*
X015774Y012364D01*
X015774Y012285D02*
X015044Y012285D01*
X015044Y012207D02*
X015774Y012207D01*
X015774Y012128D02*
X015044Y012128D01*
X014989Y012050D02*
X015774Y012050D01*
X015774Y012600D02*
X015039Y012600D01*
X015044Y012678D02*
X015774Y012678D01*
X015774Y012757D02*
X015044Y012757D01*
X015044Y012835D02*
X015774Y012835D01*
X015774Y012914D02*
X015037Y012914D01*
X015044Y013621D02*
X015821Y013621D01*
X015774Y013699D02*
X015044Y013699D01*
X015044Y013778D02*
X015774Y013778D01*
X015774Y013856D02*
X015044Y013856D01*
X015016Y013935D02*
X015774Y013935D01*
X015774Y014092D02*
X015031Y014092D01*
X015044Y014170D02*
X015774Y014170D01*
X015774Y014249D02*
X015044Y014249D01*
X015044Y014328D02*
X015774Y014328D01*
X015398Y014720D02*
X017674Y014720D01*
X017674Y014642D02*
X015320Y014642D01*
X015241Y014563D02*
X017674Y014563D01*
X017674Y014485D02*
X015163Y014485D01*
X015084Y014406D02*
X016531Y014406D01*
X016838Y014406D02*
X016918Y014406D01*
X016918Y014439D02*
X016918Y014044D01*
X017274Y014044D01*
X017274Y014318D01*
X017264Y014353D01*
X017246Y014385D01*
X017220Y014411D01*
X017188Y014430D01*
X017152Y014439D01*
X016918Y014439D01*
X016918Y014328D02*
X016838Y014328D01*
X016838Y014249D02*
X016918Y014249D01*
X016918Y014170D02*
X016838Y014170D01*
X016838Y014092D02*
X016918Y014092D01*
X016918Y014013D02*
X017674Y014013D01*
X017674Y013935D02*
X017274Y013935D01*
X017274Y013964D02*
X016918Y013964D01*
X016918Y013569D01*
X017152Y013569D01*
X017188Y013578D01*
X017220Y013597D01*
X017246Y013623D01*
X017264Y013655D01*
X017274Y013690D01*
X017274Y013964D01*
X017274Y013856D02*
X017674Y013856D01*
X017674Y013778D02*
X017274Y013778D01*
X017274Y013699D02*
X017674Y013699D01*
X017674Y013621D02*
X017244Y013621D01*
X016918Y013621D02*
X016838Y013621D01*
X016838Y013699D02*
X016918Y013699D01*
X016918Y013778D02*
X016838Y013778D01*
X016838Y013856D02*
X016918Y013856D01*
X016918Y013935D02*
X016838Y013935D01*
X016512Y013621D02*
X016439Y013621D01*
X016394Y013542D02*
X017674Y013542D01*
X017674Y013464D02*
X016394Y013464D01*
X016394Y013385D02*
X017674Y013385D01*
X017674Y013306D02*
X016394Y013306D01*
X016734Y013228D02*
X017674Y013228D01*
X017674Y013149D02*
X016734Y013149D01*
X016734Y013071D02*
X017674Y013071D01*
X017674Y012992D02*
X016734Y012992D01*
X016734Y012914D02*
X017674Y012914D01*
X017674Y012835D02*
X016734Y012835D01*
X016734Y012757D02*
X017674Y012757D01*
X017674Y012678D02*
X016734Y012678D01*
X016734Y012600D02*
X017674Y012600D01*
X017674Y012521D02*
X016734Y012521D01*
X016734Y012443D02*
X017674Y012443D01*
X017674Y012364D02*
X016734Y012364D01*
X016734Y012285D02*
X017674Y012285D01*
X017674Y012207D02*
X016734Y012207D01*
X016734Y012128D02*
X017674Y012128D01*
X017674Y012050D02*
X016734Y012050D01*
X016734Y011971D02*
X017674Y011971D01*
X017674Y011893D02*
X016734Y011893D01*
X016734Y011814D02*
X017674Y011814D01*
X017674Y011736D02*
X016734Y011736D01*
X016734Y011657D02*
X017674Y011657D01*
X017674Y011579D02*
X016734Y011579D01*
X016734Y011500D02*
X017674Y011500D01*
X017674Y011421D02*
X016734Y011421D01*
X016734Y011343D02*
X017674Y011343D01*
X017674Y011264D02*
X016734Y011264D01*
X016734Y011186D02*
X017674Y011186D01*
X017674Y011107D02*
X016734Y011107D01*
X016700Y011029D02*
X017674Y011029D01*
X017674Y010950D02*
X015057Y010950D01*
X015084Y010872D02*
X017674Y010872D01*
X017674Y010793D02*
X015084Y010793D01*
X015084Y010741D02*
X014569Y010741D01*
X014569Y010506D01*
X014962Y010506D01*
X014998Y010515D01*
X015030Y010534D01*
X015056Y010560D01*
X015074Y010592D01*
X015084Y010627D01*
X015084Y010741D01*
X015084Y010715D02*
X017674Y010715D01*
X017674Y010636D02*
X015084Y010636D01*
X015053Y010557D02*
X017674Y010557D01*
X017674Y010479D02*
X015240Y010479D01*
X015235Y010484D02*
X015053Y010484D01*
X015010Y010441D01*
X014985Y010466D01*
X014122Y010466D01*
X014064Y010407D01*
X014064Y010104D01*
X014122Y010046D01*
X014985Y010046D01*
X015018Y010079D01*
X015053Y010044D01*
X015235Y010044D01*
X015364Y010173D01*
X015364Y010355D01*
X015235Y010484D01*
X015319Y010400D02*
X017674Y010400D01*
X017674Y010322D02*
X015364Y010322D01*
X015364Y010243D02*
X017674Y010243D01*
X017674Y010165D02*
X015356Y010165D01*
X015277Y010086D02*
X017674Y010086D01*
X017674Y010008D02*
X010118Y010008D01*
X011509Y009929D02*
X014086Y009929D01*
X014064Y009851D02*
X011524Y009851D01*
X011524Y009772D02*
X014064Y009772D01*
X014064Y009694D02*
X011524Y009694D01*
X011520Y009615D02*
X014064Y009615D01*
X014114Y009458D02*
X011433Y009458D01*
X011472Y009536D02*
X017674Y009536D01*
X017674Y009615D02*
X015286Y009615D01*
X015364Y009694D02*
X017674Y009694D01*
X017674Y009772D02*
X015364Y009772D01*
X015364Y009851D02*
X017674Y009851D01*
X017674Y009929D02*
X015310Y009929D01*
X015144Y009784D02*
X015116Y009756D01*
X014554Y009756D01*
X014554Y010256D02*
X015136Y010256D01*
X015144Y010264D01*
X015048Y010479D02*
X011960Y010479D01*
X012039Y010400D02*
X014064Y010400D01*
X014064Y010322D02*
X012084Y010322D01*
X012084Y010243D02*
X014064Y010243D01*
X014064Y010165D02*
X012076Y010165D01*
X011997Y010086D02*
X014082Y010086D01*
X014539Y010557D02*
X014569Y010557D01*
X014569Y010636D02*
X014539Y010636D01*
X014539Y010715D02*
X014569Y010715D01*
X014569Y010793D02*
X014539Y010793D01*
X014539Y010872D02*
X014569Y010872D01*
X014569Y010950D02*
X014539Y010950D01*
X014064Y009379D02*
X011484Y009379D01*
X011484Y009301D02*
X014064Y009301D01*
X014064Y009222D02*
X011484Y009222D01*
X011484Y009144D02*
X014064Y009144D01*
X014103Y009065D02*
X011445Y009065D01*
X011483Y008908D02*
X014065Y008908D01*
X014064Y008830D02*
X011656Y008830D01*
X011684Y008751D02*
X014064Y008751D01*
X014064Y008672D02*
X012006Y008672D01*
X012084Y008594D02*
X014074Y008594D01*
X015044Y008358D02*
X015774Y008358D01*
X015774Y008280D02*
X015044Y008280D01*
X015044Y008201D02*
X015774Y008201D01*
X015774Y008123D02*
X015044Y008123D01*
X016460Y006866D02*
X016499Y006866D01*
X016838Y006866D02*
X016918Y006866D01*
X016918Y006787D02*
X016838Y006787D01*
X016838Y006709D02*
X016918Y006709D01*
X016918Y006630D02*
X016838Y006630D01*
X016838Y006552D02*
X016918Y006552D01*
X013399Y006709D02*
X012990Y006709D01*
X012762Y007180D02*
X012051Y007180D01*
X012084Y007259D02*
X012792Y007259D01*
X012823Y007337D02*
X012084Y007337D01*
X012063Y007416D02*
X012854Y007416D01*
X012884Y007494D02*
X012084Y007494D01*
X012084Y007573D02*
X012915Y007573D01*
X012946Y007651D02*
X012068Y007651D01*
X012044Y007730D02*
X012976Y007730D01*
X013007Y007808D02*
X012044Y007808D01*
X012044Y007887D02*
X013038Y007887D01*
X012620Y007102D02*
X011973Y007102D01*
X011684Y008123D02*
X011684Y008123D01*
X011684Y008672D02*
X011721Y008672D01*
X011720Y010479D02*
X011768Y010479D01*
X010530Y011579D02*
X008593Y011579D01*
X008586Y011657D02*
X010504Y011657D01*
X010504Y011736D02*
X008518Y011736D01*
X008257Y011736D02*
X008177Y011736D01*
X008177Y011657D02*
X008257Y011657D01*
X008257Y011579D02*
X008177Y011579D01*
X008177Y011500D02*
X008257Y011500D01*
X008257Y011264D02*
X008177Y011264D01*
X008177Y011186D02*
X008257Y011186D01*
X008257Y011107D02*
X008177Y011107D01*
X008177Y011029D02*
X008257Y011029D01*
X008257Y010950D02*
X008177Y010950D01*
X007384Y011864D02*
X006984Y011864D01*
X006744Y011624D01*
X006895Y011464D02*
X006915Y011444D01*
X007015Y011444D01*
X007015Y011653D01*
X007073Y011711D01*
X007225Y011711D01*
X007213Y011724D01*
X007042Y011724D01*
X006964Y011646D01*
X006964Y011533D01*
X006895Y011464D01*
X006931Y011500D02*
X007015Y011500D01*
X007015Y011579D02*
X006964Y011579D01*
X006975Y011657D02*
X007019Y011657D01*
X006815Y011893D02*
X005604Y011893D01*
X005604Y011971D02*
X006893Y011971D01*
X006759Y012004D02*
X007152Y012004D01*
X007188Y012013D01*
X007220Y012032D01*
X007246Y012058D01*
X007264Y012090D01*
X007274Y012125D01*
X007274Y012239D01*
X006759Y012239D01*
X006759Y012269D01*
X007274Y012269D01*
X007274Y012382D01*
X007264Y012418D01*
X007246Y012450D01*
X007220Y012476D01*
X007188Y012494D01*
X007152Y012504D01*
X006759Y012504D01*
X006759Y012269D01*
X006729Y012269D01*
X006729Y012504D01*
X006335Y012504D01*
X006300Y012494D01*
X006268Y012476D01*
X006242Y012450D01*
X006223Y012418D01*
X006214Y012382D01*
X006214Y012269D01*
X006729Y012269D01*
X006729Y012239D01*
X006759Y012239D01*
X006759Y012004D01*
X006729Y012004D02*
X006729Y012239D01*
X006214Y012239D01*
X006214Y012125D01*
X006223Y012090D01*
X006242Y012058D01*
X006268Y012032D01*
X006300Y012013D01*
X006335Y012004D01*
X006729Y012004D01*
X006729Y012050D02*
X006759Y012050D01*
X006759Y012128D02*
X006729Y012128D01*
X006729Y012207D02*
X006759Y012207D01*
X006759Y012285D02*
X006729Y012285D01*
X006729Y012364D02*
X006759Y012364D01*
X006759Y012443D02*
X006729Y012443D01*
X006238Y012443D02*
X005604Y012443D01*
X005604Y012521D02*
X007324Y012521D01*
X007324Y012443D02*
X007250Y012443D01*
X007274Y012364D02*
X007373Y012364D01*
X007451Y012285D02*
X007274Y012285D01*
X007274Y012207D02*
X010504Y012207D01*
X010504Y012285D02*
X007637Y012285D01*
X007715Y012364D02*
X010504Y012364D01*
X010539Y012443D02*
X007764Y012443D01*
X007759Y012600D02*
X010509Y012600D01*
X010504Y012678D02*
X007681Y012678D01*
X007544Y012757D02*
X010504Y012757D01*
X010504Y012835D02*
X007491Y012835D01*
X007225Y012914D02*
X010510Y012914D01*
X010537Y013071D02*
X007202Y013071D01*
X007234Y013149D02*
X010504Y013149D01*
X010504Y013228D02*
X007234Y013228D01*
X007234Y013306D02*
X008070Y013306D01*
X008034Y013385D02*
X007234Y013385D01*
X007176Y013464D02*
X008034Y013464D01*
X008034Y013542D02*
X006044Y013542D01*
X006044Y013413D02*
X005995Y013364D01*
X006254Y013364D01*
X006254Y013405D01*
X006312Y013464D01*
X006254Y013385D02*
X006016Y013385D01*
X005824Y013504D02*
X005624Y013704D01*
X005624Y015624D01*
X005004Y016244D01*
X005004Y016504D01*
X005399Y016527D02*
X005862Y016527D01*
X005964Y016684D02*
X006044Y016684D01*
X006044Y016762D02*
X005964Y016762D01*
X005964Y016841D02*
X006044Y016841D01*
X006044Y016919D02*
X005964Y016919D01*
X005964Y016998D02*
X006044Y016998D01*
X006044Y017077D02*
X005964Y017077D01*
X005634Y017077D02*
X005317Y017077D01*
X005395Y016998D02*
X005581Y016998D01*
X005569Y016919D02*
X005399Y016919D01*
X005399Y016841D02*
X005569Y016841D01*
X005569Y016762D02*
X005399Y016762D01*
X005399Y016684D02*
X005569Y016684D01*
X005569Y016605D02*
X005399Y016605D01*
X005399Y016448D02*
X005569Y016448D01*
X005569Y016370D02*
X005399Y016370D01*
X005399Y016291D02*
X005569Y016291D01*
X005569Y016213D02*
X005399Y016213D01*
X005399Y016134D02*
X005569Y016134D01*
X005569Y016056D02*
X005399Y016056D01*
X005469Y015977D02*
X005598Y015977D01*
X005547Y015898D02*
X005679Y015898D01*
X005626Y015820D02*
X007700Y015820D01*
X007662Y015741D02*
X005704Y015741D01*
X005764Y015663D02*
X007662Y015663D01*
X007662Y015584D02*
X005764Y015584D01*
X005764Y015506D02*
X007662Y015506D01*
X007645Y015427D02*
X007212Y015427D01*
X007670Y015254D02*
X006744Y015254D01*
X006254Y015270D02*
X005764Y015270D01*
X005764Y015192D02*
X006254Y015192D01*
X006254Y015113D02*
X005764Y015113D01*
X005764Y015349D02*
X006254Y015349D01*
X006276Y015427D02*
X005764Y015427D01*
X005464Y015544D02*
X005464Y013384D01*
X005604Y013442D02*
X005604Y013526D01*
X005604Y013442D01*
X005604Y013442D01*
X005604Y013464D02*
X005604Y013464D01*
X005604Y013526D02*
X005604Y013526D01*
X005764Y013778D02*
X005884Y013778D01*
X005884Y013856D02*
X005764Y013856D01*
X005764Y013935D02*
X005944Y013935D01*
X005764Y014013D02*
X007662Y014013D01*
X007662Y013935D02*
X007204Y013935D01*
X007234Y013856D02*
X007662Y013856D01*
X007662Y013778D02*
X007234Y013778D01*
X007234Y013699D02*
X007689Y013699D01*
X008034Y013621D02*
X007234Y013621D01*
X006744Y013754D02*
X006714Y013784D01*
X006104Y013784D01*
X006264Y013935D02*
X006283Y013935D01*
X006264Y014092D02*
X005764Y014092D01*
X005764Y014170D02*
X006254Y014170D01*
X006254Y014249D02*
X005764Y014249D01*
X005764Y014328D02*
X006254Y014328D01*
X006255Y014406D02*
X005764Y014406D01*
X005324Y014406D02*
X005293Y014406D01*
X005294Y014328D02*
X005324Y014328D01*
X005324Y014249D02*
X005294Y014249D01*
X005294Y014170D02*
X005324Y014170D01*
X005324Y014092D02*
X005283Y014092D01*
X005294Y013699D02*
X005324Y013699D01*
X005324Y013621D02*
X005294Y013621D01*
X005114Y013254D02*
X005304Y013064D01*
X005304Y012104D01*
X005144Y011944D01*
X004924Y011971D02*
X004509Y011971D01*
X004509Y011893D02*
X004924Y011893D01*
X004963Y011814D02*
X004509Y011814D01*
X004509Y011736D02*
X005041Y011736D01*
X004985Y011579D02*
X004509Y011579D01*
X004509Y011657D02*
X005219Y011657D01*
X005247Y011736D02*
X005298Y011736D01*
X004985Y011500D02*
X004509Y011500D01*
X004509Y011421D02*
X004985Y011421D01*
X004985Y011343D02*
X004451Y011343D01*
X004114Y011698D02*
X004114Y012244D01*
X004104Y012254D01*
X004013Y012474D02*
X003905Y012474D01*
X003924Y012493D01*
X003924Y012675D01*
X003844Y012755D01*
X003844Y012893D01*
X003924Y012973D01*
X003924Y013155D01*
X003795Y013284D01*
X003613Y013284D01*
X003484Y013155D01*
X003484Y012973D01*
X003564Y012893D01*
X003564Y012755D01*
X003484Y012675D01*
X003484Y012493D01*
X003501Y012475D01*
X003254Y012483D01*
X003254Y012984D01*
X003254Y013124D01*
X003201Y013252D01*
X001604Y014849D01*
X001604Y014956D02*
X003164Y014956D01*
X003236Y015034D02*
X001604Y015034D01*
X001604Y015113D02*
X003315Y015113D01*
X003587Y015349D02*
X001604Y015349D01*
X001604Y015427D02*
X003508Y015427D01*
X003430Y015506D02*
X001604Y015506D01*
X001604Y015584D02*
X003351Y015584D01*
X003273Y015663D02*
X001604Y015663D01*
X001604Y015741D02*
X003194Y015741D01*
X003116Y015820D02*
X001927Y015820D01*
X002077Y015898D02*
X003037Y015898D01*
X002959Y015977D02*
X002156Y015977D01*
X002200Y016056D02*
X002880Y016056D01*
X002754Y016380D02*
X003830Y015304D01*
X004754Y015304D01*
X004804Y015254D01*
X004664Y015704D02*
X005304Y015704D01*
X005464Y015544D01*
X005151Y015898D02*
X004667Y015898D01*
X004645Y015977D02*
X004589Y015977D01*
X004609Y016056D02*
X004510Y016056D01*
X004432Y016134D02*
X004609Y016134D01*
X004609Y016213D02*
X004399Y016213D01*
X004399Y016291D02*
X004609Y016291D01*
X004609Y016370D02*
X004399Y016370D01*
X004399Y016448D02*
X004609Y016448D01*
X004609Y016527D02*
X004399Y016527D01*
X004399Y016605D02*
X004609Y016605D01*
X004609Y016684D02*
X004399Y016684D01*
X004399Y016762D02*
X004609Y016762D01*
X004609Y016841D02*
X004399Y016841D01*
X004399Y016919D02*
X004609Y016919D01*
X004612Y016998D02*
X004395Y016998D01*
X004317Y017077D02*
X004691Y017077D01*
X004004Y016504D02*
X004004Y016364D01*
X004664Y015704D01*
X004429Y015741D02*
X003864Y015741D01*
X003786Y015820D02*
X004350Y015820D01*
X004271Y015898D02*
X003707Y015898D01*
X003645Y015977D02*
X003629Y015977D01*
X003609Y016056D02*
X003550Y016056D01*
X003609Y016134D02*
X003472Y016134D01*
X003393Y016213D02*
X003609Y016213D01*
X003609Y016291D02*
X003315Y016291D01*
X003284Y016370D02*
X003609Y016370D01*
X003609Y016448D02*
X003284Y016448D01*
X003284Y016527D02*
X003609Y016527D01*
X003609Y016605D02*
X003284Y016605D01*
X003284Y016684D02*
X003609Y016684D01*
X003609Y016762D02*
X003284Y016762D01*
X003284Y016841D02*
X003609Y016841D01*
X003609Y016919D02*
X003284Y016919D01*
X003284Y016998D02*
X003612Y016998D01*
X003691Y017077D02*
X003284Y017077D01*
X003353Y017155D02*
X006364Y017155D01*
X006584Y017064D02*
X007004Y016844D01*
X007004Y016504D01*
X007399Y016527D02*
X007609Y016527D01*
X007609Y016605D02*
X007399Y016605D01*
X007399Y016684D02*
X007609Y016684D01*
X007609Y016762D02*
X007399Y016762D01*
X007399Y016841D02*
X007609Y016841D01*
X007609Y016919D02*
X007399Y016919D01*
X007395Y016998D02*
X007612Y016998D01*
X007691Y017077D02*
X007317Y017077D01*
X006804Y017155D02*
X007864Y017155D01*
X008004Y017244D02*
X008004Y016504D01*
X007609Y016448D02*
X007399Y016448D01*
X007399Y016370D02*
X007609Y016370D01*
X007609Y016291D02*
X007399Y016291D01*
X007399Y016213D02*
X007609Y016213D01*
X007609Y016134D02*
X007399Y016134D01*
X007399Y016056D02*
X007609Y016056D01*
X007645Y015977D02*
X007363Y015977D01*
X006645Y015977D02*
X006410Y015977D01*
X006439Y016056D02*
X006609Y016056D01*
X006609Y016134D02*
X006439Y016134D01*
X006439Y016213D02*
X006609Y016213D01*
X006609Y016291D02*
X006439Y016291D01*
X006439Y016370D02*
X006609Y016370D01*
X006609Y016448D02*
X006439Y016448D01*
X006439Y016605D02*
X006609Y016605D01*
X006609Y016527D02*
X006145Y016527D01*
X006044Y016291D02*
X005964Y016291D01*
X005964Y016213D02*
X006044Y016213D01*
X006044Y016134D02*
X005964Y016134D01*
X005964Y016056D02*
X006044Y016056D01*
X006044Y015977D02*
X005964Y015977D01*
X005964Y015898D02*
X006044Y015898D01*
X006329Y015898D02*
X008854Y015898D01*
X008847Y015820D02*
X008854Y015820D01*
X008994Y015634D02*
X008994Y017254D01*
X013254Y017254D01*
X013474Y017155D02*
X017518Y017155D01*
X017596Y017077D02*
X013458Y017077D01*
X013050Y017077D02*
X009134Y017077D01*
X009134Y016998D02*
X017674Y016998D01*
X017674Y016919D02*
X009134Y016919D01*
X009134Y016841D02*
X016724Y016841D01*
X016669Y016762D02*
X009134Y016762D01*
X009134Y016684D02*
X011333Y016684D01*
X011254Y016605D02*
X009134Y016605D01*
X009134Y016527D02*
X011244Y016527D01*
X011210Y016448D02*
X009134Y016448D01*
X009134Y016370D02*
X011132Y016370D01*
X011053Y016291D02*
X009134Y016291D01*
X009872Y015820D02*
X009952Y015820D01*
X009952Y015898D02*
X010560Y015898D01*
X010560Y015820D02*
X010328Y015820D01*
X010328Y015741D02*
X010560Y015741D01*
X010560Y015663D02*
X010328Y015663D01*
X010317Y015584D02*
X010560Y015584D01*
X010560Y015506D02*
X010224Y015506D01*
X009952Y015506D02*
X009872Y015506D01*
X009872Y015584D02*
X009952Y015584D01*
X009952Y015663D02*
X009872Y015663D01*
X009872Y015741D02*
X009952Y015741D01*
X010328Y015977D02*
X010560Y015977D01*
X010579Y016056D02*
X010328Y016056D01*
X010327Y016134D02*
X010896Y016134D01*
X010975Y016213D02*
X010286Y016213D01*
X011754Y015504D02*
X011754Y014634D01*
X011624Y014504D01*
X010584Y014504D01*
X010464Y014384D01*
X010324Y014249D02*
X008886Y014249D01*
X008886Y014170D02*
X010324Y014170D01*
X010324Y014092D02*
X008886Y014092D01*
X008886Y014013D02*
X010317Y014013D01*
X010324Y013935D02*
X008886Y013935D01*
X008628Y014004D02*
X008628Y013668D01*
X008584Y013624D01*
X008474Y013385D02*
X010504Y013385D01*
X010504Y013306D02*
X008438Y013306D01*
X008254Y013504D02*
X008254Y014754D01*
X008628Y014754D01*
X008371Y014956D02*
X008177Y014956D01*
X008174Y015034D02*
X008374Y015034D01*
X008406Y015192D02*
X008142Y015192D01*
X008177Y015270D02*
X008371Y015270D01*
X008371Y015349D02*
X008177Y015349D01*
X008177Y015427D02*
X008371Y015427D01*
X007920Y015504D02*
X007670Y015254D01*
X007920Y014754D02*
X006744Y014754D01*
X006744Y014254D02*
X007670Y014254D01*
X007920Y014004D01*
X007634Y014092D02*
X007223Y014092D01*
X006744Y013254D02*
X006714Y013224D01*
X005624Y013224D01*
X005669Y013071D02*
X005680Y013071D01*
X005604Y012992D02*
X005604Y012992D01*
X005604Y012914D02*
X005604Y012914D01*
X005604Y012835D02*
X005604Y012835D01*
X005604Y012757D02*
X005660Y012757D01*
X005604Y012678D02*
X005732Y012678D01*
X005604Y012600D02*
X006257Y012600D01*
X006214Y012364D02*
X005604Y012364D01*
X005604Y012285D02*
X006214Y012285D01*
X006214Y012207D02*
X005604Y012207D01*
X005604Y012128D02*
X006214Y012128D01*
X006250Y012050D02*
X005604Y012050D01*
X005604Y011814D02*
X006623Y011814D01*
X006545Y011736D02*
X005604Y011736D01*
X005604Y011657D02*
X005871Y011657D01*
X005816Y011579D02*
X005657Y011579D01*
X005657Y011500D02*
X005811Y011500D01*
X005811Y011421D02*
X005657Y011421D01*
X005657Y011343D02*
X005811Y011343D01*
X005811Y011186D02*
X005657Y011186D01*
X005657Y011264D02*
X006147Y011264D01*
X006147Y011186D02*
X006227Y011186D01*
X006227Y011107D02*
X006147Y011107D01*
X006147Y011029D02*
X006227Y011029D01*
X006227Y010950D02*
X006147Y010950D01*
X006147Y010872D02*
X006227Y010872D01*
X005817Y010950D02*
X005657Y010950D01*
X005657Y011029D02*
X005811Y011029D01*
X005811Y011107D02*
X005657Y011107D01*
X006147Y011343D02*
X006227Y011343D01*
X006227Y011421D02*
X006147Y011421D01*
X006147Y011500D02*
X006227Y011500D01*
X006227Y011579D02*
X006147Y011579D01*
X006147Y011657D02*
X006227Y011657D01*
X006503Y011657D02*
X006524Y011657D01*
X006563Y011494D02*
X006563Y011434D01*
X006593Y011464D01*
X006563Y011494D01*
X007238Y012050D02*
X007259Y012050D01*
X007274Y012128D02*
X010504Y012128D01*
X010559Y012050D02*
X007509Y012050D01*
X007312Y012600D02*
X007231Y012600D01*
X006254Y013621D02*
X006252Y013621D01*
X005324Y014485D02*
X003444Y014485D01*
X003444Y014563D02*
X004353Y014563D01*
X004314Y014642D02*
X003444Y014642D01*
X003444Y014720D02*
X004314Y014720D01*
X004314Y014799D02*
X003444Y014799D01*
X003475Y014877D02*
X004314Y014877D01*
X004315Y014406D02*
X003804Y014406D01*
X003584Y014254D02*
X004804Y014254D01*
X005255Y014563D02*
X005324Y014563D01*
X005324Y014642D02*
X005294Y014642D01*
X005294Y014720D02*
X005324Y014720D01*
X005324Y014799D02*
X005294Y014799D01*
X005294Y014877D02*
X005324Y014877D01*
X004324Y014092D02*
X003803Y014092D01*
X004372Y013464D02*
X004314Y013405D01*
X004314Y013102D01*
X004372Y013044D01*
X005126Y013044D01*
X005164Y013006D01*
X005164Y012964D01*
X004435Y012964D01*
X004253Y012964D01*
X004124Y012835D01*
X004124Y012653D01*
X004253Y012524D01*
X004435Y012524D01*
X004455Y012544D01*
X005164Y012544D01*
X005164Y012464D01*
X004905Y012464D01*
X004895Y012474D01*
X004013Y012474D01*
X003924Y012521D02*
X005164Y012521D01*
X004804Y012754D02*
X004354Y012754D01*
X004344Y012744D01*
X004124Y012757D02*
X003844Y012757D01*
X003844Y012835D02*
X004124Y012835D01*
X004203Y012914D02*
X003865Y012914D01*
X003924Y012992D02*
X005164Y012992D01*
X005114Y013254D02*
X004804Y013254D01*
X004346Y013071D02*
X003924Y013071D01*
X003924Y013149D02*
X004314Y013149D01*
X004314Y013228D02*
X003851Y013228D01*
X003704Y013064D02*
X003704Y012584D01*
X003924Y012600D02*
X004177Y012600D01*
X004124Y012678D02*
X003921Y012678D01*
X003564Y012757D02*
X003254Y012757D01*
X003254Y012835D02*
X003564Y012835D01*
X003543Y012914D02*
X003254Y012914D01*
X003254Y012992D02*
X003484Y012992D01*
X003484Y013071D02*
X003254Y013071D01*
X003243Y013149D02*
X003484Y013149D01*
X003557Y013228D02*
X003211Y013228D01*
X003146Y013306D02*
X004314Y013306D01*
X004314Y013385D02*
X003068Y013385D01*
X003254Y012678D02*
X003487Y012678D01*
X003484Y012600D02*
X003254Y012600D01*
X003254Y012521D02*
X003484Y012521D01*
X003544Y012254D02*
X003594Y012204D01*
X003719Y011971D02*
X003254Y011971D01*
X003254Y011893D02*
X003719Y011893D01*
X003719Y011814D02*
X003254Y011814D01*
X003254Y011736D02*
X003719Y011736D01*
X003719Y011657D02*
X003254Y011657D01*
X003254Y011579D02*
X003719Y011579D01*
X003719Y011500D02*
X003254Y011500D01*
X003254Y011421D02*
X003719Y011421D01*
X003776Y011343D02*
X003254Y011343D01*
X003254Y011264D02*
X003691Y011264D01*
X003679Y011186D02*
X003254Y011186D01*
X003254Y011107D02*
X003679Y011107D01*
X003679Y011029D02*
X003254Y011029D01*
X005041Y008358D02*
X005173Y008358D01*
X005173Y008280D02*
X005119Y008280D01*
X005124Y008201D02*
X005173Y008201D01*
X005173Y008123D02*
X005124Y008123D01*
X005075Y008044D02*
X005173Y008044D01*
X005173Y007966D02*
X005044Y007966D01*
X005044Y007887D02*
X005181Y007887D01*
X004904Y008184D02*
X004904Y007544D01*
X006475Y008280D02*
X006552Y008280D01*
X006552Y008358D02*
X006475Y008358D01*
X006475Y008437D02*
X006552Y008437D01*
X005168Y002546D02*
X000644Y002546D01*
X000644Y002468D02*
X005168Y002468D01*
X005168Y002389D02*
X000644Y002389D01*
X000644Y002310D02*
X005168Y002310D01*
X005168Y002232D02*
X004561Y002232D01*
X004718Y002153D02*
X005170Y002153D01*
X004321Y002232D02*
X000644Y002232D01*
X000644Y002153D02*
X004163Y002153D01*
X004085Y002075D02*
X000644Y002075D01*
X000816Y001132D02*
X002284Y001132D01*
X002284Y001054D02*
X000873Y001054D01*
X000930Y000975D02*
X002284Y000975D01*
X002284Y000897D02*
X001021Y000897D01*
X001130Y000818D02*
X002312Y000818D01*
X002564Y001054D02*
X003991Y001054D01*
X003991Y001132D02*
X002564Y001132D01*
X002564Y001211D02*
X003991Y001211D01*
X003991Y001289D02*
X002564Y001289D01*
X002564Y001368D02*
X003991Y001368D01*
X003991Y001446D02*
X002564Y001446D01*
X002564Y001525D02*
X003991Y001525D01*
X003991Y001604D02*
X002625Y001604D01*
X002644Y001682D02*
X003991Y001682D01*
X003991Y001761D02*
X002644Y001761D01*
X002644Y001839D02*
X003991Y001839D01*
X004005Y001918D02*
X002644Y001918D01*
X002593Y001996D02*
X004037Y001996D01*
X004424Y000904D02*
X004441Y000904D01*
X004311Y000661D02*
X001510Y000661D01*
X001269Y000740D02*
X004159Y000740D01*
X013384Y002584D02*
X013944Y002584D01*
X013757Y002389D02*
X013570Y002389D01*
X013568Y002782D02*
X013760Y002782D01*
X017784Y002904D02*
X018264Y002904D01*
X018074Y003096D02*
X017973Y003096D01*
X017965Y002703D02*
X018083Y002703D01*
X017674Y014092D02*
X017274Y014092D01*
X017274Y014170D02*
X017674Y014170D01*
X017674Y014249D02*
X017274Y014249D01*
X017271Y014328D02*
X017674Y014328D01*
X017674Y014406D02*
X017225Y014406D01*
X017674Y014799D02*
X015477Y014799D01*
X015555Y014877D02*
X017674Y014877D01*
X017104Y015349D02*
X017024Y015349D01*
X017024Y015427D02*
X017104Y015427D01*
X017104Y015506D02*
X017024Y015506D01*
X017024Y015584D02*
X017104Y015584D01*
X016733Y015349D02*
X016149Y015349D01*
X016149Y015427D02*
X016640Y015427D01*
X016629Y015506D02*
X016149Y015506D01*
X016149Y015584D02*
X016629Y015584D01*
X017499Y015820D02*
X017674Y015820D01*
X017674Y015898D02*
X017499Y015898D01*
X017499Y015977D02*
X017674Y015977D01*
X017674Y016056D02*
X017486Y016056D01*
X017403Y016134D02*
X017674Y016134D01*
X017674Y016213D02*
X017459Y016213D01*
X017459Y016291D02*
X017674Y016291D01*
X017674Y016684D02*
X017459Y016684D01*
X017459Y016762D02*
X017674Y016762D01*
X017674Y016841D02*
X017404Y016841D01*
X016614Y018333D02*
X020049Y018333D01*
X020049Y018412D02*
X016614Y018412D01*
X016614Y018490D02*
X020049Y018490D01*
X020049Y018569D02*
X016614Y018569D01*
X016635Y018647D02*
X020049Y018647D01*
X020049Y018726D02*
X016668Y018726D01*
X016700Y018805D02*
X020049Y018805D01*
X020049Y018883D02*
X016702Y018883D01*
X016702Y018962D02*
X020049Y018962D01*
X020046Y019040D02*
X016702Y019040D01*
X016702Y019119D02*
X020040Y019119D01*
X020027Y019197D02*
X016702Y019197D01*
X016702Y019276D02*
X020001Y019276D01*
X019976Y019354D02*
X016702Y019354D01*
X016702Y019433D02*
X019950Y019433D01*
X019912Y019511D02*
X016702Y019511D01*
X016702Y019590D02*
X019855Y019590D01*
X019798Y019669D02*
X016702Y019669D01*
X016677Y019747D02*
X019739Y019747D01*
X019631Y019826D02*
X016645Y019826D01*
X016583Y019904D02*
X019523Y019904D01*
X019334Y019983D02*
X016500Y019983D01*
X016004Y019983D02*
X004689Y019983D01*
X004772Y019904D02*
X015921Y019904D01*
X015859Y019826D02*
X004834Y019826D01*
X004866Y019747D02*
X015826Y019747D01*
X015802Y019669D02*
X004891Y019669D01*
X004891Y019590D02*
X015802Y019590D01*
X015802Y019511D02*
X004891Y019511D01*
X004891Y019433D02*
X015802Y019433D01*
X015802Y019354D02*
X004891Y019354D01*
X004891Y019276D02*
X015802Y019276D01*
X015802Y019197D02*
X004891Y019197D01*
X004891Y019119D02*
X015802Y019119D01*
X015802Y019040D02*
X004891Y019040D01*
X004891Y018962D02*
X015802Y018962D01*
X015802Y018883D02*
X004891Y018883D01*
X004889Y018805D02*
X015804Y018805D01*
X015836Y018726D02*
X004857Y018726D01*
X004824Y018647D02*
X015869Y018647D01*
X015914Y018569D02*
X007150Y018569D01*
X007204Y018490D02*
X015914Y018490D01*
X015914Y018412D02*
X007204Y018412D01*
X007204Y018333D02*
X015914Y018333D01*
X015224Y016504D02*
X014754Y016034D01*
X014754Y015504D01*
X014359Y015506D02*
X013895Y015506D01*
X013794Y015349D02*
X013714Y015349D01*
X013714Y015270D02*
X013794Y015270D01*
X013794Y015192D02*
X013714Y015192D01*
X013714Y015113D02*
X013794Y015113D01*
X013794Y015034D02*
X013714Y015034D01*
X013714Y014956D02*
X013794Y014956D01*
X013794Y014877D02*
X013714Y014877D01*
X014147Y014956D02*
X014416Y014956D01*
X014359Y015034D02*
X014183Y015034D01*
X014189Y015113D02*
X014359Y015113D01*
X014359Y015192D02*
X014189Y015192D01*
X014189Y015270D02*
X014359Y015270D01*
X014359Y015349D02*
X014189Y015349D01*
X014189Y015427D02*
X014359Y015427D01*
X014359Y015584D02*
X014189Y015584D01*
X014189Y015663D02*
X014359Y015663D01*
X014359Y015741D02*
X014189Y015741D01*
X014189Y015820D02*
X014359Y015820D01*
X014359Y015898D02*
X014189Y015898D01*
X014182Y015977D02*
X014359Y015977D01*
X014420Y016056D02*
X014144Y016056D01*
X012420Y016056D02*
X012088Y016056D01*
X012149Y015977D02*
X012359Y015977D01*
X012359Y015898D02*
X012149Y015898D01*
X012149Y015820D02*
X012359Y015820D01*
X012359Y015741D02*
X012149Y015741D01*
X012149Y015663D02*
X012359Y015663D01*
X012359Y015584D02*
X012149Y015584D01*
X012149Y015506D02*
X012359Y015506D01*
X012359Y015427D02*
X012149Y015427D01*
X012149Y015349D02*
X012359Y015349D01*
X012359Y015270D02*
X012149Y015270D01*
X012149Y015192D02*
X012359Y015192D01*
X012359Y015113D02*
X012149Y015113D01*
X012149Y015034D02*
X012356Y015034D01*
X012278Y014956D02*
X012091Y014956D01*
X012199Y014877D02*
X011894Y014877D01*
X011894Y014799D02*
X012121Y014799D01*
X012042Y014720D02*
X011894Y014720D01*
X011894Y014642D02*
X011964Y014642D01*
X011885Y014563D02*
X011881Y014563D01*
X011807Y014485D02*
X011803Y014485D01*
X011728Y014406D02*
X011724Y014406D01*
X011776Y014256D02*
X010994Y014256D01*
X008179Y014877D02*
X008177Y014877D01*
X006609Y016684D02*
X006439Y016684D01*
X006439Y016762D02*
X006609Y016762D01*
X006609Y016841D02*
X006439Y016841D01*
X007064Y017944D02*
X006984Y018024D01*
X006984Y018424D01*
X006764Y018412D02*
X004104Y018412D01*
X004104Y018490D02*
X004250Y018490D01*
X004134Y018569D02*
X004104Y018569D01*
X004104Y018333D02*
X006764Y018333D01*
X006764Y018490D02*
X004632Y018490D01*
X004748Y018569D02*
X006818Y018569D01*
X004193Y019983D02*
X001359Y019983D01*
X001170Y019904D02*
X004110Y019904D01*
X004048Y019826D02*
X001062Y019826D01*
X000954Y019747D02*
X004015Y019747D01*
X003991Y019669D02*
X000895Y019669D01*
X000837Y019590D02*
X003991Y019590D01*
X003991Y019511D02*
X000780Y019511D01*
X000742Y019433D02*
X003991Y019433D01*
X003991Y019354D02*
X000717Y019354D01*
X000691Y019276D02*
X001661Y019276D01*
X001582Y019197D02*
X000666Y019197D01*
X001494Y017783D02*
X002844Y017783D01*
X002844Y017705D02*
X001494Y017705D01*
X001494Y017312D02*
X002443Y017312D01*
X002418Y017234D02*
X001494Y017234D01*
X001494Y017155D02*
X002418Y017155D01*
X002418Y017077D02*
X001494Y017077D01*
X001494Y016998D02*
X002418Y016998D01*
X002418Y016919D02*
X001494Y016919D01*
X001494Y016841D02*
X002466Y016841D01*
X002445Y016605D02*
X002077Y016605D01*
X002156Y016527D02*
X002418Y016527D01*
X002418Y016448D02*
X002200Y016448D01*
X002233Y016370D02*
X002418Y016370D01*
X002418Y016291D02*
X002244Y016291D01*
X002244Y016213D02*
X002418Y016213D01*
X002464Y016134D02*
X002233Y016134D01*
X001928Y016684D02*
X003004Y016684D01*
X003004Y016762D02*
X001494Y016762D01*
X001604Y015270D02*
X003665Y015270D01*
X003744Y015192D02*
X001604Y015192D01*
X003977Y019276D02*
X003991Y019276D01*
D34*
X003224Y018344D03*
X003064Y017864D03*
X002024Y017624D03*
X003584Y014254D03*
X005864Y012184D03*
X004424Y010344D03*
X004424Y009544D03*
X003464Y009544D03*
X003464Y009944D03*
X003464Y010344D03*
X003464Y010744D03*
X003464Y011064D03*
X003224Y008184D03*
X002824Y008184D03*
X002824Y007464D03*
X002584Y007144D03*
X003624Y006664D03*
X005464Y006664D03*
X006744Y006024D03*
X006744Y005704D03*
X006504Y004264D03*
X007224Y002184D03*
X008024Y002184D03*
X010264Y003944D03*
X010264Y004264D03*
X010664Y004264D03*
X010664Y003944D03*
X011064Y003944D03*
X012024Y005704D03*
X012804Y006904D03*
X013304Y008184D03*
X013544Y009144D03*
X015464Y007224D03*
X017384Y007224D03*
X017224Y009544D03*
X017224Y009944D03*
X017224Y010424D03*
X017224Y010824D03*
X017224Y011224D03*
X016264Y010664D03*
X016264Y010024D03*
X013544Y012264D03*
X012024Y013224D03*
X009144Y015204D03*
X008584Y016084D03*
X008584Y016964D03*
X009704Y016964D03*
X010024Y016964D03*
X010344Y016964D03*
X010664Y016964D03*
X010984Y016964D03*
X013224Y016744D03*
X013224Y016344D03*
X013254Y017254D03*
X014264Y016744D03*
X016064Y017504D03*
X016984Y014904D03*
X008984Y009624D03*
X008504Y008184D03*
X008504Y007384D03*
X008344Y006744D03*
X003544Y003464D03*
X001944Y003464D03*
X002424Y001784D03*
X013384Y002584D03*
X013944Y002584D03*
X014264Y003464D03*
X017704Y003384D03*
X017784Y002904D03*
X018264Y002904D03*
X008254Y013504D03*
X006024Y015604D03*
M02*
