G75*
G70*
%OFA0B0*%
%FSLAX24Y24*%
%IPPOS*%
%LPD*%
%AMOC8*
5,1,8,0,0,1.08239X$1,22.5*
%
%ADD10C,0.0001*%
%ADD11C,0.0000*%
%ADD12R,0.0472X0.0472*%
%ADD13C,0.0700*%
%ADD14C,0.0240*%
%ADD15C,0.0160*%
%ADD16C,0.0080*%
%ADD17R,0.0240X0.0240*%
D10*
X000504Y001685D02*
X000504Y019008D01*
X000506Y019074D01*
X000511Y019140D01*
X000521Y019206D01*
X000534Y019271D01*
X000550Y019335D01*
X000570Y019398D01*
X000594Y019460D01*
X000621Y019520D01*
X000651Y019579D01*
X000685Y019636D01*
X000722Y019691D01*
X000762Y019744D01*
X000804Y019795D01*
X000850Y019843D01*
X000898Y019889D01*
X000949Y019931D01*
X001002Y019971D01*
X001057Y020008D01*
X001114Y020042D01*
X001173Y020072D01*
X001233Y020099D01*
X001295Y020123D01*
X001358Y020143D01*
X001422Y020159D01*
X001487Y020172D01*
X001553Y020182D01*
X001619Y020187D01*
X001685Y020189D01*
X019008Y020189D01*
X019074Y020187D01*
X019140Y020182D01*
X019206Y020172D01*
X019271Y020159D01*
X019335Y020143D01*
X019398Y020123D01*
X019460Y020099D01*
X019520Y020072D01*
X019579Y020042D01*
X019636Y020008D01*
X019691Y019971D01*
X019744Y019931D01*
X019795Y019889D01*
X019843Y019843D01*
X019889Y019795D01*
X019931Y019744D01*
X019971Y019691D01*
X020008Y019636D01*
X020042Y019579D01*
X020072Y019520D01*
X020099Y019460D01*
X020123Y019398D01*
X020143Y019335D01*
X020159Y019271D01*
X020172Y019206D01*
X020182Y019140D01*
X020187Y019074D01*
X020189Y019008D01*
X020189Y001685D01*
X020187Y001619D01*
X020182Y001553D01*
X020172Y001487D01*
X020159Y001422D01*
X020143Y001358D01*
X020123Y001295D01*
X020099Y001233D01*
X020072Y001173D01*
X020042Y001114D01*
X020008Y001057D01*
X019971Y001002D01*
X019931Y000949D01*
X019889Y000898D01*
X019843Y000850D01*
X019795Y000804D01*
X019744Y000762D01*
X019691Y000722D01*
X019636Y000685D01*
X019579Y000651D01*
X019520Y000621D01*
X019460Y000594D01*
X019398Y000570D01*
X019335Y000550D01*
X019271Y000534D01*
X019206Y000521D01*
X019140Y000511D01*
X019074Y000506D01*
X019008Y000504D01*
X001685Y000504D01*
X001619Y000506D01*
X001553Y000511D01*
X001487Y000521D01*
X001422Y000534D01*
X001358Y000550D01*
X001295Y000570D01*
X001233Y000594D01*
X001173Y000621D01*
X001114Y000651D01*
X001057Y000685D01*
X001002Y000722D01*
X000949Y000762D01*
X000898Y000804D01*
X000850Y000850D01*
X000804Y000898D01*
X000762Y000949D01*
X000722Y001002D01*
X000685Y001057D01*
X000651Y001114D01*
X000621Y001173D01*
X000594Y001233D01*
X000570Y001295D01*
X000550Y001358D01*
X000534Y001422D01*
X000521Y001487D01*
X000511Y001553D01*
X000506Y001619D01*
X000504Y001685D01*
D11*
X006351Y003260D02*
X006353Y003286D01*
X006359Y003312D01*
X006369Y003337D01*
X006382Y003360D01*
X006398Y003380D01*
X006418Y003398D01*
X006440Y003413D01*
X006463Y003425D01*
X006489Y003433D01*
X006515Y003437D01*
X006541Y003437D01*
X006567Y003433D01*
X006593Y003425D01*
X006617Y003413D01*
X006638Y003398D01*
X006658Y003380D01*
X006674Y003360D01*
X006687Y003337D01*
X006697Y003312D01*
X006703Y003286D01*
X006705Y003260D01*
X006703Y003234D01*
X006697Y003208D01*
X006687Y003183D01*
X006674Y003160D01*
X006658Y003140D01*
X006638Y003122D01*
X006616Y003107D01*
X006593Y003095D01*
X006567Y003087D01*
X006541Y003083D01*
X006515Y003083D01*
X006489Y003087D01*
X006463Y003095D01*
X006439Y003107D01*
X006418Y003122D01*
X006398Y003140D01*
X006382Y003160D01*
X006369Y003183D01*
X006359Y003208D01*
X006353Y003234D01*
X006351Y003260D01*
X008083Y003260D02*
X008085Y003286D01*
X008091Y003312D01*
X008101Y003337D01*
X008114Y003360D01*
X008130Y003380D01*
X008150Y003398D01*
X008172Y003413D01*
X008195Y003425D01*
X008221Y003433D01*
X008247Y003437D01*
X008273Y003437D01*
X008299Y003433D01*
X008325Y003425D01*
X008349Y003413D01*
X008370Y003398D01*
X008390Y003380D01*
X008406Y003360D01*
X008419Y003337D01*
X008429Y003312D01*
X008435Y003286D01*
X008437Y003260D01*
X008435Y003234D01*
X008429Y003208D01*
X008419Y003183D01*
X008406Y003160D01*
X008390Y003140D01*
X008370Y003122D01*
X008348Y003107D01*
X008325Y003095D01*
X008299Y003087D01*
X008273Y003083D01*
X008247Y003083D01*
X008221Y003087D01*
X008195Y003095D01*
X008171Y003107D01*
X008150Y003122D01*
X008130Y003140D01*
X008114Y003160D01*
X008101Y003183D01*
X008091Y003208D01*
X008085Y003234D01*
X008083Y003260D01*
X011753Y015504D02*
X011753Y015505D01*
X011754Y015505D01*
X011755Y015505D01*
X011755Y015504D01*
X011755Y015503D01*
X011754Y015503D01*
X011753Y015503D01*
X011753Y015504D01*
X012753Y015504D02*
X012753Y015505D01*
X012754Y015505D01*
X012755Y015505D01*
X012755Y015504D01*
X012755Y015503D01*
X012754Y015503D01*
X012753Y015503D01*
X012753Y015504D01*
X013753Y015504D02*
X013753Y015505D01*
X013754Y015505D01*
X013755Y015505D01*
X013755Y015504D01*
X013755Y015503D01*
X013754Y015503D01*
X013753Y015503D01*
X013753Y015504D01*
X014753Y015504D02*
X014753Y015505D01*
X014754Y015505D01*
X014755Y015505D01*
X014755Y015504D01*
X014755Y015503D01*
X014754Y015503D01*
X014753Y015503D01*
X014753Y015504D01*
X015753Y015504D02*
X015753Y015505D01*
X015754Y015505D01*
X015755Y015505D01*
X015755Y015504D01*
X015755Y015503D01*
X015754Y015503D01*
X015753Y015503D01*
X015753Y015504D01*
X008003Y016504D02*
X008003Y016505D01*
X008004Y016505D01*
X008005Y016505D01*
X008005Y016504D01*
X008005Y016503D01*
X008004Y016503D01*
X008003Y016503D01*
X008003Y016504D01*
X007003Y016504D02*
X007003Y016505D01*
X007004Y016505D01*
X007005Y016505D01*
X007005Y016504D01*
X007005Y016503D01*
X007004Y016503D01*
X007003Y016503D01*
X007003Y016504D01*
X006003Y016504D02*
X006003Y016505D01*
X006004Y016505D01*
X006005Y016505D01*
X006005Y016504D01*
X006005Y016503D01*
X006004Y016503D01*
X006003Y016503D01*
X006003Y016504D01*
X005003Y016504D02*
X005003Y016505D01*
X005004Y016505D01*
X005005Y016505D01*
X005005Y016504D01*
X005005Y016503D01*
X005004Y016503D01*
X005003Y016503D01*
X005003Y016504D01*
X004003Y016504D02*
X004003Y016505D01*
X004004Y016505D01*
X004005Y016505D01*
X004005Y016504D01*
X004005Y016503D01*
X004004Y016503D01*
X004003Y016503D01*
X004003Y016504D01*
D12*
X001902Y019205D03*
X001075Y019205D03*
X006980Y019205D03*
X007807Y019205D03*
X012886Y019205D03*
X013713Y019205D03*
X018791Y019205D03*
X019618Y019205D03*
X019618Y013299D03*
X018791Y013299D03*
X013713Y013299D03*
X012886Y013299D03*
X007807Y013299D03*
X006980Y013299D03*
X001902Y013299D03*
X001075Y013299D03*
X001075Y007394D03*
X001902Y007394D03*
X006980Y007394D03*
X007807Y007394D03*
X012886Y007394D03*
X013713Y007394D03*
X018791Y007394D03*
X019618Y007394D03*
X019618Y001488D03*
X018791Y001488D03*
X013713Y001488D03*
X012886Y001488D03*
X007807Y001488D03*
X006980Y001488D03*
X001902Y001488D03*
X001075Y001488D03*
D13*
X001094Y004441D02*
X001794Y004441D01*
X004441Y001794D02*
X004441Y001094D01*
X010346Y001094D02*
X010346Y001794D01*
X016252Y001794D02*
X016252Y001094D01*
X018898Y004441D02*
X019598Y004441D01*
X019598Y010346D02*
X018898Y010346D01*
X018898Y016252D02*
X019598Y016252D01*
X016252Y018898D02*
X016252Y019598D01*
X010346Y019598D02*
X010346Y018898D01*
X004441Y018898D02*
X004441Y019598D01*
X001794Y016252D02*
X001094Y016252D01*
X001094Y010346D02*
X001794Y010346D01*
D14*
X003704Y012584D03*
X003704Y013064D03*
X004344Y012744D03*
X005144Y011944D03*
X005824Y012904D03*
X005824Y013504D03*
X006104Y013784D03*
X007544Y012504D03*
X007384Y011864D03*
X006744Y011624D03*
X006744Y011304D03*
X006504Y010264D03*
X006744Y009864D03*
X006504Y008664D03*
X006504Y007384D03*
X004904Y007544D03*
X004904Y008184D03*
X004984Y009304D03*
X007384Y005624D03*
X007864Y005624D03*
X009704Y005144D03*
X009864Y005304D03*
X010104Y007384D03*
X010664Y007384D03*
X011544Y007384D03*
X011864Y007304D03*
X011864Y007544D03*
X011864Y008264D03*
X011864Y008504D03*
X011864Y010264D03*
X011624Y010264D03*
X008584Y013624D03*
X009784Y014664D03*
X011464Y016504D03*
X006984Y018424D03*
X006584Y017064D03*
X015144Y010264D03*
X015144Y009784D03*
X015704Y009224D03*
X015704Y011224D03*
D15*
X011864Y010264D02*
X011864Y008504D01*
X011864Y008264D01*
X011864Y007544D02*
X011864Y007304D01*
X009704Y005144D01*
X011624Y010264D02*
X011864Y010264D01*
D16*
X000802Y001152D02*
X000949Y000949D01*
X001213Y000758D01*
X001522Y000657D01*
X001685Y000644D01*
X018950Y000644D01*
X018967Y000644D01*
X019008Y000644D01*
X019171Y000657D01*
X019480Y000758D01*
X019744Y000949D01*
X019891Y001152D01*
X019340Y001152D01*
X019282Y001211D01*
X019128Y001211D01*
X019128Y001724D01*
X019282Y001724D01*
X019282Y001211D01*
X019282Y001289D02*
X019128Y001289D01*
X019128Y001211D02*
X019069Y001152D01*
X018514Y001152D01*
X018455Y001211D01*
X016702Y001211D01*
X016702Y001289D02*
X018455Y001289D01*
X018455Y001324D02*
X018455Y001211D01*
X018455Y001324D02*
X017806Y001324D01*
X017724Y001406D01*
X017724Y001522D01*
X017724Y002524D01*
X014404Y002524D01*
X014404Y001086D01*
X014322Y001004D01*
X014206Y001004D01*
X012882Y001004D01*
X012766Y001004D01*
X012446Y001004D01*
X012364Y001086D01*
X012364Y001202D01*
X012364Y004524D01*
X008724Y004524D01*
X008724Y001202D01*
X008724Y001086D01*
X008642Y001004D01*
X006926Y001004D01*
X006526Y001004D01*
X006444Y001086D01*
X006444Y001202D01*
X006444Y002524D01*
X003124Y002524D01*
X003124Y001086D01*
X003042Y001004D01*
X002926Y001004D01*
X001006Y001004D01*
X000924Y001086D01*
X000924Y001152D01*
X000802Y001152D01*
X000816Y001132D02*
X000924Y001132D01*
X000956Y001054D02*
X000873Y001054D01*
X000930Y000975D02*
X004003Y000975D01*
X003991Y001005D02*
X004059Y000840D01*
X004186Y000713D01*
X004351Y000644D01*
X004530Y000644D01*
X004696Y000713D01*
X004822Y000840D01*
X004891Y001005D01*
X004891Y001884D01*
X004822Y002049D01*
X004696Y002176D01*
X004530Y002244D01*
X004351Y002244D01*
X004186Y002176D01*
X004059Y002049D01*
X003991Y001884D01*
X003991Y001005D01*
X003991Y001054D02*
X003092Y001054D01*
X003124Y001132D02*
X003991Y001132D01*
X003991Y001211D02*
X003124Y001211D01*
X003124Y001289D02*
X003991Y001289D01*
X003991Y001368D02*
X003124Y001368D01*
X003124Y001446D02*
X003991Y001446D01*
X003991Y001525D02*
X003124Y001525D01*
X003124Y001604D02*
X003991Y001604D01*
X003991Y001682D02*
X003124Y001682D01*
X003124Y001761D02*
X003991Y001761D01*
X003991Y001839D02*
X003124Y001839D01*
X003124Y001918D02*
X004005Y001918D01*
X004037Y001996D02*
X003124Y001996D01*
X003124Y002075D02*
X004085Y002075D01*
X004163Y002153D02*
X003124Y002153D01*
X003124Y002232D02*
X004321Y002232D01*
X004561Y002232D02*
X006444Y002232D01*
X006444Y002310D02*
X003124Y002310D01*
X003124Y002389D02*
X006444Y002389D01*
X006444Y002468D02*
X003124Y002468D01*
X002984Y002664D02*
X002984Y007224D01*
X003304Y007544D01*
X004904Y007544D01*
X004733Y007404D02*
X004813Y007324D01*
X004995Y007324D01*
X005124Y007453D01*
X005124Y007635D01*
X005115Y007644D01*
X006644Y007644D01*
X006644Y007555D01*
X006595Y007604D01*
X006413Y007604D01*
X006284Y007475D01*
X006284Y007293D01*
X006413Y007164D01*
X006595Y007164D01*
X006644Y007213D01*
X006644Y007116D01*
X006703Y007057D01*
X007258Y007057D01*
X007316Y007116D01*
X007316Y007644D01*
X007471Y007644D01*
X007471Y007116D01*
X007529Y007057D01*
X007644Y007057D01*
X007644Y007044D01*
X006926Y007044D01*
X006844Y006962D01*
X006844Y006846D01*
X006844Y003325D01*
X006796Y003439D01*
X006707Y003529D01*
X006591Y003577D01*
X006464Y003577D01*
X006348Y003529D01*
X006259Y003439D01*
X006210Y003323D01*
X006210Y003197D01*
X006259Y003080D01*
X006348Y002991D01*
X006464Y002943D01*
X006591Y002943D01*
X006707Y002991D01*
X006796Y003080D01*
X006844Y003195D01*
X006844Y001886D01*
X006906Y001824D01*
X006724Y001824D01*
X006724Y002722D01*
X006642Y002804D01*
X006526Y002804D01*
X003124Y002804D01*
X003124Y007166D01*
X003362Y007404D01*
X004733Y007404D01*
X004800Y007337D02*
X003295Y007337D01*
X003217Y007259D02*
X006318Y007259D01*
X006284Y007337D02*
X005008Y007337D01*
X005087Y007416D02*
X006284Y007416D01*
X006303Y007494D02*
X005124Y007494D01*
X005124Y007573D02*
X006382Y007573D01*
X006504Y007384D02*
X006971Y007384D01*
X006980Y007394D01*
X006980Y007784D01*
X001075Y007784D01*
X001075Y007394D01*
X001411Y007416D02*
X001565Y007416D01*
X001565Y007494D02*
X001411Y007494D01*
X001411Y007573D02*
X001565Y007573D01*
X001565Y007644D02*
X001565Y007116D01*
X001624Y007057D01*
X002179Y007057D01*
X002238Y007116D01*
X002238Y007324D01*
X002383Y007324D01*
X002364Y007305D01*
X002364Y006982D01*
X002422Y006924D01*
X002444Y006924D01*
X002444Y004581D01*
X002224Y004581D01*
X002176Y004696D01*
X002049Y004822D01*
X001884Y004891D01*
X001005Y004891D01*
X000840Y004822D01*
X000713Y004696D01*
X000644Y004530D01*
X000644Y004351D01*
X000713Y004186D01*
X000840Y004059D01*
X000924Y004025D01*
X000924Y002002D01*
X000924Y001886D01*
X000986Y001824D01*
X000797Y001824D01*
X000739Y001766D01*
X000739Y001272D01*
X000657Y001522D01*
X000644Y001685D01*
X000644Y001709D01*
X000644Y001743D01*
X000644Y019008D01*
X000657Y019171D01*
X000739Y019421D01*
X000739Y018927D01*
X000797Y018869D01*
X001352Y018869D01*
X001411Y018927D01*
X001411Y019404D01*
X001565Y019404D01*
X001565Y018927D01*
X001624Y018869D01*
X002179Y018869D01*
X002238Y018927D01*
X002238Y019065D01*
X002684Y019065D01*
X002684Y013444D01*
X002238Y013444D01*
X002238Y013577D01*
X002179Y013635D01*
X001624Y013635D01*
X001565Y013577D01*
X001565Y013044D01*
X001411Y013044D01*
X001411Y013577D01*
X001352Y013635D01*
X000797Y013635D01*
X000739Y013577D01*
X000739Y013022D01*
X000797Y012963D01*
X000924Y012963D01*
X000924Y012846D01*
X001006Y012764D01*
X001122Y012764D01*
X002455Y012764D01*
X002455Y011806D01*
X002537Y011724D01*
X002653Y011724D01*
X003644Y011724D01*
X003644Y008724D01*
X002526Y008724D01*
X002444Y008642D01*
X002444Y008526D01*
X002444Y007924D01*
X001017Y007924D01*
X000935Y007842D01*
X000935Y007730D01*
X000644Y007730D01*
X000644Y007808D02*
X000935Y007808D01*
X000935Y007730D02*
X000797Y007730D01*
X000739Y007671D01*
X000739Y007116D01*
X000797Y007057D01*
X001352Y007057D01*
X001411Y007116D01*
X001411Y007644D01*
X001565Y007644D01*
X001565Y007337D02*
X001411Y007337D01*
X001411Y007259D02*
X001565Y007259D01*
X001565Y007180D02*
X001411Y007180D01*
X001397Y007102D02*
X001580Y007102D01*
X001902Y007394D02*
X001902Y007464D01*
X002824Y007464D01*
X002824Y001488D01*
X001902Y001488D01*
X002238Y001348D02*
X002766Y001348D01*
X002844Y001348D01*
X002844Y001284D01*
X002238Y001284D01*
X002238Y001348D01*
X002238Y001289D02*
X002844Y001289D01*
X002984Y001144D02*
X002984Y002664D01*
X006584Y002664D01*
X006584Y001144D01*
X006984Y001144D01*
X006984Y001488D01*
X006980Y001488D01*
X006891Y001839D02*
X006724Y001839D01*
X006724Y001918D02*
X006844Y001918D01*
X006844Y001996D02*
X006724Y001996D01*
X006724Y002075D02*
X006844Y002075D01*
X006844Y002153D02*
X006724Y002153D01*
X006724Y002232D02*
X006844Y002232D01*
X006844Y002310D02*
X006724Y002310D01*
X006724Y002389D02*
X006844Y002389D01*
X006844Y002468D02*
X006724Y002468D01*
X006724Y002546D02*
X006844Y002546D01*
X006844Y002625D02*
X006724Y002625D01*
X006724Y002703D02*
X006844Y002703D01*
X006844Y002782D02*
X006664Y002782D01*
X006844Y002860D02*
X003124Y002860D01*
X003124Y002939D02*
X006844Y002939D01*
X006844Y003017D02*
X006734Y003017D01*
X006803Y003096D02*
X006844Y003096D01*
X006835Y003174D02*
X006844Y003174D01*
X006841Y003331D02*
X006844Y003331D01*
X006844Y003410D02*
X006809Y003410D01*
X006844Y003489D02*
X006747Y003489D01*
X006844Y003567D02*
X006614Y003567D01*
X006441Y003567D02*
X003124Y003567D01*
X003124Y003489D02*
X006308Y003489D01*
X006246Y003410D02*
X003124Y003410D01*
X003124Y003331D02*
X006214Y003331D01*
X006210Y003253D02*
X003124Y003253D01*
X003124Y003174D02*
X006220Y003174D01*
X006252Y003096D02*
X003124Y003096D01*
X003124Y003017D02*
X006321Y003017D01*
X006844Y003646D02*
X003124Y003646D01*
X003124Y003724D02*
X006844Y003724D01*
X006844Y003803D02*
X003124Y003803D01*
X003124Y003881D02*
X006844Y003881D01*
X006844Y003960D02*
X003124Y003960D01*
X003124Y004038D02*
X006844Y004038D01*
X006844Y004117D02*
X003124Y004117D01*
X003124Y004195D02*
X006844Y004195D01*
X006844Y004274D02*
X003124Y004274D01*
X003124Y004353D02*
X006844Y004353D01*
X006844Y004431D02*
X003124Y004431D01*
X003124Y004510D02*
X006844Y004510D01*
X006844Y004588D02*
X003124Y004588D01*
X003124Y004667D02*
X006844Y004667D01*
X006844Y004745D02*
X003124Y004745D01*
X003124Y004824D02*
X006844Y004824D01*
X006844Y004902D02*
X003124Y004902D01*
X003124Y004981D02*
X006844Y004981D01*
X006844Y005059D02*
X003124Y005059D01*
X003124Y005138D02*
X006844Y005138D01*
X006844Y005217D02*
X003124Y005217D01*
X003124Y005295D02*
X006844Y005295D01*
X006844Y005374D02*
X003124Y005374D01*
X003124Y005452D02*
X006844Y005452D01*
X006844Y005531D02*
X003124Y005531D01*
X003124Y005609D02*
X006844Y005609D01*
X006844Y005688D02*
X003124Y005688D01*
X003124Y005766D02*
X006844Y005766D01*
X006844Y005845D02*
X003124Y005845D01*
X003124Y005923D02*
X006844Y005923D01*
X006844Y006002D02*
X003124Y006002D01*
X003124Y006081D02*
X006844Y006081D01*
X006844Y006159D02*
X003124Y006159D01*
X003124Y006238D02*
X006844Y006238D01*
X006844Y006316D02*
X003124Y006316D01*
X003124Y006395D02*
X006844Y006395D01*
X006844Y006473D02*
X003124Y006473D01*
X003124Y006552D02*
X006844Y006552D01*
X006844Y006630D02*
X003124Y006630D01*
X003124Y006709D02*
X006844Y006709D01*
X006844Y006787D02*
X003124Y006787D01*
X003124Y006866D02*
X006844Y006866D01*
X006844Y006944D02*
X003124Y006944D01*
X003124Y007023D02*
X006905Y007023D01*
X006984Y006904D02*
X007784Y006904D01*
X007784Y007394D01*
X007807Y007394D01*
X007807Y007384D01*
X008504Y007384D01*
X008724Y007416D02*
X009884Y007416D01*
X009884Y007362D02*
X008686Y006164D01*
X007682Y006164D01*
X007566Y006164D01*
X007244Y005842D01*
X007244Y005795D01*
X007164Y005715D01*
X007164Y005533D01*
X007293Y005404D01*
X007475Y005404D01*
X007604Y005533D01*
X007604Y005715D01*
X007558Y005760D01*
X007682Y005884D01*
X008686Y005884D01*
X008802Y005884D01*
X010082Y007164D01*
X010195Y007164D01*
X010324Y007293D01*
X010324Y007475D01*
X010195Y007604D01*
X010013Y007604D01*
X009884Y007475D01*
X009884Y007362D01*
X009859Y007337D02*
X008724Y007337D01*
X008724Y007259D02*
X009781Y007259D01*
X009702Y007180D02*
X008682Y007180D01*
X008665Y007164D02*
X008724Y007222D01*
X008724Y007545D01*
X008665Y007604D01*
X008342Y007604D01*
X008284Y007545D01*
X008284Y007524D01*
X008143Y007524D01*
X008143Y007644D01*
X011653Y007644D01*
X011644Y007635D01*
X011644Y007595D01*
X011635Y007604D01*
X011453Y007604D01*
X011324Y007475D01*
X011324Y007362D01*
X009406Y005444D01*
X009324Y005362D01*
X009324Y004964D01*
X007166Y004964D01*
X007124Y004922D01*
X007124Y006764D01*
X007726Y006764D01*
X007842Y006764D01*
X007924Y006846D01*
X007924Y007057D01*
X008085Y007057D01*
X008143Y007116D01*
X008143Y007244D01*
X008284Y007244D01*
X008284Y007222D01*
X008342Y007164D01*
X008665Y007164D01*
X008326Y007180D02*
X008143Y007180D01*
X008129Y007102D02*
X009624Y007102D01*
X009545Y007023D02*
X007924Y007023D01*
X007924Y006944D02*
X009467Y006944D01*
X009388Y006866D02*
X007924Y006866D01*
X007865Y006787D02*
X009309Y006787D01*
X009231Y006709D02*
X007124Y006709D01*
X007124Y006630D02*
X009152Y006630D01*
X009074Y006552D02*
X007124Y006552D01*
X007124Y006473D02*
X008995Y006473D01*
X008917Y006395D02*
X007124Y006395D01*
X007124Y006316D02*
X008838Y006316D01*
X008760Y006238D02*
X007124Y006238D01*
X007124Y006159D02*
X007561Y006159D01*
X007483Y006081D02*
X007124Y006081D01*
X007124Y006002D02*
X007404Y006002D01*
X007325Y005923D02*
X007124Y005923D01*
X007124Y005845D02*
X007247Y005845D01*
X007215Y005766D02*
X007124Y005766D01*
X007124Y005688D02*
X007164Y005688D01*
X007164Y005609D02*
X007124Y005609D01*
X007124Y005531D02*
X007166Y005531D01*
X007124Y005452D02*
X007245Y005452D01*
X007124Y005374D02*
X009336Y005374D01*
X009324Y005295D02*
X007124Y005295D01*
X007124Y005217D02*
X009324Y005217D01*
X009324Y005138D02*
X007124Y005138D01*
X007124Y005059D02*
X009324Y005059D01*
X009324Y004981D02*
X007124Y004981D01*
X007224Y004824D02*
X009464Y004824D01*
X009464Y005304D01*
X011544Y007384D01*
X011324Y007416D02*
X010884Y007416D01*
X010884Y007475D02*
X010884Y007293D01*
X010755Y007164D01*
X010642Y007164D01*
X008962Y005484D01*
X008846Y005484D01*
X008035Y005484D01*
X007955Y005404D01*
X007773Y005404D01*
X007644Y005533D01*
X007644Y005715D01*
X007773Y005844D01*
X007955Y005844D01*
X008035Y005764D01*
X008846Y005764D01*
X010444Y007362D01*
X010444Y007475D01*
X010573Y007604D01*
X010755Y007604D01*
X010884Y007475D01*
X010865Y007494D02*
X011343Y007494D01*
X011422Y007573D02*
X010786Y007573D01*
X010664Y007384D02*
X008904Y005624D01*
X007864Y005624D01*
X008033Y005766D02*
X008848Y005766D01*
X008927Y005845D02*
X007643Y005845D01*
X007695Y005766D02*
X007564Y005766D01*
X007604Y005688D02*
X007644Y005688D01*
X007644Y005609D02*
X007604Y005609D01*
X007602Y005531D02*
X007646Y005531D01*
X007725Y005452D02*
X007523Y005452D01*
X007384Y005624D02*
X007384Y005784D01*
X007624Y006024D01*
X008744Y006024D01*
X010104Y007384D01*
X010324Y007416D02*
X010444Y007416D01*
X010463Y007494D02*
X010305Y007494D01*
X010226Y007573D02*
X010542Y007573D01*
X010419Y007337D02*
X010324Y007337D01*
X010341Y007259D02*
X010290Y007259D01*
X010262Y007180D02*
X010211Y007180D01*
X010184Y007102D02*
X010020Y007102D01*
X009941Y007023D02*
X010105Y007023D01*
X010026Y006944D02*
X009862Y006944D01*
X009784Y006866D02*
X009948Y006866D01*
X009869Y006787D02*
X009705Y006787D01*
X009627Y006709D02*
X009791Y006709D01*
X009712Y006630D02*
X009548Y006630D01*
X009470Y006552D02*
X009634Y006552D01*
X009555Y006473D02*
X009391Y006473D01*
X009313Y006395D02*
X009477Y006395D01*
X009398Y006316D02*
X009234Y006316D01*
X009156Y006238D02*
X009320Y006238D01*
X009241Y006159D02*
X009077Y006159D01*
X008998Y006081D02*
X009163Y006081D01*
X009084Y006002D02*
X008920Y006002D01*
X008841Y005923D02*
X009005Y005923D01*
X009166Y005688D02*
X009650Y005688D01*
X009728Y005766D02*
X009244Y005766D01*
X009323Y005845D02*
X009807Y005845D01*
X009885Y005923D02*
X009401Y005923D01*
X009480Y006002D02*
X009964Y006002D01*
X010043Y006081D02*
X009559Y006081D01*
X009637Y006159D02*
X010121Y006159D01*
X010200Y006238D02*
X009716Y006238D01*
X009794Y006316D02*
X010278Y006316D01*
X010357Y006395D02*
X009873Y006395D01*
X009951Y006473D02*
X010435Y006473D01*
X010514Y006552D02*
X010030Y006552D01*
X010108Y006630D02*
X010592Y006630D01*
X010671Y006709D02*
X010187Y006709D01*
X010265Y006787D02*
X010749Y006787D01*
X010828Y006866D02*
X010344Y006866D01*
X010422Y006944D02*
X010906Y006944D01*
X010985Y007023D02*
X010501Y007023D01*
X010580Y007102D02*
X011064Y007102D01*
X011142Y007180D02*
X010771Y007180D01*
X010850Y007259D02*
X011221Y007259D01*
X011299Y007337D02*
X010884Y007337D01*
X011523Y006709D02*
X012618Y006709D01*
X012642Y006684D02*
X012584Y006742D01*
X012584Y007065D01*
X012592Y007074D01*
X012550Y007116D01*
X012550Y007644D01*
X012075Y007644D01*
X012084Y007635D01*
X012084Y007453D01*
X012055Y007424D01*
X012084Y007395D01*
X012084Y007213D01*
X011955Y007084D01*
X011898Y007084D01*
X010084Y005269D01*
X010084Y005213D01*
X009955Y005084D01*
X009924Y005084D01*
X009924Y005053D01*
X009835Y004964D01*
X012606Y004964D01*
X012722Y004964D01*
X012804Y004882D01*
X012804Y002724D01*
X013164Y002724D01*
X013164Y002745D01*
X013222Y002804D01*
X013545Y002804D01*
X013573Y002777D01*
X013573Y006764D01*
X013024Y006764D01*
X013024Y006742D01*
X012965Y006684D01*
X012642Y006684D01*
X012584Y006787D02*
X011602Y006787D01*
X011680Y006866D02*
X012584Y006866D01*
X012584Y006944D02*
X011759Y006944D01*
X011838Y007023D02*
X012584Y007023D01*
X012564Y007102D02*
X011973Y007102D01*
X012051Y007180D02*
X012550Y007180D01*
X012550Y007259D02*
X012084Y007259D01*
X012084Y007337D02*
X012550Y007337D01*
X012550Y007416D02*
X012063Y007416D01*
X012084Y007494D02*
X012550Y007494D01*
X012550Y007573D02*
X012084Y007573D01*
X011995Y008084D02*
X012084Y008173D01*
X012084Y008355D01*
X012055Y008384D01*
X012084Y008413D01*
X012084Y008595D01*
X012044Y008635D01*
X012044Y010133D01*
X012084Y010173D01*
X012084Y010355D01*
X011955Y010484D01*
X011773Y010484D01*
X011744Y010455D01*
X011715Y010484D01*
X011533Y010484D01*
X011404Y010355D01*
X011404Y010173D01*
X011533Y010044D01*
X011684Y010044D01*
X011684Y008635D01*
X011644Y008595D01*
X011644Y008413D01*
X011673Y008384D01*
X011644Y008355D01*
X011644Y008173D01*
X011733Y008084D01*
X008724Y008084D01*
X008724Y008345D01*
X008665Y008404D01*
X008342Y008404D01*
X008284Y008345D01*
X008284Y008324D01*
X007284Y008324D01*
X007284Y011653D01*
X007293Y011644D01*
X007475Y011644D01*
X007604Y011773D01*
X007604Y011955D01*
X007475Y012084D01*
X007444Y012084D01*
X007444Y012293D01*
X007453Y012284D01*
X007635Y012284D01*
X007715Y012364D01*
X008002Y012364D01*
X012746Y012364D01*
X012746Y012443D02*
X008081Y012443D01*
X008084Y012446D02*
X009924Y014286D01*
X009924Y014402D01*
X009924Y014493D01*
X010004Y014573D01*
X010004Y014755D01*
X009875Y014884D01*
X009693Y014884D01*
X009564Y014755D01*
X009564Y014573D01*
X009644Y014493D01*
X009644Y014402D01*
X008804Y013562D01*
X008804Y013715D01*
X008675Y013844D01*
X008493Y013844D01*
X008373Y013724D01*
X008092Y013724D01*
X008034Y013665D01*
X008034Y013644D01*
X007954Y013644D01*
X007945Y013635D01*
X007924Y013635D01*
X007924Y013682D01*
X007842Y013764D01*
X007684Y013922D01*
X007684Y016846D01*
X007947Y017109D01*
X007947Y017225D01*
X007947Y018869D01*
X008085Y018869D01*
X008124Y018908D01*
X008124Y016766D01*
X008206Y016684D01*
X008526Y016364D01*
X008642Y016364D01*
X011293Y016364D01*
X011373Y016284D01*
X011555Y016284D01*
X011684Y016413D01*
X011684Y016424D01*
X012562Y016424D01*
X012644Y016506D01*
X012644Y016622D01*
X012644Y018869D01*
X013163Y018869D01*
X013222Y018927D01*
X013222Y019404D01*
X013376Y019404D01*
X013376Y018927D01*
X013435Y018869D01*
X013564Y018869D01*
X013564Y017842D01*
X013196Y017474D01*
X013092Y017474D01*
X013034Y017415D01*
X013034Y017092D01*
X013092Y017034D01*
X013276Y017034D01*
X013484Y016826D01*
X013484Y016162D01*
X013244Y015922D01*
X013244Y015806D01*
X013244Y013646D01*
X013326Y013564D01*
X013376Y013513D01*
X013376Y013044D01*
X013222Y013044D01*
X013222Y013577D01*
X013163Y013635D01*
X012608Y013635D01*
X012550Y013577D01*
X012550Y013022D01*
X012608Y012963D01*
X012746Y012963D01*
X012746Y008084D01*
X011995Y008084D01*
X012034Y008123D02*
X012746Y008123D01*
X012746Y008201D02*
X012084Y008201D01*
X012084Y008280D02*
X012746Y008280D01*
X012746Y008358D02*
X012081Y008358D01*
X012084Y008437D02*
X012746Y008437D01*
X012746Y008515D02*
X012084Y008515D01*
X012084Y008594D02*
X012746Y008594D01*
X012746Y008672D02*
X012044Y008672D01*
X012044Y008751D02*
X012746Y008751D01*
X012746Y008830D02*
X012044Y008830D01*
X012044Y008908D02*
X012746Y008908D01*
X012746Y008987D02*
X012044Y008987D01*
X012044Y009065D02*
X012746Y009065D01*
X012746Y009144D02*
X012044Y009144D01*
X012044Y009222D02*
X012746Y009222D01*
X012746Y009301D02*
X012044Y009301D01*
X012044Y009379D02*
X012746Y009379D01*
X012746Y009458D02*
X012044Y009458D01*
X012044Y009536D02*
X012746Y009536D01*
X012746Y009615D02*
X012044Y009615D01*
X012044Y009694D02*
X012746Y009694D01*
X012746Y009772D02*
X012044Y009772D01*
X012044Y009851D02*
X012746Y009851D01*
X012746Y009929D02*
X012044Y009929D01*
X012044Y010008D02*
X012746Y010008D01*
X012746Y010086D02*
X012044Y010086D01*
X012076Y010165D02*
X012746Y010165D01*
X012746Y010243D02*
X012084Y010243D01*
X012084Y010322D02*
X012746Y010322D01*
X012746Y010400D02*
X012039Y010400D01*
X011960Y010479D02*
X012746Y010479D01*
X012746Y010557D02*
X007284Y010557D01*
X007284Y010479D02*
X011528Y010479D01*
X011449Y010400D02*
X007284Y010400D01*
X007284Y010322D02*
X011404Y010322D01*
X011404Y010243D02*
X007284Y010243D01*
X007284Y010165D02*
X011412Y010165D01*
X011491Y010086D02*
X007284Y010086D01*
X007284Y010008D02*
X011684Y010008D01*
X011684Y009929D02*
X007284Y009929D01*
X007284Y009851D02*
X011684Y009851D01*
X011684Y009772D02*
X007284Y009772D01*
X007284Y009694D02*
X011684Y009694D01*
X011684Y009615D02*
X007284Y009615D01*
X007284Y009536D02*
X011684Y009536D01*
X011684Y009458D02*
X007284Y009458D01*
X007284Y009379D02*
X011684Y009379D01*
X011684Y009301D02*
X007284Y009301D01*
X007284Y009222D02*
X011684Y009222D01*
X011684Y009144D02*
X007284Y009144D01*
X007284Y009065D02*
X011684Y009065D01*
X011684Y008987D02*
X007284Y008987D01*
X007284Y008908D02*
X011684Y008908D01*
X011684Y008830D02*
X007284Y008830D01*
X007284Y008751D02*
X011684Y008751D01*
X011684Y008672D02*
X007284Y008672D01*
X007284Y008594D02*
X011644Y008594D01*
X011644Y008515D02*
X007284Y008515D01*
X007284Y008437D02*
X011644Y008437D01*
X011647Y008358D02*
X008711Y008358D01*
X008724Y008280D02*
X011644Y008280D01*
X011644Y008201D02*
X008724Y008201D01*
X008724Y008123D02*
X011694Y008123D01*
X012886Y007944D02*
X006980Y007944D01*
X002584Y007944D01*
X002584Y008584D01*
X003784Y008584D01*
X003784Y011864D01*
X002595Y011864D01*
X002595Y012904D01*
X001064Y012904D01*
X001064Y013299D01*
X001075Y013299D01*
X001411Y013306D02*
X001565Y013306D01*
X001565Y013228D02*
X001411Y013228D01*
X001411Y013149D02*
X001565Y013149D01*
X001565Y013071D02*
X001411Y013071D01*
X001411Y013385D02*
X001565Y013385D01*
X001565Y013464D02*
X001411Y013464D01*
X001411Y013542D02*
X001565Y013542D01*
X001609Y013621D02*
X001367Y013621D01*
X000782Y013621D02*
X000644Y013621D01*
X000644Y013699D02*
X002684Y013699D01*
X002684Y013621D02*
X002194Y013621D01*
X002238Y013542D02*
X002684Y013542D01*
X002684Y013464D02*
X002238Y013464D01*
X001902Y013304D02*
X001902Y013299D01*
X002824Y013299D01*
X002824Y012584D01*
X003704Y012584D01*
X003944Y012584D01*
X003944Y008424D01*
X002824Y008424D01*
X002824Y008184D01*
X002444Y008201D02*
X000644Y008201D01*
X000644Y008123D02*
X002444Y008123D01*
X002444Y008044D02*
X000644Y008044D01*
X000644Y007966D02*
X002444Y007966D01*
X002444Y008280D02*
X000644Y008280D01*
X000644Y008358D02*
X002444Y008358D01*
X002444Y008437D02*
X000644Y008437D01*
X000644Y008515D02*
X002444Y008515D01*
X002444Y008594D02*
X000644Y008594D01*
X000644Y008672D02*
X002474Y008672D01*
X003224Y008184D02*
X004104Y008184D01*
X004104Y012824D01*
X003064Y012824D01*
X003064Y014264D01*
X003074Y014254D01*
X003584Y014254D01*
X003804Y014249D02*
X004691Y014249D01*
X004766Y014324D02*
X003726Y013284D01*
X003613Y013284D01*
X003484Y013155D01*
X003484Y012973D01*
X003493Y012964D01*
X003204Y012964D01*
X003204Y014114D01*
X003364Y014114D01*
X003364Y014092D01*
X003204Y014092D01*
X003204Y014013D02*
X004455Y014013D01*
X004377Y013935D02*
X003204Y013935D01*
X003204Y013856D02*
X004298Y013856D01*
X004220Y013778D02*
X003204Y013778D01*
X003204Y013699D02*
X004141Y013699D01*
X004063Y013621D02*
X003204Y013621D01*
X003204Y013542D02*
X003984Y013542D01*
X003906Y013464D02*
X003204Y013464D01*
X003204Y013385D02*
X003827Y013385D01*
X003749Y013306D02*
X003204Y013306D01*
X003204Y013228D02*
X003557Y013228D01*
X003484Y013149D02*
X003204Y013149D01*
X003204Y013071D02*
X003484Y013071D01*
X003484Y012992D02*
X003204Y012992D01*
X002964Y012726D02*
X002966Y012724D01*
X002964Y012724D01*
X002964Y012726D01*
X002882Y012444D02*
X003533Y012444D01*
X003613Y012364D01*
X003795Y012364D01*
X003804Y012364D01*
X003804Y012373D02*
X003804Y012004D01*
X002735Y012004D01*
X002735Y012475D01*
X002766Y012444D01*
X002882Y012444D01*
X002735Y012443D02*
X003534Y012443D01*
X003613Y012364D02*
X002735Y012364D01*
X002735Y012285D02*
X003804Y012285D01*
X003804Y012207D02*
X002735Y012207D01*
X002735Y012128D02*
X003804Y012128D01*
X003804Y012050D02*
X002735Y012050D01*
X002455Y012050D02*
X000644Y012050D01*
X000644Y012128D02*
X002455Y012128D01*
X002455Y012207D02*
X000644Y012207D01*
X000644Y012285D02*
X002455Y012285D01*
X002455Y012364D02*
X000644Y012364D01*
X000644Y012443D02*
X002455Y012443D01*
X002455Y012521D02*
X000644Y012521D01*
X000644Y012600D02*
X002455Y012600D01*
X002455Y012678D02*
X000644Y012678D01*
X000644Y012757D02*
X002455Y012757D01*
X002684Y013013D02*
X002653Y013044D01*
X002537Y013044D01*
X002238Y013044D01*
X002238Y013159D01*
X002684Y013159D01*
X002684Y013013D01*
X002684Y013071D02*
X002238Y013071D01*
X002238Y013149D02*
X002684Y013149D01*
X002824Y013304D02*
X001902Y013304D01*
X002684Y013778D02*
X000644Y013778D01*
X000644Y013856D02*
X002684Y013856D01*
X002684Y013935D02*
X000644Y013935D01*
X000644Y014013D02*
X002684Y014013D01*
X002684Y014092D02*
X000644Y014092D01*
X000644Y014170D02*
X002684Y014170D01*
X002684Y014249D02*
X000644Y014249D01*
X000644Y014328D02*
X002684Y014328D01*
X002684Y014406D02*
X000644Y014406D01*
X000644Y014485D02*
X002684Y014485D01*
X002684Y014563D02*
X000644Y014563D01*
X000644Y014642D02*
X002684Y014642D01*
X002684Y014720D02*
X000644Y014720D01*
X000644Y014799D02*
X002684Y014799D01*
X002684Y014877D02*
X000644Y014877D01*
X000644Y014956D02*
X002684Y014956D01*
X002684Y015034D02*
X000644Y015034D01*
X000644Y015113D02*
X002684Y015113D01*
X002684Y015192D02*
X000644Y015192D01*
X000644Y015270D02*
X002684Y015270D01*
X002684Y015349D02*
X000644Y015349D01*
X000644Y015427D02*
X002684Y015427D01*
X002684Y015506D02*
X000644Y015506D01*
X000644Y015584D02*
X002684Y015584D01*
X002684Y015663D02*
X000644Y015663D01*
X000644Y015741D02*
X002684Y015741D01*
X002684Y015820D02*
X001927Y015820D01*
X001884Y015802D02*
X002049Y015870D01*
X002176Y015997D01*
X002244Y016162D01*
X002244Y016341D01*
X002176Y016507D01*
X002049Y016633D01*
X001884Y016702D01*
X001005Y016702D01*
X000840Y016633D01*
X000713Y016507D01*
X000644Y016341D01*
X000644Y016162D01*
X000713Y015997D01*
X000840Y015870D01*
X001005Y015802D01*
X001884Y015802D01*
X002077Y015898D02*
X002684Y015898D01*
X002684Y015977D02*
X002156Y015977D01*
X002200Y016056D02*
X002684Y016056D01*
X002684Y016134D02*
X002233Y016134D01*
X002244Y016213D02*
X002684Y016213D01*
X002684Y016291D02*
X002244Y016291D01*
X002233Y016370D02*
X002684Y016370D01*
X002684Y016448D02*
X002200Y016448D01*
X002156Y016527D02*
X002684Y016527D01*
X002684Y016605D02*
X002077Y016605D01*
X001928Y016684D02*
X002684Y016684D01*
X002684Y016762D02*
X000644Y016762D01*
X000644Y016684D02*
X000961Y016684D01*
X000811Y016605D02*
X000644Y016605D01*
X000644Y016527D02*
X000733Y016527D01*
X000689Y016448D02*
X000644Y016448D01*
X000644Y016370D02*
X000656Y016370D01*
X000644Y016291D02*
X000644Y016291D01*
X000644Y016213D02*
X000644Y016213D01*
X000644Y016134D02*
X000656Y016134D01*
X000644Y016056D02*
X000689Y016056D01*
X000644Y015977D02*
X000733Y015977D01*
X000812Y015898D02*
X000644Y015898D01*
X000644Y015820D02*
X000962Y015820D01*
X000644Y016841D02*
X002684Y016841D01*
X002684Y016919D02*
X000644Y016919D01*
X000644Y016998D02*
X002684Y016998D01*
X002684Y017077D02*
X000644Y017077D01*
X000644Y017155D02*
X002684Y017155D01*
X002684Y017234D02*
X000644Y017234D01*
X000644Y017312D02*
X002684Y017312D01*
X002684Y017391D02*
X000644Y017391D01*
X000644Y017469D02*
X002684Y017469D01*
X002684Y017548D02*
X000644Y017548D01*
X000644Y017626D02*
X002684Y017626D01*
X002684Y017705D02*
X000644Y017705D01*
X000644Y017783D02*
X002684Y017783D01*
X002684Y017862D02*
X000644Y017862D01*
X000644Y017941D02*
X002684Y017941D01*
X002684Y018019D02*
X000644Y018019D01*
X000644Y018098D02*
X002684Y018098D01*
X002684Y018176D02*
X000644Y018176D01*
X000644Y018255D02*
X002684Y018255D01*
X002684Y018333D02*
X000644Y018333D01*
X000644Y018412D02*
X002684Y018412D01*
X002684Y018490D02*
X000644Y018490D01*
X000644Y018569D02*
X002684Y018569D01*
X002684Y018647D02*
X000644Y018647D01*
X000644Y018726D02*
X002684Y018726D01*
X002684Y018805D02*
X000644Y018805D01*
X000644Y018883D02*
X000783Y018883D01*
X000739Y018962D02*
X000644Y018962D01*
X000647Y019040D02*
X000739Y019040D01*
X000739Y019119D02*
X000653Y019119D01*
X000666Y019197D02*
X000739Y019197D01*
X000739Y019276D02*
X000691Y019276D01*
X000717Y019354D02*
X000739Y019354D01*
X000802Y019541D02*
X000949Y019744D01*
X001213Y019935D01*
X001522Y020036D01*
X001685Y020049D01*
X019008Y020049D01*
X019171Y020036D01*
X019480Y019935D01*
X019744Y019744D01*
X019891Y019541D01*
X019340Y019541D01*
X019282Y019482D01*
X019282Y018964D01*
X019128Y018964D01*
X019128Y019482D01*
X019069Y019541D01*
X018514Y019541D01*
X018455Y019482D01*
X018455Y019345D01*
X017806Y019345D01*
X017724Y019263D01*
X017724Y019147D01*
X017724Y018484D01*
X016427Y018484D01*
X016507Y018517D01*
X016633Y018644D01*
X016702Y018809D01*
X016702Y019688D01*
X016633Y019853D01*
X016507Y019980D01*
X016341Y020048D01*
X016162Y020048D01*
X015997Y019980D01*
X015870Y019853D01*
X015802Y019688D01*
X015802Y018809D01*
X015870Y018644D01*
X015997Y018517D01*
X016077Y018484D01*
X014244Y018484D01*
X014244Y019486D01*
X014244Y019602D01*
X014162Y019684D01*
X012828Y019684D01*
X012446Y019684D01*
X012364Y019602D01*
X012364Y019486D01*
X012364Y016704D01*
X011582Y016704D01*
X011575Y016704D01*
X011555Y016724D01*
X011373Y016724D01*
X011293Y016644D01*
X008642Y016644D01*
X008404Y016882D01*
X008404Y019602D01*
X008322Y019684D01*
X008206Y019684D01*
X006922Y019684D01*
X006526Y019684D01*
X006444Y019602D01*
X006444Y019486D01*
X006444Y018244D01*
X003444Y018244D01*
X003444Y018505D01*
X003385Y018564D01*
X003364Y018564D01*
X003364Y019458D01*
X003991Y019458D01*
X003991Y018809D01*
X004059Y018644D01*
X004186Y018517D01*
X004351Y018448D01*
X004530Y018448D01*
X004696Y018517D01*
X004822Y018644D01*
X004891Y018809D01*
X004891Y019688D01*
X004822Y019853D01*
X004696Y019980D01*
X004530Y020048D01*
X004351Y020048D01*
X004186Y019980D01*
X004059Y019853D01*
X004012Y019738D01*
X003166Y019738D01*
X003084Y019656D01*
X003084Y019642D01*
X003042Y019684D01*
X002926Y019684D01*
X001017Y019684D01*
X000935Y019602D01*
X000935Y019541D01*
X000802Y019541D01*
X000837Y019590D02*
X000935Y019590D01*
X000895Y019669D02*
X001001Y019669D01*
X000954Y019747D02*
X004015Y019747D01*
X004048Y019826D02*
X001062Y019826D01*
X001170Y019904D02*
X004110Y019904D01*
X004193Y019983D02*
X001359Y019983D01*
X001075Y019544D02*
X002984Y019544D01*
X002984Y018104D01*
X006584Y018104D01*
X006584Y019544D01*
X006980Y019544D01*
X008264Y019544D01*
X008264Y016824D01*
X008584Y016504D01*
X011464Y016504D01*
X011524Y016564D01*
X012504Y016564D01*
X012504Y019544D01*
X012886Y019544D01*
X014104Y019544D01*
X014104Y018344D01*
X017864Y018344D01*
X017864Y019205D01*
X018791Y019205D01*
X018455Y019065D02*
X018455Y018964D01*
X018004Y018964D01*
X018004Y019065D01*
X018455Y019065D01*
X018455Y019040D02*
X018004Y019040D01*
X018024Y018824D02*
X019624Y018824D01*
X019624Y019205D01*
X019618Y019205D01*
X019282Y019197D02*
X019128Y019197D01*
X019128Y019119D02*
X019282Y019119D01*
X019282Y019040D02*
X019128Y019040D01*
X019128Y019276D02*
X019282Y019276D01*
X019282Y019354D02*
X019128Y019354D01*
X019128Y019433D02*
X019282Y019433D01*
X019311Y019511D02*
X019098Y019511D01*
X019334Y019983D02*
X016500Y019983D01*
X016583Y019904D02*
X019523Y019904D01*
X019631Y019826D02*
X016645Y019826D01*
X016677Y019747D02*
X019739Y019747D01*
X019798Y019669D02*
X016702Y019669D01*
X016702Y019590D02*
X019855Y019590D01*
X019954Y019421D02*
X020036Y019171D01*
X020049Y019008D01*
X020049Y018961D01*
X020049Y018950D01*
X020049Y001685D01*
X020036Y001522D01*
X019954Y001272D01*
X019954Y001766D01*
X019896Y001824D01*
X019764Y001824D01*
X019764Y001922D01*
X019682Y002004D01*
X018164Y002004D01*
X018164Y002684D01*
X018425Y002684D01*
X018484Y002742D01*
X018484Y002764D01*
X019656Y002764D01*
X019738Y002846D01*
X019738Y002962D01*
X019738Y004012D01*
X019853Y004059D01*
X019980Y004186D01*
X020048Y004351D01*
X020048Y004530D01*
X019980Y004696D01*
X019853Y004822D01*
X019688Y004891D01*
X018809Y004891D01*
X018644Y004822D01*
X018517Y004696D01*
X018448Y004530D01*
X018448Y004351D01*
X018517Y004186D01*
X018644Y004059D01*
X018809Y003991D01*
X019458Y003991D01*
X019458Y003044D01*
X018484Y003044D01*
X018484Y003065D01*
X018425Y003124D01*
X018164Y003124D01*
X018164Y006844D01*
X019560Y006844D01*
X019676Y006844D01*
X019758Y006926D01*
X019758Y007057D01*
X019896Y007057D01*
X019954Y007116D01*
X019954Y007671D01*
X019896Y007730D01*
X019764Y007730D01*
X020049Y007730D01*
X020049Y007808D02*
X019764Y007808D01*
X019764Y007730D02*
X019764Y007886D01*
X019764Y008002D01*
X019682Y008084D01*
X017124Y008084D01*
X017124Y012764D01*
X019560Y012764D01*
X019676Y012764D01*
X019758Y012846D01*
X019758Y012963D01*
X019896Y012963D01*
X019954Y013022D01*
X019954Y013577D01*
X019896Y013635D01*
X019764Y013635D01*
X019764Y013646D01*
X019764Y013762D01*
X019682Y013844D01*
X018164Y013844D01*
X018164Y017446D01*
X018164Y017562D01*
X018164Y018684D01*
X019566Y018684D01*
X019682Y018684D01*
X019764Y018766D01*
X019764Y018869D01*
X019896Y018869D01*
X019954Y018927D01*
X019954Y019421D01*
X019954Y019354D02*
X019976Y019354D01*
X019954Y019276D02*
X020002Y019276D01*
X020027Y019197D02*
X019954Y019197D01*
X019954Y019119D02*
X020040Y019119D01*
X020046Y019040D02*
X019954Y019040D01*
X019954Y018962D02*
X020049Y018962D01*
X020049Y018883D02*
X019910Y018883D01*
X020049Y018805D02*
X019764Y018805D01*
X019724Y018726D02*
X020049Y018726D01*
X020049Y018647D02*
X018164Y018647D01*
X018164Y018569D02*
X020049Y018569D01*
X020049Y018490D02*
X018164Y018490D01*
X018164Y018412D02*
X020049Y018412D01*
X020049Y018333D02*
X018164Y018333D01*
X018164Y018255D02*
X020049Y018255D01*
X020049Y018176D02*
X018164Y018176D01*
X018164Y018098D02*
X020049Y018098D01*
X020049Y018019D02*
X018164Y018019D01*
X018164Y017941D02*
X020049Y017941D01*
X020049Y017862D02*
X018164Y017862D01*
X018164Y017783D02*
X020049Y017783D01*
X020049Y017705D02*
X018164Y017705D01*
X018164Y017626D02*
X020049Y017626D01*
X020049Y017548D02*
X018164Y017548D01*
X018164Y017469D02*
X020049Y017469D01*
X020049Y017391D02*
X018164Y017391D01*
X018164Y017312D02*
X020049Y017312D01*
X020049Y017234D02*
X018164Y017234D01*
X018164Y017155D02*
X020049Y017155D01*
X020049Y017077D02*
X018164Y017077D01*
X018164Y016998D02*
X020049Y016998D01*
X020049Y016919D02*
X018164Y016919D01*
X018164Y016841D02*
X020049Y016841D01*
X020049Y016762D02*
X018164Y016762D01*
X018164Y016684D02*
X018765Y016684D01*
X018809Y016702D02*
X018644Y016633D01*
X018517Y016507D01*
X018448Y016341D01*
X018448Y016162D01*
X018517Y015997D01*
X018644Y015870D01*
X018809Y015802D01*
X019688Y015802D01*
X019853Y015870D01*
X019980Y015997D01*
X020048Y016162D01*
X020048Y016341D01*
X019980Y016507D01*
X019853Y016633D01*
X019688Y016702D01*
X018809Y016702D01*
X018615Y016605D02*
X018164Y016605D01*
X018164Y016527D02*
X018537Y016527D01*
X018493Y016448D02*
X018164Y016448D01*
X018164Y016370D02*
X018460Y016370D01*
X018448Y016291D02*
X018164Y016291D01*
X018164Y016213D02*
X018448Y016213D01*
X018460Y016134D02*
X018164Y016134D01*
X018164Y016056D02*
X018493Y016056D01*
X018537Y015977D02*
X018164Y015977D01*
X018164Y015898D02*
X018616Y015898D01*
X018766Y015820D02*
X018164Y015820D01*
X018164Y015741D02*
X020049Y015741D01*
X020049Y015663D02*
X018164Y015663D01*
X018164Y015584D02*
X020049Y015584D01*
X020049Y015506D02*
X018164Y015506D01*
X018164Y015427D02*
X020049Y015427D01*
X020049Y015349D02*
X018164Y015349D01*
X018164Y015270D02*
X020049Y015270D01*
X020049Y015192D02*
X018164Y015192D01*
X018164Y015113D02*
X020049Y015113D01*
X020049Y015034D02*
X018164Y015034D01*
X018164Y014956D02*
X020049Y014956D01*
X020049Y014877D02*
X018164Y014877D01*
X018164Y014799D02*
X020049Y014799D01*
X020049Y014720D02*
X018164Y014720D01*
X018164Y014642D02*
X020049Y014642D01*
X020049Y014563D02*
X018164Y014563D01*
X018164Y014485D02*
X020049Y014485D01*
X020049Y014406D02*
X018164Y014406D01*
X018164Y014328D02*
X020049Y014328D01*
X020049Y014249D02*
X018164Y014249D01*
X018164Y014170D02*
X020049Y014170D01*
X020049Y014092D02*
X018164Y014092D01*
X018164Y014013D02*
X020049Y014013D01*
X020049Y013935D02*
X018164Y013935D01*
X018164Y013856D02*
X020049Y013856D01*
X020049Y013778D02*
X019748Y013778D01*
X019764Y013699D02*
X020049Y013699D01*
X020049Y013621D02*
X019910Y013621D01*
X019954Y013542D02*
X020049Y013542D01*
X020049Y013464D02*
X019954Y013464D01*
X019954Y013385D02*
X020049Y013385D01*
X020049Y013306D02*
X019954Y013306D01*
X019954Y013228D02*
X020049Y013228D01*
X020049Y013149D02*
X019954Y013149D01*
X019954Y013071D02*
X020049Y013071D01*
X020049Y012992D02*
X019925Y012992D01*
X020049Y012914D02*
X019758Y012914D01*
X019747Y012835D02*
X020049Y012835D01*
X020049Y012757D02*
X017124Y012757D01*
X017124Y012678D02*
X020049Y012678D01*
X020049Y012600D02*
X017124Y012600D01*
X017124Y012521D02*
X020049Y012521D01*
X020049Y012443D02*
X017124Y012443D01*
X017124Y012364D02*
X020049Y012364D01*
X020049Y012285D02*
X017124Y012285D01*
X017124Y012207D02*
X020049Y012207D01*
X020049Y012128D02*
X017124Y012128D01*
X017124Y012050D02*
X020049Y012050D01*
X020049Y011971D02*
X017124Y011971D01*
X017124Y011893D02*
X020049Y011893D01*
X020049Y011814D02*
X017124Y011814D01*
X017124Y011736D02*
X020049Y011736D01*
X020049Y011657D02*
X017124Y011657D01*
X017124Y011579D02*
X020049Y011579D01*
X020049Y011500D02*
X017124Y011500D01*
X017124Y011421D02*
X020049Y011421D01*
X020049Y011343D02*
X017124Y011343D01*
X017124Y011264D02*
X020049Y011264D01*
X020049Y011186D02*
X017124Y011186D01*
X017124Y011107D02*
X020049Y011107D01*
X020049Y011029D02*
X017124Y011029D01*
X017124Y010950D02*
X020049Y010950D01*
X020049Y010872D02*
X017124Y010872D01*
X017124Y010793D02*
X020049Y010793D01*
X020049Y010715D02*
X017124Y010715D01*
X017124Y010636D02*
X020049Y010636D01*
X020049Y010557D02*
X017124Y010557D01*
X017124Y010479D02*
X020049Y010479D01*
X020049Y010400D02*
X017124Y010400D01*
X017124Y010322D02*
X020049Y010322D01*
X020049Y010243D02*
X017124Y010243D01*
X017124Y010165D02*
X020049Y010165D01*
X020049Y010086D02*
X017124Y010086D01*
X017124Y010008D02*
X020049Y010008D01*
X020049Y009929D02*
X017124Y009929D01*
X017124Y009851D02*
X020049Y009851D01*
X020049Y009772D02*
X017124Y009772D01*
X017124Y009694D02*
X020049Y009694D01*
X020049Y009615D02*
X017124Y009615D01*
X017124Y009536D02*
X020049Y009536D01*
X020049Y009458D02*
X017124Y009458D01*
X017124Y009379D02*
X020049Y009379D01*
X020049Y009301D02*
X017124Y009301D01*
X017124Y009222D02*
X020049Y009222D01*
X020049Y009144D02*
X017124Y009144D01*
X017124Y009065D02*
X020049Y009065D01*
X020049Y008987D02*
X017124Y008987D01*
X017124Y008908D02*
X020049Y008908D01*
X020049Y008830D02*
X017124Y008830D01*
X017124Y008751D02*
X020049Y008751D01*
X020049Y008672D02*
X017124Y008672D01*
X017124Y008594D02*
X020049Y008594D01*
X020049Y008515D02*
X017124Y008515D01*
X017124Y008437D02*
X020049Y008437D01*
X020049Y008358D02*
X017124Y008358D01*
X017124Y008280D02*
X020049Y008280D01*
X020049Y008201D02*
X017124Y008201D01*
X017124Y008123D02*
X020049Y008123D01*
X020049Y008044D02*
X019722Y008044D01*
X019764Y007966D02*
X020049Y007966D01*
X020049Y007887D02*
X019764Y007887D01*
X019624Y007944D02*
X016984Y007944D01*
X016984Y012904D01*
X019618Y012904D01*
X019618Y013299D01*
X019624Y013299D01*
X019624Y013704D01*
X018024Y013704D01*
X018024Y017504D01*
X016064Y017504D01*
X015844Y017469D02*
X013587Y017469D01*
X013509Y017391D02*
X015844Y017391D01*
X015844Y017342D02*
X015902Y017284D01*
X016225Y017284D01*
X016284Y017342D01*
X016284Y017364D01*
X017884Y017364D01*
X017884Y013646D01*
X017966Y013564D01*
X018082Y013564D01*
X018455Y013564D01*
X018455Y013439D01*
X016766Y013439D01*
X016684Y013357D01*
X016684Y013241D01*
X016684Y008084D01*
X013524Y008084D01*
X013524Y008345D01*
X013465Y008404D01*
X013204Y008404D01*
X013204Y012764D01*
X013646Y012764D01*
X013762Y012764D01*
X013844Y012846D01*
X013844Y012963D01*
X013990Y012963D01*
X014049Y013022D01*
X014049Y013577D01*
X013990Y013635D01*
X013650Y013635D01*
X013524Y013762D01*
X013524Y015806D01*
X013682Y015964D01*
X013764Y016046D01*
X013764Y016826D01*
X013764Y016942D01*
X013474Y017232D01*
X013474Y017356D01*
X013762Y017644D01*
X013844Y017726D01*
X013844Y018869D01*
X013964Y018869D01*
X013964Y018402D01*
X013964Y018286D01*
X014046Y018204D01*
X017806Y018204D01*
X017884Y018204D01*
X017884Y017644D01*
X016284Y017644D01*
X016284Y017665D01*
X016225Y017724D01*
X015902Y017724D01*
X015844Y017665D01*
X015844Y017342D01*
X015874Y017312D02*
X013474Y017312D01*
X013474Y017234D02*
X017884Y017234D01*
X017884Y017312D02*
X016254Y017312D01*
X016244Y017705D02*
X017884Y017705D01*
X017884Y017783D02*
X013844Y017783D01*
X013844Y017862D02*
X017884Y017862D01*
X017884Y017941D02*
X013844Y017941D01*
X013844Y018019D02*
X017884Y018019D01*
X017884Y018098D02*
X013844Y018098D01*
X013844Y018176D02*
X017884Y018176D01*
X017724Y018490D02*
X016443Y018490D01*
X016559Y018569D02*
X017724Y018569D01*
X017724Y018647D02*
X016635Y018647D01*
X016668Y018726D02*
X017724Y018726D01*
X017724Y018805D02*
X016700Y018805D01*
X016702Y018883D02*
X017724Y018883D01*
X017724Y018962D02*
X016702Y018962D01*
X016702Y019040D02*
X017724Y019040D01*
X017724Y019119D02*
X016702Y019119D01*
X016702Y019197D02*
X017724Y019197D01*
X017737Y019276D02*
X016702Y019276D01*
X016702Y019354D02*
X018455Y019354D01*
X018455Y019433D02*
X016702Y019433D01*
X016702Y019511D02*
X018484Y019511D01*
X018024Y018824D02*
X018024Y017504D01*
X017884Y017155D02*
X013551Y017155D01*
X013629Y017077D02*
X017884Y017077D01*
X017884Y016998D02*
X013708Y016998D01*
X013764Y016919D02*
X017884Y016919D01*
X017884Y016841D02*
X013764Y016841D01*
X013764Y016762D02*
X017884Y016762D01*
X017884Y016684D02*
X013764Y016684D01*
X013764Y016605D02*
X017884Y016605D01*
X017884Y016527D02*
X013764Y016527D01*
X013764Y016448D02*
X017884Y016448D01*
X017884Y016370D02*
X013764Y016370D01*
X013764Y016291D02*
X017884Y016291D01*
X017884Y016213D02*
X013764Y016213D01*
X013764Y016134D02*
X017884Y016134D01*
X017884Y016056D02*
X013764Y016056D01*
X013695Y015977D02*
X017884Y015977D01*
X017884Y015898D02*
X013616Y015898D01*
X013538Y015820D02*
X017884Y015820D01*
X017884Y015741D02*
X013524Y015741D01*
X013524Y015663D02*
X017884Y015663D01*
X017884Y015584D02*
X015874Y015584D01*
X015895Y015563D02*
X015813Y015645D01*
X015695Y015645D01*
X015612Y015563D01*
X015612Y015445D01*
X015695Y015362D01*
X015813Y015362D01*
X015895Y015445D01*
X015895Y015563D01*
X015895Y015506D02*
X017884Y015506D01*
X017884Y015427D02*
X015877Y015427D01*
X015631Y015427D02*
X014877Y015427D01*
X014895Y015445D02*
X014813Y015362D01*
X014695Y015362D01*
X014612Y015445D01*
X014612Y015563D01*
X014695Y015645D01*
X014813Y015645D01*
X014895Y015563D01*
X014895Y015445D01*
X014895Y015506D02*
X015612Y015506D01*
X015634Y015584D02*
X014874Y015584D01*
X014634Y015584D02*
X013874Y015584D01*
X013895Y015563D02*
X013813Y015645D01*
X013695Y015645D01*
X013612Y015563D01*
X013612Y015445D01*
X013695Y015362D01*
X013813Y015362D01*
X013895Y015445D01*
X013895Y015563D01*
X013895Y015506D02*
X014612Y015506D01*
X014631Y015427D02*
X013877Y015427D01*
X013631Y015427D02*
X013524Y015427D01*
X013524Y015349D02*
X017884Y015349D01*
X017884Y015270D02*
X013524Y015270D01*
X013524Y015192D02*
X017884Y015192D01*
X017884Y015113D02*
X013524Y015113D01*
X013524Y015034D02*
X017884Y015034D01*
X017884Y014956D02*
X013524Y014956D01*
X013524Y014877D02*
X017884Y014877D01*
X017884Y014799D02*
X013524Y014799D01*
X013524Y014720D02*
X017884Y014720D01*
X017884Y014642D02*
X013524Y014642D01*
X013524Y014563D02*
X017884Y014563D01*
X017884Y014485D02*
X013524Y014485D01*
X013524Y014406D02*
X017884Y014406D01*
X017884Y014328D02*
X013524Y014328D01*
X013524Y014249D02*
X017884Y014249D01*
X017884Y014170D02*
X013524Y014170D01*
X013524Y014092D02*
X017884Y014092D01*
X017884Y014013D02*
X013524Y014013D01*
X013524Y013935D02*
X017884Y013935D01*
X017884Y013856D02*
X013524Y013856D01*
X013524Y013778D02*
X017884Y013778D01*
X017884Y013699D02*
X013587Y013699D01*
X013384Y013704D02*
X013384Y015864D01*
X013624Y016104D01*
X013624Y016884D01*
X013254Y017254D01*
X013254Y017334D01*
X013704Y017784D01*
X013704Y019196D01*
X013713Y019205D01*
X013376Y019197D02*
X013222Y019197D01*
X013222Y019119D02*
X013376Y019119D01*
X013376Y019040D02*
X013222Y019040D01*
X013222Y018962D02*
X013376Y018962D01*
X013420Y018883D02*
X013178Y018883D01*
X012886Y019205D02*
X012886Y019544D01*
X013222Y019354D02*
X013376Y019354D01*
X013376Y019276D02*
X013222Y019276D01*
X013564Y018805D02*
X012644Y018805D01*
X012644Y018726D02*
X013564Y018726D01*
X013564Y018647D02*
X012644Y018647D01*
X012644Y018569D02*
X013564Y018569D01*
X013564Y018490D02*
X012644Y018490D01*
X012644Y018412D02*
X013564Y018412D01*
X013564Y018333D02*
X012644Y018333D01*
X012644Y018255D02*
X013564Y018255D01*
X013564Y018176D02*
X012644Y018176D01*
X012644Y018098D02*
X013564Y018098D01*
X013564Y018019D02*
X012644Y018019D01*
X012644Y017941D02*
X013564Y017941D01*
X013564Y017862D02*
X012644Y017862D01*
X012644Y017783D02*
X013505Y017783D01*
X013427Y017705D02*
X012644Y017705D01*
X012644Y017626D02*
X013348Y017626D01*
X013270Y017548D02*
X012644Y017548D01*
X012644Y017469D02*
X013088Y017469D01*
X013034Y017391D02*
X012644Y017391D01*
X012644Y017312D02*
X013034Y017312D01*
X013034Y017234D02*
X012644Y017234D01*
X012644Y017155D02*
X013034Y017155D01*
X013050Y017077D02*
X012644Y017077D01*
X012644Y016998D02*
X013312Y016998D01*
X013390Y016919D02*
X012644Y016919D01*
X012644Y016841D02*
X013469Y016841D01*
X013484Y016762D02*
X012644Y016762D01*
X012644Y016684D02*
X013484Y016684D01*
X013484Y016605D02*
X012644Y016605D01*
X012644Y016527D02*
X013484Y016527D01*
X013484Y016448D02*
X012586Y016448D01*
X012364Y016762D02*
X008523Y016762D01*
X008445Y016841D02*
X012364Y016841D01*
X012364Y016919D02*
X008404Y016919D01*
X008404Y016998D02*
X012364Y016998D01*
X012364Y017077D02*
X008404Y017077D01*
X008404Y017155D02*
X012364Y017155D01*
X012364Y017234D02*
X008404Y017234D01*
X008404Y017312D02*
X012364Y017312D01*
X012364Y017391D02*
X008404Y017391D01*
X008404Y017469D02*
X012364Y017469D01*
X012364Y017548D02*
X008404Y017548D01*
X008404Y017626D02*
X012364Y017626D01*
X012364Y017705D02*
X008404Y017705D01*
X008404Y017783D02*
X012364Y017783D01*
X012364Y017862D02*
X008404Y017862D01*
X008404Y017941D02*
X012364Y017941D01*
X012364Y018019D02*
X008404Y018019D01*
X008404Y018098D02*
X012364Y018098D01*
X012364Y018176D02*
X008404Y018176D01*
X008404Y018255D02*
X012364Y018255D01*
X012364Y018333D02*
X008404Y018333D01*
X008404Y018412D02*
X012364Y018412D01*
X012364Y018490D02*
X008404Y018490D01*
X008404Y018569D02*
X012364Y018569D01*
X012364Y018647D02*
X008404Y018647D01*
X008404Y018726D02*
X012364Y018726D01*
X012364Y018805D02*
X008404Y018805D01*
X008404Y018883D02*
X012364Y018883D01*
X012364Y018962D02*
X008404Y018962D01*
X008404Y019040D02*
X012364Y019040D01*
X012364Y019119D02*
X008404Y019119D01*
X008404Y019197D02*
X012364Y019197D01*
X012364Y019276D02*
X008404Y019276D01*
X008404Y019354D02*
X012364Y019354D01*
X012364Y019433D02*
X008404Y019433D01*
X008404Y019511D02*
X012364Y019511D01*
X012364Y019590D02*
X008404Y019590D01*
X008337Y019669D02*
X012431Y019669D01*
X013844Y018805D02*
X013964Y018805D01*
X013964Y018726D02*
X013844Y018726D01*
X013844Y018647D02*
X013964Y018647D01*
X013964Y018569D02*
X013844Y018569D01*
X013844Y018490D02*
X013964Y018490D01*
X013964Y018412D02*
X013844Y018412D01*
X013844Y018333D02*
X013964Y018333D01*
X013995Y018255D02*
X013844Y018255D01*
X014244Y018490D02*
X016061Y018490D01*
X015945Y018569D02*
X014244Y018569D01*
X014244Y018647D02*
X015869Y018647D01*
X015836Y018726D02*
X014244Y018726D01*
X014244Y018805D02*
X015804Y018805D01*
X015802Y018883D02*
X014244Y018883D01*
X014244Y018962D02*
X015802Y018962D01*
X015802Y019040D02*
X014244Y019040D01*
X014244Y019119D02*
X015802Y019119D01*
X015802Y019197D02*
X014244Y019197D01*
X014244Y019276D02*
X015802Y019276D01*
X015802Y019354D02*
X014244Y019354D01*
X014244Y019433D02*
X015802Y019433D01*
X015802Y019511D02*
X014244Y019511D01*
X014244Y019590D02*
X015802Y019590D01*
X015802Y019669D02*
X014177Y019669D01*
X015826Y019747D02*
X004866Y019747D01*
X004891Y019669D02*
X006511Y019669D01*
X006444Y019590D02*
X004891Y019590D01*
X004891Y019511D02*
X006444Y019511D01*
X006444Y019433D02*
X004891Y019433D01*
X004891Y019354D02*
X006444Y019354D01*
X006444Y019276D02*
X004891Y019276D01*
X004891Y019197D02*
X006444Y019197D01*
X006444Y019119D02*
X004891Y019119D01*
X004891Y019040D02*
X006444Y019040D01*
X006444Y018962D02*
X004891Y018962D01*
X004891Y018883D02*
X006444Y018883D01*
X006444Y018805D02*
X004889Y018805D01*
X004857Y018726D02*
X006444Y018726D01*
X006444Y018647D02*
X004824Y018647D01*
X004748Y018569D02*
X006444Y018569D01*
X006444Y018490D02*
X004632Y018490D01*
X004250Y018490D02*
X003444Y018490D01*
X003444Y018412D02*
X006444Y018412D01*
X006444Y018333D02*
X003444Y018333D01*
X003444Y018255D02*
X006444Y018255D01*
X006724Y018255D02*
X006842Y018255D01*
X006844Y018253D02*
X006844Y017522D01*
X006606Y017284D01*
X006493Y017284D01*
X006364Y017155D01*
X006364Y016973D01*
X006493Y016844D01*
X006675Y016844D01*
X006804Y016973D01*
X006804Y017086D01*
X007042Y017324D01*
X007124Y017406D01*
X007124Y018253D01*
X007204Y018333D01*
X007204Y018515D01*
X007075Y018644D01*
X006893Y018644D01*
X006764Y018515D01*
X006764Y018333D01*
X006844Y018253D01*
X006844Y018176D02*
X006724Y018176D01*
X006724Y018098D02*
X006844Y018098D01*
X006844Y018019D02*
X006697Y018019D01*
X006724Y018046D02*
X006724Y018869D01*
X007258Y018869D01*
X007316Y018927D01*
X007316Y019404D01*
X007471Y019404D01*
X007471Y018927D01*
X007529Y018869D01*
X007667Y018869D01*
X007667Y017225D01*
X007486Y017044D01*
X007404Y016962D01*
X007404Y013922D01*
X007404Y013806D01*
X007574Y013635D01*
X007529Y013635D01*
X007471Y013577D01*
X007471Y013044D01*
X007316Y013044D01*
X007316Y013577D01*
X007258Y013635D01*
X006703Y013635D01*
X006644Y013577D01*
X006644Y013022D01*
X006703Y012963D01*
X006840Y012963D01*
X006840Y012765D01*
X006644Y012962D01*
X006644Y013966D01*
X006644Y014082D01*
X006484Y014242D01*
X006402Y014324D01*
X004882Y014324D01*
X004766Y014324D01*
X004824Y014184D02*
X003704Y013064D01*
X003924Y013071D02*
X004204Y013071D01*
X004204Y013149D02*
X003987Y013149D01*
X003924Y013086D02*
X003924Y012973D01*
X003915Y012964D01*
X004162Y012964D01*
X004204Y012922D01*
X004204Y013366D01*
X003924Y013086D01*
X003924Y012992D02*
X004204Y012992D01*
X004204Y013228D02*
X004066Y013228D01*
X004144Y013306D02*
X004204Y013306D01*
X004344Y013384D02*
X004344Y012744D01*
X004511Y012600D02*
X004684Y012600D01*
X004684Y012678D02*
X004564Y012678D01*
X004564Y012653D02*
X004564Y012835D01*
X004484Y012915D01*
X004484Y013326D01*
X005042Y013884D01*
X005286Y013884D01*
X005244Y013842D01*
X004766Y013364D01*
X004684Y013282D01*
X004684Y009522D01*
X004684Y009406D01*
X004764Y009326D01*
X004764Y009213D01*
X004893Y009084D01*
X005075Y009084D01*
X005204Y009213D01*
X005204Y009286D01*
X005884Y008606D01*
X005966Y008524D01*
X006333Y008524D01*
X006413Y008444D01*
X006595Y008444D01*
X006604Y008453D01*
X006604Y008324D01*
X005075Y008324D01*
X004995Y008404D01*
X004813Y008404D01*
X004684Y008275D01*
X004684Y008093D01*
X004693Y008084D01*
X004202Y008084D01*
X004244Y008126D01*
X004244Y008242D01*
X004244Y012533D01*
X004253Y012524D01*
X004435Y012524D01*
X004564Y012653D01*
X004564Y012757D02*
X004684Y012757D01*
X004684Y012835D02*
X004564Y012835D01*
X004485Y012914D02*
X004684Y012914D01*
X004684Y012992D02*
X004484Y012992D01*
X004484Y013071D02*
X004684Y013071D01*
X004684Y013149D02*
X004484Y013149D01*
X004484Y013228D02*
X004684Y013228D01*
X004709Y013306D02*
X004484Y013306D01*
X004543Y013385D02*
X004787Y013385D01*
X004766Y013364D02*
X004766Y013364D01*
X004866Y013464D02*
X004622Y013464D01*
X004700Y013542D02*
X004944Y013542D01*
X005023Y013621D02*
X004779Y013621D01*
X004857Y013699D02*
X005101Y013699D01*
X005180Y013778D02*
X004936Y013778D01*
X005014Y013856D02*
X005258Y013856D01*
X005384Y013784D02*
X006104Y013784D01*
X006044Y013564D02*
X006195Y013564D01*
X006204Y013573D01*
X006204Y011246D01*
X006286Y011164D01*
X006402Y011164D01*
X006573Y011164D01*
X006653Y011084D01*
X006835Y011084D01*
X006840Y011089D01*
X006840Y010404D01*
X006675Y010404D01*
X006595Y010484D01*
X006413Y010484D01*
X006284Y010355D01*
X006284Y010173D01*
X006413Y010044D01*
X006595Y010044D01*
X006675Y010124D01*
X006840Y010124D01*
X006840Y010079D01*
X006835Y010084D01*
X006653Y010084D01*
X006524Y009955D01*
X006524Y009773D01*
X006604Y009693D01*
X006604Y008875D01*
X006595Y008884D01*
X006413Y008884D01*
X006333Y008804D01*
X006082Y008804D01*
X005284Y009602D01*
X005284Y011773D01*
X005364Y011853D01*
X005364Y012035D01*
X005235Y012164D01*
X005053Y012164D01*
X004964Y012075D01*
X004964Y013166D01*
X005442Y013644D01*
X005653Y013644D01*
X005604Y013595D01*
X005604Y013413D01*
X005684Y013333D01*
X005684Y013075D01*
X005604Y012995D01*
X005604Y012813D01*
X005733Y012684D01*
X005915Y012684D01*
X006044Y012813D01*
X006044Y012995D01*
X005964Y013075D01*
X005964Y013333D01*
X006044Y013413D01*
X006044Y013564D01*
X006044Y013542D02*
X006204Y013542D01*
X006204Y013464D02*
X006044Y013464D01*
X006016Y013385D02*
X006204Y013385D01*
X006204Y013306D02*
X005964Y013306D01*
X005964Y013228D02*
X006204Y013228D01*
X006204Y013149D02*
X005964Y013149D01*
X005968Y013071D02*
X006204Y013071D01*
X006204Y012992D02*
X006044Y012992D01*
X006044Y012914D02*
X006204Y012914D01*
X006204Y012835D02*
X006044Y012835D01*
X005988Y012757D02*
X006204Y012757D01*
X006204Y012678D02*
X004964Y012678D01*
X004964Y012600D02*
X006204Y012600D01*
X006204Y012521D02*
X004964Y012521D01*
X004964Y012443D02*
X006204Y012443D01*
X006204Y012364D02*
X004964Y012364D01*
X004964Y012285D02*
X006204Y012285D01*
X006204Y012207D02*
X004964Y012207D01*
X004964Y012128D02*
X005017Y012128D01*
X005144Y011944D02*
X005144Y009544D01*
X006024Y008664D01*
X006504Y008664D01*
X006341Y008515D02*
X004244Y008515D01*
X004244Y008437D02*
X006604Y008437D01*
X006604Y008358D02*
X005041Y008358D01*
X004904Y008184D02*
X006664Y008184D01*
X006744Y008264D01*
X006744Y009864D01*
X006524Y009851D02*
X005284Y009851D01*
X005284Y009929D02*
X006524Y009929D01*
X006577Y010008D02*
X005284Y010008D01*
X005284Y010086D02*
X006371Y010086D01*
X006292Y010165D02*
X005284Y010165D01*
X005284Y010243D02*
X006284Y010243D01*
X006284Y010322D02*
X005284Y010322D01*
X005284Y010400D02*
X006329Y010400D01*
X006408Y010479D02*
X005284Y010479D01*
X005284Y010557D02*
X006840Y010557D01*
X006840Y010479D02*
X006600Y010479D01*
X006504Y010264D02*
X006984Y010264D01*
X006984Y013296D01*
X006980Y013299D01*
X006980Y007944D01*
X006980Y007784D02*
X012886Y007784D01*
X018424Y007784D01*
X018424Y007394D01*
X018791Y007394D01*
X018455Y007254D02*
X018455Y007124D01*
X017966Y007124D01*
X017884Y007042D01*
X017884Y006926D01*
X017884Y003124D01*
X017622Y003124D01*
X017564Y003065D01*
X017564Y003044D01*
X014002Y003044D01*
X013886Y003044D01*
X013853Y003011D01*
X013853Y006846D01*
X013853Y006962D01*
X013853Y007057D01*
X013990Y007057D01*
X014049Y007116D01*
X014049Y007644D01*
X018284Y007644D01*
X018284Y007452D01*
X018284Y007336D01*
X018366Y007254D01*
X018455Y007254D01*
X018455Y007180D02*
X014049Y007180D01*
X014049Y007259D02*
X018361Y007259D01*
X018284Y007337D02*
X014049Y007337D01*
X014049Y007416D02*
X018284Y007416D01*
X018284Y007494D02*
X014049Y007494D01*
X014049Y007573D02*
X018284Y007573D01*
X018564Y007730D02*
X018564Y007804D01*
X019484Y007804D01*
X019484Y007730D01*
X018564Y007730D01*
X019069Y007730D01*
X019128Y007671D01*
X019128Y007124D01*
X019282Y007124D01*
X019282Y007671D01*
X019340Y007730D01*
X019484Y007730D01*
X019282Y007651D02*
X019128Y007651D01*
X019128Y007573D02*
X019282Y007573D01*
X019282Y007494D02*
X019128Y007494D01*
X019128Y007416D02*
X019282Y007416D01*
X019282Y007337D02*
X019128Y007337D01*
X019128Y007259D02*
X019282Y007259D01*
X019282Y007180D02*
X019128Y007180D01*
X019618Y006984D02*
X019618Y007394D01*
X019624Y007394D01*
X019624Y007944D01*
X019954Y007651D02*
X020049Y007651D01*
X020049Y007573D02*
X019954Y007573D01*
X019954Y007494D02*
X020049Y007494D01*
X020049Y007416D02*
X019954Y007416D01*
X019954Y007337D02*
X020049Y007337D01*
X020049Y007259D02*
X019954Y007259D01*
X019954Y007180D02*
X020049Y007180D01*
X020049Y007102D02*
X019940Y007102D01*
X020049Y007023D02*
X019758Y007023D01*
X019758Y006944D02*
X020049Y006944D01*
X020049Y006866D02*
X019698Y006866D01*
X019618Y006984D02*
X018024Y006984D01*
X018024Y001864D01*
X019624Y001864D01*
X019624Y001488D01*
X019618Y001488D01*
X019282Y001525D02*
X019128Y001525D01*
X019128Y001604D02*
X019282Y001604D01*
X019282Y001682D02*
X019128Y001682D01*
X019128Y001446D02*
X019282Y001446D01*
X019282Y001368D02*
X019128Y001368D01*
X018791Y001464D02*
X018791Y001488D01*
X018791Y001464D02*
X017864Y001464D01*
X017864Y002664D01*
X014264Y002664D01*
X014264Y001144D01*
X012824Y001144D01*
X012824Y001488D01*
X012886Y001488D01*
X013222Y001525D02*
X013376Y001525D01*
X013376Y001604D02*
X013222Y001604D01*
X013222Y001682D02*
X013376Y001682D01*
X013376Y001761D02*
X013222Y001761D01*
X013222Y001766D02*
X013163Y001824D01*
X012644Y001824D01*
X012644Y002444D01*
X013164Y002444D01*
X013164Y002422D01*
X013222Y002364D01*
X013545Y002364D01*
X013573Y002391D01*
X013573Y001824D01*
X013435Y001824D01*
X013376Y001766D01*
X013376Y001284D01*
X013222Y001284D01*
X013222Y001766D01*
X013222Y001446D02*
X013376Y001446D01*
X013376Y001368D02*
X013222Y001368D01*
X013222Y001289D02*
X013376Y001289D01*
X013713Y001488D02*
X013713Y006904D01*
X012804Y006904D01*
X013024Y007044D02*
X013024Y007057D01*
X013163Y007057D01*
X013222Y007116D01*
X013222Y007644D01*
X013376Y007644D01*
X013376Y007116D01*
X013435Y007057D01*
X013573Y007057D01*
X013573Y007044D01*
X013024Y007044D01*
X013208Y007102D02*
X013391Y007102D01*
X013376Y007180D02*
X013222Y007180D01*
X013222Y007259D02*
X013376Y007259D01*
X013376Y007337D02*
X013222Y007337D01*
X013222Y007416D02*
X013376Y007416D01*
X013376Y007494D02*
X013222Y007494D01*
X013222Y007573D02*
X013376Y007573D01*
X013713Y007464D02*
X013713Y007394D01*
X013713Y006904D01*
X013853Y006866D02*
X017884Y006866D01*
X017884Y006944D02*
X013853Y006944D01*
X013853Y007023D02*
X017884Y007023D01*
X017944Y007102D02*
X014034Y007102D01*
X013853Y006787D02*
X017884Y006787D01*
X017884Y006709D02*
X013853Y006709D01*
X013853Y006630D02*
X017884Y006630D01*
X017884Y006552D02*
X013853Y006552D01*
X013853Y006473D02*
X017884Y006473D01*
X017884Y006395D02*
X013853Y006395D01*
X013853Y006316D02*
X017884Y006316D01*
X017884Y006238D02*
X013853Y006238D01*
X013853Y006159D02*
X017884Y006159D01*
X017884Y006081D02*
X013853Y006081D01*
X013853Y006002D02*
X017884Y006002D01*
X017884Y005923D02*
X013853Y005923D01*
X013853Y005845D02*
X017884Y005845D01*
X017884Y005766D02*
X013853Y005766D01*
X013853Y005688D02*
X017884Y005688D01*
X017884Y005609D02*
X013853Y005609D01*
X013853Y005531D02*
X017884Y005531D01*
X017884Y005452D02*
X013853Y005452D01*
X013853Y005374D02*
X017884Y005374D01*
X017884Y005295D02*
X013853Y005295D01*
X013853Y005217D02*
X017884Y005217D01*
X017884Y005138D02*
X013853Y005138D01*
X013853Y005059D02*
X017884Y005059D01*
X017884Y004981D02*
X013853Y004981D01*
X013853Y004902D02*
X017884Y004902D01*
X017884Y004824D02*
X013853Y004824D01*
X013853Y004745D02*
X017884Y004745D01*
X017884Y004667D02*
X013853Y004667D01*
X013853Y004588D02*
X017884Y004588D01*
X017884Y004510D02*
X013853Y004510D01*
X013853Y004431D02*
X017884Y004431D01*
X017884Y004353D02*
X013853Y004353D01*
X013853Y004274D02*
X017884Y004274D01*
X017884Y004195D02*
X013853Y004195D01*
X013853Y004117D02*
X017884Y004117D01*
X017884Y004038D02*
X013853Y004038D01*
X013853Y003960D02*
X017884Y003960D01*
X017884Y003881D02*
X013853Y003881D01*
X013853Y003803D02*
X017884Y003803D01*
X017884Y003724D02*
X013853Y003724D01*
X013853Y003646D02*
X017884Y003646D01*
X017884Y003567D02*
X013853Y003567D01*
X013853Y003489D02*
X017884Y003489D01*
X017884Y003410D02*
X013853Y003410D01*
X013853Y003331D02*
X017884Y003331D01*
X017884Y003253D02*
X013853Y003253D01*
X013853Y003174D02*
X017884Y003174D01*
X018164Y003174D02*
X019458Y003174D01*
X019458Y003096D02*
X018453Y003096D01*
X018264Y002904D02*
X019598Y002904D01*
X019598Y004441D01*
X019911Y004117D02*
X020049Y004117D01*
X020049Y004195D02*
X019984Y004195D01*
X020016Y004274D02*
X020049Y004274D01*
X020048Y004353D02*
X020049Y004353D01*
X020048Y004431D02*
X020049Y004431D01*
X020048Y004510D02*
X020049Y004510D01*
X020049Y004588D02*
X020024Y004588D01*
X020049Y004667D02*
X019992Y004667D01*
X020049Y004745D02*
X019930Y004745D01*
X019850Y004824D02*
X020049Y004824D01*
X020049Y004902D02*
X018164Y004902D01*
X018164Y004824D02*
X018647Y004824D01*
X018566Y004745D02*
X018164Y004745D01*
X018164Y004667D02*
X018505Y004667D01*
X018472Y004588D02*
X018164Y004588D01*
X018164Y004510D02*
X018448Y004510D01*
X018448Y004431D02*
X018164Y004431D01*
X018164Y004353D02*
X018448Y004353D01*
X018480Y004274D02*
X018164Y004274D01*
X018164Y004195D02*
X018513Y004195D01*
X018586Y004117D02*
X018164Y004117D01*
X018164Y004038D02*
X018694Y004038D01*
X018164Y003960D02*
X019458Y003960D01*
X019458Y003881D02*
X018164Y003881D01*
X018164Y003803D02*
X019458Y003803D01*
X019458Y003724D02*
X018164Y003724D01*
X018164Y003646D02*
X019458Y003646D01*
X019458Y003567D02*
X018164Y003567D01*
X018164Y003489D02*
X019458Y003489D01*
X019458Y003410D02*
X018164Y003410D01*
X018164Y003331D02*
X019458Y003331D01*
X019458Y003253D02*
X018164Y003253D01*
X017784Y002904D02*
X013944Y002904D01*
X013944Y002584D01*
X013853Y002364D02*
X014105Y002364D01*
X014124Y002383D01*
X014124Y001284D01*
X014049Y001284D01*
X014049Y001766D01*
X013990Y001824D01*
X013853Y001824D01*
X013853Y002364D01*
X013853Y002310D02*
X014124Y002310D01*
X014124Y002232D02*
X013853Y002232D01*
X013853Y002153D02*
X014124Y002153D01*
X014124Y002075D02*
X013853Y002075D01*
X013853Y001996D02*
X014124Y001996D01*
X014124Y001918D02*
X013853Y001918D01*
X013853Y001839D02*
X014124Y001839D01*
X014124Y001761D02*
X014049Y001761D01*
X014049Y001682D02*
X014124Y001682D01*
X014124Y001604D02*
X014049Y001604D01*
X014049Y001525D02*
X014124Y001525D01*
X014124Y001446D02*
X014049Y001446D01*
X014049Y001368D02*
X014124Y001368D01*
X014124Y001289D02*
X014049Y001289D01*
X014404Y001289D02*
X015802Y001289D01*
X015802Y001211D02*
X014404Y001211D01*
X014404Y001132D02*
X015802Y001132D01*
X015802Y001054D02*
X014372Y001054D01*
X014404Y001368D02*
X015802Y001368D01*
X015802Y001446D02*
X014404Y001446D01*
X014404Y001525D02*
X015802Y001525D01*
X015802Y001604D02*
X014404Y001604D01*
X014404Y001682D02*
X015802Y001682D01*
X015802Y001761D02*
X014404Y001761D01*
X014404Y001839D02*
X015802Y001839D01*
X015802Y001884D02*
X015870Y002049D01*
X015997Y002176D01*
X016162Y002244D01*
X016341Y002244D01*
X016507Y002176D01*
X016633Y002049D01*
X016702Y001884D01*
X016702Y001005D01*
X016633Y000840D01*
X016507Y000713D01*
X016341Y000644D01*
X016162Y000644D01*
X015997Y000713D01*
X015870Y000840D01*
X015802Y001005D01*
X015802Y001884D01*
X015816Y001918D02*
X014404Y001918D01*
X014404Y001996D02*
X015849Y001996D01*
X015896Y002075D02*
X014404Y002075D01*
X014404Y002153D02*
X015974Y002153D01*
X016132Y002232D02*
X014404Y002232D01*
X014404Y002310D02*
X017724Y002310D01*
X017724Y002232D02*
X016372Y002232D01*
X016529Y002153D02*
X017724Y002153D01*
X017724Y002075D02*
X016608Y002075D01*
X016655Y001996D02*
X017724Y001996D01*
X017724Y001918D02*
X016688Y001918D01*
X016702Y001839D02*
X017724Y001839D01*
X017724Y001761D02*
X016702Y001761D01*
X016702Y001682D02*
X017724Y001682D01*
X017724Y001604D02*
X016702Y001604D01*
X016702Y001525D02*
X017724Y001525D01*
X017724Y001446D02*
X016702Y001446D01*
X016702Y001368D02*
X017762Y001368D01*
X018004Y001604D02*
X018004Y001724D01*
X018082Y001724D01*
X018455Y001724D01*
X018455Y001604D01*
X018004Y001604D01*
X018004Y001682D02*
X018455Y001682D01*
X018164Y002075D02*
X020049Y002075D01*
X020049Y002153D02*
X018164Y002153D01*
X018164Y002232D02*
X020049Y002232D01*
X020049Y002310D02*
X018164Y002310D01*
X018164Y002389D02*
X020049Y002389D01*
X020049Y002468D02*
X018164Y002468D01*
X018164Y002546D02*
X020049Y002546D01*
X020049Y002625D02*
X018164Y002625D01*
X018445Y002703D02*
X020049Y002703D01*
X020049Y002782D02*
X019674Y002782D01*
X019738Y002860D02*
X020049Y002860D01*
X020049Y002939D02*
X019738Y002939D01*
X019738Y003017D02*
X020049Y003017D01*
X020049Y003096D02*
X019738Y003096D01*
X019738Y003174D02*
X020049Y003174D01*
X020049Y003253D02*
X019738Y003253D01*
X019738Y003331D02*
X020049Y003331D01*
X020049Y003410D02*
X019738Y003410D01*
X019738Y003489D02*
X020049Y003489D01*
X020049Y003567D02*
X019738Y003567D01*
X019738Y003646D02*
X020049Y003646D01*
X020049Y003724D02*
X019738Y003724D01*
X019738Y003803D02*
X020049Y003803D01*
X020049Y003881D02*
X019738Y003881D01*
X019738Y003960D02*
X020049Y003960D01*
X020049Y004038D02*
X019802Y004038D01*
X020049Y004981D02*
X018164Y004981D01*
X018164Y005059D02*
X020049Y005059D01*
X020049Y005138D02*
X018164Y005138D01*
X018164Y005217D02*
X020049Y005217D01*
X020049Y005295D02*
X018164Y005295D01*
X018164Y005374D02*
X020049Y005374D01*
X020049Y005452D02*
X018164Y005452D01*
X018164Y005531D02*
X020049Y005531D01*
X020049Y005609D02*
X018164Y005609D01*
X018164Y005688D02*
X020049Y005688D01*
X020049Y005766D02*
X018164Y005766D01*
X018164Y005845D02*
X020049Y005845D01*
X020049Y005923D02*
X018164Y005923D01*
X018164Y006002D02*
X020049Y006002D01*
X020049Y006081D02*
X018164Y006081D01*
X018164Y006159D02*
X020049Y006159D01*
X020049Y006238D02*
X018164Y006238D01*
X018164Y006316D02*
X020049Y006316D01*
X020049Y006395D02*
X018164Y006395D01*
X018164Y006473D02*
X020049Y006473D01*
X020049Y006552D02*
X018164Y006552D01*
X018164Y006630D02*
X020049Y006630D01*
X020049Y006709D02*
X018164Y006709D01*
X018164Y006787D02*
X020049Y006787D01*
X016824Y007944D02*
X012886Y007944D01*
X012886Y013299D01*
X013222Y013306D02*
X013376Y013306D01*
X013376Y013228D02*
X013222Y013228D01*
X013222Y013149D02*
X013376Y013149D01*
X013376Y013071D02*
X013222Y013071D01*
X013064Y012904D02*
X013704Y012904D01*
X013704Y013299D01*
X013713Y013299D01*
X013713Y013375D01*
X013384Y013704D01*
X013244Y013699D02*
X009337Y013699D01*
X009259Y013621D02*
X012593Y013621D01*
X012550Y013542D02*
X009180Y013542D01*
X009102Y013464D02*
X012550Y013464D01*
X012550Y013385D02*
X009023Y013385D01*
X008944Y013306D02*
X012550Y013306D01*
X012550Y013228D02*
X008866Y013228D01*
X008787Y013149D02*
X012550Y013149D01*
X012550Y013071D02*
X008709Y013071D01*
X008630Y012992D02*
X012579Y012992D01*
X012746Y012914D02*
X008552Y012914D01*
X008473Y012835D02*
X012746Y012835D01*
X012746Y012757D02*
X008395Y012757D01*
X008316Y012678D02*
X012746Y012678D01*
X012746Y012600D02*
X008238Y012600D01*
X008159Y012521D02*
X012746Y012521D01*
X012746Y012285D02*
X007636Y012285D01*
X007451Y012285D02*
X007444Y012285D01*
X007444Y012207D02*
X012746Y012207D01*
X012746Y012128D02*
X007444Y012128D01*
X007509Y012050D02*
X012746Y012050D01*
X012746Y011971D02*
X007588Y011971D01*
X007604Y011893D02*
X012746Y011893D01*
X012746Y011814D02*
X007604Y011814D01*
X007567Y011736D02*
X012746Y011736D01*
X012746Y011657D02*
X007488Y011657D01*
X007284Y011579D02*
X012746Y011579D01*
X012746Y011500D02*
X007284Y011500D01*
X007284Y011421D02*
X012746Y011421D01*
X012746Y011343D02*
X007284Y011343D01*
X007284Y011264D02*
X012746Y011264D01*
X012746Y011186D02*
X007284Y011186D01*
X007284Y011107D02*
X012746Y011107D01*
X012746Y011029D02*
X007284Y011029D01*
X007284Y010950D02*
X012746Y010950D01*
X012746Y010872D02*
X007284Y010872D01*
X007284Y010793D02*
X012746Y010793D01*
X012746Y010715D02*
X007284Y010715D01*
X007284Y010636D02*
X012746Y010636D01*
X013204Y010636D02*
X015004Y010636D01*
X015000Y010632D01*
X015004Y010579D01*
X015004Y010435D01*
X014924Y010355D01*
X014924Y010173D01*
X015053Y010044D01*
X015235Y010044D01*
X015364Y010173D01*
X015364Y010355D01*
X015284Y010435D01*
X015284Y010531D01*
X015697Y011004D01*
X015795Y011004D01*
X015924Y011133D01*
X015924Y011315D01*
X015795Y011444D01*
X015613Y011444D01*
X015484Y011315D01*
X015484Y011185D01*
X015042Y010680D01*
X015004Y010642D01*
X015004Y010636D01*
X015004Y010557D02*
X013204Y010557D01*
X013204Y010479D02*
X015004Y010479D01*
X014969Y010400D02*
X013204Y010400D01*
X013204Y010322D02*
X014924Y010322D01*
X014924Y010243D02*
X013204Y010243D01*
X013204Y010165D02*
X014932Y010165D01*
X015011Y010086D02*
X013204Y010086D01*
X013204Y010008D02*
X016684Y010008D01*
X016684Y010086D02*
X015277Y010086D01*
X015235Y010004D02*
X015053Y010004D01*
X014924Y009875D01*
X014924Y009693D01*
X015053Y009564D01*
X015228Y009564D01*
X015484Y009265D01*
X015484Y009133D01*
X015613Y009004D01*
X015795Y009004D01*
X015924Y009133D01*
X015924Y009315D01*
X015795Y009444D01*
X015700Y009444D01*
X015364Y009836D01*
X015364Y009842D01*
X015364Y009875D01*
X015235Y010004D01*
X015310Y009929D02*
X016684Y009929D01*
X016684Y009851D02*
X015364Y009851D01*
X015418Y009772D02*
X016684Y009772D01*
X016684Y009694D02*
X015486Y009694D01*
X015553Y009615D02*
X016684Y009615D01*
X016684Y009536D02*
X015620Y009536D01*
X015688Y009458D02*
X016684Y009458D01*
X016684Y009379D02*
X015860Y009379D01*
X015924Y009301D02*
X016684Y009301D01*
X016684Y009222D02*
X015924Y009222D01*
X015924Y009144D02*
X016684Y009144D01*
X016684Y009065D02*
X015856Y009065D01*
X015704Y009224D02*
X015224Y009784D01*
X015144Y009784D01*
X014924Y009772D02*
X013204Y009772D01*
X013204Y009694D02*
X014924Y009694D01*
X015002Y009615D02*
X013204Y009615D01*
X013204Y009536D02*
X015252Y009536D01*
X015319Y009458D02*
X013204Y009458D01*
X013204Y009379D02*
X015386Y009379D01*
X015454Y009301D02*
X013204Y009301D01*
X013204Y009222D02*
X015484Y009222D01*
X015484Y009144D02*
X013204Y009144D01*
X013204Y009065D02*
X015552Y009065D01*
X014924Y009851D02*
X013204Y009851D01*
X013204Y009929D02*
X014978Y009929D01*
X015144Y010264D02*
X015144Y010584D01*
X015704Y011224D01*
X015924Y011186D02*
X016684Y011186D01*
X016684Y011264D02*
X015924Y011264D01*
X015896Y011343D02*
X016684Y011343D01*
X016684Y011421D02*
X015817Y011421D01*
X015590Y011421D02*
X013204Y011421D01*
X013204Y011343D02*
X015512Y011343D01*
X015484Y011264D02*
X013204Y011264D01*
X013204Y011186D02*
X015484Y011186D01*
X015416Y011107D02*
X013204Y011107D01*
X013204Y011029D02*
X015347Y011029D01*
X015278Y010950D02*
X013204Y010950D01*
X013204Y010872D02*
X015210Y010872D01*
X015141Y010793D02*
X013204Y010793D01*
X013204Y010715D02*
X015072Y010715D01*
X015307Y010557D02*
X016684Y010557D01*
X016684Y010479D02*
X015284Y010479D01*
X015319Y010400D02*
X016684Y010400D01*
X016684Y010322D02*
X015364Y010322D01*
X015364Y010243D02*
X016684Y010243D01*
X016684Y010165D02*
X015356Y010165D01*
X015375Y010636D02*
X016684Y010636D01*
X016684Y010715D02*
X015444Y010715D01*
X015513Y010793D02*
X016684Y010793D01*
X016684Y010872D02*
X015582Y010872D01*
X015650Y010950D02*
X016684Y010950D01*
X016684Y011029D02*
X015820Y011029D01*
X015898Y011107D02*
X016684Y011107D01*
X016684Y011500D02*
X013204Y011500D01*
X013204Y011579D02*
X016684Y011579D01*
X016684Y011657D02*
X013204Y011657D01*
X013204Y011736D02*
X016684Y011736D01*
X016684Y011814D02*
X013204Y011814D01*
X013204Y011893D02*
X016684Y011893D01*
X016684Y011971D02*
X013204Y011971D01*
X013204Y012050D02*
X016684Y012050D01*
X016684Y012128D02*
X013204Y012128D01*
X013204Y012207D02*
X016684Y012207D01*
X016684Y012285D02*
X013204Y012285D01*
X013204Y012364D02*
X016684Y012364D01*
X016684Y012443D02*
X013204Y012443D01*
X013204Y012521D02*
X016684Y012521D01*
X016684Y012600D02*
X013204Y012600D01*
X013204Y012678D02*
X016684Y012678D01*
X016684Y012757D02*
X013204Y012757D01*
X013064Y012904D02*
X013064Y008184D01*
X013304Y008184D01*
X013524Y008201D02*
X016684Y008201D01*
X016684Y008123D02*
X013524Y008123D01*
X013524Y008280D02*
X016684Y008280D01*
X016684Y008358D02*
X013511Y008358D01*
X013204Y008437D02*
X016684Y008437D01*
X016684Y008515D02*
X013204Y008515D01*
X013204Y008594D02*
X016684Y008594D01*
X016684Y008672D02*
X013204Y008672D01*
X013204Y008751D02*
X016684Y008751D01*
X016684Y008830D02*
X013204Y008830D01*
X013204Y008908D02*
X016684Y008908D01*
X016684Y008987D02*
X013204Y008987D01*
X012886Y007784D02*
X012886Y007394D01*
X012990Y006709D02*
X013573Y006709D01*
X013573Y006630D02*
X011445Y006630D01*
X011366Y006552D02*
X013573Y006552D01*
X013573Y006473D02*
X011288Y006473D01*
X011209Y006395D02*
X013573Y006395D01*
X013573Y006316D02*
X011131Y006316D01*
X011052Y006238D02*
X013573Y006238D01*
X013573Y006159D02*
X010974Y006159D01*
X010895Y006081D02*
X013573Y006081D01*
X013573Y006002D02*
X010816Y006002D01*
X010738Y005923D02*
X013573Y005923D01*
X013573Y005845D02*
X010659Y005845D01*
X010581Y005766D02*
X013573Y005766D01*
X013573Y005688D02*
X010502Y005688D01*
X010424Y005609D02*
X013573Y005609D01*
X013573Y005531D02*
X010345Y005531D01*
X010267Y005452D02*
X013573Y005452D01*
X013573Y005374D02*
X010188Y005374D01*
X010110Y005295D02*
X013573Y005295D01*
X013573Y005217D02*
X010084Y005217D01*
X010009Y005138D02*
X013573Y005138D01*
X013573Y005059D02*
X009924Y005059D01*
X009852Y004981D02*
X013573Y004981D01*
X013573Y004902D02*
X012783Y004902D01*
X012804Y004824D02*
X013573Y004824D01*
X013573Y004745D02*
X012804Y004745D01*
X012804Y004667D02*
X013573Y004667D01*
X013573Y004588D02*
X012804Y004588D01*
X012804Y004510D02*
X013573Y004510D01*
X013573Y004431D02*
X012804Y004431D01*
X012804Y004353D02*
X013573Y004353D01*
X013573Y004274D02*
X012804Y004274D01*
X012804Y004195D02*
X013573Y004195D01*
X013573Y004117D02*
X012804Y004117D01*
X012804Y004038D02*
X013573Y004038D01*
X013573Y003960D02*
X012804Y003960D01*
X012804Y003881D02*
X013573Y003881D01*
X013573Y003803D02*
X012804Y003803D01*
X012804Y003724D02*
X013573Y003724D01*
X013573Y003646D02*
X012804Y003646D01*
X012804Y003567D02*
X013573Y003567D01*
X013573Y003489D02*
X012804Y003489D01*
X012804Y003410D02*
X013573Y003410D01*
X013573Y003331D02*
X012804Y003331D01*
X012804Y003253D02*
X013573Y003253D01*
X013573Y003174D02*
X012804Y003174D01*
X012804Y003096D02*
X013573Y003096D01*
X013573Y003017D02*
X012804Y003017D01*
X012804Y002939D02*
X013573Y002939D01*
X013573Y002860D02*
X012804Y002860D01*
X012804Y002782D02*
X013200Y002782D01*
X013384Y002584D02*
X012664Y002584D01*
X012664Y004824D01*
X009464Y004824D01*
X009414Y005452D02*
X008003Y005452D01*
X008444Y004684D02*
X007364Y004684D01*
X007364Y002404D01*
X007385Y002404D01*
X007444Y002345D01*
X007444Y002084D01*
X007865Y002084D01*
X007947Y002002D01*
X007947Y001886D01*
X007947Y001824D01*
X008085Y001824D01*
X008143Y001766D01*
X008143Y001284D01*
X008444Y001284D01*
X008444Y002995D01*
X008439Y002991D01*
X008323Y002943D01*
X008197Y002943D01*
X008080Y002991D01*
X007991Y003080D01*
X007943Y003197D01*
X007943Y003323D01*
X007991Y003439D01*
X008080Y003529D01*
X008197Y003577D01*
X008323Y003577D01*
X008439Y003529D01*
X008444Y003524D01*
X008444Y004606D01*
X008444Y004684D01*
X008444Y004667D02*
X007364Y004667D01*
X007364Y004588D02*
X008444Y004588D01*
X008444Y004510D02*
X007364Y004510D01*
X007364Y004431D02*
X008444Y004431D01*
X008444Y004353D02*
X007364Y004353D01*
X007364Y004274D02*
X008444Y004274D01*
X008444Y004195D02*
X007364Y004195D01*
X007364Y004117D02*
X008444Y004117D01*
X008444Y004038D02*
X007364Y004038D01*
X007364Y003960D02*
X008444Y003960D01*
X008444Y003881D02*
X007364Y003881D01*
X007364Y003803D02*
X008444Y003803D01*
X008444Y003724D02*
X007364Y003724D01*
X007364Y003646D02*
X008444Y003646D01*
X008444Y003567D02*
X008347Y003567D01*
X008173Y003567D02*
X007364Y003567D01*
X007364Y003489D02*
X008040Y003489D01*
X007979Y003410D02*
X007364Y003410D01*
X007364Y003331D02*
X007946Y003331D01*
X007943Y003253D02*
X007364Y003253D01*
X007364Y003174D02*
X007952Y003174D01*
X007984Y003096D02*
X007364Y003096D01*
X007364Y003017D02*
X008054Y003017D01*
X008444Y002939D02*
X007364Y002939D01*
X007364Y002860D02*
X008444Y002860D01*
X008444Y002782D02*
X007364Y002782D01*
X007364Y002703D02*
X008444Y002703D01*
X008444Y002625D02*
X007364Y002625D01*
X007364Y002546D02*
X008444Y002546D01*
X008444Y002468D02*
X007364Y002468D01*
X007400Y002389D02*
X008444Y002389D01*
X008444Y002310D02*
X007444Y002310D01*
X007444Y002232D02*
X008444Y002232D01*
X008444Y002153D02*
X007444Y002153D01*
X007224Y002184D02*
X007224Y004824D01*
X008584Y004664D02*
X012504Y004664D01*
X012504Y001144D01*
X012824Y001144D01*
X012396Y001054D02*
X008692Y001054D01*
X008724Y001132D02*
X012364Y001132D01*
X012364Y001211D02*
X008724Y001211D01*
X008724Y001289D02*
X012364Y001289D01*
X012364Y001368D02*
X008724Y001368D01*
X008724Y001446D02*
X012364Y001446D01*
X012364Y001525D02*
X008724Y001525D01*
X008724Y001604D02*
X012364Y001604D01*
X012364Y001682D02*
X008724Y001682D01*
X008724Y001761D02*
X012364Y001761D01*
X012364Y001839D02*
X008724Y001839D01*
X008724Y001918D02*
X012364Y001918D01*
X012364Y001996D02*
X008724Y001996D01*
X008724Y002075D02*
X012364Y002075D01*
X012364Y002153D02*
X008724Y002153D01*
X008724Y002232D02*
X012364Y002232D01*
X012364Y002310D02*
X008724Y002310D01*
X008724Y002389D02*
X012364Y002389D01*
X012364Y002468D02*
X008724Y002468D01*
X008724Y002546D02*
X012364Y002546D01*
X012364Y002625D02*
X008724Y002625D01*
X008724Y002703D02*
X012364Y002703D01*
X012364Y002782D02*
X008724Y002782D01*
X008724Y002860D02*
X012364Y002860D01*
X012364Y002939D02*
X008724Y002939D01*
X008724Y003017D02*
X012364Y003017D01*
X012364Y003096D02*
X008724Y003096D01*
X008724Y003174D02*
X012364Y003174D01*
X012364Y003253D02*
X008724Y003253D01*
X008724Y003331D02*
X012364Y003331D01*
X012364Y003410D02*
X008724Y003410D01*
X008724Y003489D02*
X012364Y003489D01*
X012364Y003567D02*
X008724Y003567D01*
X008724Y003646D02*
X012364Y003646D01*
X012364Y003724D02*
X008724Y003724D01*
X008724Y003803D02*
X012364Y003803D01*
X012364Y003881D02*
X008724Y003881D01*
X008724Y003960D02*
X012364Y003960D01*
X012364Y004038D02*
X008724Y004038D01*
X008724Y004117D02*
X012364Y004117D01*
X012364Y004195D02*
X008724Y004195D01*
X008724Y004274D02*
X012364Y004274D01*
X012364Y004353D02*
X008724Y004353D01*
X008724Y004431D02*
X012364Y004431D01*
X012364Y004510D02*
X008724Y004510D01*
X008584Y004664D02*
X008584Y001144D01*
X006984Y001144D01*
X007316Y001284D02*
X007316Y001766D01*
X007278Y001804D01*
X007509Y001804D01*
X007471Y001766D01*
X007471Y001284D01*
X007316Y001284D01*
X007316Y001289D02*
X007471Y001289D01*
X007471Y001368D02*
X007316Y001368D01*
X007316Y001446D02*
X007471Y001446D01*
X007471Y001525D02*
X007316Y001525D01*
X007316Y001604D02*
X007471Y001604D01*
X007471Y001682D02*
X007316Y001682D01*
X007316Y001761D02*
X007471Y001761D01*
X007807Y001944D02*
X007807Y001488D01*
X007947Y001839D02*
X008444Y001839D01*
X008444Y001761D02*
X008143Y001761D01*
X008143Y001682D02*
X008444Y001682D01*
X008444Y001604D02*
X008143Y001604D01*
X008143Y001525D02*
X008444Y001525D01*
X008444Y001446D02*
X008143Y001446D01*
X008143Y001368D02*
X008444Y001368D01*
X008444Y001289D02*
X008143Y001289D01*
X007947Y001918D02*
X008444Y001918D01*
X008444Y001996D02*
X007947Y001996D01*
X007874Y002075D02*
X008444Y002075D01*
X007807Y001944D02*
X006984Y001944D01*
X006984Y006904D01*
X006659Y007102D02*
X003124Y007102D01*
X003138Y007180D02*
X006397Y007180D01*
X006611Y007180D02*
X006644Y007180D01*
X006626Y007573D02*
X006644Y007573D01*
X006762Y008084D02*
X006804Y008126D01*
X006840Y008162D01*
X006840Y008084D01*
X006762Y008084D01*
X006801Y008123D02*
X006840Y008123D01*
X007144Y008184D02*
X007144Y012904D01*
X007784Y012904D01*
X007784Y013299D01*
X007807Y013299D01*
X007784Y013322D01*
X007784Y013624D01*
X007544Y013864D01*
X007544Y016904D01*
X007807Y017167D01*
X007807Y019205D01*
X007471Y019197D02*
X007316Y019197D01*
X007316Y019119D02*
X007471Y019119D01*
X007471Y019040D02*
X007316Y019040D01*
X007316Y018962D02*
X007471Y018962D01*
X007515Y018883D02*
X007273Y018883D01*
X007150Y018569D02*
X007667Y018569D01*
X007667Y018647D02*
X006724Y018647D01*
X006724Y018569D02*
X006818Y018569D01*
X006764Y018490D02*
X006724Y018490D01*
X006724Y018412D02*
X006764Y018412D01*
X006764Y018333D02*
X006724Y018333D01*
X006984Y018424D02*
X006984Y017464D01*
X006584Y017064D01*
X006804Y017077D02*
X007519Y017077D01*
X007597Y017155D02*
X006873Y017155D01*
X006952Y017234D02*
X007667Y017234D01*
X007667Y017312D02*
X007030Y017312D01*
X007109Y017391D02*
X007667Y017391D01*
X007667Y017469D02*
X007124Y017469D01*
X007124Y017548D02*
X007667Y017548D01*
X007667Y017626D02*
X007124Y017626D01*
X007124Y017705D02*
X007667Y017705D01*
X007667Y017783D02*
X007124Y017783D01*
X007124Y017862D02*
X007667Y017862D01*
X007667Y017941D02*
X007124Y017941D01*
X007124Y018019D02*
X007667Y018019D01*
X007667Y018098D02*
X007124Y018098D01*
X007124Y018176D02*
X007667Y018176D01*
X007667Y018255D02*
X007126Y018255D01*
X007204Y018333D02*
X007667Y018333D01*
X007667Y018412D02*
X007204Y018412D01*
X007204Y018490D02*
X007667Y018490D01*
X007667Y018726D02*
X006724Y018726D01*
X006724Y018805D02*
X007667Y018805D01*
X007947Y018805D02*
X008124Y018805D01*
X008124Y018883D02*
X008099Y018883D01*
X008124Y018726D02*
X007947Y018726D01*
X007947Y018647D02*
X008124Y018647D01*
X008124Y018569D02*
X007947Y018569D01*
X007947Y018490D02*
X008124Y018490D01*
X008124Y018412D02*
X007947Y018412D01*
X007947Y018333D02*
X008124Y018333D01*
X008124Y018255D02*
X007947Y018255D01*
X007947Y018176D02*
X008124Y018176D01*
X008124Y018098D02*
X007947Y018098D01*
X007947Y018019D02*
X008124Y018019D01*
X008124Y017941D02*
X007947Y017941D01*
X007947Y017862D02*
X008124Y017862D01*
X008124Y017783D02*
X007947Y017783D01*
X007947Y017705D02*
X008124Y017705D01*
X008124Y017626D02*
X007947Y017626D01*
X007947Y017548D02*
X008124Y017548D01*
X008124Y017469D02*
X007947Y017469D01*
X007947Y017391D02*
X008124Y017391D01*
X008124Y017312D02*
X007947Y017312D01*
X007947Y017234D02*
X008124Y017234D01*
X008124Y017155D02*
X007947Y017155D01*
X007915Y017077D02*
X008124Y017077D01*
X008124Y016998D02*
X007836Y016998D01*
X007757Y016919D02*
X008124Y016919D01*
X008124Y016841D02*
X007684Y016841D01*
X007684Y016762D02*
X008127Y016762D01*
X008206Y016684D02*
X007684Y016684D01*
X007684Y016605D02*
X007905Y016605D01*
X007945Y016645D02*
X007862Y016563D01*
X007862Y016445D01*
X007945Y016362D01*
X008063Y016362D01*
X008145Y016445D01*
X008145Y016563D01*
X008063Y016645D01*
X007945Y016645D01*
X007862Y016527D02*
X007684Y016527D01*
X007684Y016448D02*
X007862Y016448D01*
X007938Y016370D02*
X007684Y016370D01*
X007684Y016291D02*
X011366Y016291D01*
X011562Y016291D02*
X013484Y016291D01*
X013484Y016213D02*
X007684Y016213D01*
X007684Y016134D02*
X013456Y016134D01*
X013378Y016056D02*
X007684Y016056D01*
X007684Y015977D02*
X013299Y015977D01*
X013244Y015898D02*
X007684Y015898D01*
X007684Y015820D02*
X013244Y015820D01*
X013244Y015741D02*
X007684Y015741D01*
X007684Y015663D02*
X013244Y015663D01*
X013244Y015584D02*
X012874Y015584D01*
X012895Y015563D02*
X012813Y015645D01*
X012695Y015645D01*
X012612Y015563D01*
X012612Y015445D01*
X012695Y015362D01*
X012813Y015362D01*
X012895Y015445D01*
X012895Y015563D01*
X012895Y015506D02*
X013244Y015506D01*
X013244Y015427D02*
X012877Y015427D01*
X012631Y015427D02*
X011877Y015427D01*
X011895Y015445D02*
X011813Y015362D01*
X011695Y015362D01*
X011612Y015445D01*
X011612Y015563D01*
X011695Y015645D01*
X011813Y015645D01*
X011895Y015563D01*
X011895Y015445D01*
X011895Y015506D02*
X012612Y015506D01*
X012634Y015584D02*
X011874Y015584D01*
X011634Y015584D02*
X007684Y015584D01*
X007684Y015506D02*
X011612Y015506D01*
X011631Y015427D02*
X007684Y015427D01*
X007684Y015349D02*
X013244Y015349D01*
X013244Y015270D02*
X007684Y015270D01*
X007684Y015192D02*
X013244Y015192D01*
X013244Y015113D02*
X007684Y015113D01*
X007684Y015034D02*
X013244Y015034D01*
X013244Y014956D02*
X007684Y014956D01*
X007684Y014877D02*
X009686Y014877D01*
X009608Y014799D02*
X007684Y014799D01*
X007684Y014720D02*
X009564Y014720D01*
X009564Y014642D02*
X007684Y014642D01*
X007684Y014563D02*
X009574Y014563D01*
X009644Y014485D02*
X007684Y014485D01*
X007684Y014406D02*
X009644Y014406D01*
X009570Y014328D02*
X007684Y014328D01*
X007684Y014249D02*
X009491Y014249D01*
X009413Y014170D02*
X007684Y014170D01*
X007684Y014092D02*
X009334Y014092D01*
X009255Y014013D02*
X007684Y014013D01*
X007684Y013935D02*
X009177Y013935D01*
X009098Y013856D02*
X007750Y013856D01*
X007828Y013778D02*
X008427Y013778D01*
X008584Y013624D02*
X008584Y013384D01*
X007944Y012744D01*
X007304Y012744D01*
X007304Y011864D01*
X007384Y011864D01*
X007544Y012504D02*
X007944Y012504D01*
X009784Y014344D01*
X009784Y014664D01*
X010004Y014642D02*
X013244Y014642D01*
X013244Y014720D02*
X010004Y014720D01*
X009960Y014799D02*
X013244Y014799D01*
X013244Y014877D02*
X009882Y014877D01*
X009994Y014563D02*
X013244Y014563D01*
X013244Y014485D02*
X009924Y014485D01*
X009924Y014406D02*
X013244Y014406D01*
X013244Y014328D02*
X009924Y014328D01*
X009887Y014249D02*
X013244Y014249D01*
X013244Y014170D02*
X009808Y014170D01*
X009730Y014092D02*
X013244Y014092D01*
X013244Y014013D02*
X009651Y014013D01*
X009573Y013935D02*
X013244Y013935D01*
X013244Y013856D02*
X009494Y013856D01*
X009416Y013778D02*
X013244Y013778D01*
X013269Y013621D02*
X013178Y013621D01*
X013222Y013542D02*
X013348Y013542D01*
X013376Y013464D02*
X013222Y013464D01*
X013222Y013385D02*
X013376Y013385D01*
X013844Y012914D02*
X016684Y012914D01*
X016684Y012992D02*
X014020Y012992D01*
X014049Y013071D02*
X016684Y013071D01*
X016684Y013149D02*
X014049Y013149D01*
X014049Y013228D02*
X016684Y013228D01*
X016684Y013306D02*
X014049Y013306D01*
X014049Y013385D02*
X016712Y013385D01*
X016824Y013299D02*
X018791Y013299D01*
X018455Y013159D02*
X018455Y013044D01*
X016964Y013044D01*
X016964Y013159D01*
X018455Y013159D01*
X018455Y013149D02*
X016964Y013149D01*
X016964Y013071D02*
X018455Y013071D01*
X018455Y013464D02*
X014049Y013464D01*
X014049Y013542D02*
X018455Y013542D01*
X017909Y013621D02*
X014005Y013621D01*
X013833Y012835D02*
X016684Y012835D01*
X016824Y013299D02*
X016824Y007944D01*
X017594Y003096D02*
X013853Y003096D01*
X013853Y003017D02*
X013859Y003017D01*
X013573Y002782D02*
X013568Y002782D01*
X013570Y002389D02*
X013573Y002389D01*
X013573Y002310D02*
X012644Y002310D01*
X012644Y002232D02*
X013573Y002232D01*
X013573Y002153D02*
X012644Y002153D01*
X012644Y002075D02*
X013573Y002075D01*
X013573Y001996D02*
X012644Y001996D01*
X012644Y001918D02*
X013573Y001918D01*
X013573Y001839D02*
X012644Y001839D01*
X012644Y002389D02*
X013197Y002389D01*
X014145Y002764D02*
X014156Y002754D01*
X014166Y002764D01*
X014145Y002764D01*
X014404Y002468D02*
X017724Y002468D01*
X017724Y002389D02*
X014404Y002389D01*
X015814Y000975D02*
X004879Y000975D01*
X004891Y001054D02*
X006476Y001054D01*
X006444Y001132D02*
X004891Y001132D01*
X004891Y001211D02*
X006444Y001211D01*
X006444Y001289D02*
X004891Y001289D01*
X004891Y001368D02*
X006444Y001368D01*
X006444Y001446D02*
X004891Y001446D01*
X004891Y001525D02*
X006444Y001525D01*
X006444Y001604D02*
X004891Y001604D01*
X004891Y001682D02*
X006444Y001682D01*
X006444Y001761D02*
X004891Y001761D01*
X004891Y001839D02*
X006444Y001839D01*
X006444Y001918D02*
X004877Y001918D01*
X004844Y001996D02*
X006444Y001996D01*
X006444Y002075D02*
X004797Y002075D01*
X004718Y002153D02*
X006444Y002153D01*
X004846Y000897D02*
X015847Y000897D01*
X015892Y000818D02*
X004801Y000818D01*
X004722Y000740D02*
X015970Y000740D01*
X016122Y000661D02*
X004570Y000661D01*
X004311Y000661D02*
X001510Y000661D01*
X001269Y000740D02*
X004159Y000740D01*
X004081Y000818D02*
X001130Y000818D01*
X001021Y000897D02*
X004036Y000897D01*
X002984Y001144D02*
X001064Y001144D01*
X001064Y001488D01*
X001075Y001488D01*
X001411Y001525D02*
X001565Y001525D01*
X001565Y001604D02*
X001411Y001604D01*
X001411Y001682D02*
X001565Y001682D01*
X001565Y001761D02*
X001411Y001761D01*
X001411Y001766D02*
X001411Y001284D01*
X001565Y001284D01*
X001565Y001766D01*
X001604Y001804D01*
X001373Y001804D01*
X001411Y001766D01*
X001064Y001944D02*
X002424Y001944D01*
X002424Y001784D01*
X002204Y001800D02*
X002200Y001804D01*
X002204Y001804D01*
X002204Y001800D01*
X002366Y002084D02*
X001204Y002084D01*
X001204Y003991D01*
X001884Y003991D01*
X002049Y004059D01*
X002176Y004186D01*
X002224Y004301D01*
X002526Y004301D01*
X002642Y004301D01*
X002684Y004343D01*
X002684Y001628D01*
X002644Y001628D01*
X002644Y001945D01*
X002585Y002004D01*
X002562Y002004D01*
X002482Y002084D01*
X002366Y002084D01*
X002491Y002075D02*
X002684Y002075D01*
X002684Y002153D02*
X001204Y002153D01*
X001204Y002232D02*
X002684Y002232D01*
X002684Y002310D02*
X001204Y002310D01*
X001204Y002389D02*
X002684Y002389D01*
X002684Y002468D02*
X001204Y002468D01*
X001204Y002546D02*
X002684Y002546D01*
X002684Y002625D02*
X001204Y002625D01*
X001204Y002703D02*
X002684Y002703D01*
X002684Y002782D02*
X001204Y002782D01*
X001204Y002860D02*
X002684Y002860D01*
X002684Y002939D02*
X001204Y002939D01*
X001204Y003017D02*
X002684Y003017D01*
X002684Y003096D02*
X001204Y003096D01*
X001204Y003174D02*
X002684Y003174D01*
X002684Y003253D02*
X001204Y003253D01*
X001204Y003331D02*
X002684Y003331D01*
X002684Y003410D02*
X001204Y003410D01*
X001204Y003489D02*
X002684Y003489D01*
X002684Y003567D02*
X001204Y003567D01*
X001204Y003646D02*
X002684Y003646D01*
X002684Y003724D02*
X001204Y003724D01*
X001204Y003803D02*
X002684Y003803D01*
X002684Y003881D02*
X001204Y003881D01*
X001204Y003960D02*
X002684Y003960D01*
X002684Y004038D02*
X001999Y004038D01*
X002107Y004117D02*
X002684Y004117D01*
X002684Y004195D02*
X002180Y004195D01*
X002212Y004274D02*
X002684Y004274D01*
X002584Y004441D02*
X002584Y007144D01*
X002364Y007180D02*
X002238Y007180D01*
X002238Y007259D02*
X002364Y007259D01*
X002364Y007102D02*
X002223Y007102D01*
X002364Y007023D02*
X000644Y007023D01*
X000644Y006944D02*
X002402Y006944D01*
X002444Y006866D02*
X000644Y006866D01*
X000644Y006787D02*
X002444Y006787D01*
X002444Y006709D02*
X000644Y006709D01*
X000644Y006630D02*
X002444Y006630D01*
X002444Y006552D02*
X000644Y006552D01*
X000644Y006473D02*
X002444Y006473D01*
X002444Y006395D02*
X000644Y006395D01*
X000644Y006316D02*
X002444Y006316D01*
X002444Y006238D02*
X000644Y006238D01*
X000644Y006159D02*
X002444Y006159D01*
X002444Y006081D02*
X000644Y006081D01*
X000644Y006002D02*
X002444Y006002D01*
X002444Y005923D02*
X000644Y005923D01*
X000644Y005845D02*
X002444Y005845D01*
X002444Y005766D02*
X000644Y005766D01*
X000644Y005688D02*
X002444Y005688D01*
X002444Y005609D02*
X000644Y005609D01*
X000644Y005531D02*
X002444Y005531D01*
X002444Y005452D02*
X000644Y005452D01*
X000644Y005374D02*
X002444Y005374D01*
X002444Y005295D02*
X000644Y005295D01*
X000644Y005217D02*
X002444Y005217D01*
X002444Y005138D02*
X000644Y005138D01*
X000644Y005059D02*
X002444Y005059D01*
X002444Y004981D02*
X000644Y004981D01*
X000644Y004902D02*
X002444Y004902D01*
X002444Y004824D02*
X002046Y004824D01*
X002126Y004745D02*
X002444Y004745D01*
X002444Y004667D02*
X002188Y004667D01*
X002221Y004588D02*
X002444Y004588D01*
X002584Y004441D02*
X001094Y004441D01*
X001064Y004441D01*
X001064Y001944D01*
X000971Y001839D02*
X000644Y001839D01*
X000644Y001761D02*
X000739Y001761D01*
X000739Y001682D02*
X000645Y001682D01*
X000651Y001604D02*
X000739Y001604D01*
X000739Y001525D02*
X000657Y001525D01*
X000682Y001446D02*
X000739Y001446D01*
X000739Y001368D02*
X000707Y001368D01*
X000733Y001289D02*
X000739Y001289D01*
X000644Y001918D02*
X000924Y001918D01*
X000924Y001996D02*
X000644Y001996D01*
X000644Y002075D02*
X000924Y002075D01*
X000924Y002153D02*
X000644Y002153D01*
X000644Y002232D02*
X000924Y002232D01*
X000924Y002310D02*
X000644Y002310D01*
X000644Y002389D02*
X000924Y002389D01*
X000924Y002468D02*
X000644Y002468D01*
X000644Y002546D02*
X000924Y002546D01*
X000924Y002625D02*
X000644Y002625D01*
X000644Y002703D02*
X000924Y002703D01*
X000924Y002782D02*
X000644Y002782D01*
X000644Y002860D02*
X000924Y002860D01*
X000924Y002939D02*
X000644Y002939D01*
X000644Y003017D02*
X000924Y003017D01*
X000924Y003096D02*
X000644Y003096D01*
X000644Y003174D02*
X000924Y003174D01*
X000924Y003253D02*
X000644Y003253D01*
X000644Y003331D02*
X000924Y003331D01*
X000924Y003410D02*
X000644Y003410D01*
X000644Y003489D02*
X000924Y003489D01*
X000924Y003567D02*
X000644Y003567D01*
X000644Y003646D02*
X000924Y003646D01*
X000924Y003724D02*
X000644Y003724D01*
X000644Y003803D02*
X000924Y003803D01*
X000924Y003881D02*
X000644Y003881D01*
X000644Y003960D02*
X000924Y003960D01*
X000890Y004038D02*
X000644Y004038D01*
X000644Y004117D02*
X000782Y004117D01*
X000709Y004195D02*
X000644Y004195D01*
X000644Y004274D02*
X000677Y004274D01*
X000644Y004353D02*
X000644Y004353D01*
X000644Y004431D02*
X000644Y004431D01*
X000644Y004510D02*
X000644Y004510D01*
X000644Y004588D02*
X000668Y004588D01*
X000644Y004667D02*
X000701Y004667D01*
X000644Y004745D02*
X000762Y004745D01*
X000843Y004824D02*
X000644Y004824D01*
X000644Y007102D02*
X000753Y007102D01*
X000739Y007180D02*
X000644Y007180D01*
X000644Y007259D02*
X000739Y007259D01*
X000739Y007337D02*
X000644Y007337D01*
X000644Y007416D02*
X000739Y007416D01*
X000739Y007494D02*
X000644Y007494D01*
X000644Y007573D02*
X000739Y007573D01*
X000739Y007651D02*
X000644Y007651D01*
X000644Y007887D02*
X000980Y007887D01*
X000644Y008751D02*
X003644Y008751D01*
X003644Y008830D02*
X000644Y008830D01*
X000644Y008908D02*
X003644Y008908D01*
X003644Y008987D02*
X000644Y008987D01*
X000644Y009065D02*
X003644Y009065D01*
X003644Y009144D02*
X000644Y009144D01*
X000644Y009222D02*
X003644Y009222D01*
X003644Y009301D02*
X000644Y009301D01*
X000644Y009379D02*
X003644Y009379D01*
X003644Y009458D02*
X000644Y009458D01*
X000644Y009536D02*
X003644Y009536D01*
X003644Y009615D02*
X000644Y009615D01*
X000644Y009694D02*
X003644Y009694D01*
X003644Y009772D02*
X000644Y009772D01*
X000644Y009851D02*
X003644Y009851D01*
X003644Y009929D02*
X000644Y009929D01*
X000644Y010008D02*
X003644Y010008D01*
X003644Y010086D02*
X000644Y010086D01*
X000644Y010165D02*
X003644Y010165D01*
X003644Y010243D02*
X000644Y010243D01*
X000644Y010322D02*
X003644Y010322D01*
X003644Y010400D02*
X000644Y010400D01*
X000644Y010479D02*
X003644Y010479D01*
X003644Y010557D02*
X000644Y010557D01*
X000644Y010636D02*
X003644Y010636D01*
X003644Y010715D02*
X000644Y010715D01*
X000644Y010793D02*
X003644Y010793D01*
X003644Y010872D02*
X000644Y010872D01*
X000644Y010950D02*
X003644Y010950D01*
X003644Y011029D02*
X000644Y011029D01*
X000644Y011107D02*
X003644Y011107D01*
X003644Y011186D02*
X000644Y011186D01*
X000644Y011264D02*
X003644Y011264D01*
X003644Y011343D02*
X000644Y011343D01*
X000644Y011421D02*
X003644Y011421D01*
X003644Y011500D02*
X000644Y011500D01*
X000644Y011579D02*
X003644Y011579D01*
X003644Y011657D02*
X000644Y011657D01*
X000644Y011736D02*
X002525Y011736D01*
X002455Y011814D02*
X000644Y011814D01*
X000644Y011893D02*
X002455Y011893D01*
X002455Y011971D02*
X000644Y011971D01*
X000644Y012835D02*
X000935Y012835D01*
X000924Y012914D02*
X000644Y012914D01*
X000644Y012992D02*
X000768Y012992D01*
X000739Y013071D02*
X000644Y013071D01*
X000644Y013149D02*
X000739Y013149D01*
X000739Y013228D02*
X000644Y013228D01*
X000644Y013306D02*
X000739Y013306D01*
X000739Y013385D02*
X000644Y013385D01*
X000644Y013464D02*
X000739Y013464D01*
X000739Y013542D02*
X000644Y013542D01*
X002824Y013304D02*
X002824Y019205D01*
X001902Y019205D01*
X002238Y019345D02*
X002238Y019404D01*
X002844Y019404D01*
X002844Y019345D01*
X002766Y019345D01*
X002238Y019345D01*
X002238Y019354D02*
X002844Y019354D01*
X002684Y019040D02*
X002238Y019040D01*
X002238Y018962D02*
X002684Y018962D01*
X002684Y018883D02*
X002194Y018883D01*
X001609Y018883D02*
X001367Y018883D01*
X001411Y018962D02*
X001565Y018962D01*
X001565Y019040D02*
X001411Y019040D01*
X001411Y019119D02*
X001565Y019119D01*
X001565Y019197D02*
X001411Y019197D01*
X001411Y019276D02*
X001565Y019276D01*
X001565Y019354D02*
X001411Y019354D01*
X001075Y019205D02*
X001075Y019544D01*
X003057Y019669D02*
X003096Y019669D01*
X003224Y019598D02*
X004441Y019598D01*
X004772Y019904D02*
X015921Y019904D01*
X015859Y019826D02*
X004834Y019826D01*
X004689Y019983D02*
X016004Y019983D01*
X015884Y017705D02*
X013823Y017705D01*
X013744Y017626D02*
X015844Y017626D01*
X015844Y017548D02*
X013666Y017548D01*
X013484Y016370D02*
X011641Y016370D01*
X011333Y016684D02*
X008602Y016684D01*
X008442Y016448D02*
X008145Y016448D01*
X008145Y016527D02*
X008363Y016527D01*
X008285Y016605D02*
X008103Y016605D01*
X008070Y016370D02*
X008520Y016370D01*
X007404Y016370D02*
X007070Y016370D01*
X007063Y016362D02*
X007145Y016445D01*
X007145Y016563D01*
X007063Y016645D01*
X006945Y016645D01*
X006862Y016563D01*
X006862Y016445D01*
X006945Y016362D01*
X007063Y016362D01*
X007145Y016448D02*
X007404Y016448D01*
X007404Y016527D02*
X007145Y016527D01*
X007103Y016605D02*
X007404Y016605D01*
X007404Y016684D02*
X003204Y016684D01*
X003204Y016762D02*
X007404Y016762D01*
X007404Y016841D02*
X003204Y016841D01*
X003204Y016919D02*
X006417Y016919D01*
X006364Y016998D02*
X003204Y016998D01*
X003204Y017077D02*
X006364Y017077D01*
X006364Y017155D02*
X003204Y017155D01*
X003204Y017234D02*
X006443Y017234D01*
X006634Y017312D02*
X003204Y017312D01*
X003204Y017391D02*
X006713Y017391D01*
X006791Y017469D02*
X003204Y017469D01*
X003204Y017548D02*
X006844Y017548D01*
X006844Y017626D02*
X003204Y017626D01*
X003204Y017644D02*
X003225Y017644D01*
X003284Y017702D01*
X003284Y017964D01*
X006526Y017964D01*
X006642Y017964D01*
X006724Y018046D01*
X006844Y017941D02*
X003284Y017941D01*
X003284Y017862D02*
X006844Y017862D01*
X006844Y017783D02*
X003284Y017783D01*
X003284Y017705D02*
X006844Y017705D01*
X006804Y016998D02*
X007440Y016998D01*
X007404Y016919D02*
X006751Y016919D01*
X006905Y016605D02*
X006103Y016605D01*
X006063Y016645D02*
X005945Y016645D01*
X005862Y016563D01*
X005862Y016445D01*
X005945Y016362D01*
X006063Y016362D01*
X006145Y016445D01*
X006145Y016563D01*
X006063Y016645D01*
X006145Y016527D02*
X006862Y016527D01*
X006862Y016448D02*
X006145Y016448D01*
X006070Y016370D02*
X006938Y016370D01*
X007404Y016291D02*
X003204Y016291D01*
X003204Y016213D02*
X007404Y016213D01*
X007404Y016134D02*
X003204Y016134D01*
X003204Y016056D02*
X007404Y016056D01*
X007404Y015977D02*
X003204Y015977D01*
X003204Y015898D02*
X007404Y015898D01*
X007404Y015820D02*
X003204Y015820D01*
X003204Y015741D02*
X007404Y015741D01*
X007404Y015663D02*
X003204Y015663D01*
X003204Y015584D02*
X007404Y015584D01*
X007404Y015506D02*
X003204Y015506D01*
X003204Y015427D02*
X007404Y015427D01*
X007404Y015349D02*
X003204Y015349D01*
X003204Y015270D02*
X007404Y015270D01*
X007404Y015192D02*
X003204Y015192D01*
X003204Y015113D02*
X007404Y015113D01*
X007404Y015034D02*
X003204Y015034D01*
X003204Y014956D02*
X007404Y014956D01*
X007404Y014877D02*
X003204Y014877D01*
X003204Y014799D02*
X007404Y014799D01*
X007404Y014720D02*
X003204Y014720D01*
X003204Y014642D02*
X007404Y014642D01*
X007404Y014563D02*
X003204Y014563D01*
X003204Y014485D02*
X007404Y014485D01*
X007404Y014406D02*
X003804Y014406D01*
X003804Y014415D02*
X003745Y014474D01*
X003422Y014474D01*
X003364Y014415D01*
X003364Y014394D01*
X003204Y014394D01*
X003204Y017644D01*
X003064Y017864D02*
X003064Y014264D01*
X003204Y014406D02*
X003364Y014406D01*
X003364Y014092D02*
X003422Y014034D01*
X003745Y014034D01*
X003804Y014092D01*
X003804Y014415D01*
X003804Y014328D02*
X007404Y014328D01*
X007404Y014249D02*
X006477Y014249D01*
X006555Y014170D02*
X007404Y014170D01*
X007404Y014092D02*
X006634Y014092D01*
X006644Y014013D02*
X007404Y014013D01*
X007404Y013935D02*
X006644Y013935D01*
X006644Y013856D02*
X007404Y013856D01*
X007432Y013778D02*
X006644Y013778D01*
X006644Y013699D02*
X007511Y013699D01*
X007515Y013621D02*
X007273Y013621D01*
X007316Y013542D02*
X007471Y013542D01*
X007471Y013464D02*
X007316Y013464D01*
X007316Y013385D02*
X007471Y013385D01*
X007471Y013306D02*
X007316Y013306D01*
X007316Y013228D02*
X007471Y013228D01*
X007471Y013149D02*
X007316Y013149D01*
X007316Y013071D02*
X007471Y013071D01*
X007807Y013299D02*
X008012Y013504D01*
X008254Y013504D01*
X008286Y013284D02*
X008143Y013284D01*
X008143Y013141D01*
X008286Y013284D01*
X008230Y013228D02*
X008143Y013228D01*
X008143Y013149D02*
X008151Y013149D01*
X007965Y012963D02*
X007924Y012922D01*
X007924Y012963D01*
X007965Y012963D01*
X008084Y012446D02*
X008002Y012364D01*
X006840Y012835D02*
X006771Y012835D01*
X006840Y012914D02*
X006692Y012914D01*
X006673Y012992D02*
X006644Y012992D01*
X006644Y013071D02*
X006644Y013071D01*
X006644Y013149D02*
X006644Y013149D01*
X006644Y013228D02*
X006644Y013228D01*
X006644Y013306D02*
X006644Y013306D01*
X006644Y013385D02*
X006644Y013385D01*
X006644Y013464D02*
X006644Y013464D01*
X006644Y013542D02*
X006644Y013542D01*
X006644Y013621D02*
X006688Y013621D01*
X006344Y013864D02*
X006184Y014024D01*
X004984Y014024D01*
X004344Y013384D01*
X004824Y013224D02*
X004824Y009464D01*
X004984Y009304D01*
X005135Y009144D02*
X005346Y009144D01*
X005268Y009222D02*
X005204Y009222D01*
X005425Y009065D02*
X004244Y009065D01*
X004244Y008987D02*
X005503Y008987D01*
X005582Y008908D02*
X004244Y008908D01*
X004244Y008830D02*
X005660Y008830D01*
X005739Y008751D02*
X004244Y008751D01*
X004244Y008672D02*
X005817Y008672D01*
X005896Y008594D02*
X004244Y008594D01*
X004244Y008358D02*
X004767Y008358D01*
X004689Y008280D02*
X004244Y008280D01*
X004244Y008201D02*
X004684Y008201D01*
X004684Y008123D02*
X004241Y008123D01*
X004244Y009144D02*
X004833Y009144D01*
X004764Y009222D02*
X004244Y009222D01*
X004244Y009301D02*
X004764Y009301D01*
X004711Y009379D02*
X004244Y009379D01*
X004244Y009458D02*
X004684Y009458D01*
X004684Y009536D02*
X004244Y009536D01*
X004244Y009615D02*
X004684Y009615D01*
X004684Y009694D02*
X004244Y009694D01*
X004244Y009772D02*
X004684Y009772D01*
X004684Y009851D02*
X004244Y009851D01*
X004244Y009929D02*
X004684Y009929D01*
X004684Y010008D02*
X004244Y010008D01*
X004244Y010086D02*
X004684Y010086D01*
X004684Y010165D02*
X004244Y010165D01*
X004244Y010243D02*
X004684Y010243D01*
X004684Y010322D02*
X004244Y010322D01*
X004244Y010400D02*
X004684Y010400D01*
X004684Y010479D02*
X004244Y010479D01*
X004244Y010557D02*
X004684Y010557D01*
X004684Y010636D02*
X004244Y010636D01*
X004244Y010715D02*
X004684Y010715D01*
X004684Y010793D02*
X004244Y010793D01*
X004244Y010872D02*
X004684Y010872D01*
X004684Y010950D02*
X004244Y010950D01*
X004244Y011029D02*
X004684Y011029D01*
X004684Y011107D02*
X004244Y011107D01*
X004244Y011186D02*
X004684Y011186D01*
X004684Y011264D02*
X004244Y011264D01*
X004244Y011343D02*
X004684Y011343D01*
X004684Y011421D02*
X004244Y011421D01*
X004244Y011500D02*
X004684Y011500D01*
X004684Y011579D02*
X004244Y011579D01*
X004244Y011657D02*
X004684Y011657D01*
X004684Y011736D02*
X004244Y011736D01*
X004244Y011814D02*
X004684Y011814D01*
X004684Y011893D02*
X004244Y011893D01*
X004244Y011971D02*
X004684Y011971D01*
X004684Y012050D02*
X004244Y012050D01*
X004244Y012128D02*
X004684Y012128D01*
X004684Y012207D02*
X004244Y012207D01*
X004244Y012285D02*
X004684Y012285D01*
X004684Y012364D02*
X004244Y012364D01*
X004244Y012443D02*
X004684Y012443D01*
X004684Y012521D02*
X004244Y012521D01*
X003804Y012373D02*
X003795Y012364D01*
X004964Y012757D02*
X005660Y012757D01*
X005604Y012835D02*
X004964Y012835D01*
X004964Y012914D02*
X005604Y012914D01*
X005604Y012992D02*
X004964Y012992D01*
X004964Y013071D02*
X005680Y013071D01*
X005684Y013149D02*
X004964Y013149D01*
X005026Y013228D02*
X005684Y013228D01*
X005684Y013306D02*
X005104Y013306D01*
X005183Y013385D02*
X005632Y013385D01*
X005604Y013464D02*
X005262Y013464D01*
X005340Y013542D02*
X005604Y013542D01*
X005630Y013621D02*
X005419Y013621D01*
X005384Y013784D02*
X004824Y013224D01*
X004534Y014092D02*
X003803Y014092D01*
X003804Y014170D02*
X004612Y014170D01*
X004824Y014184D02*
X006344Y014184D01*
X006504Y014024D01*
X006504Y012904D01*
X006744Y012664D01*
X006744Y011624D01*
X006593Y011464D02*
X006573Y011444D01*
X006484Y011444D01*
X006484Y012726D01*
X006604Y012606D01*
X006604Y011795D01*
X006524Y011715D01*
X006524Y011533D01*
X006593Y011464D01*
X006557Y011500D02*
X006484Y011500D01*
X006484Y011579D02*
X006524Y011579D01*
X006524Y011657D02*
X006484Y011657D01*
X006484Y011736D02*
X006545Y011736D01*
X006604Y011814D02*
X006484Y011814D01*
X006484Y011893D02*
X006604Y011893D01*
X006604Y011971D02*
X006484Y011971D01*
X006484Y012050D02*
X006604Y012050D01*
X006604Y012128D02*
X006484Y012128D01*
X006484Y012207D02*
X006604Y012207D01*
X006604Y012285D02*
X006484Y012285D01*
X006484Y012364D02*
X006604Y012364D01*
X006604Y012443D02*
X006484Y012443D01*
X006484Y012521D02*
X006604Y012521D01*
X006604Y012600D02*
X006484Y012600D01*
X006484Y012678D02*
X006532Y012678D01*
X006204Y012128D02*
X005271Y012128D01*
X005349Y012050D02*
X006204Y012050D01*
X006204Y011971D02*
X005364Y011971D01*
X005364Y011893D02*
X006204Y011893D01*
X006204Y011814D02*
X005325Y011814D01*
X005284Y011736D02*
X006204Y011736D01*
X006204Y011657D02*
X005284Y011657D01*
X005284Y011579D02*
X006204Y011579D01*
X006204Y011500D02*
X005284Y011500D01*
X005284Y011421D02*
X006204Y011421D01*
X006204Y011343D02*
X005284Y011343D01*
X005284Y011264D02*
X006204Y011264D01*
X006264Y011186D02*
X005284Y011186D01*
X005284Y011107D02*
X006629Y011107D01*
X006840Y011029D02*
X005284Y011029D01*
X005284Y010950D02*
X006840Y010950D01*
X006840Y010872D02*
X005284Y010872D01*
X005284Y010793D02*
X006840Y010793D01*
X006840Y010715D02*
X005284Y010715D01*
X005284Y010636D02*
X006840Y010636D01*
X006840Y010086D02*
X006637Y010086D01*
X006525Y009772D02*
X005284Y009772D01*
X005284Y009694D02*
X006603Y009694D01*
X006604Y009615D02*
X005284Y009615D01*
X005349Y009536D02*
X006604Y009536D01*
X006604Y009458D02*
X005428Y009458D01*
X005506Y009379D02*
X006604Y009379D01*
X006604Y009301D02*
X005585Y009301D01*
X005664Y009222D02*
X006604Y009222D01*
X006604Y009144D02*
X005742Y009144D01*
X005821Y009065D02*
X006604Y009065D01*
X006604Y008987D02*
X005899Y008987D01*
X005978Y008908D02*
X006604Y008908D01*
X006358Y008830D02*
X006056Y008830D01*
X005004Y009524D02*
X004964Y009524D01*
X004964Y011813D01*
X005004Y011773D01*
X005004Y009602D01*
X005004Y009524D01*
X005004Y009536D02*
X004964Y009536D01*
X004964Y009615D02*
X005004Y009615D01*
X005004Y009694D02*
X004964Y009694D01*
X004964Y009772D02*
X005004Y009772D01*
X005004Y009851D02*
X004964Y009851D01*
X004964Y009929D02*
X005004Y009929D01*
X005004Y010008D02*
X004964Y010008D01*
X004964Y010086D02*
X005004Y010086D01*
X005004Y010165D02*
X004964Y010165D01*
X004964Y010243D02*
X005004Y010243D01*
X005004Y010322D02*
X004964Y010322D01*
X004964Y010400D02*
X005004Y010400D01*
X005004Y010479D02*
X004964Y010479D01*
X004964Y010557D02*
X005004Y010557D01*
X005004Y010636D02*
X004964Y010636D01*
X004964Y010715D02*
X005004Y010715D01*
X005004Y010793D02*
X004964Y010793D01*
X004964Y010872D02*
X005004Y010872D01*
X005004Y010950D02*
X004964Y010950D01*
X004964Y011029D02*
X005004Y011029D01*
X005004Y011107D02*
X004964Y011107D01*
X004964Y011186D02*
X005004Y011186D01*
X005004Y011264D02*
X004964Y011264D01*
X004964Y011343D02*
X005004Y011343D01*
X005004Y011421D02*
X004964Y011421D01*
X004964Y011500D02*
X005004Y011500D01*
X005004Y011579D02*
X004964Y011579D01*
X004964Y011657D02*
X005004Y011657D01*
X005004Y011736D02*
X004964Y011736D01*
X005824Y012904D02*
X005824Y013504D01*
X006344Y013864D02*
X006344Y011304D01*
X006744Y011304D01*
X008804Y013621D02*
X008863Y013621D01*
X008804Y013699D02*
X008941Y013699D01*
X009020Y013778D02*
X008741Y013778D01*
X008068Y013699D02*
X007907Y013699D01*
X005938Y016370D02*
X005070Y016370D01*
X005063Y016362D02*
X005145Y016445D01*
X005145Y016563D01*
X005063Y016645D01*
X004945Y016645D01*
X004862Y016563D01*
X004862Y016445D01*
X004945Y016362D01*
X005063Y016362D01*
X005145Y016448D02*
X005862Y016448D01*
X005862Y016527D02*
X005145Y016527D01*
X005103Y016605D02*
X005905Y016605D01*
X004938Y016370D02*
X004070Y016370D01*
X004063Y016362D02*
X004145Y016445D01*
X004145Y016563D01*
X004063Y016645D01*
X003945Y016645D01*
X003862Y016563D01*
X003862Y016445D01*
X003945Y016362D01*
X004063Y016362D01*
X004145Y016448D02*
X004862Y016448D01*
X004862Y016527D02*
X004145Y016527D01*
X004103Y016605D02*
X004905Y016605D01*
X003938Y016370D02*
X003204Y016370D01*
X003204Y016448D02*
X003862Y016448D01*
X003862Y016527D02*
X003204Y016527D01*
X003204Y016605D02*
X003905Y016605D01*
X003224Y018344D02*
X003224Y019598D01*
X003364Y019433D02*
X003991Y019433D01*
X003991Y019354D02*
X003364Y019354D01*
X003364Y019276D02*
X003991Y019276D01*
X003991Y019197D02*
X003364Y019197D01*
X003364Y019119D02*
X003991Y019119D01*
X003991Y019040D02*
X003364Y019040D01*
X003364Y018962D02*
X003991Y018962D01*
X003991Y018883D02*
X003364Y018883D01*
X003364Y018805D02*
X003993Y018805D01*
X004025Y018726D02*
X003364Y018726D01*
X003364Y018647D02*
X004058Y018647D01*
X004134Y018569D02*
X003364Y018569D01*
X006980Y019205D02*
X006980Y019544D01*
X007316Y019354D02*
X007471Y019354D01*
X007471Y019276D02*
X007316Y019276D01*
X013524Y015584D02*
X013634Y015584D01*
X013612Y015506D02*
X013524Y015506D01*
X011768Y010479D02*
X011720Y010479D01*
X009982Y007573D02*
X008696Y007573D01*
X008724Y007494D02*
X009903Y007494D01*
X008504Y008184D02*
X007144Y008184D01*
X007284Y008358D02*
X008297Y008358D01*
X008311Y007573D02*
X008143Y007573D01*
X007471Y007573D02*
X007316Y007573D01*
X007316Y007494D02*
X007471Y007494D01*
X007471Y007416D02*
X007316Y007416D01*
X007316Y007337D02*
X007471Y007337D01*
X007471Y007259D02*
X007316Y007259D01*
X007316Y007180D02*
X007471Y007180D01*
X007485Y007102D02*
X007302Y007102D01*
X009009Y005531D02*
X009493Y005531D01*
X009571Y005609D02*
X009087Y005609D01*
X003206Y007644D02*
X003025Y007644D01*
X003044Y007625D01*
X003044Y007482D01*
X003164Y007602D01*
X003206Y007644D01*
X003135Y007573D02*
X003044Y007573D01*
X003044Y007494D02*
X003056Y007494D01*
X002623Y007644D02*
X002604Y007625D01*
X002604Y007604D01*
X002238Y007604D01*
X002238Y007644D01*
X002623Y007644D01*
X002593Y001996D02*
X002684Y001996D01*
X002684Y001918D02*
X002644Y001918D01*
X002644Y001839D02*
X002684Y001839D01*
X002684Y001761D02*
X002644Y001761D01*
X002644Y001682D02*
X002684Y001682D01*
X001565Y001446D02*
X001411Y001446D01*
X001411Y001368D02*
X001565Y001368D01*
X001565Y001289D02*
X001411Y001289D01*
X016381Y000661D02*
X019183Y000661D01*
X019424Y000740D02*
X016533Y000740D01*
X016612Y000818D02*
X019563Y000818D01*
X019671Y000897D02*
X016657Y000897D01*
X016690Y000975D02*
X019763Y000975D01*
X019820Y001054D02*
X016702Y001054D01*
X016702Y001132D02*
X019877Y001132D01*
X019954Y001289D02*
X019960Y001289D01*
X019954Y001368D02*
X019986Y001368D01*
X020011Y001446D02*
X019954Y001446D01*
X019954Y001525D02*
X020036Y001525D01*
X020042Y001604D02*
X019954Y001604D01*
X019954Y001682D02*
X020048Y001682D01*
X020049Y001761D02*
X019954Y001761D01*
X020049Y001839D02*
X019764Y001839D01*
X019764Y001918D02*
X020049Y001918D01*
X020049Y001996D02*
X019690Y001996D01*
X019282Y013044D02*
X019128Y013044D01*
X019128Y013564D01*
X019282Y013564D01*
X019282Y013044D01*
X019282Y013071D02*
X019128Y013071D01*
X019128Y013149D02*
X019282Y013149D01*
X019282Y013228D02*
X019128Y013228D01*
X019128Y013306D02*
X019282Y013306D01*
X019282Y013385D02*
X019128Y013385D01*
X019128Y013464D02*
X019282Y013464D01*
X019282Y013542D02*
X019128Y013542D01*
X019731Y015820D02*
X020049Y015820D01*
X020049Y015898D02*
X019881Y015898D01*
X019960Y015977D02*
X020049Y015977D01*
X020049Y016056D02*
X020004Y016056D01*
X020037Y016134D02*
X020049Y016134D01*
X020048Y016213D02*
X020049Y016213D01*
X020048Y016291D02*
X020049Y016291D01*
X020037Y016370D02*
X020049Y016370D01*
X020049Y016448D02*
X020004Y016448D01*
X019960Y016527D02*
X020049Y016527D01*
X020049Y016605D02*
X019881Y016605D01*
X019732Y016684D02*
X020049Y016684D01*
D17*
X016984Y014904D03*
X016064Y017504D03*
X014264Y016744D03*
X013254Y017254D03*
X013224Y016744D03*
X013224Y016344D03*
X010984Y016964D03*
X010664Y016964D03*
X010344Y016964D03*
X010024Y016964D03*
X009704Y016964D03*
X008584Y016964D03*
X008584Y016084D03*
X009144Y015204D03*
X008254Y013504D03*
X006024Y015604D03*
X003584Y014254D03*
X005864Y012184D03*
X004424Y010344D03*
X004424Y009544D03*
X003464Y009544D03*
X003464Y009944D03*
X003464Y010344D03*
X003464Y010744D03*
X003464Y011064D03*
X003224Y008184D03*
X002824Y008184D03*
X002824Y007464D03*
X002584Y007144D03*
X003624Y006664D03*
X005464Y006664D03*
X006744Y006024D03*
X006744Y005704D03*
X006504Y004264D03*
X007224Y002184D03*
X008024Y002184D03*
X010264Y003944D03*
X010264Y004264D03*
X010664Y004264D03*
X010664Y003944D03*
X011064Y003944D03*
X012024Y005704D03*
X012804Y006904D03*
X013304Y008184D03*
X013544Y009144D03*
X015464Y007224D03*
X017384Y007224D03*
X017224Y009544D03*
X017224Y009944D03*
X017224Y010424D03*
X017224Y010824D03*
X017224Y011224D03*
X016264Y010664D03*
X016264Y010024D03*
X013544Y012264D03*
X012024Y013224D03*
X008984Y009624D03*
X008504Y008184D03*
X008504Y007384D03*
X008344Y006744D03*
X003544Y003464D03*
X001944Y003464D03*
X002424Y001784D03*
X013384Y002584D03*
X013944Y002584D03*
X014264Y003464D03*
X017704Y003384D03*
X017784Y002904D03*
X018264Y002904D03*
X003064Y017864D03*
X003224Y018344D03*
X002024Y017624D03*
M02*
