G75*
G70*
%OFA0B0*%
%FSLAX24Y24*%
%IPPOS*%
%LPD*%
%AMOC8*
5,1,8,0,0,1.08239X$1,22.5*
%
%ADD10C,0.0001*%
%ADD11C,0.0000*%
%ADD12R,0.0780X0.0220*%
%ADD13R,0.0787X0.0945*%
%ADD14R,0.0197X0.1181*%
%ADD15R,0.0315X0.0472*%
%ADD16R,0.0472X0.0315*%
%ADD17R,0.0551X0.1102*%
%ADD18R,0.0551X0.0472*%
%ADD19R,0.1102X0.0551*%
%ADD20R,0.0472X0.0551*%
%ADD21R,0.0760X0.2100*%
%ADD22R,0.0512X0.0591*%
%ADD23R,0.0591X0.0512*%
%ADD24C,0.0148*%
%ADD25R,0.0866X0.0394*%
D10*
X000504Y001685D02*
X000504Y019008D01*
X000506Y019074D01*
X000511Y019140D01*
X000521Y019206D01*
X000534Y019271D01*
X000550Y019335D01*
X000570Y019398D01*
X000594Y019460D01*
X000621Y019520D01*
X000651Y019579D01*
X000685Y019636D01*
X000722Y019691D01*
X000762Y019744D01*
X000804Y019795D01*
X000850Y019843D01*
X000898Y019889D01*
X000949Y019931D01*
X001002Y019971D01*
X001057Y020008D01*
X001114Y020042D01*
X001173Y020072D01*
X001233Y020099D01*
X001295Y020123D01*
X001358Y020143D01*
X001422Y020159D01*
X001487Y020172D01*
X001553Y020182D01*
X001619Y020187D01*
X001685Y020189D01*
X019008Y020189D01*
X019074Y020187D01*
X019140Y020182D01*
X019206Y020172D01*
X019271Y020159D01*
X019335Y020143D01*
X019398Y020123D01*
X019460Y020099D01*
X019520Y020072D01*
X019579Y020042D01*
X019636Y020008D01*
X019691Y019971D01*
X019744Y019931D01*
X019795Y019889D01*
X019843Y019843D01*
X019889Y019795D01*
X019931Y019744D01*
X019971Y019691D01*
X020008Y019636D01*
X020042Y019579D01*
X020072Y019520D01*
X020099Y019460D01*
X020123Y019398D01*
X020143Y019335D01*
X020159Y019271D01*
X020172Y019206D01*
X020182Y019140D01*
X020187Y019074D01*
X020189Y019008D01*
X020189Y001685D01*
X020187Y001619D01*
X020182Y001553D01*
X020172Y001487D01*
X020159Y001422D01*
X020143Y001358D01*
X020123Y001295D01*
X020099Y001233D01*
X020072Y001173D01*
X020042Y001114D01*
X020008Y001057D01*
X019971Y001002D01*
X019931Y000949D01*
X019889Y000898D01*
X019843Y000850D01*
X019795Y000804D01*
X019744Y000762D01*
X019691Y000722D01*
X019636Y000685D01*
X019579Y000651D01*
X019520Y000621D01*
X019460Y000594D01*
X019398Y000570D01*
X019335Y000550D01*
X019271Y000534D01*
X019206Y000521D01*
X019140Y000511D01*
X019074Y000506D01*
X019008Y000504D01*
X001685Y000504D01*
X001619Y000506D01*
X001553Y000511D01*
X001487Y000521D01*
X001422Y000534D01*
X001358Y000550D01*
X001295Y000570D01*
X001233Y000594D01*
X001173Y000621D01*
X001114Y000651D01*
X001057Y000685D01*
X001002Y000722D01*
X000949Y000762D01*
X000898Y000804D01*
X000850Y000850D01*
X000804Y000898D01*
X000762Y000949D01*
X000722Y001002D01*
X000685Y001057D01*
X000651Y001114D01*
X000621Y001173D01*
X000594Y001233D01*
X000570Y001295D01*
X000550Y001358D01*
X000534Y001422D01*
X000521Y001487D01*
X000511Y001553D01*
X000506Y001619D01*
X000504Y001685D01*
D11*
X006351Y003260D02*
X006353Y003286D01*
X006359Y003312D01*
X006369Y003337D01*
X006382Y003360D01*
X006398Y003380D01*
X006418Y003398D01*
X006440Y003413D01*
X006463Y003425D01*
X006489Y003433D01*
X006515Y003437D01*
X006541Y003437D01*
X006567Y003433D01*
X006593Y003425D01*
X006617Y003413D01*
X006638Y003398D01*
X006658Y003380D01*
X006674Y003360D01*
X006687Y003337D01*
X006697Y003312D01*
X006703Y003286D01*
X006705Y003260D01*
X006703Y003234D01*
X006697Y003208D01*
X006687Y003183D01*
X006674Y003160D01*
X006658Y003140D01*
X006638Y003122D01*
X006616Y003107D01*
X006593Y003095D01*
X006567Y003087D01*
X006541Y003083D01*
X006515Y003083D01*
X006489Y003087D01*
X006463Y003095D01*
X006439Y003107D01*
X006418Y003122D01*
X006398Y003140D01*
X006382Y003160D01*
X006369Y003183D01*
X006359Y003208D01*
X006353Y003234D01*
X006351Y003260D01*
X008083Y003260D02*
X008085Y003286D01*
X008091Y003312D01*
X008101Y003337D01*
X008114Y003360D01*
X008130Y003380D01*
X008150Y003398D01*
X008172Y003413D01*
X008195Y003425D01*
X008221Y003433D01*
X008247Y003437D01*
X008273Y003437D01*
X008299Y003433D01*
X008325Y003425D01*
X008349Y003413D01*
X008370Y003398D01*
X008390Y003380D01*
X008406Y003360D01*
X008419Y003337D01*
X008429Y003312D01*
X008435Y003286D01*
X008437Y003260D01*
X008435Y003234D01*
X008429Y003208D01*
X008419Y003183D01*
X008406Y003160D01*
X008390Y003140D01*
X008370Y003122D01*
X008348Y003107D01*
X008325Y003095D01*
X008299Y003087D01*
X008273Y003083D01*
X008247Y003083D01*
X008221Y003087D01*
X008195Y003095D01*
X008171Y003107D01*
X008150Y003122D01*
X008130Y003140D01*
X008114Y003160D01*
X008101Y003183D01*
X008091Y003208D01*
X008085Y003234D01*
X008083Y003260D01*
X011753Y015504D02*
X011753Y015505D01*
X011754Y015505D01*
X011755Y015505D01*
X011755Y015504D01*
X011755Y015503D01*
X011754Y015503D01*
X011753Y015503D01*
X011753Y015504D01*
X012753Y015504D02*
X012753Y015505D01*
X012754Y015505D01*
X012755Y015505D01*
X012755Y015504D01*
X012755Y015503D01*
X012754Y015503D01*
X012753Y015503D01*
X012753Y015504D01*
X013753Y015504D02*
X013753Y015505D01*
X013754Y015505D01*
X013755Y015505D01*
X013755Y015504D01*
X013755Y015503D01*
X013754Y015503D01*
X013753Y015503D01*
X013753Y015504D01*
X014753Y015504D02*
X014753Y015505D01*
X014754Y015505D01*
X014755Y015505D01*
X014755Y015504D01*
X014755Y015503D01*
X014754Y015503D01*
X014753Y015503D01*
X014753Y015504D01*
X015753Y015504D02*
X015753Y015505D01*
X015754Y015505D01*
X015755Y015505D01*
X015755Y015504D01*
X015755Y015503D01*
X015754Y015503D01*
X015753Y015503D01*
X015753Y015504D01*
X008003Y016504D02*
X008003Y016505D01*
X008004Y016505D01*
X008005Y016505D01*
X008005Y016504D01*
X008005Y016503D01*
X008004Y016503D01*
X008003Y016503D01*
X008003Y016504D01*
X007003Y016504D02*
X007003Y016505D01*
X007004Y016505D01*
X007005Y016505D01*
X007005Y016504D01*
X007005Y016503D01*
X007004Y016503D01*
X007003Y016503D01*
X007003Y016504D01*
X006003Y016504D02*
X006003Y016505D01*
X006004Y016505D01*
X006005Y016505D01*
X006005Y016504D01*
X006005Y016503D01*
X006004Y016503D01*
X006003Y016503D01*
X006003Y016504D01*
X005003Y016504D02*
X005003Y016505D01*
X005004Y016505D01*
X005005Y016505D01*
X005005Y016504D01*
X005005Y016503D01*
X005004Y016503D01*
X005003Y016503D01*
X005003Y016504D01*
X004003Y016504D02*
X004003Y016505D01*
X004004Y016505D01*
X004005Y016505D01*
X004005Y016504D01*
X004005Y016503D01*
X004004Y016503D01*
X004003Y016503D01*
X004003Y016504D01*
D12*
X004804Y015254D03*
X004804Y014754D03*
X004804Y014254D03*
X004804Y013754D03*
X004804Y013254D03*
X004804Y012754D03*
X004804Y012254D03*
X006744Y012254D03*
X006744Y012754D03*
X006744Y013254D03*
X006744Y013754D03*
X006744Y014254D03*
X006744Y014754D03*
X006744Y015254D03*
X010994Y014256D03*
X010994Y013756D03*
X010994Y013256D03*
X010994Y012756D03*
X010994Y012256D03*
X010994Y011756D03*
X010994Y011256D03*
X010994Y010756D03*
X010994Y010256D03*
X010994Y009756D03*
X010994Y009256D03*
X010994Y008756D03*
X010994Y008256D03*
X010994Y007756D03*
X014554Y007756D03*
X014554Y008256D03*
X014554Y008756D03*
X014554Y009256D03*
X014554Y009756D03*
X014554Y010256D03*
X014554Y010756D03*
X014554Y011256D03*
X014554Y011756D03*
X014554Y012256D03*
X014554Y012756D03*
X014554Y013256D03*
X014554Y013756D03*
X014554Y014256D03*
D13*
X009126Y004244D03*
X009126Y002669D03*
X005661Y002669D03*
X005661Y004244D03*
D14*
X006764Y004545D03*
X007079Y004545D03*
X007394Y004545D03*
X007709Y004545D03*
X008024Y004545D03*
D15*
X007920Y014004D03*
X008628Y014004D03*
X008628Y014754D03*
X007920Y014754D03*
X007920Y015504D03*
X008628Y015504D03*
D16*
X002754Y016380D03*
X002754Y017088D03*
D17*
X010936Y015444D03*
D18*
X009912Y015877D03*
X009912Y015011D03*
D19*
X007784Y010312D03*
X005754Y010242D03*
X005824Y008212D03*
D20*
X006257Y009236D03*
X005391Y009236D03*
X005321Y011266D03*
X006187Y011266D03*
X007351Y011336D03*
X008217Y011336D03*
D21*
X016254Y012154D03*
X016254Y008354D03*
D22*
X016130Y006504D03*
X016878Y006504D03*
X016878Y014004D03*
X016130Y014004D03*
X009218Y006004D03*
X008470Y006004D03*
D23*
X009754Y009630D03*
X009754Y010378D03*
X013794Y006748D03*
X013794Y006000D03*
X014764Y006000D03*
X014764Y006748D03*
X017064Y015740D03*
X017064Y016488D03*
X004484Y006668D03*
X004484Y005920D03*
X004114Y010950D03*
X004114Y011698D03*
D24*
X004225Y016922D02*
X003783Y016922D01*
X004225Y016922D02*
X004225Y016086D01*
X003783Y016086D01*
X003783Y016922D01*
X003783Y016233D02*
X004225Y016233D01*
X004225Y016380D02*
X003783Y016380D01*
X003783Y016527D02*
X004225Y016527D01*
X004225Y016674D02*
X003783Y016674D01*
X003783Y016821D02*
X004225Y016821D01*
X004783Y016922D02*
X005225Y016922D01*
X005225Y016086D01*
X004783Y016086D01*
X004783Y016922D01*
X004783Y016233D02*
X005225Y016233D01*
X005225Y016380D02*
X004783Y016380D01*
X004783Y016527D02*
X005225Y016527D01*
X005225Y016674D02*
X004783Y016674D01*
X004783Y016821D02*
X005225Y016821D01*
X005783Y016922D02*
X006225Y016922D01*
X006225Y016086D01*
X005783Y016086D01*
X005783Y016922D01*
X005783Y016233D02*
X006225Y016233D01*
X006225Y016380D02*
X005783Y016380D01*
X005783Y016527D02*
X006225Y016527D01*
X006225Y016674D02*
X005783Y016674D01*
X005783Y016821D02*
X006225Y016821D01*
X006783Y016922D02*
X007225Y016922D01*
X007225Y016086D01*
X006783Y016086D01*
X006783Y016922D01*
X006783Y016233D02*
X007225Y016233D01*
X007225Y016380D02*
X006783Y016380D01*
X006783Y016527D02*
X007225Y016527D01*
X007225Y016674D02*
X006783Y016674D01*
X006783Y016821D02*
X007225Y016821D01*
X007783Y016922D02*
X008225Y016922D01*
X008225Y016086D01*
X007783Y016086D01*
X007783Y016922D01*
X007783Y016233D02*
X008225Y016233D01*
X008225Y016380D02*
X007783Y016380D01*
X007783Y016527D02*
X008225Y016527D01*
X008225Y016674D02*
X007783Y016674D01*
X007783Y016821D02*
X008225Y016821D01*
X011533Y015086D02*
X011975Y015086D01*
X011533Y015086D02*
X011533Y015922D01*
X011975Y015922D01*
X011975Y015086D01*
X011975Y015233D02*
X011533Y015233D01*
X011533Y015380D02*
X011975Y015380D01*
X011975Y015527D02*
X011533Y015527D01*
X011533Y015674D02*
X011975Y015674D01*
X011975Y015821D02*
X011533Y015821D01*
X012533Y015086D02*
X012975Y015086D01*
X012533Y015086D02*
X012533Y015922D01*
X012975Y015922D01*
X012975Y015086D01*
X012975Y015233D02*
X012533Y015233D01*
X012533Y015380D02*
X012975Y015380D01*
X012975Y015527D02*
X012533Y015527D01*
X012533Y015674D02*
X012975Y015674D01*
X012975Y015821D02*
X012533Y015821D01*
X013533Y015086D02*
X013975Y015086D01*
X013533Y015086D02*
X013533Y015922D01*
X013975Y015922D01*
X013975Y015086D01*
X013975Y015233D02*
X013533Y015233D01*
X013533Y015380D02*
X013975Y015380D01*
X013975Y015527D02*
X013533Y015527D01*
X013533Y015674D02*
X013975Y015674D01*
X013975Y015821D02*
X013533Y015821D01*
X014533Y015086D02*
X014975Y015086D01*
X014533Y015086D02*
X014533Y015922D01*
X014975Y015922D01*
X014975Y015086D01*
X014975Y015233D02*
X014533Y015233D01*
X014533Y015380D02*
X014975Y015380D01*
X014975Y015527D02*
X014533Y015527D01*
X014533Y015674D02*
X014975Y015674D01*
X014975Y015821D02*
X014533Y015821D01*
X015533Y015086D02*
X015975Y015086D01*
X015533Y015086D02*
X015533Y015922D01*
X015975Y015922D01*
X015975Y015086D01*
X015975Y015233D02*
X015533Y015233D01*
X015533Y015380D02*
X015975Y015380D01*
X015975Y015527D02*
X015533Y015527D01*
X015533Y015674D02*
X015975Y015674D01*
X015975Y015821D02*
X015533Y015821D01*
D25*
X009763Y008510D03*
X009763Y006738D03*
X007085Y006738D03*
X007085Y008510D03*
M02*
