%
M48
M72
T01C0.0003
T02C0.0120
T03C0.0236
T04C0.0354
%
T01
X11754Y15504
X12754Y15504
X13754Y15504
X14754Y15504
X15754Y15504
X8004Y16504
X7004Y16504
X6004Y16504
X5004Y16504
X4004Y16504
T02
X2424Y1784
X1944Y3464
X3544Y3464
X6504Y4264
X6744Y5704
X6744Y6024
X7384Y5624
X7864Y5624
X8344Y6744
X8504Y7384
X8504Y8184
X8984Y9624
X6744Y9864
X6504Y10264
X6744Y11304
X6744Y11624
X7384Y11864
X7544Y12504
X8254Y13504
X8584Y13624
X9784Y14664
X9144Y15204
X8584Y16084
X8584Y16964
X9704Y16964
X10024Y16964
X10344Y16964
X10664Y16964
X10984Y16964
X11464Y16504
X13224Y16344
X13224Y16744
X13254Y17254
X14264Y16744
X16064Y17504
X16984Y14904
X13544Y12264
X12024Y13224
X11864Y10264
X11624Y10264
X11864Y8504
X11864Y8264
X11864Y7544
X11864Y7304
X11544Y7384
X10664Y7384
X10104Y7384
X9864Y5304
X9704Y5144
X10264Y4264
X10264Y3944
X10664Y3944
X10664Y4264
X11064Y3944
X12024Y5704
X12804Y6904
X13304Y8184
X13544Y9144
X15144Y9784
X15144Y10264
X15704Y11224
X16264Y10664
X16264Y10024
X15704Y9224
X17224Y9544
X17224Y9944
X17224Y10424
X17224Y10824
X17224Y11224
X17384Y7224
X15464Y7224
X14264Y3464
X13944Y2584
X13384Y2584
X17704Y3384
X17784Y2904
X18264Y2904
X8024Y2184
X7224Y2184
X5464Y6664
X4904Y7544
X4904Y8184
X4984Y9304
X4424Y9544
X4424Y10344
X3464Y10344
X3464Y9944
X3464Y9544
X3464Y10744
X3464Y11064
X3704Y12584
X3704Y13064
X4344Y12744
X5144Y11944
X5864Y12184
X5824Y12904
X5824Y13504
X6104Y13784
X6024Y15604
X6584Y17064
X6984Y18424
X3224Y18344
X3064Y17864
X2024Y17624
X3584Y14254
X6504Y8664
X6504Y7384
X3624Y6664
X2824Y7464
X2584Y7144
X2824Y8184
X3224Y8184
T03
X1094Y10346
X1094Y16252
X4441Y19598
X10346Y19598
X16252Y19598
X19598Y16252
X19598Y10346
X19598Y4441
X16252Y1094
X10346Y1094
X4441Y1094
X1094Y4441
T04
X6528Y3260
X8260Y3260
M30
