G75*
G70*
%OFA0B0*%
%FSLAX24Y24*%
%IPPOS*%
%LPD*%
%AMOC8*
5,1,8,0,0,1.08239X$1,22.5*
%
%ADD10C,0.0001*%
%ADD11C,0.0110*%
%ADD12C,0.0090*%
%ADD13C,0.0060*%
%ADD14C,0.0040*%
%ADD15C,0.0000*%
%ADD16C,0.0030*%
%ADD17C,0.0050*%
%ADD18C,0.0010*%
%ADD19R,0.0039X0.0013*%
%ADD20R,0.0065X0.0013*%
%ADD21R,0.0078X0.0013*%
%ADD22R,0.0117X0.0013*%
%ADD23R,0.0130X0.0013*%
%ADD24R,0.0169X0.0013*%
%ADD25R,0.0195X0.0013*%
%ADD26R,0.0221X0.0013*%
%ADD27R,0.0247X0.0013*%
%ADD28R,0.0273X0.0013*%
%ADD29R,0.0299X0.0013*%
%ADD30R,0.0325X0.0013*%
%ADD31R,0.0351X0.0013*%
%ADD32R,0.0377X0.0013*%
%ADD33R,0.0416X0.0013*%
%ADD34R,0.0429X0.0013*%
%ADD35R,0.0429X0.0013*%
%ADD36R,0.0429X0.0013*%
%ADD37R,0.0416X0.0013*%
%ADD38R,0.0429X0.0013*%
%ADD39R,0.0416X0.0013*%
%ADD40R,0.1937X0.0013*%
%ADD41R,0.1664X0.0013*%
%ADD42R,0.1924X0.0013*%
%ADD43R,0.1664X0.0013*%
%ADD44R,0.1898X0.0013*%
%ADD45R,0.1885X0.0013*%
%ADD46R,0.1859X0.0013*%
%ADD47R,0.1846X0.0013*%
%ADD48R,0.1820X0.0013*%
%ADD49R,0.1807X0.0013*%
%ADD50R,0.1781X0.0013*%
%ADD51R,0.1768X0.0013*%
%ADD52R,0.1755X0.0013*%
%ADD53R,0.1742X0.0013*%
%ADD54R,0.1716X0.0013*%
%ADD55R,0.1703X0.0013*%
%ADD56R,0.1677X0.0013*%
%ADD57R,0.1651X0.0013*%
%ADD58R,0.1625X0.0013*%
%ADD59R,0.1612X0.0013*%
%ADD60R,0.1586X0.0013*%
%ADD61R,0.0260X0.0013*%
%ADD62R,0.0247X0.0013*%
%ADD63R,0.0260X0.0013*%
%ADD64R,0.0247X0.0013*%
%ADD65R,0.0195X0.0013*%
%ADD66R,0.0455X0.0013*%
%ADD67R,0.1430X0.0013*%
%ADD68R,0.1157X0.0013*%
%ADD69R,0.0520X0.0013*%
%ADD70R,0.1430X0.0013*%
%ADD71R,0.1287X0.0013*%
%ADD72R,0.0585X0.0013*%
%ADD73R,0.1352X0.0013*%
%ADD74R,0.0637X0.0013*%
%ADD75R,0.1443X0.0013*%
%ADD76R,0.1378X0.0013*%
%ADD77R,0.0689X0.0013*%
%ADD78R,0.1404X0.0013*%
%ADD79R,0.0715X0.0013*%
%ADD80R,0.1443X0.0013*%
%ADD81R,0.1417X0.0013*%
%ADD82R,0.0767X0.0013*%
%ADD83R,0.0793X0.0013*%
%ADD84R,0.1443X0.0013*%
%ADD85R,0.0819X0.0013*%
%ADD86R,0.1456X0.0013*%
%ADD87R,0.0871X0.0013*%
%ADD88R,0.1469X0.0013*%
%ADD89R,0.0884X0.0013*%
%ADD90R,0.1469X0.0013*%
%ADD91R,0.0897X0.0013*%
%ADD92R,0.1482X0.0013*%
%ADD93R,0.0923X0.0013*%
%ADD94R,0.1196X0.0013*%
%ADD95R,0.1495X0.0013*%
%ADD96R,0.1456X0.0013*%
%ADD97R,0.1209X0.0013*%
%ADD98R,0.1456X0.0013*%
%ADD99R,0.1508X0.0013*%
%ADD100R,0.1209X0.0013*%
%ADD101R,0.1521X0.0013*%
%ADD102R,0.1222X0.0013*%
%ADD103R,0.2756X0.0013*%
%ADD104R,0.1989X0.0013*%
%ADD105R,0.0715X0.0013*%
%ADD106R,0.1963X0.0013*%
%ADD107R,0.1950X0.0013*%
%ADD108R,0.0676X0.0013*%
%ADD109R,0.0663X0.0013*%
%ADD110R,0.0910X0.0013*%
%ADD111R,0.0936X0.0013*%
%ADD112R,0.2548X0.0013*%
%ADD113R,0.0910X0.0013*%
%ADD114R,0.0650X0.0013*%
%ADD115R,0.2548X0.0013*%
%ADD116R,0.0897X0.0013*%
%ADD117R,0.0650X0.0013*%
%ADD118R,0.0884X0.0013*%
%ADD119R,0.1547X0.0013*%
%ADD120R,0.1547X0.0013*%
%ADD121R,0.0871X0.0013*%
%ADD122R,0.1053X0.0013*%
%ADD123R,0.0468X0.0013*%
%ADD124R,0.1053X0.0013*%
%ADD125R,0.0468X0.0013*%
%ADD126R,0.1040X0.0013*%
%ADD127R,0.1027X0.0013*%
%ADD128R,0.1027X0.0013*%
%ADD129R,0.0663X0.0013*%
%ADD130R,0.1014X0.0013*%
%ADD131R,0.1001X0.0013*%
%ADD132R,0.0702X0.0013*%
%ADD133R,0.0416X0.0013*%
%ADD134R,0.0728X0.0013*%
%ADD135R,0.0741X0.0013*%
%ADD136R,0.0754X0.0013*%
%ADD137R,0.0780X0.0013*%
%ADD138R,0.0455X0.0013*%
%ADD139R,0.0819X0.0013*%
%ADD140R,0.0832X0.0013*%
%ADD141R,0.0468X0.0013*%
%ADD142R,0.0858X0.0013*%
%ADD143R,0.0871X0.0013*%
%ADD144R,0.0403X0.0013*%
%ADD145R,0.0403X0.0013*%
%ADD146R,0.0481X0.0013*%
%ADD147R,0.0533X0.0013*%
%ADD148R,0.0403X0.0013*%
%ADD149R,0.0689X0.0013*%
%ADD150R,0.1040X0.0013*%
%ADD151R,0.0403X0.0013*%
%ADD152R,0.0728X0.0013*%
%ADD153R,0.1014X0.0013*%
%ADD154R,0.0741X0.0013*%
%ADD155R,0.0988X0.0013*%
%ADD156R,0.0975X0.0013*%
%ADD157R,0.0754X0.0013*%
%ADD158R,0.0949X0.0013*%
%ADD159R,0.0754X0.0013*%
%ADD160R,0.0923X0.0013*%
%ADD161R,0.0845X0.0013*%
%ADD162R,0.0845X0.0013*%
%ADD163R,0.0741X0.0013*%
%ADD164R,0.0728X0.0013*%
%ADD165R,0.0390X0.0013*%
%ADD166R,0.0975X0.0013*%
%ADD167R,0.0390X0.0013*%
%ADD168R,0.0988X0.0013*%
%ADD169R,0.0702X0.0013*%
%ADD170R,0.0676X0.0013*%
%ADD171R,0.0663X0.0013*%
%ADD172R,0.0481X0.0013*%
%ADD173R,0.0442X0.0013*%
%ADD174R,0.0624X0.0013*%
%ADD175R,0.0442X0.0013*%
%ADD176R,0.0611X0.0013*%
%ADD177R,0.0598X0.0013*%
%ADD178R,0.0572X0.0013*%
%ADD179R,0.1001X0.0013*%
%ADD180R,0.0949X0.0013*%
%ADD181R,0.0377X0.0013*%
%ADD182R,0.0858X0.0013*%
%ADD183R,0.0676X0.0013*%
%ADD184R,0.0858X0.0013*%
%ADD185R,0.0806X0.0013*%
%ADD186R,0.0780X0.0013*%
%ADD187R,0.0871X0.0013*%
%ADD188R,0.0767X0.0013*%
%ADD189R,0.0689X0.0013*%
%ADD190R,0.0988X0.0013*%
%ADD191R,0.0988X0.0013*%
%ADD192R,0.0962X0.0013*%
%ADD193R,0.0949X0.0013*%
%ADD194R,0.0962X0.0013*%
%ADD195R,0.0936X0.0013*%
%ADD196R,0.0858X0.0013*%
%ADD197R,0.0832X0.0013*%
%ADD198R,0.0806X0.0013*%
%ADD199R,0.0832X0.0013*%
%ADD200R,0.0702X0.0013*%
%ADD201R,0.0793X0.0013*%
%ADD202R,0.0624X0.0013*%
%ADD203R,0.0546X0.0013*%
%ADD204R,0.0364X0.0013*%
%ADD205R,0.0221X0.0013*%
%ADD206R,0.1521X0.0013*%
%ADD207R,0.1521X0.0013*%
%ADD208R,0.4394X0.0013*%
%ADD209R,0.4394X0.0013*%
D10*
X000504Y001685D02*
X000504Y019008D01*
X000506Y019074D01*
X000511Y019140D01*
X000521Y019206D01*
X000534Y019271D01*
X000550Y019335D01*
X000570Y019398D01*
X000594Y019460D01*
X000621Y019520D01*
X000651Y019579D01*
X000685Y019636D01*
X000722Y019691D01*
X000762Y019744D01*
X000804Y019795D01*
X000850Y019843D01*
X000898Y019889D01*
X000949Y019931D01*
X001002Y019971D01*
X001057Y020008D01*
X001114Y020042D01*
X001173Y020072D01*
X001233Y020099D01*
X001295Y020123D01*
X001358Y020143D01*
X001422Y020159D01*
X001487Y020172D01*
X001553Y020182D01*
X001619Y020187D01*
X001685Y020189D01*
X019008Y020189D01*
X019074Y020187D01*
X019140Y020182D01*
X019206Y020172D01*
X019271Y020159D01*
X019335Y020143D01*
X019398Y020123D01*
X019460Y020099D01*
X019520Y020072D01*
X019579Y020042D01*
X019636Y020008D01*
X019691Y019971D01*
X019744Y019931D01*
X019795Y019889D01*
X019843Y019843D01*
X019889Y019795D01*
X019931Y019744D01*
X019971Y019691D01*
X020008Y019636D01*
X020042Y019579D01*
X020072Y019520D01*
X020099Y019460D01*
X020123Y019398D01*
X020143Y019335D01*
X020159Y019271D01*
X020172Y019206D01*
X020182Y019140D01*
X020187Y019074D01*
X020189Y019008D01*
X020189Y001685D01*
X020187Y001619D01*
X020182Y001553D01*
X020172Y001487D01*
X020159Y001422D01*
X020143Y001358D01*
X020123Y001295D01*
X020099Y001233D01*
X020072Y001173D01*
X020042Y001114D01*
X020008Y001057D01*
X019971Y001002D01*
X019931Y000949D01*
X019889Y000898D01*
X019843Y000850D01*
X019795Y000804D01*
X019744Y000762D01*
X019691Y000722D01*
X019636Y000685D01*
X019579Y000651D01*
X019520Y000621D01*
X019460Y000594D01*
X019398Y000570D01*
X019335Y000550D01*
X019271Y000534D01*
X019206Y000521D01*
X019140Y000511D01*
X019074Y000506D01*
X019008Y000504D01*
X001685Y000504D01*
X001619Y000506D01*
X001553Y000511D01*
X001487Y000521D01*
X001422Y000534D01*
X001358Y000550D01*
X001295Y000570D01*
X001233Y000594D01*
X001173Y000621D01*
X001114Y000651D01*
X001057Y000685D01*
X001002Y000722D01*
X000949Y000762D01*
X000898Y000804D01*
X000850Y000850D01*
X000804Y000898D01*
X000762Y000949D01*
X000722Y001002D01*
X000685Y001057D01*
X000651Y001114D01*
X000621Y001173D01*
X000594Y001233D01*
X000570Y001295D01*
X000550Y001358D01*
X000534Y001422D01*
X000521Y001487D01*
X000511Y001553D01*
X000506Y001619D01*
X000504Y001685D01*
D11*
X001054Y003025D02*
X001500Y003025D01*
X001648Y003174D01*
X001648Y003471D01*
X001500Y003619D01*
X001054Y003619D01*
X001054Y003916D02*
X001054Y003025D01*
X005066Y001701D02*
X005066Y000811D01*
X005511Y000811D01*
X005660Y000959D01*
X005660Y001256D01*
X005511Y001404D01*
X005066Y001404D01*
X010891Y001553D02*
X010891Y000959D01*
X011040Y000811D01*
X011337Y000811D01*
X011485Y000959D01*
X010891Y001553D01*
X011040Y001701D01*
X011337Y001701D01*
X011485Y001553D01*
X011485Y000959D01*
X016797Y000959D02*
X016945Y000811D01*
X017242Y000811D01*
X017391Y000959D01*
X017391Y001256D02*
X017094Y001404D01*
X016945Y001404D01*
X016797Y001256D01*
X016797Y000959D01*
X017391Y001256D02*
X017391Y001701D01*
X016797Y001701D01*
X019209Y002982D02*
X019654Y002982D01*
X019802Y003131D01*
X019802Y003428D01*
X019654Y003576D01*
X019209Y003576D01*
X019209Y003873D02*
X019209Y002982D01*
X019277Y008931D02*
X019129Y009079D01*
X019129Y009673D01*
X019722Y009079D01*
X019574Y008931D01*
X019277Y008931D01*
X019722Y009079D02*
X019722Y009673D01*
X019574Y009822D01*
X019277Y009822D01*
X019129Y009673D01*
X019357Y014756D02*
X019654Y014756D01*
X019802Y014905D01*
X019802Y015202D02*
X019505Y015350D01*
X019357Y015350D01*
X019209Y015202D01*
X019209Y014905D01*
X019357Y014756D01*
X019802Y015202D02*
X019802Y015647D01*
X019209Y015647D01*
X017322Y018971D02*
X017025Y018971D01*
X016877Y019120D01*
X016877Y019417D01*
X017025Y019565D01*
X017174Y019565D01*
X017471Y019417D01*
X017471Y019862D01*
X016877Y019862D01*
X017471Y019120D02*
X017322Y018971D01*
X011485Y019120D02*
X010891Y019714D01*
X010891Y019120D01*
X011040Y018971D01*
X011337Y018971D01*
X011485Y019120D01*
X011485Y019714D01*
X011337Y019862D01*
X011040Y019862D01*
X010891Y019714D01*
X005660Y019373D02*
X005660Y019076D01*
X005511Y018928D01*
X005066Y018928D01*
X005066Y019819D01*
X005066Y019522D02*
X005511Y019522D01*
X005660Y019373D01*
X001605Y015647D02*
X001605Y015202D01*
X001308Y015350D01*
X001159Y015350D01*
X001011Y015202D01*
X001011Y014905D01*
X001159Y014756D01*
X001456Y014756D01*
X001605Y014905D01*
X001605Y015647D02*
X001011Y015647D01*
X001159Y009822D02*
X001011Y009673D01*
X001605Y009079D01*
X001456Y008931D01*
X001159Y008931D01*
X001011Y009079D01*
X001011Y009673D01*
X001159Y009822D02*
X001456Y009822D01*
X001605Y009673D01*
X001605Y009079D01*
D12*
X003734Y017239D02*
X004083Y017239D01*
X004199Y017355D01*
X004199Y017588D01*
X004083Y017704D01*
X003734Y017704D01*
X004774Y017704D02*
X005123Y017704D01*
X005239Y017588D01*
X005239Y017355D01*
X005123Y017239D01*
X004774Y017239D01*
X004774Y017937D01*
X005764Y017448D02*
X006229Y017448D01*
X006735Y017452D02*
X007201Y017452D01*
X006968Y017684D02*
X006968Y017219D01*
X007764Y017644D02*
X007996Y017179D01*
X008229Y017644D01*
X011494Y016704D02*
X011843Y016704D01*
X011959Y016588D01*
X011959Y016355D01*
X011843Y016239D01*
X011494Y016239D01*
X012534Y016239D02*
X012883Y016239D01*
X012999Y016355D01*
X012999Y016588D01*
X012883Y016704D01*
X012534Y016704D01*
X012534Y016937D02*
X012534Y016239D01*
X013524Y016448D02*
X013989Y016448D01*
X014495Y016452D02*
X014961Y016452D01*
X014728Y016684D02*
X014728Y016219D01*
X015524Y016644D02*
X015756Y016179D01*
X015989Y016644D01*
D13*
X017954Y015326D02*
X017954Y015106D01*
X018027Y015033D01*
X018174Y015033D01*
X018248Y015106D01*
X018248Y015326D01*
X018394Y015326D02*
X017954Y015326D01*
X017954Y014873D02*
X017954Y014726D01*
X017954Y014799D02*
X018248Y014799D01*
X018248Y014726D01*
X018394Y014799D02*
X018468Y014799D01*
X018248Y014562D02*
X018248Y014489D01*
X018101Y014342D01*
X017954Y014342D02*
X018248Y014342D01*
X018321Y014175D02*
X018394Y014102D01*
X018394Y013955D01*
X018321Y013882D01*
X018027Y013882D01*
X017954Y013955D01*
X017954Y014102D01*
X018027Y014175D01*
X018174Y014175D01*
X018174Y014029D01*
X017954Y013722D02*
X017954Y013575D01*
X017954Y013648D02*
X018394Y013648D01*
X018394Y013575D01*
X018174Y013408D02*
X018248Y013335D01*
X018248Y013188D01*
X018174Y013115D01*
X018027Y013115D01*
X017954Y013188D01*
X017954Y013335D01*
X018027Y013408D01*
X018174Y013408D01*
X018174Y012948D02*
X018174Y012801D01*
X018174Y012948D02*
X018027Y012948D01*
X017954Y012874D01*
X017954Y012728D01*
X018027Y012654D01*
X018321Y012654D01*
X018394Y012728D01*
X018394Y012874D01*
X018321Y012948D01*
X018394Y012487D02*
X017954Y012194D01*
X017954Y012027D02*
X018174Y012027D01*
X018248Y011954D01*
X018174Y011880D01*
X017954Y011880D01*
X017954Y011733D02*
X018248Y011733D01*
X018248Y011807D01*
X018174Y011880D01*
X018174Y011567D02*
X018248Y011493D01*
X018248Y011346D01*
X018174Y011273D01*
X018027Y011273D01*
X017954Y011346D01*
X017954Y011493D01*
X018027Y011567D01*
X018174Y011567D01*
X018248Y011106D02*
X018248Y010886D01*
X018174Y010813D01*
X018027Y010813D01*
X017954Y010886D01*
X017954Y011106D01*
X017954Y010656D02*
X017954Y010583D01*
X018027Y010583D01*
X018027Y010656D01*
X017954Y010656D01*
X018027Y010416D02*
X018101Y010342D01*
X018101Y010196D01*
X018174Y010122D01*
X018248Y010196D01*
X018248Y010416D01*
X018027Y010416D02*
X017954Y010342D01*
X017954Y010122D01*
X018027Y009955D02*
X017954Y009882D01*
X017954Y009662D01*
X018394Y009662D01*
X018248Y009662D02*
X018248Y009882D01*
X018174Y009955D01*
X018027Y009955D01*
X017954Y009495D02*
X017954Y009275D01*
X018027Y009202D01*
X018101Y009275D01*
X018101Y009495D01*
X018174Y009495D02*
X017954Y009495D01*
X018174Y009495D02*
X018248Y009422D01*
X018248Y009275D01*
X017954Y009035D02*
X017954Y008741D01*
X018394Y008741D01*
X018174Y008574D02*
X017954Y008574D01*
X017954Y008428D02*
X018174Y008428D01*
X018248Y008501D01*
X018174Y008574D01*
X018174Y008428D02*
X018248Y008354D01*
X018248Y008281D01*
X017954Y008281D01*
X018027Y008114D02*
X018174Y008114D01*
X018248Y008041D01*
X018248Y007894D01*
X018174Y007820D01*
X018027Y007820D01*
X017954Y007894D01*
X017954Y008041D01*
X018027Y008114D01*
X018027Y007654D02*
X017954Y007580D01*
X017954Y007434D01*
X018027Y007360D01*
X018174Y007360D01*
X018248Y007434D01*
X018248Y007580D01*
X018174Y007654D01*
X018027Y007654D01*
X017954Y007193D02*
X018101Y007047D01*
X018101Y007120D02*
X018101Y006900D01*
X017954Y006900D02*
X018394Y006900D01*
X018394Y007120D01*
X018321Y007193D01*
X018174Y007193D01*
X018101Y007120D01*
X017954Y006740D02*
X017954Y006593D01*
X017954Y006666D02*
X018394Y006666D01*
X018394Y006593D01*
X018394Y006359D02*
X017954Y006359D01*
X017954Y006286D02*
X017954Y006433D01*
X017954Y006119D02*
X017954Y005899D01*
X018027Y005826D01*
X018101Y005899D01*
X018101Y006119D01*
X018174Y006119D02*
X017954Y006119D01*
X018174Y006119D02*
X018248Y006046D01*
X018248Y005899D01*
X018174Y005659D02*
X017954Y005659D01*
X017954Y005512D02*
X018174Y005512D01*
X018248Y005585D01*
X018174Y005659D01*
X018174Y005512D02*
X018248Y005439D01*
X018248Y005365D01*
X017954Y005365D01*
X018027Y005199D02*
X017954Y005125D01*
X017954Y004978D01*
X018027Y004905D01*
X018174Y004978D02*
X018174Y005125D01*
X018101Y005199D01*
X018027Y005199D01*
X018174Y004978D02*
X018248Y004905D01*
X018321Y004905D01*
X018394Y004978D01*
X018394Y005125D01*
X018321Y005199D01*
X018394Y006286D02*
X018394Y006359D01*
X015144Y009686D02*
X015044Y009686D01*
X015044Y009826D01*
X015144Y009826D02*
X015144Y009686D01*
X014254Y007486D02*
X011294Y007486D01*
X010504Y010186D02*
X010504Y010326D01*
X010404Y010326D02*
X010404Y010186D01*
X010504Y010186D01*
X008403Y010564D02*
X008403Y010981D01*
X007900Y011084D02*
X007662Y011084D01*
X007165Y010981D02*
X007165Y010564D01*
X006373Y010494D02*
X006373Y010911D01*
X005870Y011014D02*
X005632Y011014D01*
X005135Y010911D02*
X005135Y010494D01*
X005702Y008984D02*
X005940Y008984D01*
X006443Y008881D02*
X006443Y008464D01*
X005205Y008464D02*
X005205Y008881D01*
X005264Y012034D02*
X005654Y012034D01*
X005894Y012034D01*
X006284Y012034D01*
X005894Y012034D02*
X005892Y012055D01*
X005887Y012075D01*
X005878Y012094D01*
X005866Y012111D01*
X005851Y012126D01*
X005834Y012138D01*
X005815Y012147D01*
X005795Y012152D01*
X005774Y012154D01*
X005753Y012152D01*
X005733Y012147D01*
X005714Y012138D01*
X005697Y012126D01*
X005682Y012111D01*
X005670Y012094D01*
X005661Y012075D01*
X005656Y012055D01*
X005654Y012034D01*
X007264Y014244D02*
X007674Y014244D01*
X008156Y014240D02*
X008392Y014240D01*
X008392Y014518D02*
X008156Y014518D01*
X008156Y014990D02*
X008392Y014990D01*
X008392Y015268D02*
X008156Y015268D01*
X008156Y015740D02*
X008392Y015740D01*
X010164Y015560D02*
X010164Y015322D01*
X010267Y014825D02*
X010684Y014825D01*
X011294Y014526D02*
X012654Y014526D01*
X012894Y014526D01*
X014254Y014526D01*
X010684Y016063D02*
X010267Y016063D01*
X008392Y013768D02*
X008156Y013768D01*
X006284Y015474D02*
X005264Y015474D01*
X002990Y016616D02*
X002990Y016852D01*
X002518Y016852D02*
X002518Y016616D01*
D14*
X003099Y016690D02*
X003217Y016572D01*
X003217Y016631D02*
X003217Y016454D01*
X003099Y016454D02*
X003453Y016454D01*
X003453Y016631D01*
X003394Y016690D01*
X003276Y016690D01*
X003217Y016631D01*
X003276Y016816D02*
X003276Y017052D01*
X003453Y016993D02*
X003276Y016816D01*
X003099Y016993D02*
X003453Y016993D01*
X003358Y011717D02*
X003299Y011717D01*
X003240Y011658D01*
X003240Y011540D01*
X003299Y011481D01*
X003417Y011481D01*
X003417Y011658D01*
X003358Y011717D01*
X003535Y011599D02*
X003417Y011481D01*
X003535Y011599D02*
X003594Y011717D01*
X003535Y011355D02*
X003594Y011296D01*
X003594Y011178D01*
X003535Y011119D01*
X003299Y011119D01*
X003240Y011178D01*
X003240Y011296D01*
X003299Y011355D01*
X004434Y011425D02*
X004434Y011130D01*
X004670Y011130D02*
X004670Y011425D01*
X004611Y011484D01*
X004493Y011484D01*
X004434Y011425D01*
X004796Y011425D02*
X004855Y011484D01*
X004973Y011484D01*
X005032Y011425D01*
X005032Y011366D01*
X004973Y011307D01*
X004855Y011307D01*
X004796Y011248D01*
X004796Y011189D01*
X004855Y011130D01*
X004973Y011130D01*
X005032Y011189D01*
X005159Y011189D02*
X005218Y011130D01*
X005336Y011130D01*
X005395Y011189D01*
X005395Y011248D01*
X005159Y011484D01*
X005395Y011484D01*
X004914Y011543D02*
X004914Y011071D01*
X004930Y010452D02*
X004989Y010452D01*
X005048Y010393D01*
X005048Y010275D01*
X004989Y010216D01*
X004989Y010090D02*
X004753Y010090D01*
X004694Y010031D01*
X004694Y009913D01*
X004753Y009854D01*
X004989Y009854D01*
X005048Y009913D01*
X005048Y010031D01*
X004989Y010090D01*
X004812Y009972D02*
X004694Y010090D01*
X004694Y010216D02*
X004930Y010452D01*
X004694Y010452D02*
X004694Y010216D01*
X005344Y007798D02*
X005285Y007739D01*
X005285Y007680D01*
X005344Y007621D01*
X005285Y007562D01*
X005285Y007503D01*
X005344Y007444D01*
X005462Y007444D01*
X005521Y007503D01*
X005648Y007503D02*
X005707Y007444D01*
X005825Y007444D01*
X005884Y007503D01*
X005884Y007739D01*
X005825Y007798D01*
X005707Y007798D01*
X005648Y007739D01*
X005648Y007503D01*
X005648Y007444D02*
X005766Y007562D01*
X005521Y007739D02*
X005462Y007798D01*
X005344Y007798D01*
X005344Y007621D02*
X005403Y007621D01*
X004608Y005412D02*
X004549Y005412D01*
X004313Y005176D01*
X004254Y005176D01*
X004313Y005050D02*
X004254Y004991D01*
X004254Y004873D01*
X004313Y004814D01*
X004549Y004814D01*
X004608Y004873D01*
X004608Y004991D01*
X004549Y005050D01*
X004608Y005176D02*
X004608Y005412D01*
X008450Y005425D02*
X008450Y005366D01*
X008509Y005307D01*
X008627Y005307D01*
X008686Y005366D01*
X008686Y005425D01*
X008627Y005484D01*
X008509Y005484D01*
X008450Y005425D01*
X008509Y005307D02*
X008450Y005248D01*
X008450Y005189D01*
X008509Y005130D01*
X008627Y005130D01*
X008686Y005189D01*
X008686Y005248D01*
X008627Y005307D01*
X008813Y005189D02*
X008872Y005130D01*
X008990Y005130D01*
X009049Y005189D01*
X009049Y005425D01*
X008990Y005484D01*
X008872Y005484D01*
X008813Y005425D01*
X007802Y001486D02*
X007802Y001486D01*
X007775Y001146D02*
X007952Y000969D01*
X007716Y000969D01*
X007775Y000792D02*
X007775Y001146D01*
X008078Y001087D02*
X008137Y001146D01*
X008255Y001146D01*
X008314Y001087D01*
X008314Y001028D01*
X008255Y000969D01*
X008137Y000969D01*
X008078Y000910D01*
X008078Y000851D01*
X008137Y000792D01*
X008255Y000792D01*
X008314Y000851D01*
X008441Y000851D02*
X008441Y001146D01*
X008677Y001146D02*
X008677Y000851D01*
X008618Y000792D01*
X008500Y000792D01*
X008441Y000851D01*
X008196Y000733D02*
X008196Y001205D01*
X013039Y006109D02*
X012980Y006168D01*
X012980Y006286D01*
X013039Y006345D01*
X013157Y006471D02*
X013157Y006707D01*
X012980Y006648D02*
X013334Y006648D01*
X013157Y006471D01*
X013275Y006345D02*
X013334Y006286D01*
X013334Y006168D01*
X013275Y006109D01*
X013039Y006109D01*
X015210Y006168D02*
X015210Y006286D01*
X015269Y006345D01*
X015269Y006471D02*
X015210Y006530D01*
X015210Y006648D01*
X015269Y006707D01*
X015328Y006707D01*
X015387Y006648D01*
X015387Y006589D01*
X015387Y006648D02*
X015446Y006707D01*
X015505Y006707D01*
X015564Y006648D01*
X015564Y006530D01*
X015505Y006471D01*
X015505Y006345D02*
X015564Y006286D01*
X015564Y006168D01*
X015505Y006109D01*
X015269Y006109D01*
X015210Y006168D01*
X016225Y005664D02*
X016461Y005664D01*
X016343Y005664D02*
X016343Y006018D01*
X016461Y005900D01*
X016588Y005959D02*
X016647Y006018D01*
X016765Y006018D01*
X016824Y005959D01*
X016824Y005723D01*
X016765Y005664D01*
X016647Y005664D01*
X016588Y005723D01*
X017095Y007099D02*
X016977Y007217D01*
X016800Y007217D01*
X016977Y007217D02*
X017095Y007335D01*
X017154Y007335D01*
X017036Y007461D02*
X017154Y007579D01*
X016800Y007579D01*
X016800Y007461D02*
X016800Y007697D01*
X017095Y007099D02*
X017154Y007099D01*
X016650Y013130D02*
X016532Y013130D01*
X016473Y013189D01*
X016346Y013130D02*
X016110Y013366D01*
X016110Y013425D01*
X016169Y013484D01*
X016287Y013484D01*
X016346Y013425D01*
X016473Y013425D02*
X016532Y013484D01*
X016650Y013484D01*
X016709Y013425D01*
X016709Y013189D01*
X016650Y013130D01*
X016346Y013130D02*
X016110Y013130D01*
X016749Y014409D02*
X016690Y014468D01*
X016690Y014586D01*
X016749Y014645D01*
X016749Y014771D02*
X016690Y014830D01*
X016690Y014948D01*
X016749Y015007D01*
X016867Y015007D01*
X016926Y014948D01*
X016926Y014889D01*
X016867Y014771D01*
X017044Y014771D01*
X017044Y015007D01*
X016985Y014645D02*
X017044Y014586D01*
X017044Y014468D01*
X016985Y014409D01*
X016749Y014409D01*
X014614Y014875D02*
X014555Y014816D01*
X014437Y014816D01*
X014378Y014875D01*
X014378Y015170D01*
X014251Y015111D02*
X014251Y015052D01*
X014192Y014993D01*
X014074Y014993D01*
X014015Y014934D01*
X014015Y014875D01*
X014074Y014816D01*
X014192Y014816D01*
X014251Y014875D01*
X014133Y014757D02*
X014133Y015229D01*
X014074Y015170D02*
X014015Y015111D01*
X014074Y015170D02*
X014192Y015170D01*
X014251Y015111D01*
X013889Y015111D02*
X013830Y015170D01*
X013712Y015170D01*
X013653Y015111D01*
X013653Y015052D01*
X013712Y014993D01*
X013653Y014934D01*
X013653Y014875D01*
X013712Y014816D01*
X013830Y014816D01*
X013889Y014875D01*
X013771Y014993D02*
X013712Y014993D01*
X014614Y014875D02*
X014614Y015170D01*
X018052Y017804D02*
X018292Y017804D01*
X018172Y017804D02*
X018172Y018164D01*
X018292Y018044D01*
X018789Y018044D02*
X018909Y017804D01*
X019029Y018044D01*
X019157Y017984D02*
X019157Y017924D01*
X019397Y017924D01*
X019397Y017984D02*
X019337Y018044D01*
X019217Y018044D01*
X019157Y017984D01*
X019217Y017804D02*
X019337Y017804D01*
X019397Y017864D01*
X019397Y017984D01*
X019524Y018044D02*
X019584Y018044D01*
X019704Y017924D01*
X019704Y017804D02*
X019704Y018044D01*
X010949Y016565D02*
X010949Y016329D01*
X010890Y016270D01*
X010772Y016270D01*
X010713Y016329D01*
X010713Y016565D01*
X010772Y016624D01*
X010890Y016624D01*
X010949Y016565D01*
X010831Y016388D02*
X010713Y016270D01*
X010586Y016270D02*
X010350Y016270D01*
X010468Y016270D02*
X010468Y016624D01*
X010586Y016506D01*
X009243Y015973D02*
X009243Y015855D01*
X009184Y015796D01*
X009184Y015670D02*
X009066Y015670D01*
X009007Y015611D01*
X009007Y015434D01*
X009007Y015552D02*
X008889Y015670D01*
X008948Y015796D02*
X008889Y015855D01*
X008889Y015973D01*
X008948Y016032D01*
X009007Y016032D01*
X009066Y015973D01*
X009066Y015914D01*
X009066Y015973D02*
X009125Y016032D01*
X009184Y016032D01*
X009243Y015973D01*
X009184Y015670D02*
X009243Y015611D01*
X009243Y015434D01*
X008889Y015434D01*
X008919Y014992D02*
X008919Y014756D01*
X009155Y014992D01*
X009214Y014992D01*
X009273Y014933D01*
X009273Y014815D01*
X009214Y014756D01*
X009214Y014630D02*
X009096Y014630D01*
X009037Y014571D01*
X009037Y014394D01*
X009037Y014512D02*
X008919Y014630D01*
X008919Y014394D02*
X009273Y014394D01*
X009273Y014571D01*
X009214Y014630D01*
X008949Y014272D02*
X008949Y014036D01*
X008949Y014154D02*
X009303Y014154D01*
X009185Y014036D01*
X009244Y013910D02*
X009126Y013910D01*
X009067Y013851D01*
X009067Y013674D01*
X009067Y013792D02*
X008949Y013910D01*
X008949Y013674D02*
X009303Y013674D01*
X009303Y013851D01*
X009244Y013910D01*
X009659Y011357D02*
X009895Y011357D01*
X009954Y011298D01*
X009954Y011180D01*
X009895Y011121D01*
X009836Y011121D01*
X009777Y011180D01*
X009777Y011357D01*
X009659Y011357D02*
X009600Y011298D01*
X009600Y011180D01*
X009659Y011121D01*
X009659Y010995D02*
X009600Y010936D01*
X009600Y010818D01*
X009659Y010759D01*
X009895Y010759D01*
X009954Y010818D01*
X009954Y010936D01*
X009895Y010995D01*
X008329Y009845D02*
X008329Y009609D01*
X008270Y009550D01*
X008152Y009550D01*
X008093Y009609D01*
X008093Y009845D01*
X008152Y009904D01*
X008270Y009904D01*
X008329Y009845D01*
X008211Y009668D02*
X008093Y009550D01*
X007966Y009727D02*
X007730Y009727D01*
X007789Y009550D02*
X007789Y009904D01*
X007966Y009727D01*
D15*
X012654Y014526D02*
X012656Y014505D01*
X012661Y014485D01*
X012670Y014466D01*
X012682Y014449D01*
X012697Y014434D01*
X012714Y014422D01*
X012733Y014413D01*
X012753Y014408D01*
X012774Y014406D01*
X012795Y014408D01*
X012815Y014413D01*
X012834Y014422D01*
X012851Y014434D01*
X012866Y014449D01*
X012878Y014466D01*
X012887Y014485D01*
X012892Y014505D01*
X012894Y014526D01*
X012753Y015504D02*
X012753Y015505D01*
X012754Y015505D01*
X012755Y015505D01*
X012755Y015504D01*
X012755Y015503D01*
X012754Y015503D01*
X012753Y015503D01*
X012753Y015504D01*
X011753Y015504D02*
X011753Y015505D01*
X011754Y015505D01*
X011755Y015505D01*
X011755Y015504D01*
X011755Y015503D01*
X011754Y015503D01*
X011753Y015503D01*
X011753Y015504D01*
X013753Y015504D02*
X013753Y015505D01*
X013754Y015505D01*
X013755Y015505D01*
X013755Y015504D01*
X013755Y015503D01*
X013754Y015503D01*
X013753Y015503D01*
X013753Y015504D01*
X014753Y015504D02*
X014753Y015505D01*
X014754Y015505D01*
X014755Y015505D01*
X014755Y015504D01*
X014755Y015503D01*
X014754Y015503D01*
X014753Y015503D01*
X014753Y015504D01*
X015753Y015504D02*
X015753Y015505D01*
X015754Y015505D01*
X015755Y015505D01*
X015755Y015504D01*
X015755Y015503D01*
X015754Y015503D01*
X015753Y015503D01*
X015753Y015504D01*
X008003Y016504D02*
X008003Y016505D01*
X008004Y016505D01*
X008005Y016505D01*
X008005Y016504D01*
X008005Y016503D01*
X008004Y016503D01*
X008003Y016503D01*
X008003Y016504D01*
X007003Y016504D02*
X007003Y016505D01*
X007004Y016505D01*
X007005Y016505D01*
X007005Y016504D01*
X007005Y016503D01*
X007004Y016503D01*
X007003Y016503D01*
X007003Y016504D01*
X006003Y016504D02*
X006003Y016505D01*
X006004Y016505D01*
X006005Y016505D01*
X006005Y016504D01*
X006005Y016503D01*
X006004Y016503D01*
X006003Y016503D01*
X006003Y016504D01*
X005003Y016504D02*
X005003Y016505D01*
X005004Y016505D01*
X005005Y016505D01*
X005005Y016504D01*
X005005Y016503D01*
X005004Y016503D01*
X005003Y016503D01*
X005003Y016504D01*
X004003Y016504D02*
X004003Y016505D01*
X004004Y016505D01*
X004005Y016505D01*
X004005Y016504D01*
X004005Y016503D01*
X004004Y016503D01*
X004003Y016503D01*
X004003Y016504D01*
X006351Y003260D02*
X006353Y003286D01*
X006359Y003312D01*
X006369Y003337D01*
X006382Y003360D01*
X006398Y003380D01*
X006418Y003398D01*
X006440Y003413D01*
X006463Y003425D01*
X006489Y003433D01*
X006515Y003437D01*
X006541Y003437D01*
X006567Y003433D01*
X006593Y003425D01*
X006617Y003413D01*
X006638Y003398D01*
X006658Y003380D01*
X006674Y003360D01*
X006687Y003337D01*
X006697Y003312D01*
X006703Y003286D01*
X006705Y003260D01*
X006703Y003234D01*
X006697Y003208D01*
X006687Y003183D01*
X006674Y003160D01*
X006658Y003140D01*
X006638Y003122D01*
X006616Y003107D01*
X006593Y003095D01*
X006567Y003087D01*
X006541Y003083D01*
X006515Y003083D01*
X006489Y003087D01*
X006463Y003095D01*
X006439Y003107D01*
X006418Y003122D01*
X006398Y003140D01*
X006382Y003160D01*
X006369Y003183D01*
X006359Y003208D01*
X006353Y003234D01*
X006351Y003260D01*
X008083Y003260D02*
X008085Y003286D01*
X008091Y003312D01*
X008101Y003337D01*
X008114Y003360D01*
X008130Y003380D01*
X008150Y003398D01*
X008172Y003413D01*
X008195Y003425D01*
X008221Y003433D01*
X008247Y003437D01*
X008273Y003437D01*
X008299Y003433D01*
X008325Y003425D01*
X008349Y003413D01*
X008370Y003398D01*
X008390Y003380D01*
X008406Y003360D01*
X008419Y003337D01*
X008429Y003312D01*
X008435Y003286D01*
X008437Y003260D01*
X008435Y003234D01*
X008429Y003208D01*
X008419Y003183D01*
X008406Y003160D01*
X008390Y003140D01*
X008370Y003122D01*
X008348Y003107D01*
X008325Y003095D01*
X008299Y003087D01*
X008273Y003083D01*
X008247Y003083D01*
X008221Y003087D01*
X008195Y003095D01*
X008171Y003107D01*
X008150Y003122D01*
X008130Y003140D01*
X008114Y003160D01*
X008101Y003183D01*
X008091Y003208D01*
X008085Y003234D01*
X008083Y003260D01*
D16*
X004803Y011677D02*
X004489Y011991D01*
X004646Y011991D02*
X004646Y011677D01*
X004489Y011677D02*
X004803Y011991D01*
X004803Y011834D02*
X004489Y011834D01*
X014545Y014519D02*
X014859Y014833D01*
X014859Y014676D02*
X014545Y014676D01*
X014545Y014833D02*
X014859Y014519D01*
X014702Y014519D02*
X014702Y014833D01*
D17*
X014504Y014954D02*
X015004Y014954D01*
X015021Y014956D01*
X015038Y014960D01*
X015054Y014967D01*
X015068Y014977D01*
X015081Y014990D01*
X015091Y015004D01*
X015098Y015020D01*
X015102Y015037D01*
X015104Y015054D01*
X015104Y015954D01*
X015102Y015971D01*
X015098Y015988D01*
X015091Y016004D01*
X015081Y016018D01*
X015068Y016031D01*
X015054Y016041D01*
X015038Y016048D01*
X015021Y016052D01*
X015004Y016054D01*
X014504Y016054D01*
X014487Y016052D01*
X014470Y016048D01*
X014454Y016041D01*
X014440Y016031D01*
X014427Y016018D01*
X014417Y016004D01*
X014410Y015988D01*
X014406Y015971D01*
X014404Y015954D01*
X014404Y015054D01*
X014406Y015037D01*
X014410Y015020D01*
X014417Y015004D01*
X014427Y014990D01*
X014440Y014977D01*
X014454Y014967D01*
X014470Y014960D01*
X014487Y014956D01*
X014504Y014954D01*
X014104Y015054D02*
X014104Y015954D01*
X014102Y015971D01*
X014098Y015988D01*
X014091Y016004D01*
X014081Y016018D01*
X014068Y016031D01*
X014054Y016041D01*
X014038Y016048D01*
X014021Y016052D01*
X014004Y016054D01*
X013504Y016054D01*
X013487Y016052D01*
X013470Y016048D01*
X013454Y016041D01*
X013440Y016031D01*
X013427Y016018D01*
X013417Y016004D01*
X013410Y015988D01*
X013406Y015971D01*
X013404Y015954D01*
X013404Y015054D01*
X013406Y015037D01*
X013410Y015020D01*
X013417Y015004D01*
X013427Y014990D01*
X013440Y014977D01*
X013454Y014967D01*
X013470Y014960D01*
X013487Y014956D01*
X013504Y014954D01*
X014004Y014954D01*
X014021Y014956D01*
X014038Y014960D01*
X014054Y014967D01*
X014068Y014977D01*
X014081Y014990D01*
X014091Y015004D01*
X014098Y015020D01*
X014102Y015037D01*
X014104Y015054D01*
X013104Y015054D02*
X013104Y015954D01*
X013102Y015971D01*
X013098Y015988D01*
X013091Y016004D01*
X013081Y016018D01*
X013068Y016031D01*
X013054Y016041D01*
X013038Y016048D01*
X013021Y016052D01*
X013004Y016054D01*
X012504Y016054D01*
X012487Y016052D01*
X012470Y016048D01*
X012454Y016041D01*
X012440Y016031D01*
X012427Y016018D01*
X012417Y016004D01*
X012410Y015988D01*
X012406Y015971D01*
X012404Y015954D01*
X012404Y015054D01*
X012406Y015037D01*
X012410Y015020D01*
X012417Y015004D01*
X012427Y014990D01*
X012440Y014977D01*
X012454Y014967D01*
X012470Y014960D01*
X012487Y014956D01*
X012504Y014954D01*
X013004Y014954D01*
X013021Y014956D01*
X013038Y014960D01*
X013054Y014967D01*
X013068Y014977D01*
X013081Y014990D01*
X013091Y015004D01*
X013098Y015020D01*
X013102Y015037D01*
X013104Y015054D01*
X012104Y015054D02*
X012104Y015954D01*
X012102Y015971D01*
X012098Y015988D01*
X012091Y016004D01*
X012081Y016018D01*
X012068Y016031D01*
X012054Y016041D01*
X012038Y016048D01*
X012021Y016052D01*
X012004Y016054D01*
X011504Y016054D01*
X011487Y016052D01*
X011470Y016048D01*
X011454Y016041D01*
X011440Y016031D01*
X011427Y016018D01*
X011417Y016004D01*
X011410Y015988D01*
X011406Y015971D01*
X011404Y015954D01*
X011404Y015054D01*
X011406Y015037D01*
X011410Y015020D01*
X011417Y015004D01*
X011427Y014990D01*
X011440Y014977D01*
X011454Y014967D01*
X011470Y014960D01*
X011487Y014956D01*
X011504Y014954D01*
X012004Y014954D01*
X012021Y014956D01*
X012038Y014960D01*
X012054Y014967D01*
X012068Y014977D01*
X012081Y014990D01*
X012091Y015004D01*
X012098Y015020D01*
X012102Y015037D01*
X012104Y015054D01*
X015254Y012554D02*
X015254Y007954D01*
X015754Y007954D01*
X016754Y007954D02*
X017254Y007954D01*
X017254Y012554D01*
X016754Y012554D01*
X015754Y012554D02*
X015254Y012554D01*
X015504Y014954D02*
X016004Y014954D01*
X016021Y014956D01*
X016038Y014960D01*
X016054Y014967D01*
X016068Y014977D01*
X016081Y014990D01*
X016091Y015004D01*
X016098Y015020D01*
X016102Y015037D01*
X016104Y015054D01*
X016104Y015954D01*
X016102Y015971D01*
X016098Y015988D01*
X016091Y016004D01*
X016081Y016018D01*
X016068Y016031D01*
X016054Y016041D01*
X016038Y016048D01*
X016021Y016052D01*
X016004Y016054D01*
X015504Y016054D01*
X015487Y016052D01*
X015470Y016048D01*
X015454Y016041D01*
X015440Y016031D01*
X015427Y016018D01*
X015417Y016004D01*
X015410Y015988D01*
X015406Y015971D01*
X015404Y015954D01*
X015404Y015054D01*
X015406Y015037D01*
X015410Y015020D01*
X015417Y015004D01*
X015427Y014990D01*
X015440Y014977D01*
X015454Y014967D01*
X015470Y014960D01*
X015487Y014956D01*
X015504Y014954D01*
X009074Y008524D02*
X007774Y008524D01*
X007424Y008124D02*
X007424Y007124D01*
X007774Y006724D02*
X009074Y006724D01*
X009424Y007124D02*
X009424Y008124D01*
X008030Y007624D02*
X008032Y007663D01*
X008038Y007702D01*
X008048Y007740D01*
X008061Y007777D01*
X008078Y007812D01*
X008098Y007846D01*
X008122Y007877D01*
X008149Y007906D01*
X008178Y007932D01*
X008210Y007955D01*
X008244Y007975D01*
X008280Y007991D01*
X008317Y008003D01*
X008356Y008012D01*
X008395Y008017D01*
X008434Y008018D01*
X008473Y008015D01*
X008512Y008008D01*
X008549Y007997D01*
X008586Y007983D01*
X008621Y007965D01*
X008654Y007944D01*
X008685Y007919D01*
X008713Y007892D01*
X008738Y007862D01*
X008760Y007829D01*
X008779Y007795D01*
X008794Y007759D01*
X008806Y007721D01*
X008814Y007683D01*
X008818Y007644D01*
X008818Y007604D01*
X008814Y007565D01*
X008806Y007527D01*
X008794Y007489D01*
X008779Y007453D01*
X008760Y007419D01*
X008738Y007386D01*
X008713Y007356D01*
X008685Y007329D01*
X008654Y007304D01*
X008621Y007283D01*
X008586Y007265D01*
X008549Y007251D01*
X008512Y007240D01*
X008473Y007233D01*
X008434Y007230D01*
X008395Y007231D01*
X008356Y007236D01*
X008317Y007245D01*
X008280Y007257D01*
X008244Y007273D01*
X008210Y007293D01*
X008178Y007316D01*
X008149Y007342D01*
X008122Y007371D01*
X008098Y007402D01*
X008078Y007436D01*
X008061Y007471D01*
X008048Y007508D01*
X008038Y007546D01*
X008032Y007585D01*
X008030Y007624D01*
X007832Y007624D02*
X007834Y007672D01*
X007840Y007720D01*
X007850Y007767D01*
X007863Y007814D01*
X007881Y007859D01*
X007902Y007902D01*
X007926Y007944D01*
X007954Y007984D01*
X007985Y008021D01*
X008018Y008055D01*
X008055Y008087D01*
X008094Y008115D01*
X008135Y008141D01*
X008178Y008163D01*
X008223Y008181D01*
X008269Y008195D01*
X008316Y008206D01*
X008364Y008213D01*
X008412Y008216D01*
X008460Y008215D01*
X008508Y008210D01*
X008556Y008201D01*
X008602Y008188D01*
X008648Y008172D01*
X008692Y008152D01*
X008734Y008128D01*
X008774Y008102D01*
X008812Y008071D01*
X008847Y008038D01*
X008879Y008002D01*
X008909Y007964D01*
X008935Y007923D01*
X008957Y007881D01*
X008977Y007837D01*
X008992Y007791D01*
X009004Y007744D01*
X009012Y007696D01*
X009016Y007648D01*
X009016Y007600D01*
X009012Y007552D01*
X009004Y007504D01*
X008992Y007457D01*
X008977Y007411D01*
X008957Y007367D01*
X008935Y007325D01*
X008909Y007284D01*
X008879Y007246D01*
X008847Y007210D01*
X008812Y007177D01*
X008774Y007146D01*
X008734Y007120D01*
X008692Y007096D01*
X008648Y007076D01*
X008602Y007060D01*
X008556Y007047D01*
X008508Y007038D01*
X008460Y007033D01*
X008412Y007032D01*
X008364Y007035D01*
X008316Y007042D01*
X008269Y007053D01*
X008223Y007067D01*
X008178Y007085D01*
X008135Y007107D01*
X008094Y007133D01*
X008055Y007161D01*
X008018Y007193D01*
X007985Y007227D01*
X007954Y007264D01*
X007926Y007304D01*
X007902Y007346D01*
X007881Y007389D01*
X007863Y007434D01*
X007850Y007481D01*
X007840Y007528D01*
X007834Y007576D01*
X007832Y007624D01*
X008220Y004677D02*
X008654Y004677D01*
X008969Y003654D02*
X008969Y003220D01*
X008969Y002118D02*
X008969Y001252D01*
X005819Y001055D02*
X005819Y002118D01*
X005819Y003220D02*
X005819Y003654D01*
X006134Y004677D02*
X006567Y004677D01*
X006754Y015954D02*
X007254Y015954D01*
X007271Y015956D01*
X007288Y015960D01*
X007304Y015967D01*
X007318Y015977D01*
X007331Y015990D01*
X007341Y016004D01*
X007348Y016020D01*
X007352Y016037D01*
X007354Y016054D01*
X007354Y016954D01*
X007352Y016971D01*
X007348Y016988D01*
X007341Y017004D01*
X007331Y017018D01*
X007318Y017031D01*
X007304Y017041D01*
X007288Y017048D01*
X007271Y017052D01*
X007254Y017054D01*
X006754Y017054D01*
X006737Y017052D01*
X006720Y017048D01*
X006704Y017041D01*
X006690Y017031D01*
X006677Y017018D01*
X006667Y017004D01*
X006660Y016988D01*
X006656Y016971D01*
X006654Y016954D01*
X006654Y016054D01*
X006656Y016037D01*
X006660Y016020D01*
X006667Y016004D01*
X006677Y015990D01*
X006690Y015977D01*
X006704Y015967D01*
X006720Y015960D01*
X006737Y015956D01*
X006754Y015954D01*
X006354Y016054D02*
X006354Y016954D01*
X006352Y016971D01*
X006348Y016988D01*
X006341Y017004D01*
X006331Y017018D01*
X006318Y017031D01*
X006304Y017041D01*
X006288Y017048D01*
X006271Y017052D01*
X006254Y017054D01*
X005754Y017054D01*
X005737Y017052D01*
X005720Y017048D01*
X005704Y017041D01*
X005690Y017031D01*
X005677Y017018D01*
X005667Y017004D01*
X005660Y016988D01*
X005656Y016971D01*
X005654Y016954D01*
X005654Y016054D01*
X005656Y016037D01*
X005660Y016020D01*
X005667Y016004D01*
X005677Y015990D01*
X005690Y015977D01*
X005704Y015967D01*
X005720Y015960D01*
X005737Y015956D01*
X005754Y015954D01*
X006254Y015954D01*
X006271Y015956D01*
X006288Y015960D01*
X006304Y015967D01*
X006318Y015977D01*
X006331Y015990D01*
X006341Y016004D01*
X006348Y016020D01*
X006352Y016037D01*
X006354Y016054D01*
X005354Y016054D02*
X005354Y016954D01*
X005352Y016971D01*
X005348Y016988D01*
X005341Y017004D01*
X005331Y017018D01*
X005318Y017031D01*
X005304Y017041D01*
X005288Y017048D01*
X005271Y017052D01*
X005254Y017054D01*
X004754Y017054D01*
X004737Y017052D01*
X004720Y017048D01*
X004704Y017041D01*
X004690Y017031D01*
X004677Y017018D01*
X004667Y017004D01*
X004660Y016988D01*
X004656Y016971D01*
X004654Y016954D01*
X004654Y016054D01*
X004656Y016037D01*
X004660Y016020D01*
X004667Y016004D01*
X004677Y015990D01*
X004690Y015977D01*
X004704Y015967D01*
X004720Y015960D01*
X004737Y015956D01*
X004754Y015954D01*
X005254Y015954D01*
X005271Y015956D01*
X005288Y015960D01*
X005304Y015967D01*
X005318Y015977D01*
X005331Y015990D01*
X005341Y016004D01*
X005348Y016020D01*
X005352Y016037D01*
X005354Y016054D01*
X004354Y016054D02*
X004354Y016954D01*
X004352Y016971D01*
X004348Y016988D01*
X004341Y017004D01*
X004331Y017018D01*
X004318Y017031D01*
X004304Y017041D01*
X004288Y017048D01*
X004271Y017052D01*
X004254Y017054D01*
X003754Y017054D01*
X003737Y017052D01*
X003720Y017048D01*
X003704Y017041D01*
X003690Y017031D01*
X003677Y017018D01*
X003667Y017004D01*
X003660Y016988D01*
X003656Y016971D01*
X003654Y016954D01*
X003654Y016054D01*
X003656Y016037D01*
X003660Y016020D01*
X003667Y016004D01*
X003677Y015990D01*
X003690Y015977D01*
X003704Y015967D01*
X003720Y015960D01*
X003737Y015956D01*
X003754Y015954D01*
X004254Y015954D01*
X004271Y015956D01*
X004288Y015960D01*
X004304Y015967D01*
X004318Y015977D01*
X004331Y015990D01*
X004341Y016004D01*
X004348Y016020D01*
X004352Y016037D01*
X004354Y016054D01*
X007654Y016054D02*
X007654Y016954D01*
X007656Y016971D01*
X007660Y016988D01*
X007667Y017004D01*
X007677Y017018D01*
X007690Y017031D01*
X007704Y017041D01*
X007720Y017048D01*
X007737Y017052D01*
X007754Y017054D01*
X008254Y017054D01*
X008271Y017052D01*
X008288Y017048D01*
X008304Y017041D01*
X008318Y017031D01*
X008331Y017018D01*
X008341Y017004D01*
X008348Y016988D01*
X008352Y016971D01*
X008354Y016954D01*
X008354Y016054D01*
X008352Y016037D01*
X008348Y016020D01*
X008341Y016004D01*
X008331Y015990D01*
X008318Y015977D01*
X008304Y015967D01*
X008288Y015960D01*
X008271Y015956D01*
X008254Y015954D01*
X007754Y015954D01*
X007737Y015956D01*
X007720Y015960D01*
X007704Y015967D01*
X007690Y015977D01*
X007677Y015990D01*
X007667Y016004D01*
X007660Y016020D01*
X007656Y016037D01*
X007654Y016054D01*
D18*
X007414Y006266D02*
X007414Y006066D01*
X007439Y006091D02*
X007389Y006091D01*
X007364Y006116D01*
X007364Y006141D01*
X007389Y006166D01*
X007439Y006166D01*
X007464Y006191D01*
X007464Y006216D01*
X007439Y006241D01*
X007389Y006241D01*
X007364Y006216D01*
X007316Y006241D02*
X007316Y006166D01*
X007266Y006191D01*
X007241Y006191D01*
X007216Y006166D01*
X007216Y006116D01*
X007241Y006091D01*
X007291Y006091D01*
X007316Y006116D01*
X007439Y006091D02*
X007464Y006116D01*
X007511Y006116D02*
X007511Y006241D01*
X007611Y006241D02*
X007611Y006116D01*
X007586Y006091D01*
X007536Y006091D01*
X007511Y006116D01*
X007316Y006241D02*
X007216Y006241D01*
D19*
X013104Y001157D03*
D20*
X013104Y001170D03*
D21*
X013110Y001183D03*
D22*
X013117Y001196D03*
D23*
X013123Y001209D03*
D24*
X013130Y001222D03*
D25*
X013130Y001235D03*
D26*
X013130Y001248D03*
D27*
X013143Y001261D03*
D28*
X013143Y001274D03*
D29*
X013143Y001287D03*
D30*
X013156Y001300D03*
D31*
X013156Y001313D03*
X012038Y002769D03*
D32*
X013156Y001326D03*
X013962Y004082D03*
X013962Y004108D03*
X013962Y004121D03*
X013962Y004134D03*
D33*
X014397Y003991D03*
X014397Y003978D03*
X014410Y003887D03*
X014410Y003874D03*
X014410Y003861D03*
X014423Y003796D03*
X014423Y003783D03*
X014423Y003757D03*
X014462Y003497D03*
X014462Y003484D03*
X014462Y003471D03*
X014462Y003458D03*
X013890Y003484D03*
X013890Y003497D03*
X013890Y003523D03*
X013890Y003536D03*
X013890Y003549D03*
X013903Y003588D03*
X013903Y003601D03*
X013903Y003614D03*
X013903Y003627D03*
X013877Y003458D03*
X013877Y001872D03*
X013825Y001833D03*
X013162Y001339D03*
D34*
X013169Y001352D03*
X013247Y001404D03*
X013299Y001443D03*
X013312Y001456D03*
X013377Y001508D03*
X013429Y001547D03*
X013494Y001586D03*
X013507Y001599D03*
X013559Y001638D03*
X013689Y001729D03*
X013702Y001742D03*
X013754Y001781D03*
X013767Y001794D03*
X013949Y001924D03*
X013962Y001937D03*
X013884Y003471D03*
D35*
X013806Y001820D03*
X013546Y001625D03*
X013455Y001560D03*
X013273Y001430D03*
X013195Y001365D03*
D36*
X013208Y001378D03*
X013221Y001391D03*
X013260Y001417D03*
X013325Y001469D03*
X013403Y001521D03*
X013416Y001534D03*
X013533Y001612D03*
X013585Y001651D03*
X013598Y001664D03*
X013611Y001677D03*
X013650Y001703D03*
X013741Y001768D03*
X013793Y001807D03*
X013845Y001846D03*
X013858Y001859D03*
X013910Y001898D03*
X012805Y003926D03*
X012805Y003939D03*
X012363Y004251D03*
X012363Y004264D03*
D37*
X013916Y003731D03*
X013916Y003718D03*
X014436Y003692D03*
X014436Y003679D03*
X014436Y003666D03*
X014436Y003653D03*
X014449Y003601D03*
X014449Y003588D03*
X014449Y003562D03*
X014449Y003549D03*
X014449Y003536D03*
X014449Y003523D03*
X014384Y004056D03*
X014384Y004069D03*
X014384Y004082D03*
X013929Y001911D03*
X013669Y001716D03*
X013474Y001573D03*
X013344Y001482D03*
D38*
X013364Y001495D03*
X013637Y001690D03*
X013897Y001885D03*
D39*
X013721Y001755D03*
X014449Y003575D03*
X014436Y003705D03*
X014384Y004095D03*
D40*
X014742Y001950D03*
D41*
X014878Y002145D03*
X012148Y002145D03*
X012148Y002080D03*
X012148Y002015D03*
X012148Y001950D03*
X012148Y005330D03*
X012148Y005460D03*
X012148Y005525D03*
D42*
X014748Y001963D03*
D43*
X012148Y001976D03*
X012148Y001989D03*
X012148Y002002D03*
X012148Y002028D03*
X012148Y002041D03*
X012148Y002054D03*
X012148Y002067D03*
X012148Y002093D03*
X012148Y002106D03*
X012148Y002119D03*
X012148Y002132D03*
X012148Y002158D03*
X012148Y002171D03*
X012148Y002184D03*
X012148Y002197D03*
X012148Y001963D03*
X012148Y005278D03*
X012148Y005291D03*
X012148Y005304D03*
X012148Y005317D03*
X012148Y005343D03*
X012148Y005473D03*
X012148Y005486D03*
X012148Y005499D03*
X012148Y005512D03*
D44*
X014761Y001976D03*
D45*
X014768Y001989D03*
D46*
X014781Y002002D03*
D47*
X014787Y002015D03*
D48*
X014800Y002028D03*
D49*
X014807Y002041D03*
D50*
X014820Y002054D03*
D51*
X014826Y002067D03*
D52*
X014833Y002080D03*
D53*
X014839Y002093D03*
D54*
X014852Y002106D03*
D55*
X014859Y002119D03*
D56*
X014872Y002132D03*
D57*
X014885Y002158D03*
D58*
X014898Y002171D03*
D59*
X014904Y002184D03*
D60*
X014917Y002197D03*
D61*
X015580Y002210D03*
X015580Y002275D03*
X015580Y002340D03*
X015580Y002405D03*
X015580Y002470D03*
X015580Y002535D03*
X015580Y002600D03*
X015580Y002665D03*
X015580Y002730D03*
X015580Y004615D03*
X015580Y004680D03*
X015580Y004745D03*
X015580Y004810D03*
X015580Y004875D03*
X015580Y004940D03*
X015580Y005005D03*
X015580Y005070D03*
X015580Y005135D03*
X015580Y005200D03*
X015580Y005265D03*
D62*
X011440Y005265D03*
X011440Y005200D03*
X011440Y005135D03*
X011440Y005070D03*
X011440Y005005D03*
X011440Y004940D03*
X011440Y004875D03*
X011440Y004810D03*
X011440Y004745D03*
X011440Y004680D03*
X011440Y004615D03*
X011440Y004550D03*
X011440Y004485D03*
X011440Y004420D03*
X011440Y004355D03*
X011440Y004030D03*
X011440Y003965D03*
X011440Y003900D03*
X011440Y003835D03*
X011440Y003770D03*
X011440Y003705D03*
X011440Y003640D03*
X011440Y002925D03*
X011440Y002860D03*
X011440Y002795D03*
X011440Y002730D03*
X011440Y002665D03*
X011440Y002600D03*
X011440Y002535D03*
X011440Y002470D03*
X011440Y002405D03*
X011440Y002340D03*
X011440Y002275D03*
X011440Y002210D03*
D63*
X015580Y002223D03*
X015580Y002236D03*
X015580Y002249D03*
X015580Y002262D03*
X015580Y002288D03*
X015580Y002301D03*
X015580Y002314D03*
X015580Y002327D03*
X015580Y002353D03*
X015580Y002366D03*
X015580Y002379D03*
X015580Y002392D03*
X015580Y002418D03*
X015580Y002431D03*
X015580Y002444D03*
X015580Y002457D03*
X015580Y002483D03*
X015580Y002496D03*
X015580Y002509D03*
X015580Y002522D03*
X015580Y002548D03*
X015580Y002561D03*
X015580Y002574D03*
X015580Y002587D03*
X015580Y002613D03*
X015580Y002626D03*
X015580Y002639D03*
X015580Y002652D03*
X015580Y002678D03*
X015580Y002691D03*
X015580Y002704D03*
X015580Y002717D03*
X015580Y002743D03*
X015580Y002756D03*
X015580Y002769D03*
X015580Y002782D03*
X015580Y004602D03*
X015580Y004628D03*
X015580Y004641D03*
X015580Y004654D03*
X015580Y004667D03*
X015580Y004693D03*
X015580Y004706D03*
X015580Y004719D03*
X015580Y004732D03*
X015580Y004758D03*
X015580Y004771D03*
X015580Y004784D03*
X015580Y004797D03*
X015580Y004823D03*
X015580Y004836D03*
X015580Y004849D03*
X015580Y004862D03*
X015580Y004888D03*
X015580Y004901D03*
X015580Y004914D03*
X015580Y004927D03*
X015580Y004953D03*
X015580Y004966D03*
X015580Y004979D03*
X015580Y004992D03*
X015580Y005018D03*
X015580Y005031D03*
X015580Y005044D03*
X015580Y005057D03*
X015580Y005083D03*
X015580Y005096D03*
X015580Y005109D03*
X015580Y005122D03*
X015580Y005148D03*
X015580Y005161D03*
X015580Y005174D03*
X015580Y005187D03*
X015580Y005213D03*
X015580Y005226D03*
X015580Y005239D03*
X015580Y005252D03*
D64*
X011440Y005252D03*
X011440Y005239D03*
X011440Y005226D03*
X011440Y005213D03*
X011440Y005187D03*
X011440Y005174D03*
X011440Y005161D03*
X011440Y005148D03*
X011440Y005122D03*
X011440Y005109D03*
X011440Y005096D03*
X011440Y005083D03*
X011440Y005057D03*
X011440Y005044D03*
X011440Y005031D03*
X011440Y005018D03*
X011440Y004992D03*
X011440Y004979D03*
X011440Y004966D03*
X011440Y004953D03*
X011440Y004927D03*
X011440Y004914D03*
X011440Y004901D03*
X011440Y004888D03*
X011440Y004862D03*
X011440Y004849D03*
X011440Y004836D03*
X011440Y004823D03*
X011440Y004797D03*
X011440Y004784D03*
X011440Y004771D03*
X011440Y004758D03*
X011440Y004732D03*
X011440Y004719D03*
X011440Y004706D03*
X011440Y004693D03*
X011440Y004667D03*
X011440Y004654D03*
X011440Y004641D03*
X011440Y004628D03*
X011440Y004602D03*
X011440Y004589D03*
X011440Y004576D03*
X011440Y004563D03*
X011440Y004537D03*
X011440Y004524D03*
X011440Y004511D03*
X011440Y004498D03*
X011440Y004472D03*
X011440Y004459D03*
X011440Y004446D03*
X011440Y004433D03*
X011440Y004407D03*
X011440Y004394D03*
X011440Y004381D03*
X011440Y004368D03*
X011440Y004342D03*
X011440Y004329D03*
X011440Y004043D03*
X011440Y004017D03*
X011440Y004004D03*
X011440Y003991D03*
X011440Y003978D03*
X011440Y003952D03*
X011440Y003939D03*
X011440Y003926D03*
X011440Y003913D03*
X011440Y003887D03*
X011440Y003874D03*
X011440Y003861D03*
X011440Y003848D03*
X011440Y003822D03*
X011440Y003809D03*
X011440Y003796D03*
X011440Y003783D03*
X011440Y003757D03*
X011440Y003744D03*
X011440Y003731D03*
X011440Y003718D03*
X011440Y003692D03*
X011440Y003679D03*
X011440Y003666D03*
X011440Y003653D03*
X011440Y003627D03*
X011440Y003614D03*
X011440Y003601D03*
X011440Y003588D03*
X011440Y002938D03*
X011440Y002912D03*
X011440Y002899D03*
X011440Y002886D03*
X011440Y002873D03*
X011440Y002847D03*
X011440Y002834D03*
X011440Y002821D03*
X011440Y002808D03*
X011440Y002782D03*
X011440Y002769D03*
X011440Y002756D03*
X011440Y002743D03*
X011440Y002717D03*
X011440Y002704D03*
X011440Y002691D03*
X011440Y002678D03*
X011440Y002652D03*
X011440Y002639D03*
X011440Y002626D03*
X011440Y002613D03*
X011440Y002587D03*
X011440Y002574D03*
X011440Y002561D03*
X011440Y002548D03*
X011440Y002522D03*
X011440Y002509D03*
X011440Y002496D03*
X011440Y002483D03*
X011440Y002457D03*
X011440Y002444D03*
X011440Y002431D03*
X011440Y002418D03*
X011440Y002392D03*
X011440Y002379D03*
X011440Y002366D03*
X011440Y002353D03*
X011440Y002327D03*
X011440Y002314D03*
X011440Y002301D03*
X011440Y002288D03*
X011440Y002262D03*
X011440Y002249D03*
X011440Y002236D03*
X011440Y002223D03*
D65*
X012038Y002756D03*
D66*
X012038Y002782D03*
X012779Y003497D03*
X012779Y003523D03*
X012792Y003562D03*
X012818Y004264D03*
X012350Y004303D03*
D67*
X014995Y002795D03*
D68*
X013468Y002795D03*
D69*
X012031Y002795D03*
D70*
X013344Y002873D03*
X014995Y002821D03*
X014995Y002808D03*
D71*
X013403Y002808D03*
D72*
X012038Y002808D03*
D73*
X013383Y002821D03*
D74*
X012233Y003887D03*
X012038Y002821D03*
D75*
X014989Y002834D03*
X014989Y002847D03*
X014989Y002873D03*
X014989Y002886D03*
X014989Y002899D03*
X014989Y002912D03*
X014989Y002938D03*
X014989Y002951D03*
X014989Y002964D03*
D76*
X013370Y002834D03*
D77*
X012038Y002834D03*
X011661Y003068D03*
X011661Y003406D03*
X011921Y003601D03*
X011661Y004303D03*
X014183Y004511D03*
X014183Y004524D03*
X014183Y004537D03*
X014183Y004563D03*
X014183Y004576D03*
D78*
X013357Y002847D03*
D79*
X012038Y002847D03*
X011674Y003432D03*
X011947Y003627D03*
X012168Y003822D03*
X014183Y004433D03*
X014183Y004446D03*
X014183Y004459D03*
X014183Y004472D03*
X015353Y004472D03*
X015353Y004459D03*
X015353Y004446D03*
X015353Y004433D03*
X015353Y004407D03*
X015353Y004394D03*
X015353Y004381D03*
X015353Y004368D03*
X015353Y004342D03*
X015353Y004329D03*
X015353Y004316D03*
X015353Y004303D03*
X015353Y004277D03*
X015353Y004264D03*
X015353Y004251D03*
X015353Y004238D03*
X015353Y004212D03*
X015353Y004199D03*
X015353Y004186D03*
X015353Y004173D03*
X015353Y004147D03*
X015353Y004134D03*
X015353Y004121D03*
X015353Y004108D03*
X015353Y004082D03*
X015353Y004069D03*
X015353Y004056D03*
X015353Y004043D03*
X015353Y004017D03*
X015353Y004004D03*
X015353Y003991D03*
X015353Y003978D03*
X015353Y003952D03*
X015353Y003939D03*
X015353Y003926D03*
X015353Y003913D03*
X015353Y003887D03*
X015353Y003874D03*
X015353Y003861D03*
X015353Y003848D03*
X015353Y003822D03*
X015353Y003809D03*
X015353Y003796D03*
X015353Y003783D03*
X015353Y003757D03*
X015353Y003744D03*
X015353Y003731D03*
X015353Y003718D03*
X015353Y003692D03*
X015353Y003679D03*
X015353Y003666D03*
X015353Y003653D03*
X015353Y003627D03*
X015353Y003614D03*
X015353Y003601D03*
X015353Y003588D03*
X015353Y003562D03*
X015353Y003549D03*
X015353Y003536D03*
X015353Y003523D03*
X015353Y003497D03*
X015353Y003484D03*
X015353Y003471D03*
X015353Y003458D03*
X015353Y003432D03*
X015353Y003419D03*
X015353Y003406D03*
X015353Y003393D03*
X015353Y003367D03*
X015353Y003354D03*
X015353Y003341D03*
X015353Y003328D03*
X015353Y003302D03*
X015353Y003289D03*
X015353Y003276D03*
X015353Y003263D03*
X015353Y003237D03*
X015353Y003224D03*
X015353Y003211D03*
X015353Y003198D03*
X015353Y003172D03*
X015353Y003159D03*
X015353Y004498D03*
X015353Y004511D03*
X015353Y004524D03*
X015353Y004537D03*
X015353Y004563D03*
X015353Y004576D03*
X015353Y004589D03*
D80*
X014989Y002925D03*
X014989Y002860D03*
D81*
X013351Y002860D03*
D82*
X012038Y002860D03*
D83*
X012038Y002873D03*
X011713Y003497D03*
X014183Y004173D03*
X014183Y004186D03*
D84*
X013338Y002886D03*
D85*
X012038Y002886D03*
D86*
X013331Y002899D03*
D87*
X012571Y003172D03*
X012571Y003198D03*
X012571Y003211D03*
X012571Y003224D03*
X012571Y003237D03*
X012571Y003263D03*
X012571Y003276D03*
X012571Y003289D03*
X012571Y003302D03*
X012571Y003328D03*
X012571Y003341D03*
X012571Y003354D03*
X012571Y003367D03*
X012571Y003393D03*
X012571Y003406D03*
X012571Y003419D03*
X012571Y003432D03*
X012038Y002899D03*
X012571Y004056D03*
X012571Y004069D03*
X012571Y004082D03*
D88*
X013325Y002912D03*
D89*
X012564Y004043D03*
X012031Y002912D03*
D90*
X013325Y002925D03*
D91*
X012558Y004030D03*
X012038Y002925D03*
D92*
X013318Y002938D03*
X013318Y002951D03*
D93*
X012038Y002938D03*
D94*
X011914Y002951D03*
X011914Y002964D03*
D95*
X013312Y002964D03*
X013312Y002977D03*
D96*
X014982Y002977D03*
X014982Y003003D03*
X014982Y003016D03*
X014982Y003029D03*
X014982Y003042D03*
X014982Y003068D03*
X014982Y003081D03*
X014982Y003094D03*
X014982Y003107D03*
D97*
X011921Y002977D03*
D98*
X014982Y002990D03*
X014982Y003055D03*
D99*
X013318Y002990D03*
D100*
X011921Y002990D03*
D101*
X013312Y003003D03*
X013312Y003016D03*
X013312Y003029D03*
D102*
X011927Y003029D03*
X011927Y003016D03*
X011927Y003003D03*
D103*
X012694Y003042D03*
D104*
X013078Y003055D03*
D105*
X011960Y003640D03*
X011674Y003055D03*
X014183Y004420D03*
X015353Y004420D03*
X015353Y004485D03*
X015353Y004550D03*
X015353Y004355D03*
X015353Y004290D03*
X015353Y004225D03*
X015353Y004160D03*
X015353Y004095D03*
X015353Y004030D03*
X015353Y003965D03*
X015353Y003900D03*
X015353Y003835D03*
X015353Y003770D03*
X015353Y003705D03*
X015353Y003640D03*
X015353Y003575D03*
X015353Y003510D03*
X015353Y003445D03*
X015353Y003380D03*
X015353Y003315D03*
X015353Y003250D03*
X015353Y003185D03*
D106*
X013091Y003068D03*
D107*
X013097Y003081D03*
X013097Y003094D03*
D108*
X011654Y003081D03*
X011654Y003393D03*
X011654Y004056D03*
X011654Y004069D03*
X011654Y004082D03*
X011654Y004108D03*
X011654Y004121D03*
X011654Y004134D03*
X011654Y004147D03*
X011654Y004173D03*
X011654Y004186D03*
X011654Y004199D03*
X011654Y004212D03*
X011654Y004238D03*
X011654Y004251D03*
X011654Y004264D03*
X011654Y004277D03*
X014176Y004589D03*
D109*
X011908Y003588D03*
X011648Y003367D03*
X011648Y003354D03*
X011648Y003341D03*
X011648Y003107D03*
X011648Y003094D03*
D110*
X012551Y004017D03*
X012070Y004446D03*
X013175Y004511D03*
X013617Y003107D03*
D111*
X012603Y003107D03*
X012538Y003991D03*
X012070Y004433D03*
D112*
X014436Y003120D03*
D113*
X012590Y003120D03*
X011771Y003575D03*
D114*
X011641Y003315D03*
X011641Y003250D03*
X011641Y003185D03*
X011641Y003120D03*
D115*
X014436Y003133D03*
X014436Y003146D03*
D116*
X013182Y003783D03*
X012584Y003133D03*
X012064Y004459D03*
D117*
X012070Y004563D03*
X011641Y003328D03*
X011641Y003302D03*
X011641Y003289D03*
X011641Y003276D03*
X011641Y003263D03*
X011641Y003237D03*
X011641Y003224D03*
X011641Y003211D03*
X011641Y003198D03*
X011641Y003172D03*
X011641Y003159D03*
X011641Y003146D03*
X011641Y003133D03*
D118*
X011758Y003562D03*
X012577Y003159D03*
X012577Y003146D03*
X013188Y003744D03*
X013188Y004524D03*
X012070Y004472D03*
D119*
X013936Y003211D03*
X013936Y003198D03*
X013936Y003172D03*
X013936Y003159D03*
D120*
X013936Y003185D03*
D121*
X012571Y003185D03*
X012571Y003250D03*
X012571Y003315D03*
X012571Y003380D03*
D122*
X013104Y003614D03*
X014170Y003302D03*
X014170Y003289D03*
X014170Y003276D03*
X014170Y003263D03*
X014170Y003237D03*
X014170Y003224D03*
D123*
X013396Y003224D03*
X013396Y003237D03*
X013396Y003263D03*
X013396Y003276D03*
X013396Y003289D03*
X013396Y003302D03*
X013396Y003328D03*
X013396Y003341D03*
X013396Y003354D03*
X013396Y003367D03*
X013396Y003393D03*
X013396Y003406D03*
X013396Y003419D03*
X013396Y003432D03*
X013396Y003458D03*
X013396Y003471D03*
X013396Y003484D03*
X013396Y003497D03*
X013396Y003523D03*
X013396Y003536D03*
X013396Y003549D03*
X013396Y003562D03*
X013396Y003588D03*
X013396Y003601D03*
X013396Y003887D03*
X013396Y003913D03*
X013396Y003926D03*
X013396Y003939D03*
X013396Y003952D03*
X013396Y003978D03*
X013396Y003991D03*
X013396Y004004D03*
X013396Y004017D03*
X013396Y004043D03*
X013396Y004056D03*
X013396Y004069D03*
X013396Y004082D03*
X013396Y004108D03*
X013396Y004121D03*
X013396Y004134D03*
X013396Y004147D03*
X013396Y004173D03*
X013396Y004186D03*
X013396Y004199D03*
X013396Y004212D03*
X013396Y004238D03*
X013396Y004251D03*
X013396Y004264D03*
X013396Y004277D03*
X012772Y003484D03*
X012772Y003471D03*
X012772Y003458D03*
X012343Y004316D03*
D124*
X014170Y003250D03*
D125*
X013396Y003250D03*
X013396Y003315D03*
X013396Y003380D03*
X013396Y003445D03*
X013396Y003510D03*
X013396Y003575D03*
X013396Y003900D03*
X013396Y003965D03*
X013396Y004030D03*
X013396Y004095D03*
X013396Y004160D03*
X013396Y004225D03*
X012798Y003575D03*
X012772Y003445D03*
D126*
X013110Y003640D03*
X013110Y004290D03*
X014176Y003315D03*
D127*
X014170Y003328D03*
X014170Y003341D03*
X014170Y003354D03*
X014170Y003367D03*
X013117Y003653D03*
X013117Y004316D03*
X013117Y004329D03*
X013117Y004342D03*
D128*
X013117Y004355D03*
X014170Y003380D03*
D129*
X011648Y003380D03*
D130*
X014176Y003393D03*
X014176Y003406D03*
D131*
X014170Y003419D03*
X014170Y003432D03*
X013130Y003679D03*
X013130Y003848D03*
X013130Y004394D03*
X013130Y004407D03*
D132*
X014176Y004498D03*
X011667Y004316D03*
X011667Y003419D03*
D133*
X013877Y003445D03*
X013890Y003510D03*
X013903Y003640D03*
X014423Y003770D03*
X014397Y003965D03*
X014462Y003510D03*
X014462Y003445D03*
D134*
X011680Y003445D03*
D135*
X011687Y003458D03*
X011999Y003679D03*
X012129Y003783D03*
D136*
X012083Y003744D03*
X012070Y003731D03*
X012018Y003692D03*
X011693Y003471D03*
D137*
X011706Y003484D03*
X012070Y004524D03*
X014176Y004238D03*
X014176Y004212D03*
X014176Y004199D03*
D138*
X012779Y003510D03*
D139*
X011726Y003510D03*
D140*
X011732Y003523D03*
D141*
X012785Y003536D03*
X012785Y003549D03*
X012070Y004602D03*
D142*
X011745Y003536D03*
D143*
X011752Y003549D03*
X012584Y004212D03*
X012584Y004238D03*
D144*
X013936Y003887D03*
X013936Y003874D03*
X013936Y003861D03*
X013936Y003848D03*
X013910Y003692D03*
X013910Y003679D03*
X013910Y003666D03*
X013910Y003653D03*
X013897Y003562D03*
X014430Y003718D03*
X014430Y003731D03*
X014430Y003744D03*
X014417Y003809D03*
X014417Y003822D03*
X014417Y003848D03*
X014404Y003913D03*
X014404Y003926D03*
X014404Y003939D03*
X014404Y003952D03*
X014391Y004004D03*
X014391Y004017D03*
X014391Y004043D03*
D145*
X014391Y004030D03*
X014404Y003900D03*
X014417Y003835D03*
X013936Y003900D03*
X013910Y003705D03*
X013897Y003575D03*
D146*
X012831Y004277D03*
X012805Y003588D03*
D147*
X012844Y003601D03*
D148*
X013923Y003744D03*
X013923Y003757D03*
X013923Y003783D03*
X013923Y003796D03*
X013923Y003809D03*
X014378Y004108D03*
X014378Y004121D03*
X014378Y004134D03*
X014378Y004147D03*
X014443Y003627D03*
X014443Y003614D03*
D149*
X012194Y003848D03*
X011934Y003614D03*
D150*
X013110Y003627D03*
X013110Y004303D03*
D151*
X013923Y003770D03*
X014443Y003640D03*
D152*
X014176Y004394D03*
X014176Y004407D03*
X012148Y003809D03*
X011979Y003653D03*
D153*
X013123Y003666D03*
X013123Y003861D03*
X013123Y003874D03*
X013123Y004368D03*
X013123Y004381D03*
D154*
X013260Y004576D03*
X014183Y004381D03*
X014183Y004368D03*
X014183Y004342D03*
X011986Y003666D03*
D155*
X013136Y003692D03*
X013136Y004433D03*
D156*
X012519Y003965D03*
X013143Y003705D03*
D157*
X012031Y003705D03*
X014176Y004290D03*
D158*
X013156Y004472D03*
X013156Y003809D03*
X013156Y003718D03*
D159*
X012096Y003757D03*
X012044Y003718D03*
X014176Y004303D03*
X014176Y004316D03*
X014176Y004329D03*
D160*
X013169Y004498D03*
X013169Y003796D03*
X013169Y003731D03*
X012545Y004004D03*
D161*
X013208Y003757D03*
D162*
X013208Y003770D03*
D163*
X012116Y003770D03*
X014183Y004355D03*
D164*
X012070Y004537D03*
X012135Y003796D03*
D165*
X013929Y003822D03*
X013942Y003913D03*
X013942Y003926D03*
X013942Y003939D03*
X013942Y003952D03*
X013942Y003978D03*
X013955Y003991D03*
X013955Y004004D03*
X013955Y004017D03*
X013955Y004043D03*
X013955Y004056D03*
X013955Y004069D03*
X013968Y004147D03*
D166*
X013143Y004446D03*
X013143Y003822D03*
X012064Y004381D03*
D167*
X013955Y004030D03*
X013942Y003965D03*
X013929Y003835D03*
D168*
X013136Y003835D03*
X013136Y004420D03*
D169*
X014176Y004485D03*
X012174Y003835D03*
D170*
X012200Y003861D03*
D171*
X012220Y003874D03*
D172*
X012844Y003887D03*
D173*
X012824Y003900D03*
X012356Y004290D03*
D174*
X012239Y003900D03*
D175*
X012356Y004277D03*
X012811Y004251D03*
X012811Y003913D03*
D176*
X012259Y003913D03*
D177*
X012265Y003926D03*
X012070Y004576D03*
D178*
X012278Y003939D03*
D179*
X012519Y003952D03*
X012077Y004329D03*
D180*
X012532Y003978D03*
D181*
X013962Y004095D03*
D182*
X012577Y004095D03*
X012577Y004160D03*
D183*
X011654Y004160D03*
X011654Y004225D03*
X011654Y004095D03*
D184*
X012577Y004108D03*
X012577Y004121D03*
X012577Y004134D03*
X012577Y004147D03*
X012577Y004173D03*
X012577Y004186D03*
X012577Y004199D03*
X013201Y004537D03*
D185*
X014176Y004160D03*
D186*
X014176Y004225D03*
D187*
X012584Y004225D03*
D188*
X014183Y004251D03*
X014183Y004264D03*
X014183Y004277D03*
D189*
X014183Y004550D03*
X011661Y004290D03*
D190*
X012070Y004342D03*
X012070Y004368D03*
D191*
X012070Y004355D03*
D192*
X012070Y004394D03*
X012070Y004407D03*
D193*
X012064Y004420D03*
D194*
X013149Y004459D03*
D195*
X013162Y004485D03*
D196*
X012070Y004485D03*
D197*
X012070Y004498D03*
D198*
X012070Y004511D03*
D199*
X013214Y004550D03*
D200*
X012070Y004550D03*
D201*
X013234Y004563D03*
D202*
X013318Y004589D03*
D203*
X012070Y004589D03*
D204*
X012070Y004615D03*
D205*
X012077Y004628D03*
D206*
X014950Y005278D03*
X014950Y005291D03*
X014950Y005304D03*
X014950Y005317D03*
X014950Y005343D03*
X014950Y005473D03*
X014950Y005486D03*
X014950Y005499D03*
X014950Y005512D03*
D207*
X014950Y005525D03*
X014950Y005460D03*
X014950Y005330D03*
D208*
X013513Y005356D03*
X013513Y005369D03*
X013513Y005382D03*
X013513Y005408D03*
X013513Y005421D03*
X013513Y005434D03*
X013513Y005447D03*
D209*
X013513Y005395D03*
M02*
